<svg width="24" height="24" viewBox="0 0 24 24" fill="none" xmlns="http://www.w3.org/2000/svg">
<g clip-path="url(#clip0_1214_71879)">
<path d="M13 11C13 10.262 12.595 9.624 12 9.277V5C12 4.448 11.552 4 11 4C10.448 4 10 4.448 10 5V9.277C9.405 9.623 9 10.261 9 11C9 12.105 9.895 13 11 13C12.105 13 13 12.105 13 11Z" fill="url(#paint0_linear_1214_71879)"/>
<path d="M18 11.998C14.686 11.998 12 14.684 12 17.998C12 21.312 14.686 23.998 18 23.998C21.314 23.998 24 21.312 24 17.998C24 14.684 21.314 11.998 18 11.998ZM20.731 19.49L18.907 22.129C18.596 22.579 17.981 22.695 17.528 22.389C17.066 22.078 16.948 21.448 17.266 20.991L18.651 19H16.616C16.107 19 15.622 18.756 15.319 18.348C15.016 17.939 14.923 17.404 15.07 16.917L16.995 13.907C17.3 13.442 17.925 13.314 18.388 13.623C18.845 13.928 18.971 14.543 18.671 15.003L17.368 17.001H19.397C19.989 17.001 20.53 17.325 20.81 17.847C21.09 18.369 21.06 18.998 20.733 19.492L20.731 19.49Z" fill="url(#paint1_linear_1214_71879)"/>
<path d="M6.70975 16.6074L5.77575 17.4144C5.45275 17.6924 4.96375 17.6814 4.66575 17.3854C2.66075 15.3994 1.71575 12.6414 2.07475 9.81938C2.58775 5.77738 5.90275 2.51438 9.95375 2.05938C15.0537 1.49538 19.4497 5.13238 19.9527 10.0794C20.0087 10.6284 20.4958 11.0254 21.0487 10.9734C21.5977 10.9174 21.9988 10.4264 21.9428 9.87738C21.3288 3.83138 15.8987 -0.617622 9.73175 0.0713783C4.77375 0.627378 0.71875 4.62138 0.0907495 9.56738C-0.34625 13.0124 0.80875 16.3794 3.25875 18.8064C3.79975 19.3424 4.51575 19.6134 5.23475 19.6134C5.89275 19.6134 6.55375 19.3854 7.08375 18.9274L8.01675 18.1204C8.43475 17.7594 8.48075 17.1274 8.11975 16.7104C7.75775 16.2924 7.12675 16.2464 6.70975 16.6074Z" fill="url(#paint2_linear_1214_71879)"/>
</g>
<defs>
<linearGradient id="paint0_linear_1214_71879" x1="9" y1="4" x2="13.7902" y2="4.44229" gradientUnits="userSpaceOnUse">
<stop stop-color="#369D9C"/>
<stop offset="1" stop-color="#28814D"/>
</linearGradient>
<linearGradient id="paint1_linear_1214_71879" x1="12" y1="11.998" x2="25.8934" y2="14.8844" gradientUnits="userSpaceOnUse">
<stop stop-color="#369D9C"/>
<stop offset="1" stop-color="#28814D"/>
</linearGradient>
<linearGradient id="paint2_linear_1214_71879" x1="0" y1="0.000976563" x2="25.1483" y2="5.84771" gradientUnits="userSpaceOnUse">
<stop stop-color="#369D9C"/>
<stop offset="1" stop-color="#28814D"/>
</linearGradient>
<clipPath id="clip0_1214_71879">
<rect width="24" height="24" fill="white"/>
</clipPath>
</defs>
</svg>
