<svg width="24" height="26" viewBox="0 0 24 26" fill="none" xmlns="http://www.w3.org/2000/svg">
<path d="M21.8764 1.6631C22.1209 1.6631 22.2931 1.71243 22.3827 1.74989C22.4903 2.06103 22.6347 3.17603 21.5734 4.32934L16.1596 10.2083L16.1986 10.9377C16.2807 12.464 16.4329 15.1995 16.5642 17.5443C16.6801 19.6315 16.79 21.6025 16.7971 21.7703C16.8008 21.8856 16.8023 21.9129 16.7033 22.0424C16.4821 22.3344 16.0692 22.8292 15.7212 23.2393C15.1816 21.6604 14.0476 18.3254 13.4213 16.4587L12.6166 14.0567L10.952 15.8645L7.89083 19.0609L7.46445 19.5232L7.45133 20.1768C7.4412 20.6985 7.44345 21.6347 7.44458 22.4602C7.44608 23.0352 7.4476 23.5577 7.44385 23.8456C7.4371 23.8591 7.54623 23.875 7.5361 23.8941C7.47085 23.7805 7.40073 23.6579 7.32648 23.5304C6.70923 22.4614 5.85498 20.9827 5.59435 20.5213L5.40385 20.1833L5.0911 19.978C3.95373 19.232 2.69373 18.3707 1.92498 17.8327C1.9516 17.816 1.97333 17.9044 1.99095 17.8942H2.04083C2.2827 17.8942 2.68245 17.8999 3.13058 17.9068C3.7167 17.9153 4.38158 17.9259 4.89045 17.9259C5.08545 17.9259 5.2587 17.9243 5.3982 17.921L6.00008 17.906L6.4257 17.4438L9.37283 14.1422L11.0318 12.3414L8.83023 11.4618C7.17573 10.8008 4.0066 9.51556 2.52423 8.9108C2.90445 8.53044 3.3627 8.0788 3.63008 7.83851C3.7047 7.77172 3.76285 7.73753 3.80295 7.73753L3.85583 7.73916C4.0212 7.74771 6.07508 7.89351 8.06068 8.03441C10.1686 8.18387 12.5476 8.35247 13.9002 8.44573L14.5763 8.49175L19.9909 2.61116C20.7514 1.78649 21.4984 1.6631 21.8764 1.6631ZM21.8765 0.0342051C20.9903 0.0342051 19.9025 0.403931 18.9309 1.4595L13.9948 6.81963C11.2145 6.62864 4.094 6.11714 3.91738 6.11185C3.87928 6.10975 3.84115 6.10865 3.803 6.10856C3.56263 6.10856 3.1475 6.15865 2.675 6.58259C2.12038 7.08068 0.963876 8.26171 0.963876 8.26171C0.684876 8.56548 0.543501 8.94178 0.577251 9.29567C0.597876 9.50947 0.704751 9.8992 1.18813 10.1045C1.48175 10.2295 6.15463 12.1281 8.3124 12.9902L5.36527 16.2917C5.23475 16.295 5.07313 16.2966 4.8905 16.2966C3.992 16.2966 2.59888 16.2648 2.04048 16.2648C1.9666 16.2648 1.90735 16.2648 1.86533 16.2665C1.69545 16.2722 1.3437 16.1814 0.415955 17.0235L0.349955 17.0903C0.0717046 17.3925 0.00645462 17.6939 0.000454617 17.893C-0.00554538 18.0982 0.0450796 18.3939 0.318455 18.6317C0.482705 18.7759 2.58833 20.2399 4.31518 21.3725C4.7292 22.106 6.6342 25.394 6.73358 25.5724C6.87873 25.8387 7.11608 25.9906 7.39998 26.0004H7.4236C7.6996 26.0004 7.9831 25.8517 8.2606 25.5589C9.04585 24.5616 8.93748 24.1487 8.94083 23.9752C8.9532 23.4311 8.9322 21.1261 8.9502 20.2122L12.011 17.0154C12.7932 19.3489 14.5032 24.3714 14.6176 24.6911C14.8081 25.216 15.167 25.3313 15.3638 25.3528C15.3961 25.3569 15.4291 25.3586 15.4613 25.3586C15.7572 25.3586 16.064 25.2075 16.3152 24.9347C16.3152 24.9347 17.3993 23.6852 17.8598 23.0772C18.3211 22.4696 18.3031 21.9508 18.2941 21.706C18.2904 21.5366 17.8561 13.8458 17.6948 10.8424L22.6321 5.48065C24.3819 3.57961 24.1036 1.28889 23.4537 0.584365C23.1669 0.271195 22.586 0.0342306 21.8765 0.0342051Z" fill="url(#paint0_linear_1214_64445)"/>
<defs>
<linearGradient id="paint0_linear_1214_64445" x1="0" y1="0.0341797" x2="27.9061" y2="5.38255" gradientUnits="userSpaceOnUse">
<stop stop-color="#369D9C"/>
<stop offset="1" stop-color="#28814D"/>
</linearGradient>
</defs>
</svg>
