<svg width="24" height="25" viewBox="0 0 24 25" fill="none" xmlns="http://www.w3.org/2000/svg">
<g clip-path="url(#clip0_1214_72719)">
<path d="M22.97 6.45217C22.333 6.09817 21.555 6.12117 20.87 6.55317L16 10.2022V8.20117C16 7.47417 15.605 6.80417 14.97 6.45217C14.333 6.09817 13.554 6.12117 12.87 6.55317L8 10.2022V2.20117C8.553 2.20117 9 1.75317 9 1.20117C9 0.649172 8.553 0.201172 8 0.201172H1C0.447 0.201172 0 0.649172 0 1.20117C0 1.75317 0.447 2.20117 1 2.20117V19.2012C1 21.9582 3.243 24.2012 6 24.2012H19C21.757 24.2012 24 21.9582 24 19.2012V8.20117C24 7.47417 23.605 6.80417 22.97 6.45217ZM22 19.2012C22 20.8552 20.654 22.2012 19 22.2012H6C4.346 22.2012 3 20.8552 3 19.2012V2.20117H6V12.1922C6 12.1992 6 12.2062 6 12.2122V18.2012C6 18.7532 6.447 19.2012 7 19.2012C7.553 19.2012 8 18.7532 8 18.2012V12.7012L14 8.20117V12.2012C14 12.5802 14.214 12.9262 14.553 13.0962C14.892 13.2662 15.296 13.2302 15.6 13.0022L22 8.20217V19.2012ZM14 17.2012V18.2012C14 18.7532 13.552 19.2012 13 19.2012H12C11.448 19.2012 11 18.7532 11 18.2012V17.2012C11 16.6492 11.448 16.2012 12 16.2012H13C13.552 16.2012 14 16.6492 14 17.2012ZM16 18.2012V17.2012C16 16.6492 16.448 16.2012 17 16.2012H18C18.552 16.2012 19 16.6492 19 17.2012V18.2012C19 18.7532 18.552 19.2012 18 19.2012H17C16.448 19.2012 16 18.7532 16 18.2012Z" fill="url(#paint0_linear_1214_72719)"/>
</g>
<defs>
<linearGradient id="paint0_linear_1214_72719" x1="0" y1="0.201172" x2="27.7867" y2="5.97385" gradientUnits="userSpaceOnUse">
<stop stop-color="#369D9C"/>
<stop offset="1" stop-color="#28814D"/>
</linearGradient>
<clipPath id="clip0_1214_72719">
<rect width="24" height="24" fill="white" transform="translate(0 0.201172)"/>
</clipPath>
</defs>
</svg>
