<svg width="24" height="25" viewBox="0 0 24 25" fill="none" xmlns="http://www.w3.org/2000/svg">
<g clip-path="url(#clip0_1214_73591)">
<path d="M11.8642 4.40311C7.68022 4.47211 4.15522 7.92911 4.00622 12.1081C3.91822 14.5361 4.92022 16.8411 6.75622 18.4341C7.54722 19.1211 8.00022 20.1771 8.00022 21.4021C8.00022 23.0561 9.34622 24.4021 11.0002 24.4021H13.0002C14.6542 24.4021 16.0002 23.0561 16.0002 21.4021V21.0271C16.0002 20.0611 16.4552 19.1291 17.2822 18.4011C19.0102 16.8831 20.0002 14.6971 20.0002 12.4021C20.0002 10.2411 19.1512 8.21511 17.6102 6.69911C16.0692 5.18311 14.0272 4.35411 11.8642 4.40311ZM14.0002 21.4021C14.0002 21.9541 13.5522 22.4021 13.0002 22.4021H11.0002C10.4482 22.4021 10.0002 21.9541 10.0002 21.3331C10.0002 21.0171 9.96922 20.7071 9.92322 20.4021H14.0412C14.0162 20.6081 14.0002 20.8171 14.0002 21.0271V21.4021ZM15.9622 16.8991C15.4512 17.3481 15.0392 17.8561 14.7222 18.4021H13.0002V14.2181C14.1612 13.8041 15.0002 12.7041 15.0002 11.4021C15.0002 10.8491 14.5532 10.4021 14.0002 10.4021C13.4472 10.4021 13.0002 10.8491 13.0002 11.4021C13.0002 11.9551 12.5522 12.4021 12.0002 12.4021C11.4482 12.4021 11.0002 11.9541 11.0002 11.4021C11.0002 10.8501 10.5532 10.4021 10.0002 10.4021C9.44722 10.4021 9.00022 10.8491 9.00022 11.4021C9.00022 12.7041 9.83922 13.8041 11.0002 14.2181V18.4021H9.25422C8.94422 17.8441 8.54722 17.3421 8.06622 16.9241C6.69022 15.7291 5.93822 14.0001 6.00422 12.1801C6.11622 9.04611 8.76022 6.45411 11.8982 6.40311C11.9322 6.40311 11.9652 6.40311 12.0002 6.40311C13.5862 6.40311 15.0772 7.01211 16.2082 8.12611C17.3642 9.26311 18.0012 10.7821 18.0012 12.4031C18.0012 14.1231 17.2582 15.7611 15.9632 16.9001L15.9622 16.8991ZM16.7852 2.87611L18.0202 0.866108C18.3082 0.394108 18.9242 0.247108 19.3952 0.538108C19.8662 0.827108 20.0132 1.44211 19.7232 1.91311L18.4882 3.92311C18.3002 4.23111 17.9712 4.40011 17.6352 4.40011C17.4562 4.40011 17.2762 4.35211 17.1132 4.25211C16.6422 3.96311 16.4952 3.34711 16.7852 2.87611ZM23.4132 7.02411L21.4802 7.89611C21.3472 7.95711 21.2072 7.98511 21.0702 7.98511C20.6882 7.98511 20.3252 7.76611 20.1582 7.39611C19.9302 6.89311 20.1542 6.30011 20.6582 6.07411L22.5912 5.20211C23.0972 4.97311 23.6872 5.19911 23.9132 5.70211C24.1412 6.20511 23.9172 6.79811 23.4132 7.02411ZM4.19422 1.91211C3.90522 1.44111 4.05322 0.825108 4.52422 0.537108C4.99722 0.249108 5.61122 0.397108 5.89922 0.867108L7.13122 2.87811C7.42022 3.34911 7.27222 3.96511 6.80122 4.25311C6.63822 4.35311 6.45722 4.40011 6.28022 4.40011C5.94322 4.40011 5.61522 4.23011 5.42622 3.92211L4.19422 1.91111V1.91211ZM3.71122 7.46311C3.54022 7.82211 3.18222 8.03111 2.80922 8.03111C2.66422 8.03111 2.51722 8.00011 2.37822 7.93211L0.580217 7.07111C0.082217 6.83311 -0.128783 6.23611 0.110217 5.73811C0.347217 5.23911 0.947217 5.02611 1.44322 5.26811L3.24122 6.12911C3.73922 6.36711 3.95022 6.96511 3.71122 7.46311Z" fill="url(#paint0_linear_1214_73591)"/>
</g>
<defs>
<linearGradient id="paint0_linear_1214_73591" x1="0.0117188" y1="0.388672" x2="27.7899" y2="6.15412" gradientUnits="userSpaceOnUse">
<stop stop-color="#369D9C"/>
<stop offset="1" stop-color="#28814D"/>
</linearGradient>
<clipPath id="clip0_1214_73591">
<rect width="24" height="24" fill="white" transform="translate(0 0.402344)"/>
</clipPath>
</defs>
</svg>
