<svg width="24" height="24" viewBox="0 0 24 24" fill="none" xmlns="http://www.w3.org/2000/svg">
<g clip-path="url(#clip0_1214_72309)">
<path d="M21 0H6.499C4.57 0 3 1.571 3 3.5V7C3 7.552 3.448 8 4 8C4.552 8 5 7.552 5 7V3.5C5 2.673 5.673 2 6.5 2C7.327 2 8 2.673 8 3.5C8 4.878 9.122 6 10.5 6H19V19C19 20.654 17.654 22 16 22H14C13.448 22 13 22.448 13 23C13 23.552 13.448 24 14 24H16C18.757 24 21 21.757 21 19V6H21.5C22.878 6 24 4.878 24 3.5V3C24 1.346 22.654 0 21 0ZM22 3.5C22 3.776 21.776 4 21.5 4H10.5C10.224 4 10 3.776 10 3.5C10 2.963 9.878 2.455 9.662 2H21C21.551 2 22 2.449 22 3V3.5ZM8.5 10H3.5C1.57 10 0 11.57 0 13.5V20.5C0 22.43 1.57 24 3.5 24H8.5C10.43 24 12 22.43 12 20.5V13.5C12 11.57 10.43 10 8.5 10ZM10 20.5C10 21.327 9.327 22 8.5 22H3.5C2.673 22 2 21.327 2 20.5V13.5C2 12.673 2.673 12 3.5 12H8.5C9.327 12 10 12.673 10 13.5V20.5ZM9 14C9 14.552 8.552 15 8 15H4C3.448 15 3 14.552 3 14C3 13.448 3.448 13 4 13H8C8.552 13 9 13.448 9 14ZM9 17C9 17.552 8.552 18 8 18H7.5C6.948 18 6.5 17.552 6.5 17C6.5 16.448 6.948 16 7.5 16H8C8.552 16 9 16.448 9 17ZM5.5 17C5.5 17.552 5.052 18 4.5 18H4C3.448 18 3 17.552 3 17C3 16.448 3.448 16 4 16H4.5C5.052 16 5.5 16.448 5.5 17ZM9 20C9 20.552 8.552 21 8 21H7.5C6.948 21 6.5 20.552 6.5 20C6.5 19.448 6.948 19 7.5 19H8C8.552 19 9 19.448 9 20ZM5.5 20C5.5 20.552 5.052 21 4.5 21H4C3.448 21 3 20.552 3 20C3 19.448 3.448 19 4 19H4.5C5.052 19 5.5 19.448 5.5 20Z" fill="url(#paint0_linear_1214_72309)"/>
</g>
<defs>
<linearGradient id="paint0_linear_1214_72309" x1="0" y1="0" x2="27.7867" y2="5.77268" gradientUnits="userSpaceOnUse">
<stop stop-color="#369D9C"/>
<stop offset="1" stop-color="#28814D"/>
</linearGradient>
<clipPath id="clip0_1214_72309">
<rect width="24" height="24" fill="white"/>
</clipPath>
</defs>
</svg>
