<svg width="26" height="27" viewBox="0 0 26 27" fill="none" xmlns="http://www.w3.org/2000/svg">
<path d="M24.8056 6.32929C24.6887 6.25629 24.555 6.21425 24.4173 6.20714C24.2796 6.20004 24.1424 6.22809 24.0185 6.28866C19.6584 8.42148 16.5445 7.4221 13.2529 6.36788C9.79977 5.26187 6.21969 4.11929 1.27359 6.53444C1.1354 6.60073 1.01877 6.70476 0.937181 6.83452C0.855592 6.96427 0.812368 7.11445 0.8125 7.26773V19.4481C0.812481 19.586 0.847538 19.7216 0.914372 19.8421C0.981206 19.9627 1.07762 20.0643 1.19454 20.1373C1.31146 20.2104 1.44504 20.2525 1.58271 20.2596C1.72037 20.2668 1.85761 20.2388 1.98148 20.1784C6.34156 18.0455 9.45547 19.0449 12.7522 20.0991C14.7063 20.7237 16.6969 21.3605 18.9475 21.3605C20.6832 21.3605 22.5763 20.9827 24.7274 19.9326C24.864 19.8659 24.9792 19.7622 25.0598 19.6332C25.1404 19.5043 25.1833 19.3554 25.1834 19.2034V7.02296C25.1847 6.88475 25.1506 6.7485 25.0845 6.62712C25.0184 6.50574 24.9224 6.40323 24.8056 6.32929ZM23.5625 18.6864C19.4391 20.5318 16.4277 19.569 13.2478 18.5523C11.2938 17.9277 9.30313 17.2909 7.0525 17.2909C5.47128 17.2986 3.90614 17.6089 2.44156 18.205V7.78468C6.565 5.93929 9.57633 6.9021 12.7563 7.91874C15.9362 8.93538 19.2095 9.98554 23.5625 8.26812V18.6864ZM13 9.98554C12.3572 9.98554 11.7289 10.1761 11.1944 10.5333C10.6599 10.8904 10.2434 11.398 9.99739 11.9918C9.75141 12.5857 9.68705 13.2391 9.81245 13.8696C9.93785 14.5 10.2474 15.0791 10.7019 15.5336C11.1564 15.9882 11.7355 16.2977 12.366 16.4231C12.9964 16.5485 13.6499 16.4841 14.2437 16.2381C14.8376 15.9922 15.3452 15.5756 15.7023 15.0411C16.0594 14.5067 16.25 13.8783 16.25 13.2355C16.25 12.3736 15.9076 11.5469 15.2981 10.9374C14.6886 10.3279 13.862 9.98554 13 9.98554ZM13 14.8605C12.6786 14.8605 12.3644 14.7652 12.0972 14.5867C11.83 14.4081 11.6217 14.1543 11.4987 13.8574C11.3757 13.5605 11.3435 13.2337 11.4062 12.9185C11.4689 12.6033 11.6237 12.3138 11.851 12.0865C12.0782 11.8592 12.3678 11.7045 12.683 11.6418C12.9982 11.5791 13.3249 11.6112 13.6219 11.7342C13.9188 11.8572 14.1726 12.0655 14.3511 12.3327C14.5297 12.6 14.625 12.9141 14.625 13.2355C14.625 13.6665 14.4538 14.0798 14.149 14.3846C13.8443 14.6893 13.431 14.8605 13 14.8605ZM5.6875 9.98554V14.8605C5.6875 15.076 5.6019 15.2827 5.44952 15.4351C5.29715 15.5874 5.09049 15.673 4.875 15.673C4.65951 15.673 4.45285 15.5874 4.30048 15.4351C4.1481 15.2827 4.0625 15.076 4.0625 14.8605V9.98554C4.0625 9.77005 4.1481 9.56339 4.30048 9.41101C4.45285 9.25864 4.65951 9.17304 4.875 9.17304C5.09049 9.17304 5.29715 9.25864 5.44952 9.41101C5.6019 9.56339 5.6875 9.77005 5.6875 9.98554ZM20.3125 16.4855V11.6105C20.3125 11.395 20.3981 11.1884 20.5505 11.036C20.7029 10.8836 20.9095 10.798 21.125 10.798C21.3405 10.798 21.5472 10.8836 21.6995 11.036C21.8519 11.1884 21.9375 11.395 21.9375 11.6105V16.4855C21.9375 16.701 21.8519 16.9077 21.6995 17.0601C21.5472 17.2124 21.3405 17.298 21.125 17.298C20.9095 17.298 20.7029 17.2124 20.5505 17.0601C20.3981 16.9077 20.3125 16.701 20.3125 16.4855Z" fill="url(#paint0_linear_1214_65083)"/>
<defs>
<linearGradient id="paint0_linear_1214_65083" x1="0.8125" y1="5.10645" x2="27.6432" y2="13.4641" gradientUnits="userSpaceOnUse">
<stop stop-color="#369D9C"/>
<stop offset="1" stop-color="#28814D"/>
</linearGradient>
</defs>
</svg>
