<svg width="26" height="26" viewBox="0 0 26 26" fill="none" xmlns="http://www.w3.org/2000/svg">
<path d="M12.9974 20.5837C10.2815 20.5837 8.57523 19.1266 7.43665 17.7551C6.95998 17.181 6.04998 17.1896 5.6329 17.8017C4.87348 18.9175 3.9884 19.9467 2.16406 20.3519M23.8307 20.3519C22.1104 19.9705 21.2264 19.0345 20.4941 17.9924C20.0347 17.3402 19.0261 17.3792 18.5278 18.0065C18.0836 18.5655 17.5539 19.079 16.9136 19.5004M12.9974 9.75038C15.7133 9.75038 17.4196 8.29329 18.5592 6.92179C19.0348 6.34763 19.9459 6.35629 20.3619 6.96838C21.1213 8.08421 22.0064 9.11338 23.8307 9.51854M2.16406 9.51854C3.8844 9.13721 4.7684 8.20121 5.50073 7.15904C5.95898 6.50688 6.96865 6.54696 7.4659 7.17313C7.91006 7.73104 8.4409 8.24563 9.08115 8.66704M23.8307 14.9352C22.1104 14.5539 21.2264 13.6179 20.4941 12.5757C20.0347 11.9235 19.0261 11.9625 18.5278 12.5898C17.3903 14.022 15.6895 15.167 12.9974 15.167C10.2815 15.167 8.57523 13.71 7.43665 12.3385C6.95998 11.7643 6.04998 11.773 5.6329 12.385C4.87348 13.5009 3.9884 14.53 2.16406 14.9352" fill="url(#paint0_linear_1214_64956)"/>
<path d="M12.9974 20.5837C10.2815 20.5837 8.57523 19.1266 7.43665 17.7551C6.95998 17.181 6.04998 17.1896 5.6329 17.8017C4.87348 18.9175 3.9884 19.9467 2.16406 20.3519M23.8307 20.3519C22.1104 19.9705 21.2264 19.0345 20.4941 17.9924C20.0347 17.3402 19.0261 17.3792 18.5278 18.0065C18.0836 18.5655 17.5539 19.079 16.9136 19.5004M12.9974 9.75038C15.7133 9.75038 17.4196 8.29329 18.5592 6.92179C19.0348 6.34763 19.9459 6.35629 20.3619 6.96838C21.1213 8.08421 22.0064 9.11338 23.8307 9.51854M2.16406 9.51854C3.8844 9.13721 4.7684 8.20121 5.50073 7.15904C5.95898 6.50688 6.96865 6.54696 7.4659 7.17313C7.91006 7.73104 8.4409 8.24563 9.08115 8.66704M23.8307 14.9352C22.1104 14.5539 21.2264 13.6179 20.4941 12.5757C20.0347 11.9235 19.0261 11.9625 18.5278 12.5898C17.3903 14.022 15.6895 15.167 12.9974 15.167C10.2815 15.167 8.57523 13.71 7.43665 12.3385C6.95998 11.7643 6.04998 11.773 5.6329 12.385C4.87348 13.5009 3.9884 14.53 2.16406 14.9352" stroke="url(#paint1_linear_1214_64956)" stroke-width="1.625" stroke-linecap="round" stroke-linejoin="round"/>
<defs>
<linearGradient id="paint0_linear_1214_64956" x1="2.16406" y1="6.5" x2="25.9067" y2="14.0883" gradientUnits="userSpaceOnUse">
<stop stop-color="#369D9C"/>
<stop offset="1" stop-color="#28814D"/>
</linearGradient>
<linearGradient id="paint1_linear_1214_64956" x1="2.16406" y1="6.5" x2="25.9067" y2="14.0883" gradientUnits="userSpaceOnUse">
<stop stop-color="#369D9C"/>
<stop offset="1" stop-color="#28814D"/>
</linearGradient>
</defs>
</svg>
