<svg width="295" height="297" viewBox="0 0 295 297" fill="none" xmlns="http://www.w3.org/2000/svg">
<g clip-path="url(#clip0_1214_76229)">
<path d="M294.706 226.617H0.289062V226.765H294.706V226.617Z" fill="#EBEBEB"/>
<path d="M265.213 236.112H245.711V236.26H265.213V236.112Z" fill="#EBEBEB"/>
<path d="M195.316 237.722H190.199V237.869H195.316V237.722Z" fill="#EBEBEB"/>
<path d="M245.112 230.632H233.812V230.779H245.112V230.632Z" fill="#EBEBEB"/>
<path d="M56.6232 231.628H31.1914V231.776H56.6232V231.628Z" fill="#EBEBEB"/>
<path d="M65.5867 231.628H61.8594V231.776H65.5867V231.628Z" fill="#EBEBEB"/>
<path d="M132.861 234.123H77.6992V234.271H132.861V234.123Z" fill="#EBEBEB"/>
<path d="M139.843 200.273H26.1454C25.2547 200.272 24.401 199.916 23.7718 199.283C23.1425 198.651 22.7891 197.794 22.7891 196.901V36.5967C22.7968 35.7084 23.1537 34.8591 23.7821 34.2332C24.4105 33.6074 25.2598 33.2554 26.1454 33.2539H139.843C140.735 33.2539 141.59 33.6092 142.221 34.2416C142.851 34.874 143.206 35.7318 143.206 36.6262V196.901C143.206 197.795 142.851 198.653 142.221 199.286C141.59 199.918 140.735 200.273 139.843 200.273ZM26.1454 33.372C25.2938 33.3736 24.4775 33.714 23.8759 34.3186C23.2742 34.9231 22.9363 35.7425 22.9363 36.5967V196.901C22.9363 197.755 23.2742 198.574 23.8759 199.179C24.4775 199.784 25.2938 200.124 26.1454 200.126H139.843C140.696 200.124 141.512 199.784 142.115 199.179C142.718 198.575 143.057 197.756 143.058 196.901V36.5967C143.057 35.7419 142.718 34.9226 142.115 34.3182C141.512 33.7138 140.696 33.3736 139.843 33.372H26.1454Z" fill="#EBEBEB"/>
<path d="M267.218 200.273H153.515C152.623 200.272 151.769 199.916 151.139 199.284C150.509 198.652 150.154 197.795 150.152 196.901V36.5967C150.162 35.7079 150.52 34.8586 151.149 34.2329C151.779 33.6071 152.628 33.2554 153.515 33.2539H267.218C268.103 33.257 268.951 33.6096 269.578 34.2353C270.205 34.861 270.561 35.7094 270.569 36.5967V196.901C270.569 197.793 270.216 198.649 269.588 199.281C268.96 199.913 268.108 200.27 267.218 200.273ZM153.515 33.372C152.662 33.3736 151.846 33.7138 151.243 34.3182C150.64 34.9226 150.301 35.7419 150.3 36.5967V196.901C150.301 197.756 150.64 198.575 151.243 199.179C151.846 199.784 152.662 200.124 153.515 200.126H267.218C268.071 200.124 268.888 199.784 269.49 199.179C270.093 198.575 270.432 197.756 270.433 196.901V36.5967C270.432 35.7419 270.093 34.9226 269.49 34.3182C268.888 33.7138 268.071 33.3736 267.218 33.372H153.515Z" fill="#EBEBEB"/>
<path d="M157.965 226.617H178.633V149.409H157.965V226.617Z" fill="#E6E6E6"/>
<path d="M161.4 226.609H157.961V219.658H165.009L161.4 226.609Z" fill="#F0F0F0"/>
<path d="M242.09 226.617H262.758V149.409H242.09V226.617Z" fill="#E6E6E6"/>
<path d="M157.954 223.941H245.078V149.403H157.954V223.941Z" fill="#F0F0F0"/>
<path d="M160.646 173.146H242.43V152.706H160.646V173.146Z" fill="#E6E6E6"/>
<path d="M197.671 159.048H205.396C208.752 159.048 211.962 156.526 214.27 152.073H188.797C191.105 156.538 194.314 159.048 197.671 159.048Z" fill="#F0F0F0"/>
<path d="M241.649 226.609H245.087V219.658H238.039L241.649 226.609Z" fill="#F0F0F0"/>
<path d="M160.646 196.892H242.43V176.451H160.646V196.892Z" fill="#E6E6E6"/>
<path d="M197.671 182.799H205.396C208.752 182.799 211.962 180.277 214.27 175.824H188.797C191.105 180.307 194.314 182.799 197.671 182.799Z" fill="#F0F0F0"/>
<path d="M160.646 220.646H242.43V200.205H160.646V220.646Z" fill="#E6E6E6"/>
<path d="M197.671 206.554H205.396C208.752 206.554 211.962 204.032 214.27 199.579H188.797C191.105 204.032 194.314 206.554 197.671 206.554Z" fill="#F0F0F0"/>
<path d="M46.2055 131.893H125.133L125.133 51.7906L46.2055 51.7906L46.2055 131.893Z" fill="#E6E6E6"/>
<path d="M40.7325 131.893H123.688L123.687 51.7906L40.7325 51.7906L40.7325 131.893Z" fill="#F0F0F0"/>
<path d="M116.742 124.922V58.7578L47.6896 58.7578V124.922H116.742Z" fill="white"/>
<path d="M81.7386 67.5076L69.0669 80.2408C66.0048 83.3198 64.2852 87.4911 64.2852 91.84C64.2852 96.1889 66.0048 100.36 69.0669 103.439L81.7386 116.155C81.8005 116.217 81.8739 116.266 81.9547 116.3C82.0355 116.333 82.1222 116.351 82.2097 116.351C82.2972 116.351 82.3839 116.333 82.4647 116.3C82.5456 116.266 82.619 116.217 82.6808 116.155L95.3584 103.439C98.4205 100.36 100.14 96.1889 100.14 91.84C100.14 87.4911 98.4205 83.3198 95.3584 80.2408L82.6867 67.5076C82.5601 67.3832 82.3899 67.3135 82.2127 67.3135C82.0354 67.3135 81.8652 67.3832 81.7386 67.5076ZM70.0091 102.471C67.1976 99.6431 65.6187 95.8127 65.6187 91.8193C65.6187 87.826 67.1976 83.9956 70.0091 81.168V102.471ZM94.4162 102.471V81.1916C97.2278 84.0192 98.8066 87.8496 98.8066 91.843C98.8066 95.8363 97.2278 99.6667 94.4162 102.494V102.471Z" fill="#F0F0F0"/>
<path d="M239.87 121.841H195.772L193.258 147.957H237.356L239.87 121.841Z" fill="#E6E6E6"/>
<path d="M237.335 147.96L237.158 149.407H193.055L193.237 147.96H237.335Z" fill="#E6E6E6"/>
<path d="M238.501 121.841H194.403L191.883 147.957H235.981L238.501 121.841Z" fill="#F0F0F0"/>
<path d="M235.097 146.253L236.94 123.61C236.945 123.535 236.934 123.459 236.909 123.388C236.883 123.317 236.844 123.252 236.793 123.197C236.741 123.141 236.68 123.097 236.611 123.067C236.542 123.036 236.467 123.02 236.392 123.02H195.851C195.712 123.019 195.578 123.071 195.475 123.165C195.373 123.259 195.309 123.389 195.297 123.527L193.431 146.165C193.426 146.241 193.437 146.317 193.462 146.388C193.488 146.46 193.528 146.525 193.58 146.58C193.632 146.636 193.694 146.68 193.764 146.71C193.834 146.74 193.909 146.756 193.984 146.755H234.526C234.667 146.762 234.806 146.713 234.912 146.62C235.018 146.526 235.085 146.395 235.097 146.253Z" fill="white"/>
<path d="M224.488 147.96L224.311 149.407H175.75L175.927 147.96H224.488Z" fill="#F0F0F0"/>
<path d="M165.223 107.882L248.031 107.882V52.6674L165.223 52.6674V107.882Z" fill="#E6E6E6"/>
<path d="M163.372 107.882L246.18 107.882V52.6674L163.372 52.6674V107.882Z" fill="#F5F5F5"/>
<path d="M242.891 104.159V56.3916L166.69 56.3916V104.159H242.891Z" fill="white"/>
<path d="M168.066 104.153V56.3857H166.677V104.153H168.066Z" fill="#E6E6E6"/>
<path d="M164.745 97.8232L244.82 97.8232V92.8268L164.745 92.8268V97.8232Z" fill="#F5F5F5"/>
<path d="M159.782 46.5127H251.64C251.774 46.5142 251.902 46.5682 251.996 46.6632C252.091 46.7581 252.145 46.8864 252.146 47.0206C252.146 47.1553 252.093 47.2845 251.998 47.3798C251.903 47.475 251.774 47.5285 251.64 47.5285H159.782C159.715 47.5293 159.648 47.5167 159.586 47.4916C159.524 47.4664 159.468 47.4291 159.42 47.3819C159.372 47.3346 159.334 47.2784 159.309 47.2163C159.283 47.1543 159.27 47.0878 159.27 47.0206C159.271 46.8854 159.326 46.7562 159.422 46.6611C159.518 46.566 159.647 46.5127 159.782 46.5127Z" fill="#E6E6E6"/>
<path d="M157.984 47.0159C157.984 47.268 158.059 47.5144 158.198 47.724C158.338 47.9337 158.536 48.0972 158.768 48.1939C159 48.2906 159.256 48.3163 159.502 48.2675C159.749 48.2188 159.975 48.0979 160.154 47.92C160.332 47.7422 160.453 47.5155 160.503 47.2684C160.553 47.0213 160.528 46.765 160.433 46.5318C160.338 46.2986 160.176 46.099 159.967 45.9581C159.759 45.8172 159.513 45.7414 159.262 45.7402C159.095 45.7395 158.929 45.7719 158.774 45.8357C158.619 45.8994 158.478 45.9933 158.359 46.1118C158.24 46.2303 158.146 46.3712 158.082 46.5264C158.017 46.6815 157.984 46.8479 157.984 47.0159Z" fill="#E6E6E6"/>
<path d="M247.331 49.8799C247.512 49.8799 247.686 49.8087 247.815 49.6817C247.943 49.5546 248.017 49.3819 248.02 49.2007V47.7242C248.02 47.5409 247.948 47.3652 247.819 47.2356C247.689 47.106 247.514 47.0332 247.331 47.0332C247.241 47.0332 247.152 47.0511 247.069 47.0859C246.985 47.1207 246.91 47.1717 246.846 47.2359C246.783 47.3002 246.733 47.3764 246.699 47.4602C246.665 47.544 246.648 47.6337 246.648 47.7242V49.2007C246.652 49.3809 246.725 49.5527 246.852 49.6796C246.98 49.8065 247.152 49.8783 247.331 49.8799Z" fill="#E6E6E6"/>
<path d="M167.449 49.8799C167.625 49.8724 167.792 49.7981 167.915 49.672C168.039 49.5459 168.11 49.3774 168.114 49.2007V47.7242C168.114 47.5409 168.042 47.3652 167.912 47.2356C167.783 47.106 167.608 47.0332 167.425 47.0332C167.335 47.0332 167.246 47.0511 167.162 47.0859C167.079 47.1207 167.004 47.1717 166.94 47.2359C166.877 47.3002 166.826 47.3764 166.792 47.4602C166.759 47.544 166.741 47.6337 166.742 47.7242V49.2007C166.744 49.2919 166.763 49.382 166.8 49.4656C166.836 49.5493 166.889 49.6248 166.954 49.688C167.02 49.7511 167.098 49.8006 167.182 49.8335C167.267 49.8665 167.358 49.8822 167.449 49.8799Z" fill="#E6E6E6"/>
<path opacity="0.4" d="M159.94 100.666L244.82 100.666V47.0226L159.94 47.0226V100.666Z" fill="#E0E0E0"/>
<path d="M237.891 47.0159C237.891 47.2682 237.965 47.5149 238.105 47.7246C238.245 47.9344 238.443 48.0979 238.676 48.1945C238.908 48.291 239.164 48.3163 239.411 48.2671C239.657 48.2179 239.884 48.0964 240.062 47.918C240.24 47.7395 240.361 47.5122 240.41 47.2648C240.459 47.0173 240.434 46.7608 240.338 46.5277C240.241 46.2946 240.078 46.0954 239.869 45.9552C239.66 45.815 239.414 45.7402 239.163 45.7402C238.825 45.7402 238.502 45.8746 238.263 46.1139C238.025 46.3531 237.891 46.6776 237.891 47.0159Z" fill="#E6E6E6"/>
<path d="M117.756 222.784H124.562L124.562 163.566H117.756V222.784Z" fill="#F0F0F0"/>
<path d="M43.9247 226.535H121.957V222.785H43.9247V226.535Z" fill="#F0F0F0"/>
<path d="M117.759 163.568H41.3047V222.787H117.759V163.568Z" fill="#F5F5F5"/>
<path d="M108.205 170.854H50.8409C48.5255 170.854 46.6484 172.736 46.6484 175.059V186.067C46.6484 188.39 48.5255 190.272 50.8409 190.272H108.205C110.521 190.272 112.398 188.39 112.398 186.067V175.059C112.398 172.736 110.521 170.854 108.205 170.854Z" fill="#F0F0F0"/>
<path d="M108.205 196.078H50.8409C48.5255 196.078 46.6484 197.961 46.6484 200.283V211.292C46.6484 213.614 48.5255 215.497 50.8409 215.497H108.205C110.521 215.497 112.398 213.614 112.398 211.292V200.283C112.398 197.961 110.521 196.078 108.205 196.078Z" fill="#F0F0F0"/>
<path d="M65.2839 181.898H93.7717C94.1236 181.898 94.4612 181.758 94.7106 181.509C94.96 181.26 95.1009 180.922 95.1025 180.569C95.1009 180.216 94.9602 179.877 94.711 179.627C94.4617 179.377 94.1242 179.236 93.7717 179.234H65.2839C64.9314 179.236 64.5938 179.377 64.3446 179.627C64.0954 179.877 63.9547 180.216 63.9531 180.569C63.9547 180.922 64.0956 181.26 64.345 181.509C64.5944 181.758 64.932 181.898 65.2839 181.898Z" fill="#F5F5F5"/>
<path d="M65.2839 207.123H93.7717C94.1236 207.123 94.4612 206.983 94.7106 206.734C94.96 206.485 95.1009 206.147 95.1025 205.794C95.1009 205.44 94.9602 205.102 94.711 204.852C94.4617 204.602 94.1242 204.461 93.7717 204.459H65.2839C64.9314 204.461 64.5938 204.602 64.3446 204.852C64.0954 205.102 63.9547 205.44 63.9531 205.794C63.9547 206.147 64.0956 206.485 64.345 206.734C64.5944 206.983 64.932 207.123 65.2839 207.123Z" fill="#F5F5F5"/>
<path d="M147.501 253.285C210.555 253.285 261.67 250.292 261.67 246.6C261.67 242.907 210.555 239.914 147.501 239.914C84.4473 239.914 33.332 242.907 33.332 246.6C33.332 250.292 84.4473 253.285 147.501 253.285Z" fill="#F5F5F5"/>
<path d="M172.731 60.6807H63.9141L72.3697 209.315H181.18L172.731 60.6807Z" fill="#263238"/>
<path d="M174.848 60.6807H66.0312L74.4869 209.315H183.303L174.848 60.6807Z" fill="url(#paint0_linear_1214_76229)"/>
<path opacity="0.5" d="M167.341 65.6836H70.9961L77.9031 200.226H176.751L167.341 65.6836Z" fill="black"/>
<path d="M70.9961 65.6836C78.1563 110.533 73.2454 155.383 80.4174 200.226H179.253C172.093 155.383 177.004 110.533 169.832 65.6836H70.9961Z" fill="white"/>
<g opacity="0.3">
<path d="M91.212 105.994C93.3947 106.011 95.4875 106.868 97.0586 108.388C98.6298 109.908 99.5595 111.975 99.6559 114.162C99.6999 115.214 99.53 116.264 99.1564 117.248C98.7829 118.232 98.2136 119.13 97.4831 119.886C96.7527 120.642 95.8764 121.242 94.9076 121.648C93.9388 122.054 92.8978 122.257 91.848 122.247C89.6788 122.229 87.5996 121.374 86.0418 119.86C84.4839 118.346 83.5668 116.289 83.4807 114.114C83.4353 113.065 83.6012 112.018 83.9684 111.035C84.3357 110.051 84.8967 109.153 85.6181 108.392C86.3418 107.638 87.2109 107.039 88.1727 106.633C89.1344 106.227 90.1686 106.021 91.212 106.029M91.1532 104.322C89.8839 104.314 88.6265 104.566 87.4576 105.062C86.2887 105.558 85.233 106.288 84.355 107.208C83.477 108.127 82.7952 109.216 82.3512 110.409C81.9073 111.602 81.7106 112.873 81.773 114.144C81.8758 116.769 82.9821 119.253 84.8623 121.082C86.7426 122.911 89.2525 123.943 91.8715 123.966C93.1465 123.976 94.4104 123.727 95.5866 123.233C96.7628 122.74 97.8269 122.012 98.7143 121.093C99.6018 120.175 100.294 119.086 100.75 117.891C101.205 116.697 101.414 115.422 101.364 114.144C101.237 111.508 100.108 109.02 98.2089 107.193C96.3097 105.366 93.7846 104.339 91.1532 104.322Z" fill="url(#paint1_linear_1214_76229)"/>
</g>
<path d="M145.863 179.67H114.655C114.422 179.666 114.19 179.712 113.976 179.805C113.761 179.898 113.569 180.036 113.412 180.209C113.255 180.382 113.136 180.587 113.064 180.81C112.992 181.033 112.969 181.268 112.995 181.501C113.051 181.999 113.286 182.459 113.655 182.797C114.024 183.135 114.503 183.327 115.003 183.338H146.211C146.444 183.342 146.676 183.296 146.89 183.203C147.105 183.109 147.297 182.971 147.453 182.797C147.609 182.623 147.726 182.417 147.797 182.193C147.867 181.97 147.888 181.734 147.859 181.501C147.804 181.005 147.571 180.546 147.204 180.21C146.837 179.873 146.361 179.681 145.863 179.67Z" fill="#E0E0E0"/>
<path d="M162.557 171.962H114.026C113.791 171.958 113.558 172.003 113.342 172.096C113.126 172.188 112.931 172.325 112.772 172.498C112.612 172.671 112.491 172.875 112.416 173.099C112.341 173.322 112.313 173.559 112.336 173.793C112.378 174.289 112.603 174.752 112.966 175.092C113.33 175.431 113.806 175.623 114.302 175.63H162.811C163.046 175.637 163.28 175.593 163.497 175.503C163.715 175.412 163.91 175.277 164.072 175.105C164.233 174.933 164.356 174.729 164.433 174.506C164.51 174.283 164.539 174.046 164.518 173.811C164.48 173.313 164.258 172.847 163.895 172.505C163.532 172.163 163.055 171.97 162.557 171.962Z" fill="#E0E0E0"/>
<g opacity="0.3">
<path d="M92.2124 137.786C94.379 137.802 96.4558 138.657 98.0086 140.172C99.5614 141.688 100.47 143.747 100.544 145.919C100.584 146.97 100.412 148.019 100.039 149.002C99.6655 149.985 99.0985 150.883 98.3716 151.641C97.6442 152.397 96.7709 152.996 95.8052 153.402C94.8394 153.808 93.8013 154.013 92.7541 154.004C90.5822 153.989 88.4995 153.136 86.9382 151.621C85.3768 150.107 84.4568 148.048 84.3691 145.871C84.3334 144.818 84.5102 143.769 84.8889 142.786C85.2677 141.803 85.8405 140.908 86.573 140.152C87.3056 139.397 88.1827 138.798 89.1518 138.392C90.1209 137.985 91.1619 137.779 92.2124 137.786ZM92.2124 136.073C90.9365 136.066 89.6722 136.316 88.4953 136.81C87.3184 137.305 86.2531 138.032 85.3634 138.949C84.4737 139.866 83.7778 140.954 83.3176 142.148C82.8573 143.342 82.6422 144.616 82.685 145.895C82.7896 148.527 83.9018 151.017 85.7904 152.848C87.679 154.678 90.1985 155.708 92.8248 155.722C94.0968 155.727 95.3567 155.474 96.5285 154.977C97.7003 154.481 98.7597 153.751 99.6428 152.833C100.526 151.915 101.214 150.827 101.667 149.634C102.119 148.442 102.326 147.17 102.276 145.895C102.187 143.271 101.091 140.784 99.2148 138.953C97.3389 137.122 94.8297 136.09 92.2124 136.073Z" fill="url(#paint2_linear_1214_76229)"/>
</g>
<path d="M128.544 112.09H111.85C111.36 112.086 110.889 111.893 110.537 111.552C110.184 111.21 109.975 110.745 109.954 110.254C109.946 110.016 109.986 109.779 110.071 109.558C110.157 109.336 110.285 109.133 110.45 108.963C110.615 108.792 110.812 108.656 111.031 108.563C111.249 108.47 111.484 108.423 111.721 108.423H128.408C128.899 108.427 129.37 108.618 129.724 108.959C130.079 109.299 130.29 109.762 130.316 110.254C130.325 110.492 130.285 110.73 130.2 110.953C130.115 111.176 129.986 111.379 129.82 111.551C129.654 111.722 129.456 111.859 129.237 111.951C129.017 112.044 128.782 112.091 128.544 112.09Z" fill="#E0E0E0"/>
<path d="M147.818 112.09H136.512C136.021 112.086 135.55 111.894 135.196 111.552C134.843 111.21 134.633 110.746 134.61 110.254C134.602 110.016 134.642 109.779 134.728 109.558C134.813 109.336 134.942 109.133 135.106 108.963C135.271 108.792 135.469 108.656 135.687 108.563C135.905 108.47 136.14 108.423 136.377 108.423H147.688C148.179 108.427 148.649 108.619 149.002 108.959C149.356 109.299 149.566 109.763 149.59 110.254C149.599 110.492 149.56 110.73 149.474 110.953C149.389 111.176 149.26 111.379 149.094 111.551C148.929 111.722 148.73 111.859 148.511 111.951C148.292 112.044 148.056 112.091 147.818 112.09Z" fill="#E0E0E0"/>
<path d="M156.912 119.802H112.102C111.612 119.8 111.141 119.607 110.789 119.265C110.437 118.923 110.23 118.457 110.212 117.966C110.204 117.728 110.244 117.491 110.329 117.269C110.414 117.048 110.543 116.845 110.708 116.674C110.873 116.504 111.07 116.368 111.289 116.275C111.507 116.182 111.741 116.135 111.978 116.135H156.783C157.272 116.137 157.741 116.329 158.092 116.671C158.443 117.012 158.649 117.476 158.667 117.966C158.676 118.203 158.637 118.439 158.553 118.661C158.469 118.883 158.341 119.085 158.177 119.256C158.014 119.428 157.817 119.564 157.6 119.658C157.383 119.752 157.149 119.801 156.912 119.802Z" fill="#E0E0E0"/>
<g opacity="0.3">
<path d="M93.4854 169.536C95.6819 169.579 97.7854 170.433 99.3933 171.935C101.001 173.436 102.001 175.48 102.2 177.674C102.306 178.702 102.198 179.741 101.882 180.725C101.567 181.709 101.052 182.617 100.369 183.391C99.6802 184.152 98.8375 184.756 97.8971 185.163C96.9567 185.571 95.9404 185.772 94.9162 185.753C92.7007 185.717 90.5744 184.871 88.9371 183.374C87.2999 181.876 86.2642 179.83 86.0248 177.621C85.9238 176.585 86.0427 175.54 86.3735 174.553C86.7044 173.567 87.2398 172.662 87.9444 171.898C88.6535 171.14 89.5125 170.538 90.4665 170.131C91.4206 169.724 92.4488 169.521 93.4854 169.536ZM93.4029 167.829C92.1419 167.804 90.8899 168.047 89.7289 168.541C88.568 169.036 87.5244 169.771 86.6665 170.698C85.8087 171.626 85.1559 172.724 84.751 173.923C84.3461 175.121 84.1983 176.391 84.3172 177.65C84.7706 183.072 89.6756 187.472 95.0811 187.472C100.487 187.472 104.361 183.072 103.914 177.65C103.68 175.002 102.478 172.533 100.538 170.72C98.5991 168.907 96.0597 167.877 93.4088 167.829H93.4029Z" fill="url(#paint3_linear_1214_76229)"/>
</g>
<path d="M164.582 147.905H112.877C112.64 147.905 112.405 147.953 112.187 148.046C111.969 148.138 111.771 148.274 111.606 148.445C111.442 148.616 111.313 148.818 111.228 149.04C111.142 149.262 111.102 149.499 111.11 149.736C111.131 150.226 111.339 150.689 111.691 151.03C112.043 151.371 112.512 151.563 113.001 151.567H164.73C164.967 151.567 165.201 151.519 165.419 151.427C165.638 151.334 165.835 151.198 166 151.027C166.165 150.857 166.294 150.654 166.379 150.432C166.464 150.211 166.504 149.974 166.496 149.736C166.478 149.241 166.267 148.773 165.91 148.431C165.553 148.089 165.076 147.9 164.582 147.905Z" fill="#E0E0E0"/>
<path d="M152.314 140.189H112.639C112.401 140.189 112.166 140.237 111.947 140.33C111.729 140.423 111.531 140.56 111.366 140.731C111.201 140.903 111.073 141.106 110.988 141.328C110.903 141.551 110.864 141.788 110.872 142.026C110.889 142.516 111.094 142.98 111.444 143.321C111.794 143.662 112.262 143.854 112.751 143.857H152.432C152.669 143.857 152.904 143.809 153.122 143.717C153.34 143.624 153.538 143.488 153.703 143.317C153.867 143.147 153.996 142.944 154.082 142.722C154.167 142.501 154.207 142.264 154.199 142.026C154.185 141.534 153.98 141.067 153.628 140.724C153.277 140.381 152.805 140.189 152.314 140.189Z" fill="#E0E0E0"/>
<path d="M92.114 119.9L91.4192 118.755C89.8941 116.256 86.7085 114.03 85.6133 113.374L86.4376 111.91C88.6005 113.223 90.5274 114.892 92.1376 116.847C94.6401 113.475 98.2968 110.008 103.249 106.264L104.315 107.646C99.0151 111.644 95.2584 115.323 92.85 118.826C92.6086 119.186 92.3613 119.546 92.114 119.9Z" fill="url(#paint4_linear_1214_76229)"/>
<path d="M92.987 151.68C92.7574 151.296 92.5219 150.912 92.2863 150.534C90.7554 148.036 87.5756 145.809 86.4922 145.148L87.3283 143.683C89.4801 145 91.3967 146.669 92.9988 148.621C95.5072 145.254 99.1933 141.781 104.222 138.037L105.264 139.419C99.8941 143.417 96.1137 147.097 93.7172 150.599L92.987 151.68Z" fill="url(#paint5_linear_1214_76229)"/>
<path d="M95.0144 183.522L94.2371 182.376C92.5413 179.878 89.2556 177.651 88.125 176.995L88.8905 175.531C91.1156 176.853 93.1203 178.517 94.8318 180.462C97.1401 177.096 100.65 173.623 105.525 169.885L106.626 171.267C101.421 175.265 97.8466 178.944 95.6739 182.447L95.0144 183.522Z" fill="url(#paint6_linear_1214_76229)"/>
<path d="M132.252 76.958C131.216 79.2259 130.154 81.4918 129.066 83.7557C131.308 84.874 133.225 86.5527 134.631 88.6298C136.038 90.707 136.888 93.1126 137.098 95.6148H144.924C144.406 87.5887 139.259 80.602 132.252 76.958Z" fill="url(#paint7_linear_1214_76229)"/>
<path d="M102.443 95.6213H110.269C110.077 93.4012 110.48 91.17 111.437 89.1587C112.393 87.1474 113.868 85.429 115.709 84.1816C114.186 81.9137 112.64 79.6458 111.069 77.3779C105.358 81.0868 101.942 87.8846 102.443 95.6213Z" fill="#263238"/>
<path d="M121.665 74.3252C117.911 74.2879 114.227 75.3512 111.066 77.3844C112.637 79.6523 114.183 81.9202 115.706 84.1881C117.747 82.8509 120.135 82.1482 122.572 82.1682C124.827 82.1813 127.047 82.7298 129.049 83.7687C130.133 81.5009 131.195 79.235 132.235 76.971C128.973 75.2559 125.349 74.3487 121.665 74.3252Z" fill="url(#paint8_linear_1214_76229)"/>
<path opacity="0.5" d="M121.665 74.3252C117.911 74.2879 114.227 75.3512 111.066 77.3844C112.637 79.6523 114.183 81.9202 115.706 84.1881C117.747 82.8509 120.135 82.1482 122.572 82.1682C124.827 82.1813 127.047 82.7298 129.049 83.7687C130.133 81.5009 131.195 79.235 132.235 76.971C128.973 75.2559 125.349 74.3487 121.665 74.3252Z" fill="#263238"/>
<path d="M131.217 90.252C131.217 90.252 123.315 93.4943 122.479 94.0849C122.279 94.2366 122.112 94.4268 121.986 94.6443C121.861 94.8619 121.78 95.1024 121.749 95.3517C121.718 95.601 121.737 95.854 121.804 96.0959C121.872 96.3378 121.987 96.5637 122.143 96.7603C122.438 97.1804 122.885 97.469 123.388 97.5649C123.891 97.6608 124.412 97.5565 124.84 97.2741C125.706 96.6481 131.229 90.252 131.217 90.252ZM122.915 96.1579C122.838 96.0611 122.781 95.95 122.748 95.8309C122.714 95.7118 122.705 95.5872 122.72 95.4645C122.736 95.3418 122.775 95.2234 122.837 95.1163C122.899 95.0092 122.981 94.9155 123.079 94.8409C123.291 94.704 123.548 94.6541 123.795 94.7014C124.043 94.7486 124.263 94.8895 124.41 95.0948C124.487 95.1915 124.544 95.3027 124.577 95.4218C124.611 95.5409 124.62 95.6654 124.604 95.7882C124.589 95.9109 124.549 96.0293 124.488 96.1364C124.426 96.2435 124.344 96.3372 124.245 96.4118C124.036 96.5511 123.782 96.6048 123.534 96.562C123.287 96.5192 123.065 96.383 122.915 96.1815V96.1579Z" fill="#263238"/>
<path d="M140.583 86.496C140.621 86.8515 140.584 87.2111 140.473 87.551C140.362 87.8908 140.18 88.203 139.939 88.4668C139.699 88.7306 139.405 88.9399 139.077 89.0807C138.749 89.2216 138.395 89.2907 138.039 89.2836C137.283 89.2687 136.56 88.9769 136.004 88.4633C135.449 87.9497 135.1 87.2499 135.024 86.496C134.984 86.1424 135.019 85.7843 135.128 85.4456C135.237 85.1068 135.417 84.7954 135.655 84.532C135.894 84.2686 136.186 84.0594 136.512 83.9184C136.837 83.7774 137.189 83.7078 137.544 83.7143C138.302 83.7271 139.028 84.0169 139.588 84.529C140.147 85.0412 140.501 85.7407 140.583 86.496Z" fill="white"/>
<path d="M137.14 85.861C137.146 85.9171 137.14 85.9738 137.122 86.0274C137.105 86.081 137.076 86.1303 137.038 86.1721C137.001 86.2139 136.954 86.2472 136.903 86.27C136.851 86.2927 136.796 86.3043 136.74 86.304C136.619 86.3031 136.503 86.2573 136.413 86.1755C136.324 86.0937 136.268 85.9817 136.257 85.861C136.25 85.8047 136.255 85.7476 136.273 85.6936C136.29 85.6396 136.318 85.5899 136.356 85.5479C136.394 85.5059 136.441 85.4725 136.493 85.4501C136.545 85.4278 136.601 85.4168 136.657 85.4181C136.778 85.419 136.894 85.4647 136.983 85.5465C137.073 85.6283 137.128 85.7404 137.14 85.861Z" fill="#263238"/>
<path d="M139.255 85.8612C139.261 85.9178 139.255 85.975 139.237 86.029C139.219 86.083 139.19 86.1326 139.152 86.1745C139.113 86.2164 139.066 86.2496 139.014 86.272C138.962 86.2943 138.906 86.3053 138.849 86.3041C138.729 86.3007 138.614 86.2541 138.525 86.1728C138.437 86.0914 138.38 85.9808 138.366 85.8612C138.359 85.8044 138.365 85.7468 138.382 85.6923C138.4 85.6379 138.429 85.5879 138.467 85.5458C138.506 85.5037 138.553 85.4704 138.606 85.4484C138.659 85.4264 138.715 85.4161 138.772 85.4182C138.893 85.4191 139.009 85.4649 139.099 85.5467C139.188 85.6285 139.244 85.7405 139.255 85.8612Z" fill="#263238"/>
<path d="M137.948 88.1754C137.365 88.1708 136.805 87.9499 136.375 87.5553C136.335 87.5144 136.312 87.4592 136.312 87.4017C136.312 87.3442 136.335 87.2891 136.375 87.2482C136.395 87.2274 136.419 87.211 136.445 87.1997C136.472 87.1884 136.5 87.1826 136.528 87.1826C136.557 87.1826 136.585 87.1884 136.612 87.1997C136.638 87.211 136.662 87.2274 136.682 87.2482C137.03 87.5703 137.485 87.7513 137.959 87.7561C138.179 87.761 138.398 87.7194 138.601 87.6339C138.804 87.5484 138.986 87.421 139.137 87.26C139.177 87.2177 139.232 87.193 139.29 87.1913C139.318 87.1905 139.347 87.1954 139.374 87.2056C139.401 87.2159 139.425 87.2313 139.446 87.2511C139.467 87.2709 139.484 87.2946 139.496 87.3209C139.507 87.3472 139.514 87.3755 139.515 87.4043C139.515 87.4331 139.511 87.4618 139.5 87.4887C139.49 87.5156 139.475 87.5402 139.455 87.5612C139.261 87.7643 139.026 87.924 138.767 88.0299C138.507 88.1357 138.228 88.1853 137.948 88.1754Z" fill="#263238"/>
<path d="M124.898 78.1927C124.947 78.5441 124.919 78.9019 124.816 79.2414C124.713 79.581 124.538 79.8941 124.303 80.1591C124.068 80.4242 123.778 80.6349 123.454 80.7767C123.13 80.9184 122.779 80.9879 122.425 80.9802C121.663 80.9625 120.933 80.6714 120.367 80.16C119.801 79.6486 119.436 78.9506 119.339 78.1927C119.287 77.8428 119.311 77.4857 119.411 77.1464C119.511 76.807 119.684 76.4938 119.917 76.2286C120.151 75.9635 120.439 75.7528 120.763 75.6116C121.086 75.4703 121.436 75.4018 121.789 75.411C122.552 75.429 123.284 75.7187 123.854 76.2284C124.423 76.738 124.793 77.4343 124.898 78.1927Z" fill="white"/>
<path d="M121.435 77.5437C121.442 77.5991 121.438 77.6556 121.422 77.7092C121.406 77.7628 121.378 77.8123 121.341 77.8544C121.305 77.8964 121.259 77.9299 121.208 77.9528C121.157 77.9756 121.102 77.9871 121.046 77.9866C120.925 77.9836 120.808 77.9374 120.718 77.8562C120.627 77.7751 120.568 77.6643 120.551 77.5437C120.543 77.488 120.546 77.4312 120.562 77.3771C120.578 77.3231 120.605 77.2731 120.642 77.2309C120.679 77.1886 120.725 77.155 120.777 77.1325C120.828 77.1101 120.884 77.0992 120.94 77.1007C121.062 77.1026 121.179 77.1484 121.27 77.2297C121.361 77.3111 121.419 77.4225 121.435 77.5437Z" fill="#263238"/>
<path d="M123.545 77.5436C123.553 77.5996 123.548 77.6566 123.532 77.7106C123.515 77.7647 123.487 77.8145 123.45 77.8566C123.412 77.8987 123.366 77.9322 123.315 77.9546C123.263 77.9771 123.207 77.988 123.151 77.9866C123.03 77.9824 122.914 77.9358 122.823 77.8549C122.733 77.7739 122.674 77.6638 122.656 77.5436C122.648 77.4877 122.653 77.4307 122.669 77.3767C122.686 77.3226 122.714 77.2728 122.751 77.2307C122.789 77.1886 122.835 77.1551 122.887 77.1327C122.938 77.1102 122.994 77.0993 123.051 77.1007C123.172 77.1037 123.288 77.15 123.379 77.2311C123.47 77.3122 123.528 77.423 123.545 77.5436Z" fill="#263238"/>
<path d="M123.592 79.314H120.836C120.784 79.3054 120.736 79.2784 120.702 79.2379C120.667 79.1973 120.648 79.1458 120.648 79.0926C120.648 79.0393 120.667 78.9878 120.702 78.9473C120.736 78.9067 120.784 78.8797 120.836 78.8711H123.592C123.644 78.8797 123.692 78.9067 123.726 78.9473C123.76 78.9878 123.779 79.0393 123.779 79.0926C123.779 79.1458 123.76 79.1973 123.726 79.2379C123.692 79.2784 123.644 79.3054 123.592 79.314Z" fill="#263238"/>
<path d="M110.918 86.496C110.957 86.8515 110.92 87.2111 110.809 87.551C110.698 87.8908 110.516 88.203 110.275 88.4668C110.034 88.7306 109.74 88.9399 109.413 89.0807C109.085 89.2216 108.731 89.2907 108.375 89.2836C107.619 89.2687 106.896 88.9769 106.34 88.4633C105.785 87.9497 105.436 87.2499 105.36 86.496C105.32 86.1424 105.355 85.7843 105.464 85.4456C105.573 85.1068 105.753 84.7954 105.991 84.532C106.23 84.2686 106.522 84.0594 106.848 83.9184C107.173 83.7774 107.525 83.7078 107.88 83.7143C108.637 83.7284 109.363 84.0185 109.922 84.5305C110.481 85.0424 110.836 85.7412 110.918 86.496Z" fill="white"/>
<path d="M107.464 85.861C107.47 85.9171 107.464 85.9738 107.446 86.0274C107.429 86.081 107.4 86.1303 107.363 86.1721C107.325 86.2139 107.279 86.2472 107.227 86.27C107.176 86.2927 107.12 86.3043 107.064 86.304C106.943 86.3031 106.827 86.2573 106.738 86.1755C106.648 86.0937 106.593 85.9817 106.581 85.861C106.574 85.8047 106.58 85.7476 106.597 85.6936C106.614 85.6396 106.642 85.5899 106.68 85.5479C106.718 85.5059 106.765 85.4725 106.817 85.4501C106.869 85.4278 106.925 85.4168 106.981 85.4181C107.102 85.419 107.218 85.4647 107.308 85.5465C107.397 85.6283 107.453 85.7404 107.464 85.861Z" fill="#263238"/>
<path d="M109.574 85.861C109.58 85.9173 109.575 85.9744 109.558 86.0284C109.541 86.0824 109.512 86.1321 109.474 86.1741C109.436 86.2161 109.39 86.2495 109.338 86.2719C109.286 86.2943 109.23 86.3052 109.173 86.304C109.053 86.3005 108.938 86.2539 108.85 86.1726C108.761 86.0913 108.704 85.9807 108.69 85.861C108.684 85.8047 108.689 85.7476 108.706 85.6936C108.723 85.6396 108.752 85.5899 108.79 85.5479C108.828 85.5059 108.874 85.4725 108.926 85.4501C108.978 85.4278 109.034 85.4168 109.091 85.4181C109.212 85.4176 109.329 85.4629 109.418 85.545C109.508 85.6271 109.563 85.7399 109.574 85.861Z" fill="#263238"/>
<path d="M106.866 88.174C106.839 88.1744 106.812 88.1694 106.787 88.1592C106.762 88.1491 106.739 88.1341 106.719 88.1149C106.679 88.074 106.656 88.0189 106.656 87.9614C106.656 87.9039 106.679 87.8487 106.719 87.8078C106.91 87.6042 107.141 87.4423 107.397 87.3326C107.654 87.2228 107.93 87.1674 108.209 87.17C108.792 87.1762 109.352 87.3993 109.781 87.796C109.802 87.8159 109.818 87.8397 109.829 87.8661C109.841 87.8925 109.846 87.9209 109.846 87.9496C109.846 87.9783 109.841 88.0067 109.829 88.0331C109.818 88.0595 109.802 88.0833 109.781 88.1031C109.739 88.1426 109.683 88.1645 109.625 88.1645C109.567 88.1645 109.511 88.1426 109.469 88.1031C109.121 87.7771 108.662 87.5956 108.185 87.5952C107.966 87.5903 107.748 87.6313 107.545 87.7157C107.342 87.8001 107.159 87.926 107.008 88.0854C106.973 88.1317 106.923 88.1633 106.866 88.174Z" fill="#263238"/>
<path d="M151.465 66.0644C149.627 62.1842 145.341 59.6152 140.718 59.6152H131.297C130.65 59.6438 130.007 59.5005 129.433 59.1997C128.859 58.899 128.375 58.4514 128.029 57.9025C126.716 55.4338 123.583 53.6738 120.027 53.6738C116.47 53.6738 113.55 55.4456 112.513 57.9025C112.083 58.9419 110.853 59.6152 109.439 59.6152H100.018C95.3957 59.6152 91.3976 62.1842 90.0079 66.0644C89.9564 66.1999 89.9363 66.3453 89.949 66.4897C89.9641 66.7926 90.0949 67.0781 90.3141 67.287C90.5333 67.4959 90.8243 67.6122 91.1267 67.6118H150.528C150.71 67.6122 150.888 67.5656 151.047 67.4765C151.205 67.3873 151.338 67.2587 151.432 67.1031C151.526 66.9475 151.578 66.7701 151.584 66.5881C151.59 66.4061 151.549 66.2257 151.465 66.0644ZM120.409 60.6841C119.707 60.6696 119.035 60.3918 118.526 59.9055C118.017 59.4191 117.708 58.7594 117.66 58.056C117.636 57.7173 117.683 57.3773 117.797 57.0575C117.911 56.7378 118.089 56.4452 118.322 56.1982C118.554 55.9513 118.835 55.7553 119.147 55.6227C119.458 55.4901 119.794 55.4238 120.133 55.4279C120.84 55.4352 121.518 55.7099 122.033 56.1971C122.547 56.6843 122.859 57.3482 122.906 58.056C122.93 58.3968 122.883 58.7388 122.767 59.0602C122.652 59.3816 122.471 59.6753 122.236 59.9227C122.001 60.17 121.717 60.3654 121.403 60.4965C121.088 60.6277 120.75 60.6916 120.409 60.6841Z" fill="#263238"/>
<path d="M212.522 242.383C212.061 242.44 211.596 242.325 211.215 242.058C211.165 241.996 211.134 241.92 211.127 241.84C211.119 241.76 211.136 241.68 211.174 241.61C211.202 241.549 211.244 241.495 211.296 241.453C211.348 241.411 211.409 241.382 211.474 241.368C212.169 241.173 213.776 242.035 213.829 242.076C213.849 242.085 213.866 242.1 213.877 242.119C213.887 242.139 213.891 242.161 213.888 242.183C213.887 242.202 213.88 242.221 213.867 242.236C213.854 242.251 213.837 242.261 213.817 242.265C213.39 242.342 212.956 242.381 212.522 242.383ZM211.745 241.545C211.68 241.535 211.615 241.535 211.55 241.545C211.51 241.552 211.472 241.569 211.44 241.593C211.407 241.618 211.38 241.65 211.362 241.686C211.303 241.816 211.362 241.881 211.362 241.917C211.598 242.194 212.693 242.2 213.482 242.088C212.94 241.804 212.352 241.62 211.745 241.545Z" fill="url(#paint9_linear_1214_76229)"/>
<path d="M213.817 242.265H213.776C213.229 242.028 212.086 241.083 212.11 240.599C212.11 240.481 212.18 240.339 212.463 240.31C212.675 240.292 212.885 240.355 213.052 240.487C213.492 240.95 213.791 241.53 213.912 242.158C213.919 242.173 213.923 242.189 213.923 242.205C213.923 242.222 213.919 242.238 213.912 242.253C213.898 242.262 213.882 242.268 213.866 242.271C213.849 242.273 213.833 242.271 213.817 242.265ZM212.563 240.493H212.504C212.322 240.493 212.316 240.581 212.316 240.605C212.316 240.9 213.087 241.639 213.658 241.957C213.547 241.453 213.296 240.991 212.934 240.623C212.827 240.542 212.697 240.501 212.563 240.505V240.493Z" fill="url(#paint10_linear_1214_76229)"/>
<path d="M218.564 242.168H214.236L212.688 232.116H217.015L218.564 242.168Z" fill="#FFC3BD"/>
<path d="M214.201 241.662H218.912C219.001 241.665 219.087 241.694 219.158 241.747C219.23 241.8 219.284 241.873 219.312 241.957L220.596 245.814C220.623 245.9 220.63 245.992 220.617 246.081C220.603 246.171 220.569 246.256 220.517 246.33C220.465 246.405 220.397 246.466 220.318 246.509C220.239 246.553 220.151 246.578 220.06 246.582C218.353 246.582 215.88 246.458 213.736 246.458C211.234 246.458 211.457 246.594 208.519 246.594C206.753 246.594 206.052 244.792 206.753 244.627C210.056 243.889 210.439 243.806 213.159 241.999C213.464 241.782 213.828 241.664 214.201 241.662Z" fill="#263238"/>
<path opacity="0.2" d="M212.688 232.121L213.488 237.301H217.816L217.015 232.121H212.688Z" fill="black"/>
<path d="M218.069 133.919L215.125 136.901L219.635 138.502C219.635 138.502 221.402 136.069 220.16 134.403L218.069 133.919Z" fill="#FFC3BD"/>
<path d="M214.129 141.071L218.633 141.732L219.64 138.502L215.13 136.901L214.129 141.071Z" fill="#FFC3BD"/>
<path d="M220.029 97.1943C220.411 98.0212 220.718 98.724 221.024 99.4917C221.33 100.26 221.613 100.998 221.907 101.754C222.466 103.272 222.967 104.819 223.432 106.384C223.905 107.967 224.299 109.574 224.61 111.197L224.833 112.438L225.016 113.701C225.081 114.121 225.122 114.558 225.157 114.989C225.193 115.42 225.252 115.81 225.252 116.353V117.121V117.8L225.216 118.467L225.151 119.099C225.075 119.95 224.963 120.747 224.857 121.556C224.621 123.151 224.351 124.71 224.05 126.281C223.426 129.37 222.743 132.388 221.919 135.429L216.554 134.366C216.896 131.366 217.249 128.319 217.532 125.318C217.667 123.818 217.815 122.324 217.897 120.859C217.932 120.139 217.974 119.406 217.974 118.715V118.196V117.717V117.239L217.932 116.849C217.905 116.538 217.862 116.229 217.803 115.922C217.75 115.591 217.703 115.261 217.626 114.924L217.408 113.914L217.155 112.898C216.79 111.54 216.378 110.176 215.907 108.811C215.436 107.447 214.912 106.089 214.358 104.742C214.087 104.063 213.805 103.39 213.51 102.728C213.216 102.067 212.921 101.376 212.633 100.803L220.029 97.1943Z" fill="#263238"/>
<path d="M199.695 131.802C199.695 131.802 200.414 165.017 202.357 178.246C204.382 192.007 211.778 236.295 211.778 236.295H219.103C219.103 236.295 216.477 194.145 215.641 180.602C214.728 165.838 214.928 131.802 214.928 131.802H199.695Z" fill="url(#paint11_linear_1214_76229)"/>
<path d="M210.021 233.363C209.985 233.363 210.774 236.417 210.774 236.417H219.689L219.625 233.694L210.021 233.363Z" fill="#263238"/>
<path d="M198.059 77.9608C198.082 77.5929 197.905 77.2827 197.665 77.2679C197.425 77.253 197.212 77.5393 197.189 77.9071C197.167 78.275 197.343 78.5853 197.583 78.6001C197.824 78.6149 198.037 78.3287 198.059 77.9608Z" fill="#263238"/>
<path d="M197.872 78.6006C197.395 79.7265 196.769 80.7833 196.012 81.7425C196.259 81.9227 196.543 82.0458 196.843 82.103C197.144 82.1602 197.453 82.15 197.749 82.0733L197.872 78.6006Z" fill="#ED847E"/>
<path d="M199.424 75.8888C199.378 75.8889 199.333 75.8766 199.294 75.8534C199.083 75.6871 198.836 75.5745 198.572 75.5251C198.309 75.4757 198.037 75.4911 197.781 75.5699C197.754 75.5803 197.726 75.5853 197.698 75.5847C197.67 75.5841 197.642 75.5778 197.616 75.5663C197.591 75.5547 197.567 75.5381 197.548 75.5174C197.529 75.4968 197.514 75.4724 197.504 75.4458C197.495 75.4187 197.491 75.39 197.493 75.3614C197.494 75.3327 197.502 75.3047 197.514 75.2789C197.527 75.2532 197.544 75.2301 197.566 75.2111C197.587 75.1921 197.612 75.1776 197.639 75.1683C197.962 75.063 198.306 75.0381 198.64 75.0957C198.974 75.1533 199.29 75.2917 199.559 75.499C199.604 75.534 199.633 75.585 199.64 75.6412C199.648 75.6974 199.634 75.7545 199.6 75.8002C199.579 75.8275 199.553 75.8497 199.522 75.8651C199.492 75.8805 199.458 75.8886 199.424 75.8888Z" fill="#263238"/>
<path d="M209.495 81.9834C208.765 85.1608 207.941 90.9781 210.084 93.0924C210.084 93.0924 209.107 96.3111 203.224 96.3111C196.747 96.3111 200.251 93.0924 200.251 93.0924C203.784 92.2479 203.813 89.6256 203.283 87.157L209.495 81.9834Z" fill="#FFC3BD"/>
<path d="M212.379 94.585C213.015 93.2916 213.716 91.8033 212.379 91.3426C210.919 90.8288 202.846 90.3091 200.014 91.2659C199.257 91.4593 198.608 91.9463 198.209 92.6197C197.811 93.2931 197.695 94.0978 197.888 94.8567L212.379 94.585Z" fill="url(#paint12_linear_1214_76229)"/>
<path d="M218.558 94.3446C222.286 96.0691 224.182 109.145 224.182 109.145L216.674 111.507C215.333 108.048 214.245 104.495 213.418 100.877C212.264 95.4195 214.743 92.5846 218.558 94.3446Z" fill="#263238"/>
<path d="M172.421 114.684L168.959 111.695L165.844 116.243C165.844 116.243 168.641 118.493 171.732 117.572L172.421 114.684Z" fill="#FFC3BD"/>
<path d="M164.399 110.249L163.922 114.743L165.847 116.244L168.962 111.696L164.399 110.249Z" fill="#FFC3BD"/>
<path d="M210.305 77.1536C209.869 81.6658 209.84 84.3234 207.484 86.6385C206.726 87.3922 205.777 87.9248 204.74 88.1793C203.703 88.4338 202.616 88.4006 201.596 88.0833C200.576 87.766 199.661 87.1765 198.95 86.3779C198.238 85.5794 197.757 84.6018 197.557 83.5497C196.732 79.4983 197.557 72.801 202.049 71.0056C203.006 70.592 204.054 70.4378 205.088 70.5585C206.123 70.6792 207.108 71.0705 207.944 71.6932C208.78 72.316 209.438 73.1482 209.853 74.1066C210.267 75.065 210.423 76.1158 210.305 77.1536Z" fill="#FFC3BD"/>
<path d="M201.083 78.5968C200.688 75.4784 200.753 74.2973 202.413 73.6063C200.688 73.2637 199.192 73.2165 198.48 72.2066C197.767 71.1966 197.597 68.6158 201.059 67.4346C200.741 68.0252 201.748 69.2536 204.934 68.1433C208.119 67.033 212.759 66.9149 213.177 70.1631C214.861 69.5725 217.682 74.7874 214.355 78.5968C211.582 81.786 209.733 83.9889 209.185 85.6839C209.159 85.7633 209.117 85.8363 209.061 85.8982C209.006 85.9601 208.937 86.0094 208.861 86.0429C208.785 86.0763 208.702 86.0932 208.619 86.0924C208.536 86.0916 208.454 86.0732 208.378 86.0382C207.23 85.5008 205.175 85.9614 204.256 86.2095C204.127 86.2431 203.99 86.2317 203.868 86.1769C203.746 86.1222 203.646 86.0275 203.585 85.9083C202.99 84.6799 201.383 81.1717 201.083 78.5968Z" fill="#263238"/>
<path d="M212.547 70.5559C212.547 70.5559 213.913 68.6247 216.533 70.0598C215.186 69.9968 213.838 70.1646 212.547 70.5559Z" fill="#263238"/>
<path d="M212.785 70.9702C212.785 70.9702 214.687 69.789 213.203 67.5625C213.294 68.7151 213.152 69.8742 212.785 70.9702Z" fill="#263238"/>
<path d="M203.289 78.7242C203.082 79.8407 202.53 80.8636 201.711 81.6476C200.621 82.6811 199.679 81.9488 199.65 80.62C199.62 79.4388 200.15 77.4426 201.416 76.911C202.682 76.3795 203.512 77.3894 203.289 78.7242Z" fill="#FFC3BD"/>
<path opacity="0.3" d="M200.305 150.258C200.729 160.168 201.394 171.673 202.36 178.246C202.731 180.75 203.272 184.258 203.92 188.327C206.523 174.082 208.077 155.727 200.305 150.258Z" fill="black"/>
<path d="M197.055 242.383C196.502 242.383 195.966 242.307 195.795 242.058C195.75 241.992 195.727 241.914 195.727 241.834C195.727 241.754 195.75 241.676 195.795 241.61C195.874 241.491 195.993 241.405 196.131 241.368C196.855 241.173 198.339 242.035 198.403 242.076C198.422 242.086 198.436 242.102 198.443 242.122C198.451 242.141 198.451 242.163 198.445 242.183C198.44 242.203 198.43 242.222 198.416 242.236C198.401 242.251 198.383 242.261 198.362 242.265C197.931 242.341 197.493 242.38 197.055 242.383ZM196.401 241.545C196.335 241.535 196.268 241.535 196.201 241.545C196.159 241.553 196.119 241.57 196.083 241.594C196.048 241.618 196.018 241.65 195.995 241.686C195.919 241.816 195.942 241.881 195.966 241.917C196.16 242.194 197.249 242.2 198.062 242.088C197.549 241.799 196.985 241.615 196.401 241.545Z" fill="url(#paint13_linear_1214_76229)"/>
<path d="M198.366 242.265H198.324C197.812 242.028 196.805 241.083 196.905 240.599C196.905 240.481 197.011 240.339 197.294 240.31C197.399 240.296 197.506 240.305 197.607 240.336C197.708 240.366 197.802 240.418 197.883 240.487C198.419 240.942 198.472 242.111 198.472 242.158C198.471 242.176 198.467 242.194 198.459 242.211C198.451 242.227 198.439 242.241 198.425 242.253C198.406 242.262 198.386 242.266 198.366 242.265ZM197.371 240.493H197.312C197.123 240.493 197.111 240.581 197.106 240.605C197.047 240.9 197.724 241.639 198.248 241.957C198.215 241.469 198.032 241.002 197.724 240.623C197.624 240.543 197.499 240.501 197.371 240.505V240.493Z" fill="url(#paint14_linear_1214_76229)"/>
<path d="M203.127 242.168H198.805L198.723 232.116H203.051L203.127 242.168Z" fill="#FFC3BD"/>
<path d="M198.849 241.662H203.56C203.644 241.661 203.726 241.69 203.791 241.744C203.856 241.798 203.899 241.874 203.913 241.957L204.638 245.814C204.654 245.909 204.65 246.006 204.624 246.099C204.599 246.192 204.553 246.279 204.491 246.352C204.428 246.425 204.351 246.484 204.263 246.524C204.175 246.563 204.08 246.583 203.984 246.582C202.282 246.582 199.821 246.458 197.684 246.458C195.175 246.458 193.008 246.594 190.07 246.594C188.303 246.594 187.868 244.792 188.615 244.627C192.025 243.889 194.792 243.806 197.778 241.999C198.098 241.791 198.468 241.675 198.849 241.662Z" fill="#263238"/>
<path opacity="0.2" d="M198.73 232.121L198.766 237.301H203.094L203.058 232.121H198.73Z" fill="black"/>
<path d="M191.986 131.802C191.986 131.802 190.219 164.243 190.254 177.472C190.254 191.233 197.203 236.295 197.203 236.295H204.528C204.528 236.295 202.62 192.036 203.444 178.535C204.322 163.771 208.573 131.814 208.573 131.814L191.986 131.802Z" fill="url(#paint15_linear_1214_76229)"/>
<path d="M195.878 233.363C195.842 233.363 196.178 236.417 196.178 236.417H205.093L205.434 233.694L195.878 233.363Z" fill="#263238"/>
<path d="M193.558 94.2968C193.558 94.2968 186.186 112.977 189.395 145.265H216.317C216.599 141.721 213.785 110.857 217.8 94.0724C215.253 93.5778 212.677 93.2503 210.087 93.092C206.812 92.9029 203.528 92.9029 200.253 93.092C197.994 93.32 195.756 93.7228 193.558 94.2968Z" fill="#263238"/>
<path opacity="0.2" d="M189.747 111.206C189.346 114.159 189.017 117.531 188.805 121.246C194.034 116.427 195.824 104.42 195.824 104.42L189.747 111.206Z" fill="black"/>
<path d="M196.326 103.192C195.266 105.956 194.194 108.619 193.017 111.295C191.839 113.97 190.62 116.61 189.248 119.256L188.712 120.242L188.441 120.738C188.33 120.939 188.341 120.951 188.035 121.465C187.507 122.297 186.775 122.981 185.909 123.449C185.193 123.827 184.412 124.063 183.607 124.146C182.501 124.248 181.385 124.158 180.31 123.88C179.459 123.669 178.625 123.397 177.813 123.065C176.356 122.46 174.945 121.75 173.591 120.939C172.926 120.555 172.29 120.142 171.66 119.758C171.03 119.374 170.458 118.884 169.781 118.411L172.961 113.521C175.243 114.782 177.638 115.824 180.115 116.634C180.641 116.797 181.178 116.919 181.723 117C182.033 117.066 182.354 117.066 182.665 117C182.7 117 182.588 116.964 182.394 117.065C182.157 117.186 181.955 117.365 181.805 117.585C181.682 117.791 181.841 117.484 181.894 117.366L182.106 116.899L182.53 115.972C183.648 113.468 184.685 110.875 185.692 108.295C186.698 105.714 187.676 103.021 188.577 100.416L196.326 103.192Z" fill="#263238"/>
<path d="M199.265 96.2615C200.643 100.124 190.892 115.674 190.892 115.674L185.109 109.928C185.109 109.928 186.587 105.044 188.536 99.1614C190.456 93.3795 197.952 92.5704 199.265 96.2615Z" fill="#263238"/>
</g>
<defs>
<linearGradient id="paint0_linear_1214_76229" x1="66.0313" y1="60.6807" x2="203.961" y2="83.2893" gradientUnits="userSpaceOnUse">
<stop stop-color="#369D9C"/>
<stop offset="1" stop-color="#28814D"/>
</linearGradient>
<linearGradient id="paint1_linear_1214_76229" x1="81.7617" y1="104.322" x2="104.468" y2="109.031" gradientUnits="userSpaceOnUse">
<stop stop-color="#369D9C"/>
<stop offset="1" stop-color="#28814D"/>
</linearGradient>
<linearGradient id="paint2_linear_1214_76229" x1="82.6797" y1="136.073" x2="105.38" y2="140.778" gradientUnits="userSpaceOnUse">
<stop stop-color="#369D9C"/>
<stop offset="1" stop-color="#28814D"/>
</linearGradient>
<linearGradient id="paint3_linear_1214_76229" x1="84.2773" y1="167.827" x2="107.05" y2="172.565" gradientUnits="userSpaceOnUse">
<stop stop-color="#369D9C"/>
<stop offset="1" stop-color="#28814D"/>
</linearGradient>
<linearGradient id="paint4_linear_1214_76229" x1="85.6133" y1="106.264" x2="106.504" y2="112.216" gradientUnits="userSpaceOnUse">
<stop stop-color="#369D9C"/>
<stop offset="1" stop-color="#28814D"/>
</linearGradient>
<linearGradient id="paint5_linear_1214_76229" x1="86.4922" y1="138.037" x2="107.451" y2="144.029" gradientUnits="userSpaceOnUse">
<stop stop-color="#369D9C"/>
<stop offset="1" stop-color="#28814D"/>
</linearGradient>
<linearGradient id="paint6_linear_1214_76229" x1="88.125" y1="169.885" x2="108.825" y2="175.719" gradientUnits="userSpaceOnUse">
<stop stop-color="#369D9C"/>
<stop offset="1" stop-color="#28814D"/>
</linearGradient>
<linearGradient id="paint7_linear_1214_76229" x1="129.066" y1="76.958" x2="147.639" y2="80.2375" gradientUnits="userSpaceOnUse">
<stop stop-color="#369D9C"/>
<stop offset="1" stop-color="#28814D"/>
</linearGradient>
<linearGradient id="paint8_linear_1214_76229" x1="111.066" y1="74.3242" x2="132.393" y2="83.8328" gradientUnits="userSpaceOnUse">
<stop stop-color="#369D9C"/>
<stop offset="1" stop-color="#28814D"/>
</linearGradient>
<linearGradient id="paint9_linear_1214_76229" x1="211.125" y1="241.339" x2="213.704" y2="242.738" gradientUnits="userSpaceOnUse">
<stop stop-color="#369D9C"/>
<stop offset="1" stop-color="#28814D"/>
</linearGradient>
<linearGradient id="paint10_linear_1214_76229" x1="212.109" y1="240.307" x2="214.222" y2="240.712" gradientUnits="userSpaceOnUse">
<stop stop-color="#369D9C"/>
<stop offset="1" stop-color="#28814D"/>
</linearGradient>
<linearGradient id="paint11_linear_1214_76229" x1="199.695" y1="131.802" x2="223.1" y2="132.705" gradientUnits="userSpaceOnUse">
<stop stop-color="#369D9C"/>
<stop offset="1" stop-color="#28814D"/>
</linearGradient>
<linearGradient id="paint12_linear_1214_76229" x1="197.797" y1="90.7314" x2="209.4" y2="99.6978" gradientUnits="userSpaceOnUse">
<stop stop-color="#369D9C"/>
<stop offset="1" stop-color="#28814D"/>
</linearGradient>
<linearGradient id="paint13_linear_1214_76229" x1="195.727" y1="241.339" x2="198.269" y2="242.716" gradientUnits="userSpaceOnUse">
<stop stop-color="#369D9C"/>
<stop offset="1" stop-color="#28814D"/>
</linearGradient>
<linearGradient id="paint14_linear_1214_76229" x1="196.898" y1="240.304" x2="198.747" y2="240.612" gradientUnits="userSpaceOnUse">
<stop stop-color="#369D9C"/>
<stop offset="1" stop-color="#28814D"/>
</linearGradient>
<linearGradient id="paint15_linear_1214_76229" x1="190.254" y1="131.802" x2="212.35" y2="132.607" gradientUnits="userSpaceOnUse">
<stop stop-color="#369D9C"/>
<stop offset="1" stop-color="#28814D"/>
</linearGradient>
<clipPath id="clip0_1214_76229">
<rect width="294.417" height="295.296" fill="white" transform="translate(0.292969 0.770508)"/>
</clipPath>
</defs>
</svg>
