<svg xmlns="http://www.w3.org/2000/svg" width="22" height="25" viewBox="0 0 22 25" fill="none">
  <path fill-rule="evenodd" clip-rule="evenodd" d="M16.5753 7.88672H5.22084C4.59405 7.88672 4.08594 8.46036 4.08594 9.16798V19.4227C4.08594 21.5464 5.61088 23.268 7.492 23.268H14.3041C15.2075 23.268 16.0738 22.8628 16.7126 22.1417C17.3513 21.4206 17.7102 20.4425 17.7102 19.4227V9.16798C17.7102 8.46036 17.2021 7.88672 16.5753 7.88672Z" stroke="#FF9A9A" stroke-width="1.55706" stroke-linecap="round" stroke-linejoin="round"/>
  <path fill-rule="evenodd" clip-rule="evenodd" d="M14.9871 4.81063L14.0007 2.58496C13.77 2.06395 13.2986 1.73469 12.7826 1.73438H9.0169C8.501 1.73469 8.02951 2.06395 7.7989 2.58496L6.8125 4.81063H14.9871Z" stroke="#FF9A9A" stroke-width="1.55706" stroke-linecap="round" stroke-linejoin="round"/>
  <path d="M9.40505 13.0122C9.40505 12.5822 9.0565 12.2337 8.62653 12.2337C8.19656 12.2337 7.848 12.5822 7.848 13.0122H9.40505ZM7.848 18.1388C7.848 18.5687 8.19656 18.9173 8.62653 18.9173C9.0565 18.9173 9.40505 18.5687 9.40505 18.1388H7.848ZM13.948 13.0122C13.948 12.5822 13.5995 12.2337 13.1695 12.2337C12.7395 12.2337 12.391 12.5822 12.391 13.0122H13.948ZM12.391 18.1388C12.391 18.5687 12.7395 18.9173 13.1695 18.9173C13.5995 18.9173 13.948 18.5687 13.948 18.1388H12.391ZM14.9844 4.03006C14.5544 4.03006 14.2058 4.37862 14.2058 4.80859C14.2058 5.23856 14.5544 5.58712 14.9844 5.58712V4.03006ZM17.7092 5.58712C18.1392 5.58712 18.4878 5.23856 18.4878 4.80859C18.4878 4.37862 18.1392 4.03006 17.7092 4.03006V5.58712ZM6.81079 5.58712C7.24076 5.58712 7.58932 5.23856 7.58932 4.80859C7.58932 4.37862 7.24076 4.03006 6.81079 4.03006V5.58712ZM4.08594 4.03006C3.65597 4.03006 3.30741 4.37862 3.30741 4.80859C3.30741 5.23856 3.65597 5.58712 4.08594 5.58712V4.03006ZM7.848 13.0122V18.1388H9.40505V13.0122H7.848ZM12.391 13.0122V18.1388H13.948V13.0122H12.391ZM14.9844 5.58712H17.7092V4.03006H14.9844V5.58712ZM6.81079 4.03006H4.08594V5.58712H6.81079V4.03006Z" fill="#FF9A9A"/>
</svg>