<svg width="24" height="24" viewBox="0 0 24 24" fill="none" xmlns="http://www.w3.org/2000/svg">
<g clip-path="url(#clip0_1214_64977)">
<path d="M23.017 8.78675C22.422 8.24475 21.655 7.97175 20.849 8.00475C20.045 8.04275 19.305 8.39175 18.763 8.98575L15.547 12.5197C14.996 11.6107 13.997 11.0007 12.858 11.0007H4C1.794 11.0007 0 12.7947 0 15.0007V20.0008C0 22.2068 1.794 24.0008 4 24.0008H8.965C11.814 24.0008 14.535 22.7808 16.431 20.6528L23.236 13.0147C24.329 11.7877 24.23 9.89175 23.017 8.78675ZM21.743 11.6858L14.938 19.3238C13.421 21.0248 11.244 22.0018 8.965 22.0018H4C2.897 22.0018 2 21.1048 2 20.0018V15.0017C2 13.8988 2.897 13.0017 4 13.0017H12.858C13.488 13.0017 14 13.5147 14 14.1447C14 14.7087 13.579 15.1957 13.019 15.2747L7.858 16.0118C7.312 16.0898 6.932 16.5968 7.01 17.1438C7.089 17.6908 7.595 18.0697 8.141 17.9928L13.301 17.2558C14.476 17.0878 15.431 16.2677 15.816 15.1967L20.242 10.3328C20.424 10.1337 20.672 10.0167 20.942 10.0037C21.214 9.99275 21.47 10.0848 21.67 10.2668C22.077 10.6378 22.11 11.2758 21.743 11.6877V11.6858ZM8.5 7.99775C9.435 7.99775 10.314 7.63375 10.975 6.97275C12.34 5.60775 12.339 3.38675 10.967 2.01475L9.199 0.28575C8.81 -0.09525 8.189 -0.09525 7.801 0.28575L6.026 2.02175C4.661 3.38575 4.661 5.60775 6.026 6.97175C6.687 7.63275 7.566 7.99675 8.501 7.99675L8.5 7.99775ZM7.432 3.44375L8.5 2.39875L9.561 3.43575C10.146 4.02075 10.146 4.97275 9.561 5.55775C8.996 6.12375 8.007 6.12375 7.44 5.55775C6.855 4.97275 6.855 4.02075 7.432 3.44375Z" fill="url(#paint0_linear_1214_64977)"/>
</g>
<defs>
<linearGradient id="paint0_linear_1214_64977" x1="0" y1="0" x2="27.7819" y2="5.77038" gradientUnits="userSpaceOnUse">
<stop stop-color="#369D9C"/>
<stop offset="1" stop-color="#28814D"/>
</linearGradient>
<clipPath id="clip0_1214_64977">
<rect width="24" height="24" fill="white"/>
</clipPath>
</defs>
</svg>
