<svg width="25" height="26" viewBox="0 0 25 26" fill="none" xmlns="http://www.w3.org/2000/svg">
<path d="M6.94297 23.9535H18.0546C20.2206 23.9535 21.2983 22.8549 21.2983 20.6785V11.1781C21.2983 9.8281 21.1519 9.24238 20.3148 8.38435L14.539 2.5147C13.7443 1.69819 13.0952 1.52051 11.9131 1.52051H6.94297C4.78761 1.52051 3.69922 2.62944 3.69922 4.80622V20.6785C3.69922 22.8652 4.78761 23.9535 6.94297 23.9535ZM7.02645 22.2692C5.94877 22.2692 5.38359 21.6933 5.38359 20.6473V4.83747C5.38359 3.80176 5.94877 3.20488 7.03717 3.20488H11.6827V9.28435C11.6827 10.6027 12.3523 11.2513 13.6497 11.2513H19.614V20.6473C19.614 21.6933 19.059 22.2692 17.9711 22.2692H7.02645ZM13.8381 9.67095C13.43 9.67095 13.2622 9.50399 13.2622 9.08524V3.52944L19.2889 9.6714L13.8381 9.67095Z" fill="url(#paint0_linear_1214_64804)"/>
<defs>
<linearGradient id="paint0_linear_1214_64804" x1="3.69922" y1="1.52051" x2="24.4045" y2="4.89513" gradientUnits="userSpaceOnUse">
<stop stop-color="#369D9C"/>
<stop offset="1" stop-color="#28814D"/>
</linearGradient>
</defs>
</svg>
