<svg width="28" height="28" viewBox="0 0 28 28" fill="none" xmlns="http://www.w3.org/2000/svg">
<path fill-rule="evenodd" clip-rule="evenodd" d="M21.0009 11.9H15.6627L18.8449 4.4758C18.8906 4.36928 18.9091 4.25309 18.8988 4.13765C18.8885 4.02222 18.8496 3.91115 18.7858 3.81442C18.722 3.71769 18.6351 3.63833 18.533 3.58345C18.4309 3.52857 18.3168 3.4999 18.2009 3.5H11.2009C11.0638 3.49988 10.9297 3.54001 10.8153 3.61542C10.7008 3.69083 10.611 3.7982 10.5569 3.9242L6.35694 13.7242C6.31127 13.8307 6.29277 13.9469 6.3031 14.0623C6.31342 14.1778 6.35224 14.2888 6.41608 14.3856C6.47992 14.4823 6.56678 14.5617 6.66885 14.6166C6.77093 14.6714 6.88504 14.7001 7.00094 14.7H10.4645L6.35134 24.9396C6.07134 25.6354 6.93514 26.2248 7.48114 25.7096L14.5147 19.0694L21.4559 13.132C21.5647 13.039 21.6423 12.9149 21.6784 12.7764C21.7145 12.6379 21.7072 12.4917 21.6576 12.3575C21.6081 12.2233 21.5185 12.1074 21.4011 12.0256C21.2837 11.9438 21.144 11.9 21.0009 11.9ZM14.6015 13.3H19.1053L13.5781 18.0292L8.83914 22.5022L12.1501 14.2604C12.1927 14.1542 12.2086 14.0392 12.1964 13.9254C12.1842 13.8116 12.1443 13.7026 12.0802 13.6078C12.0161 13.513 11.9297 13.4354 11.8287 13.3818C11.7276 13.3281 11.615 13.3 11.5005 13.3H8.06214L11.6629 4.9H17.1397L13.9575 12.3242C13.9119 12.4307 13.8934 12.5469 13.9037 12.6623C13.914 12.7778 13.9528 12.8888 14.0167 12.9856C14.0805 13.0823 14.1674 13.1617 14.2695 13.2166C14.3715 13.2714 14.4856 13.3001 14.6015 13.3Z" fill="url(#paint0_linear_1214_64928)"/>
<defs>
<linearGradient id="paint0_linear_1214_64928" x1="6.29688" y1="3.5" x2="24.5292" y2="6.1042" gradientUnits="userSpaceOnUse">
<stop stop-color="#369D9C"/>
<stop offset="1" stop-color="#28814D"/>
</linearGradient>
</defs>
</svg>
