<svg xmlns="http://www.w3.org/2000/svg" width="18" height="18" viewBox="0 0 18 18" fill="none">
    <g clip-path="url(#clip0_3168_101194)">
        <path d="M17.2275 4.68825C16.7498 4.42275 16.1663 4.44 15.6525 4.764L12 7.50075V6C12 5.45475 11.7038 4.95225 11.2275 4.68825C10.7498 4.42275 10.1655 4.44 9.6525 4.764L6 7.50075V1.5C6.41475 1.5 6.75 1.164 6.75 0.75C6.75 0.336 6.41475 0 6 0H0.75C0.33525 0 0 0.336 0 0.75C0 1.164 0.33525 1.5 0.75 1.5V14.25C0.75 16.3177 2.43225 18 4.5 18H14.25C16.3177 18 18 16.3177 18 14.25V6C18 5.45475 17.7037 4.95225 17.2275 4.68825ZM16.5 14.25C16.5 15.4905 15.4905 16.5 14.25 16.5H4.5C3.2595 16.5 2.25 15.4905 2.25 14.25V1.5H4.5V8.99325C4.5 8.9985 4.5 9.00375 4.5 9.00825V13.5C4.5 13.914 4.83525 14.25 5.25 14.25C5.66475 14.25 6 13.914 6 13.5V9.375L10.5 6V9C10.5 9.28425 10.6605 9.54375 10.9148 9.67125C11.169 9.79875 11.472 9.77175 11.7 9.60075L16.5 6.00075V14.25ZM10.5 12.75V13.5C10.5 13.914 10.164 14.25 9.75 14.25H9C8.586 14.25 8.25 13.914 8.25 13.5V12.75C8.25 12.336 8.586 12 9 12H9.75C10.164 12 10.5 12.336 10.5 12.75ZM12 13.5V12.75C12 12.336 12.336 12 12.75 12H13.5C13.914 12 14.25 12.336 14.25 12.75V13.5C14.25 13.914 13.914 14.25 13.5 14.25H12.75C12.336 14.25 12 13.914 12 13.5Z" fill="url(#paint0_linear_3168_101194)"/>
    </g>
    <defs>
        <linearGradient id="paint0_linear_3168_101194" x1="0" y1="0" x2="20.84" y2="4.32951" gradientUnits="userSpaceOnUse">
            <stop stop-color="#369D9C"/>
            <stop offset="1" stop-color="#28814D"/>
        </linearGradient>
        <clipPath id="clip0_3168_101194">
            <rect width="18" height="18" fill="white"/>
        </clipPath>
    </defs>
</svg>
