<svg width="30" height="31" viewBox="0 0 30 31" fill="none" xmlns="http://www.w3.org/2000/svg">
<path d="M15 14.3562C13.8219 14.3562 12.8129 13.9362 11.9729 13.0962C11.1329 12.2562 10.7133 11.2476 10.7143 10.0705C10.7152 8.89332 11.1348 7.88379 11.9729 7.04189C12.811 6.19998 13.82 5.78141 15 5.78617C16.18 5.79093 17.189 6.20998 18.0271 7.04332C18.8652 7.87665 19.2848 8.88617 19.2857 10.0719C19.2867 11.2576 18.8671 12.2662 18.0271 13.0976C17.1871 13.929 16.1781 14.3476 15 14.3562ZM5 24.6862V22.3347C5 21.7452 5.17143 21.1938 5.51429 20.6805C5.8581 20.1662 6.32 19.7671 6.9 19.4833C8.24857 18.8366 9.59809 18.3519 10.9486 18.029C12.2981 17.7052 13.6486 17.5433 15 17.5433C16.3514 17.5433 17.7024 17.7052 19.0529 18.029C20.4033 18.3528 21.7519 18.8376 23.0986 19.4833C23.6795 19.7671 24.1414 20.1662 24.4843 20.6805C24.8281 21.1938 25 21.7452 25 22.3347V24.6862H5ZM6.42857 23.2576H23.5714V22.3347C23.5714 22.0186 23.469 21.7209 23.2643 21.4419C23.0605 21.1638 22.7781 20.9286 22.4171 20.7362C21.2419 20.1666 20.0295 19.7305 18.78 19.4276C17.5305 19.1247 16.2705 18.9728 15 18.9719C13.7295 18.9709 12.4695 19.1224 11.22 19.4262C9.97048 19.73 8.7581 20.1662 7.58286 20.7347C7.22095 20.9271 6.93857 21.1624 6.73571 21.4405C6.53095 21.7195 6.42857 22.0176 6.42857 22.3347V23.2576ZM15 12.929C15.7857 12.929 16.4586 12.649 17.0186 12.089C17.5786 11.529 17.8581 10.8557 17.8571 10.069C17.8562 9.28236 17.5767 8.60998 17.0186 8.05189C16.4605 7.49379 15.7876 7.21379 15 7.21189C14.2124 7.20998 13.54 7.48998 12.9829 8.05189C12.4257 8.61379 12.1457 9.28617 12.1429 10.069C12.14 10.8519 12.42 11.5247 12.9829 12.0876C13.5457 12.6505 14.2181 12.93 15 12.9262" fill="url(#paint0_linear_1214_64632)"/>
<defs>
<linearGradient id="paint0_linear_1214_64632" x1="5" y1="5.78613" x2="28.0414" y2="10.8516" gradientUnits="userSpaceOnUse">
<stop stop-color="#369D9C"/>
<stop offset="1" stop-color="#28814D"/>
</linearGradient>
</defs>
</svg>
