<svg width="25" height="26" viewBox="0 0 25 26" fill="none" xmlns="http://www.w3.org/2000/svg">
<g clip-path="url(#clip0_1214_64707)">
<g clip-path="url(#clip1_1214_64707)">
<path d="M21.8833 23.596H21.4059V2.87466H21.8833C22.6109 2.87466 23.2029 2.28265 23.2029 1.555C23.2029 0.827359 22.611 0.235352 21.8833 0.235352H2.11658C1.38888 0.235352 0.796926 0.827359 0.796926 1.555C0.796926 2.28265 1.38893 2.87466 2.11658 2.87466H2.59392V9.64141C2.59392 9.87404 2.78242 10.0626 3.0151 10.0626C3.24778 10.0626 3.43628 9.87409 3.43628 9.64141V8.26559H7.95678C8.18941 8.26559 8.37796 8.07709 8.37796 7.84441C8.37796 7.61178 8.18946 7.42323 7.95678 7.42323H3.43623V2.87466H20.5637V7.42323H16.0431C15.8105 7.42323 15.622 7.61173 15.622 7.84441C15.622 8.07704 15.8105 8.26559 16.0431 8.26559H20.5636V18.2051H16.4923C16.2597 18.2051 16.0712 18.3936 16.0712 18.6263C16.0712 18.8589 16.2597 19.0475 16.4923 19.0475H20.5636V23.596H3.43623V19.0475H7.95673C8.18936 19.0475 8.37791 18.859 8.37791 18.6263C8.37791 18.3937 8.18941 18.2051 7.95673 18.2051H3.43623V11.4385C3.43623 11.2059 3.24773 11.0173 3.01505 11.0173C2.78237 11.0173 2.59387 11.2058 2.59387 11.4385V23.596H2.11653C1.38888 23.596 0.796875 24.1881 0.796875 24.9157C0.796875 25.6433 1.38888 26.2354 2.11653 26.2354H21.8833C22.6109 26.2354 23.2029 25.6433 23.2029 24.9157C23.2029 24.1881 22.611 23.596 21.8833 23.596ZM2.11658 2.03235C1.85338 2.03235 1.63923 1.8182 1.63923 1.555C1.63923 1.2918 1.85338 1.07766 2.11658 1.07766H21.8833C22.1465 1.07766 22.3607 1.2918 22.3607 1.555C22.3607 1.8182 22.1466 2.03235 21.8833 2.03235H2.11658ZM21.8833 25.393H2.11658C1.85338 25.393 1.63923 25.1789 1.63923 24.9157C1.63923 24.6525 1.85338 24.4384 2.11658 24.4384H21.8833C22.1465 24.4384 22.3607 24.6524 22.3607 24.9157C22.3607 25.1789 22.1465 25.393 21.8833 25.393Z" fill="url(#paint0_linear_1214_64707)"/>
<path d="M14.3717 9.91944C13.3612 8.40204 12.3677 7.18131 12.3258 7.13007C12.16 6.92669 11.8391 6.92669 11.6732 7.13007C11.6314 7.18126 10.6378 8.40204 9.62734 9.91944C8.23909 12.0042 7.53516 13.5736 7.53516 14.5842C7.53516 17.0459 9.53782 19.0486 11.9995 19.0486C14.4613 19.0486 16.4639 17.0459 16.4639 14.5842C16.4639 13.5736 15.76 12.0041 14.3717 9.91944ZM11.9995 18.2062C10.0024 18.2062 8.37752 16.5814 8.37752 14.5842C8.37752 13.0263 10.7497 9.67061 11.9996 8.07181C13.2496 9.6702 15.6216 13.0253 15.6216 14.5842C15.6216 16.5814 13.9967 18.2062 11.9995 18.2062Z" fill="url(#paint1_linear_1214_64707)"/>
<path d="M14.11 16.309C13.9548 16.1359 13.6885 16.1212 13.5152 16.2764C13.0975 16.6508 12.5591 16.8569 11.9993 16.8569C11.7667 16.8569 11.5781 17.0454 11.5781 17.2781C11.5781 17.5108 11.7666 17.6993 11.9993 17.6993C12.7669 17.6993 13.5049 17.4168 14.0773 16.9038C14.2506 16.7485 14.2652 16.4822 14.11 16.309Z" fill="url(#paint2_linear_1214_64707)"/>
<path d="M13.2602 10.6811C13.1314 10.4875 12.87 10.4348 12.6763 10.5637C12.4826 10.6925 12.43 10.9539 12.5588 11.1476C14.2531 13.6956 14.2726 14.5466 14.2726 14.5816C14.2726 14.8415 14.229 15.0965 14.1428 15.3394C14.0701 15.5443 14.1708 15.7778 14.3699 15.8654C14.5912 15.9628 14.8561 15.8484 14.9367 15.6207C15.055 15.2872 15.1149 14.9376 15.1149 14.5816C15.1149 14.2475 14.9341 13.1985 13.2602 10.6811Z" fill="url(#paint3_linear_1214_64707)"/>
</g>
</g>
<defs>
<linearGradient id="paint0_linear_1214_64707" x1="0.796875" y1="0.235352" x2="27.0173" y2="4.92967" gradientUnits="userSpaceOnUse">
<stop stop-color="#369D9C"/>
<stop offset="1" stop-color="#28814D"/>
</linearGradient>
<linearGradient id="paint1_linear_1214_64707" x1="7.53516" y1="6.97754" x2="18.0701" y2="8.59644" gradientUnits="userSpaceOnUse">
<stop stop-color="#369D9C"/>
<stop offset="1" stop-color="#28814D"/>
</linearGradient>
<linearGradient id="paint2_linear_1214_64707" x1="11.5781" y1="16.1689" x2="14.4031" y2="17.1811" gradientUnits="userSpaceOnUse">
<stop stop-color="#369D9C"/>
<stop offset="1" stop-color="#28814D"/>
</linearGradient>
<linearGradient id="paint3_linear_1214_64707" x1="12.4883" y1="10.4932" x2="15.6286" y2="10.8101" gradientUnits="userSpaceOnUse">
<stop stop-color="#369D9C"/>
<stop offset="1" stop-color="#28814D"/>
</linearGradient>
<clipPath id="clip0_1214_64707">
<rect width="25" height="25" fill="white" transform="translate(0 0.235352)"/>
</clipPath>
<clipPath id="clip1_1214_64707">
<rect width="26" height="26" fill="white" transform="translate(-1 0.235352)"/>
</clipPath>
</defs>
</svg>
