<svg xmlns="http://www.w3.org/2000/svg" width="22" height="22" viewBox="0 0 22 22" fill="none">
  <path d="M11.6361 1.65767L11.9716 2.12635L12.1358 2.35814L12.4572 2.81621L12.6143 3.04289L12.9207 3.49075L13.2181 3.93232L13.5057 4.36682L13.7838 4.79503L13.919 5.00639L14.1826 5.424L14.4368 5.83492L14.6815 6.23878L14.9161 6.63635C15.1384 7.01631 15.3543 7.40005 15.5635 7.78742L15.7599 8.15789L15.8546 8.34057L16.0369 8.70082C17.1306 10.9008 17.6775 12.7146 17.6775 14.1427C17.6775 17.8312 14.6874 20.8212 10.9989 20.8212C7.31035 20.8212 4.32031 17.8312 4.32031 14.1427C4.32031 12.7146 4.86717 10.9008 5.96088 8.70082L6.14317 8.34057L6.23746 8.15789L6.43428 7.78782C6.64347 7.40031 6.85932 7.01644 7.08171 6.63635L7.31624 6.23878L7.56099 5.83492L7.81517 5.424L8.07838 5.00639L8.21392 4.79464L8.49206 4.36682L8.77963 3.93232L9.07703 3.49114L9.38346 3.04328L9.7001 2.58796L9.86196 2.35814L10.1927 1.89299L10.3617 1.65807C10.4345 1.55714 10.5302 1.47496 10.641 1.41827C10.7518 1.36159 10.8744 1.33203 10.9989 1.33203C11.1233 1.33203 11.246 1.36159 11.3568 1.41827C11.4676 1.47496 11.5633 1.55714 11.6361 1.65807M10.9989 3.47346L10.6885 3.92014L10.3876 4.35935L10.0965 4.7915L9.95467 5.00482L9.67849 5.42596L9.41174 5.83964L9.1552 6.24624L9.03028 6.4466L8.78828 6.84221L8.67121 7.03746L8.44335 7.42167L8.2261 7.79882C8.11963 7.98503 8.01671 8.16889 7.91771 8.35L7.72442 8.70789L7.54096 9.05871C7.48124 9.17421 7.4231 9.28853 7.36692 9.40167L7.2031 9.73678L7.04871 10.0648C6.94892 10.2809 6.85581 10.4915 6.76899 10.6973L6.64328 11.0014C6.14199 12.2542 5.89174 13.3043 5.89174 14.1427C5.89174 16.9634 8.17817 19.2498 10.9989 19.2498C13.8196 19.2498 16.106 16.9634 16.106 14.1427C16.106 13.3043 15.8562 12.2542 15.3541 11.001L15.2288 10.6965C15.1423 10.4911 15.0488 10.2801 14.9491 10.064L14.7947 9.73639L14.6308 9.40128C14.5736 9.28657 14.5156 9.17224 14.4568 9.05832L14.2733 8.7075L14.0801 8.3496C13.9811 8.16889 13.8781 7.98464 13.7717 7.79803L13.554 7.42128L13.3266 7.03707L13.0897 6.645C13.0078 6.51163 12.9255 6.37858 12.8426 6.24585L12.586 5.83925L12.3193 5.42557L12.0431 5.00442L11.9017 4.7911L11.6102 4.35896L11.3096 3.91974C11.2075 3.77203 11.1042 3.62314 10.9989 3.47307M15.1125 13.7856C15.1141 13.8111 15.1137 13.8366 15.1113 13.8618C14.9856 15.2006 14.5566 16.2358 13.8243 16.9681C13.1227 17.6701 12.1425 18.0932 10.8838 18.2378L10.718 18.2551C10.6471 18.2618 10.5757 18.253 10.5085 18.2294C10.4414 18.2058 10.3801 18.168 10.329 18.1185C10.2779 18.069 10.238 18.009 10.2123 17.9427C10.1865 17.8763 10.1754 17.8052 10.1798 17.7342C10.1881 17.5966 10.2502 17.4677 10.3526 17.3755C10.4551 17.2833 10.5897 17.235 10.7274 17.2411C11.6129 17.2804 12.4057 16.9504 13.1062 16.25C13.7748 15.5813 14.1064 14.8286 14.1005 13.991L14.0973 13.8712C14.0911 13.7334 14.1393 13.5987 14.2316 13.4962C14.3238 13.3936 14.4527 13.3315 14.5904 13.3232C14.6551 13.3192 14.7199 13.328 14.7812 13.3491C14.8424 13.3702 14.899 13.4031 14.9475 13.4461C14.996 13.489 15.0356 13.5411 15.064 13.5993C15.0924 13.6576 15.1086 13.7209 15.1125 13.7856Z" fill="url(#paint0_linear_3168_101168)"/>
  <defs>
    <linearGradient id="paint0_linear_3168_101168" x1="4.32031" y1="1.33203" x2="20.1318" y2="3.58333" gradientUnits="userSpaceOnUse">
      <stop stop-color="#369D9C"/>
      <stop offset="1" stop-color="#28814D"/>
    </linearGradient>
  </defs>
</svg>