<svg width="14" height="20" viewBox="0 0 14 20" fill="none" xmlns="http://www.w3.org/2000/svg">
<path d="M7.6361 0.657674L7.9716 1.12635L8.13581 1.35814L8.45717 1.81621L8.61431 2.04289L8.92074 2.49075L9.21813 2.93232L9.50571 3.36682L9.78385 3.79503L9.91899 4.00639L10.1826 4.424L10.4368 4.83492L10.6815 5.23878L10.9161 5.63635C11.1384 6.01631 11.3543 6.40005 11.5635 6.78742L11.7599 7.15789L11.8546 7.34057L12.0369 7.70082C13.1306 9.90082 13.6775 11.7146 13.6775 13.1427C13.6775 16.8312 10.6874 19.8212 6.99888 19.8212C3.31035 19.8212 0.320312 16.8312 0.320312 13.1427C0.320312 11.7146 0.867169 9.90082 1.96088 7.70082L2.14317 7.34057L2.23746 7.15789L2.43428 6.78782C2.64347 6.40031 2.85932 6.01644 3.08171 5.63635L3.31624 5.23878L3.56099 4.83492L3.81517 4.424L4.07838 4.00639L4.21392 3.79464L4.49206 3.36682L4.77963 2.93232L5.07703 2.49114L5.38346 2.04328L5.7001 1.58796L5.86196 1.35814L6.19274 0.892995L6.36167 0.658067C6.43447 0.557143 6.53021 0.474956 6.64099 0.418273C6.75178 0.36159 6.87444 0.332031 6.99888 0.332031C7.12333 0.332031 7.24599 0.36159 7.35677 0.418273C7.46756 0.474956 7.56329 0.557143 7.6361 0.658067M6.99888 2.47346L6.68853 2.92014L6.3876 3.35935L6.09649 3.7915L5.95467 4.00482L5.67849 4.42596L5.41174 4.83964L5.1552 5.24624L5.03028 5.4466L4.78828 5.84221L4.67121 6.03746L4.44335 6.42167L4.2261 6.79882C4.11963 6.98503 4.01671 7.16889 3.91771 7.35L3.72442 7.70789L3.54096 8.05871C3.48124 8.17421 3.4231 8.28853 3.36692 8.40167L3.2031 8.73678L3.04871 9.06482C2.94892 9.28089 2.85581 9.49146 2.76899 9.69732L2.64328 10.0014C2.14199 11.2542 1.89174 12.3043 1.89174 13.1427C1.89174 15.9634 4.17817 18.2498 6.99888 18.2498C9.8196 18.2498 12.106 15.9634 12.106 13.1427C12.106 12.3043 11.8562 11.2542 11.3541 10.001L11.2288 9.69653C11.1423 9.49107 11.0488 9.2801 10.9491 9.06403L10.7947 8.73639L10.6308 8.40128C10.5736 8.28657 10.5156 8.17224 10.4568 8.05832L10.2733 7.7075L10.0801 7.3496C9.98106 7.16889 9.87813 6.98464 9.77167 6.79803L9.55403 6.42128L9.32656 6.03707L9.08967 5.645C9.00782 5.51163 8.92545 5.37858 8.84256 5.24585L8.58603 4.83925L8.31928 4.42557L8.0431 4.00442L7.90167 3.7911L7.61017 3.35896L7.30963 2.91974C7.20749 2.77203 7.10417 2.62314 6.99888 2.47307M11.1125 12.7856C11.1141 12.8111 11.1137 12.8366 11.1113 12.8618C10.9856 14.2006 10.5566 15.2358 9.82431 15.9681C9.12267 16.6701 8.14249 17.0932 6.88378 17.2378L6.71799 17.2551C6.64714 17.2618 6.57568 17.253 6.50853 17.2294C6.44139 17.2058 6.38014 17.168 6.329 17.1185C6.27787 17.069 6.23805 17.009 6.21229 16.9427C6.18653 16.8763 6.17544 16.8052 6.17978 16.7342C6.1881 16.5966 6.25018 16.4677 6.35263 16.3755C6.45509 16.2833 6.5897 16.235 6.72742 16.2411C7.61292 16.2804 8.4057 15.9504 9.10617 15.25C9.77481 14.5813 10.1064 13.8286 10.1005 12.991L10.0973 12.8712C10.0911 12.7334 10.1393 12.5987 10.2316 12.4962C10.3238 12.3936 10.4527 12.3315 10.5904 12.3232C10.6551 12.3192 10.7199 12.328 10.7812 12.3491C10.8424 12.3702 10.899 12.4031 10.9475 12.4461C10.996 12.489 11.0356 12.5411 11.064 12.5993C11.0924 12.6576 11.1086 12.7209 11.1125 12.7856Z" fill="url(#paint0_linear_1214_42386)"/>
<defs>
<linearGradient id="paint0_linear_1214_42386" x1="0.320313" y1="0.332031" x2="16.1318" y2="2.58333" gradientUnits="userSpaceOnUse">
<stop stopColor="#369D9C"/>
<stop offset="1" stopColor="#28814D"/>
</linearGradient>
</defs>
</svg>
