<svg width="320" height="70" viewBox="0 0 320 70" fill="none" xmlns="http://www.w3.org/2000/svg">
<g filter="url(#filter0_dddiii_5596_60481)">
<path d="M9 20.5C9 9.45431 17.9543 0.5 29 0.5H291C302.046 0.5 311 9.45431 311 20.5C311 31.5457 302.046 40.5 291 40.5H29C17.9543 40.5 9 31.5457 9 20.5Z" fill="url(#paint0_radial_5596_60481)"/>
<path d="M9.27679 20.5C9.27679 9.60717 18.1072 0.776786 29 0.776786H291C301.893 0.776786 310.723 9.60717 310.723 20.5C310.723 31.3928 301.893 40.2232 291 40.2232H29C18.1072 40.2232 9.27679 31.3928 9.27679 20.5Z" stroke="url(#paint1_radial_5596_60481)" stroke-width="0.553571"/>
<path d="M111.009 18.5348C110.913 18.2332 110.784 17.9631 110.621 17.7244C110.462 17.4825 110.272 17.277 110.05 17.108C109.828 16.9356 109.574 16.8047 109.289 16.7152C109.007 16.6257 108.697 16.581 108.359 16.581C107.786 16.581 107.269 16.7285 106.808 17.0234C106.348 17.3184 105.983 17.7509 105.714 18.321C105.449 18.8878 105.317 19.5821 105.317 20.4041C105.317 21.2294 105.451 21.9271 105.719 22.4972C105.988 23.0672 106.356 23.4998 106.823 23.7947C107.29 24.0897 107.822 24.2372 108.419 24.2372C108.973 24.2372 109.455 24.1245 109.866 23.8991C110.28 23.6738 110.6 23.3556 110.825 22.9446C111.054 22.5303 111.168 22.0431 111.168 21.483L111.566 21.5575H108.653V20.2898H112.655V21.4482C112.655 22.3033 112.473 23.0457 112.108 23.6754C111.747 24.3018 111.246 24.7857 110.607 25.1271C109.97 25.4685 109.241 25.6392 108.419 25.6392C107.498 25.6392 106.689 25.4271 105.993 25.0028C105.3 24.5786 104.76 23.977 104.372 23.1982C103.984 22.416 103.79 21.4879 103.79 20.4141C103.79 19.602 103.903 18.8729 104.129 18.2266C104.354 17.5803 104.67 17.0317 105.078 16.581C105.489 16.1269 105.971 15.7805 106.525 15.5419C107.082 15.3 107.69 15.179 108.349 15.179C108.9 15.179 109.412 15.2602 109.886 15.4226C110.363 15.585 110.787 15.8153 111.158 16.1136C111.533 16.4119 111.843 16.7666 112.088 17.1776C112.333 17.5852 112.499 18.0376 112.585 18.5348H111.009ZM117.777 25.6541C117.024 25.6541 116.376 25.4934 115.833 25.1719C115.293 24.8471 114.875 24.3913 114.58 23.8047C114.288 23.2147 114.143 22.5237 114.143 21.7315C114.143 20.9493 114.288 20.2599 114.58 19.6634C114.875 19.0668 115.286 18.6011 115.813 18.2663C116.343 17.9316 116.963 17.7642 117.672 17.7642C118.103 17.7642 118.521 17.8355 118.925 17.978C119.33 18.1205 119.693 18.3442 120.014 18.6491C120.336 18.9541 120.589 19.3501 120.775 19.8374C120.96 20.3213 121.053 20.9096 121.053 21.6023V22.1293H114.983V21.0156H119.596C119.596 20.6245 119.517 20.2782 119.358 19.9766C119.199 19.6716 118.975 19.4313 118.687 19.2557C118.402 19.08 118.067 18.9922 117.682 18.9922C117.265 18.9922 116.9 19.0949 116.589 19.3004C116.28 19.5026 116.042 19.7678 115.873 20.0959C115.707 20.4207 115.624 20.7737 115.624 21.1548V22.0249C115.624 22.5353 115.714 22.9695 115.893 23.3274C116.075 23.6854 116.328 23.9588 116.653 24.1477C116.978 24.3333 117.358 24.4261 117.792 24.4261C118.073 24.4261 118.33 24.3864 118.562 24.3068C118.794 24.224 118.995 24.1013 119.164 23.9389C119.333 23.7765 119.462 23.576 119.552 23.3374L120.959 23.5909C120.846 24.0052 120.644 24.3681 120.352 24.6797C120.064 24.9879 119.701 25.2282 119.263 25.4006C118.829 25.5696 118.334 25.6541 117.777 25.6541ZM126.267 17.8636V19.0568H122.096V17.8636H126.267ZM123.214 16.0341H124.701V23.2578C124.701 23.5462 124.744 23.7633 124.83 23.9091C124.916 24.0516 125.027 24.1494 125.163 24.2024C125.303 24.2521 125.453 24.277 125.616 24.277C125.735 24.277 125.839 24.2687 125.929 24.2521C126.018 24.2356 126.088 24.2223 126.138 24.2124L126.406 25.4403C126.32 25.4735 126.197 25.5066 126.038 25.5398C125.879 25.5762 125.68 25.5961 125.442 25.5994C125.051 25.6061 124.686 25.5365 124.348 25.3906C124.01 25.2448 123.737 25.0194 123.528 24.7145C123.319 24.4096 123.214 24.0268 123.214 23.5661V16.0341ZM137.289 17.9929C137.236 17.5223 137.017 17.1577 136.633 16.8991C136.248 16.6373 135.764 16.5064 135.181 16.5064C134.763 16.5064 134.402 16.5727 134.097 16.7053C133.792 16.8345 133.555 17.0135 133.386 17.2422C133.221 17.4676 133.138 17.7244 133.138 18.0128C133.138 18.2547 133.194 18.4635 133.307 18.6392C133.423 18.8149 133.574 18.9624 133.759 19.0817C133.948 19.1977 134.15 19.2955 134.366 19.375C134.581 19.4512 134.788 19.5142 134.987 19.5639L135.982 19.8224C136.306 19.902 136.639 20.0097 136.981 20.1456C137.322 20.2815 137.639 20.4605 137.93 20.6825C138.222 20.9046 138.457 21.1797 138.636 21.5078C138.819 21.8359 138.91 22.2287 138.91 22.6861C138.91 23.2628 138.761 23.7749 138.462 24.2223C138.167 24.6697 137.738 25.0227 137.175 25.2812C136.615 25.5398 135.937 25.669 135.141 25.669C134.379 25.669 133.719 25.5481 133.163 25.3061C132.606 25.0642 132.17 24.7211 131.855 24.277C131.54 23.8295 131.366 23.2992 131.333 22.6861H132.874C132.904 23.054 133.023 23.3606 133.232 23.6058C133.444 23.8478 133.714 24.0284 134.043 24.1477C134.374 24.2637 134.737 24.3217 135.131 24.3217C135.566 24.3217 135.952 24.2538 136.29 24.1179C136.631 23.9787 136.9 23.7865 137.095 23.5412C137.291 23.2926 137.388 23.0026 137.388 22.6712C137.388 22.3696 137.302 22.1226 137.13 21.9304C136.961 21.7382 136.731 21.5791 136.439 21.4531C136.151 21.3272 135.824 21.2161 135.46 21.12L134.256 20.7919C133.441 20.5698 132.795 20.2434 132.317 19.8125C131.844 19.3816 131.607 18.8116 131.607 18.1023C131.607 17.5156 131.766 17.0036 132.084 16.5661C132.402 16.1286 132.833 15.7888 133.376 15.5469C133.92 15.3016 134.533 15.179 135.216 15.179C135.905 15.179 136.513 15.3 137.04 15.5419C137.571 15.7839 137.988 16.117 138.293 16.5412C138.598 16.9621 138.757 17.446 138.771 17.9929H137.289ZM144.191 17.8636V19.0568H140.02V17.8636H144.191ZM141.138 16.0341H142.625V23.2578C142.625 23.5462 142.668 23.7633 142.754 23.9091C142.84 24.0516 142.951 24.1494 143.087 24.2024C143.226 24.2521 143.377 24.277 143.54 24.277C143.659 24.277 143.763 24.2687 143.853 24.2521C143.942 24.2356 144.012 24.2223 144.062 24.2124L144.33 25.4403C144.244 25.4735 144.121 25.5066 143.962 25.5398C143.803 25.5762 143.604 25.5961 143.366 25.5994C142.974 25.6061 142.61 25.5365 142.272 25.3906C141.934 25.2448 141.66 25.0194 141.452 24.7145C141.243 24.4096 141.138 24.0268 141.138 23.5661V16.0341ZM148.058 25.669C147.574 25.669 147.136 25.5795 146.745 25.4006C146.354 25.2183 146.044 24.9548 145.815 24.6101C145.59 24.2654 145.477 23.8428 145.477 23.3423C145.477 22.9115 145.56 22.5568 145.726 22.2784C145.892 22 146.115 21.7796 146.397 21.6172C146.679 21.4548 146.994 21.3321 147.342 21.2493C147.69 21.1664 148.044 21.1035 148.406 21.0604C148.863 21.0073 149.234 20.9643 149.519 20.9311C149.804 20.8946 150.011 20.8366 150.141 20.7571C150.27 20.6776 150.335 20.5483 150.335 20.3693V20.3345C150.335 19.9003 150.212 19.5639 149.967 19.3253C149.725 19.0866 149.363 18.9673 148.883 18.9673C148.382 18.9673 147.988 19.0784 147.7 19.3004C147.415 19.5192 147.217 19.7628 147.108 20.0312L145.711 19.7131C145.877 19.2491 146.119 18.8745 146.437 18.5895C146.758 18.3011 147.128 18.0923 147.545 17.9631C147.963 17.8305 148.402 17.7642 148.863 17.7642C149.168 17.7642 149.491 17.8007 149.832 17.8736C150.177 17.9432 150.499 18.0724 150.797 18.2614C151.098 18.4503 151.345 18.7204 151.538 19.0717C151.73 19.4197 151.826 19.8722 151.826 20.429V25.5H150.374V24.456H150.315C150.219 24.6482 150.074 24.8371 149.882 25.0227C149.69 25.2083 149.443 25.3625 149.141 25.4851C148.84 25.6077 148.478 25.669 148.058 25.669ZM148.381 24.4759C148.792 24.4759 149.143 24.3946 149.435 24.2322C149.73 24.0698 149.953 23.8577 150.106 23.5959C150.262 23.3307 150.339 23.0473 150.339 22.7457V21.7614C150.286 21.8144 150.184 21.8641 150.031 21.9105C149.882 21.9536 149.711 21.9917 149.519 22.0249C149.327 22.0547 149.14 22.0829 148.957 22.1094C148.775 22.1326 148.623 22.1525 148.5 22.169C148.212 22.2055 147.948 22.2668 147.71 22.353C147.474 22.4392 147.285 22.5634 147.143 22.7259C147.004 22.8849 146.934 23.0971 146.934 23.3622C146.934 23.7301 147.07 24.0085 147.342 24.1974C147.613 24.383 147.96 24.4759 148.381 24.4759ZM153.806 25.5V17.8636H155.243V19.0767H155.322C155.461 18.6657 155.707 18.3426 156.058 18.1072C156.413 17.8686 156.814 17.7493 157.261 17.7493C157.354 17.7493 157.463 17.7526 157.589 17.7592C157.719 17.7659 157.82 17.7741 157.893 17.7841V19.206C157.833 19.1894 157.727 19.1712 157.574 19.1513C157.422 19.1281 157.269 19.1165 157.117 19.1165C156.766 19.1165 156.452 19.1911 156.177 19.3402C155.906 19.486 155.69 19.6899 155.531 19.9517C155.372 20.2102 155.292 20.5052 155.292 20.8366V25.5H153.806ZM163.195 17.8636V19.0568H159.024V17.8636H163.195ZM160.142 16.0341H161.629V23.2578C161.629 23.5462 161.672 23.7633 161.758 23.9091C161.844 24.0516 161.955 24.1494 162.091 24.2024C162.23 24.2521 162.381 24.277 162.544 24.277C162.663 24.277 162.767 24.2687 162.857 24.2521C162.946 24.2356 163.016 24.2223 163.066 24.2124L163.334 25.4403C163.248 25.4735 163.125 25.5066 162.966 25.5398C162.807 25.5762 162.608 25.5961 162.369 25.5994C161.978 25.6061 161.614 25.5365 161.276 25.3906C160.938 25.2448 160.664 25.0194 160.455 24.7145C160.247 24.4096 160.142 24.0268 160.142 23.5661V16.0341ZM168.048 25.6541C167.296 25.6541 166.648 25.4934 166.104 25.1719C165.564 24.8471 165.147 24.3913 164.852 23.8047C164.56 23.2147 164.414 22.5237 164.414 21.7315C164.414 20.9493 164.56 20.2599 164.852 19.6634C165.147 19.0668 165.558 18.6011 166.085 18.2663C166.615 17.9316 167.235 17.7642 167.944 17.7642C168.375 17.7642 168.792 17.8355 169.197 17.978C169.601 18.1205 169.964 18.3442 170.286 18.6491C170.607 18.9541 170.861 19.3501 171.046 19.8374C171.232 20.3213 171.325 20.9096 171.325 21.6023V22.1293H165.254V21.0156H169.868C169.868 20.6245 169.788 20.2782 169.629 19.9766C169.47 19.6716 169.246 19.4313 168.958 19.2557C168.673 19.08 168.338 18.9922 167.954 18.9922C167.536 18.9922 167.172 19.0949 166.86 19.3004C166.552 19.5026 166.313 19.7678 166.144 20.0959C165.978 20.4207 165.896 20.7737 165.896 21.1548V22.0249C165.896 22.5353 165.985 22.9695 166.164 23.3274C166.346 23.6854 166.6 23.9588 166.925 24.1477C167.25 24.3333 167.629 24.4261 168.063 24.4261C168.345 24.4261 168.602 24.3864 168.834 24.3068C169.066 24.224 169.266 24.1013 169.435 23.9389C169.604 23.7765 169.734 23.576 169.823 23.3374L171.23 23.5909C171.117 24.0052 170.915 24.3681 170.624 24.6797C170.335 24.9879 169.972 25.2282 169.535 25.4006C169.101 25.5696 168.605 25.6541 168.048 25.6541ZM175.833 25.6491C175.216 25.6491 174.666 25.4917 174.182 25.1768C173.701 24.8587 173.324 24.4062 173.048 23.8196C172.777 23.2296 172.641 22.522 172.641 21.6967C172.641 20.8714 172.778 20.1655 173.053 19.5788C173.332 18.9922 173.713 18.5431 174.197 18.2315C174.681 17.92 175.229 17.7642 175.843 17.7642C176.316 17.7642 176.698 17.8438 176.986 18.0028C177.278 18.1586 177.503 18.3409 177.662 18.5497C177.825 18.7585 177.95 18.9425 178.04 19.1016H178.129V15.3182H179.616V25.5H178.164V24.3118H178.04C177.95 24.4742 177.821 24.6598 177.652 24.8686C177.486 25.0774 177.258 25.2597 176.966 25.4155C176.674 25.5713 176.297 25.6491 175.833 25.6491ZM176.161 24.3814C176.588 24.3814 176.95 24.2687 177.244 24.0433C177.543 23.8146 177.768 23.4981 177.921 23.0938C178.076 22.6894 178.154 22.2187 178.154 21.6818C178.154 21.1515 178.078 20.6875 177.926 20.2898C177.773 19.892 177.549 19.5821 177.254 19.3601C176.959 19.138 176.595 19.027 176.161 19.027C175.713 19.027 175.34 19.143 175.042 19.375C174.744 19.607 174.518 19.9235 174.366 20.3246C174.217 20.7256 174.142 21.178 174.142 21.6818C174.142 22.1922 174.218 22.6513 174.371 23.0589C174.523 23.4666 174.749 23.7898 175.047 24.0284C175.349 24.2637 175.72 24.3814 176.161 24.3814Z" fill="white"/>
<g clip-path="url(#clip0_5596_60481)">
<path d="M200.127 20.5H213.877" stroke="white" stroke-width="1.5" stroke-linecap="round" stroke-linejoin="round"/>
<path d="M208.252 14.875L213.877 20.5L208.252 26.125" stroke="white" stroke-width="1.5" stroke-linecap="round" stroke-linejoin="round"/>
</g>
</g>
<defs>
<filter id="filter0_dddiii_5596_60481" x="0.142857" y="-12.7857" width="319.714" height="82.0714" filterUnits="userSpaceOnUse" color-interpolation-filters="sRGB">
<feFlood flood-opacity="0" result="BackgroundImageFix"/>
<feColorMatrix in="SourceAlpha" type="matrix" values="0 0 0 0 0 0 0 0 0 0 0 0 0 0 0 0 0 0 127 0" result="hardAlpha"/>
<feMorphology radius="8.85714" operator="erode" in="SourceAlpha" result="effect1_dropShadow_5596_60481"/>
<feOffset dy="19.9286"/>
<feGaussianBlur stdDeviation="8.85714"/>
<feComposite in2="hardAlpha" operator="out"/>
<feColorMatrix type="matrix" values="0 0 0 0 0 0 0 0 0 0.360784 0 0 0 0 0.192157 0 0 0 0.21 0"/>
<feBlend mode="normal" in2="BackgroundImageFix" result="effect1_dropShadow_5596_60481"/>
<feColorMatrix in="SourceAlpha" type="matrix" values="0 0 0 0 0 0 0 0 0 0 0 0 0 0 0 0 0 0 127 0" result="hardAlpha"/>
<feMorphology radius="4.42857" operator="erode" in="SourceAlpha" result="effect2_dropShadow_5596_60481"/>
<feOffset dy="4.42857"/>
<feGaussianBlur stdDeviation="4.42857"/>
<feComposite in2="hardAlpha" operator="out"/>
<feColorMatrix type="matrix" values="0 0 0 0 0 0 0 0 0 0.360784 0 0 0 0 0.192157 0 0 0 1 0"/>
<feBlend mode="normal" in2="effect1_dropShadow_5596_60481" result="effect2_dropShadow_5596_60481"/>
<feColorMatrix in="SourceAlpha" type="matrix" values="0 0 0 0 0 0 0 0 0 0 0 0 0 0 0 0 0 0 127 0" result="hardAlpha"/>
<feMorphology radius="4.42857" operator="erode" in="SourceAlpha" result="effect3_dropShadow_5596_60481"/>
<feOffset dy="1.10714"/>
<feComposite in2="hardAlpha" operator="out"/>
<feColorMatrix type="matrix" values="0 0 0 0 0 0 0 0 0 0.360784 0 0 0 0 0.192157 0 0 0 1 0"/>
<feBlend mode="normal" in2="effect2_dropShadow_5596_60481" result="effect3_dropShadow_5596_60481"/>
<feBlend mode="normal" in="SourceGraphic" in2="effect3_dropShadow_5596_60481" result="shape"/>
<feColorMatrix in="SourceAlpha" type="matrix" values="0 0 0 0 0 0 0 0 0 0 0 0 0 0 0 0 0 0 127 0" result="hardAlpha"/>
<feMorphology radius="8.85714" operator="dilate" in="SourceAlpha" result="effect4_innerShadow_5596_60481"/>
<feOffset dy="4.42857"/>
<feGaussianBlur stdDeviation="6.64286"/>
<feComposite in2="hardAlpha" operator="arithmetic" k2="-1" k3="1"/>
<feColorMatrix type="matrix" values="0 0 0 0 1 0 0 0 0 1 0 0 0 0 1 0 0 0 0.24 0"/>
<feBlend mode="normal" in2="shape" result="effect4_innerShadow_5596_60481"/>
<feColorMatrix in="SourceAlpha" type="matrix" values="0 0 0 0 0 0 0 0 0 0 0 0 0 0 0 0 0 0 127 0" result="hardAlpha"/>
<feOffset dy="-13.2857"/>
<feGaussianBlur stdDeviation="8.85714"/>
<feComposite in2="hardAlpha" operator="arithmetic" k2="-1" k3="1"/>
<feColorMatrix type="matrix" values="0 0 0 0 1 0 0 0 0 1 0 0 0 0 1 0 0 0 0.22 0"/>
<feBlend mode="normal" in2="effect4_innerShadow_5596_60481" result="effect5_innerShadow_5596_60481"/>
<feColorMatrix in="SourceAlpha" type="matrix" values="0 0 0 0 0 0 0 0 0 0 0 0 0 0 0 0 0 0 127 0" result="hardAlpha"/>
<feOffset dy="2.21429"/>
<feGaussianBlur stdDeviation="3.32143"/>
<feComposite in2="hardAlpha" operator="arithmetic" k2="-1" k3="1"/>
<feColorMatrix type="matrix" values="0 0 0 0 1 0 0 0 0 1 0 0 0 0 1 0 0 0 0.25 0"/>
<feBlend mode="normal" in2="effect5_innerShadow_5596_60481" result="effect6_innerShadow_5596_60481"/>
</filter>
<radialGradient id="paint0_radial_5596_60481" cx="0" cy="0" r="1" gradientUnits="userSpaceOnUse" gradientTransform="translate(160 20.5519) rotate(-180) scale(151 53.0449)">
<stop stop-color="#2E7B54"/>
<stop offset="1" stop-color="#00191D"/>
</radialGradient>
<radialGradient id="paint1_radial_5596_60481" cx="0" cy="0" r="1" gradientUnits="userSpaceOnUse" gradientTransform="translate(160 20.5) scale(151 20)">
<stop stop-color="white"/>
<stop offset="1" stop-color="white" stop-opacity="0"/>
</radialGradient>
<clipPath id="clip0_5596_60481">
<rect width="20" height="20" fill="white" transform="translate(197 10.5)"/>
</clipPath>
</defs>
</svg>
