<svg width="26" height="29" viewBox="0 0 26 29" fill="none" xmlns="http://www.w3.org/2000/svg">
<path d="M9.18626 9.19822V8.65339C9.18626 5.94645 11.1068 3.73438 13.4988 3.73438C15.8908 3.73438 17.8113 5.94645 17.8113 8.65339V9.19978H20.7553C20.9333 9.19997 21.105 9.27193 21.237 9.40171C21.369 9.5315 21.4519 9.70987 21.4697 9.90227L22.7634 23.9522C22.7735 24.0606 22.7625 24.1702 22.7312 24.2738C22.6998 24.3773 22.6489 24.4726 22.5816 24.5535C22.5143 24.6344 22.4321 24.6991 22.3404 24.7434C22.2487 24.7877 22.1494 24.8106 22.049 24.8108H4.94851C4.84812 24.8106 4.74886 24.7877 4.65714 24.7434C4.56541 24.6991 4.48325 24.6344 4.41594 24.5535C4.34864 24.4726 4.29768 24.3773 4.26635 24.2738C4.23503 24.1702 4.22403 24.0606 4.23407 23.9522L5.52782 9.90227C5.54563 9.70987 5.62856 9.5315 5.76055 9.40171C5.89255 9.27193 6.0642 9.19997 6.24226 9.19978H9.18626V9.19822ZM10.6238 9.19822H16.3738V8.65339C16.3738 6.78944 15.0771 5.29547 13.4988 5.29547C11.9204 5.29547 10.6238 6.78944 10.6238 8.65339V9.19978V9.19822ZM9.18626 10.7593H6.89345L5.74345 23.2481H21.2541L20.1026 10.7593H17.8113V13.101C17.8113 13.308 17.7355 13.5065 17.6007 13.6529C17.466 13.7993 17.2831 13.8815 17.0925 13.8815C16.9019 13.8815 16.7191 13.7993 16.5843 13.6529C16.4495 13.5065 16.3738 13.308 16.3738 13.101V10.7593H10.6238V13.101C10.6238 13.308 10.548 13.5065 10.4132 13.6529C10.2785 13.7993 10.0956 13.8815 9.90501 13.8815C9.71439 13.8815 9.53157 13.7993 9.39678 13.6529C9.26198 13.5065 9.18626 13.308 9.18626 13.101V10.7593Z" fill="url(#paint0_linear_1214_64501)"/>
<defs>
<linearGradient id="paint0_linear_1214_64501" x1="4.23047" y1="3.73438" x2="25.8948" y2="7.69276" gradientUnits="userSpaceOnUse">
<stop stop-color="#369D9C"/>
<stop offset="1" stop-color="#28814D"/>
</linearGradient>
</defs>
</svg>
