<svg width="24" height="25" viewBox="0 0 24 25" fill="none" xmlns="http://www.w3.org/2000/svg">
<g id="hand-holding-seeding" clip-path="url(#clip0_1214_73192)">
<path id="Vector" d="M23.047 17.5998L18.729 21.5348C16.698 23.3848 14.067 24.4028 11.321 24.4028H1C0.447 24.4028 0 23.9558 0 23.4028C0 22.8498 0.447 22.4028 1 22.4028H11.32C13.567 22.4028 15.719 21.5698 17.381 20.0558L21.665 16.1538C22.012 15.8058 22.095 15.2098 21.821 14.8298C21.641 14.5808 21.379 14.4308 21.081 14.4058C20.79 14.3868 20.501 14.4878 20.293 14.6958L16.059 18.5818C15.521 19.0898 14.797 19.4028 14 19.4028H9C8.447 19.4028 8 18.9558 8 18.4028C8 17.8498 8.447 17.4028 9 17.4028H14C14.252 17.4028 15 17.2878 15 16.4028C15 15.8508 14.552 15.4028 14 15.4028H9.088C6.685 15.4028 4.424 16.3398 2.724 18.0388L1.726 19.0918C1.529 19.2988 1.265 19.4038 1 19.4038C0.753 19.4038 0.505 19.3128 0.312 19.1298C-0.088 18.7488 -0.105 18.1158 0.275 17.7158L1.292 16.6448C3.389 14.5488 6.151 13.4048 9.089 13.4048H14.001C15.237 13.4048 16.301 14.1568 16.76 15.2268L18.911 13.2528C19.502 12.6598 20.367 12.3378 21.242 12.4138C22.122 12.4838 22.925 12.9388 23.445 13.6618C24.289 14.8358 24.118 16.5278 23.048 17.6008L23.047 17.5998ZM4.006 2.56484C3.964 1.98384 4.178 1.41184 4.594 0.996844C5.009 0.580844 5.581 0.362844 6.163 0.408844C9.04 0.611844 10.948 1.60384 12 3.52084C13.053 1.60384 14.96 0.611844 17.838 0.408844C18.429 0.360844 18.992 0.580844 19.406 0.996844C19.822 1.41184 20.036 1.98384 19.994 2.56584C19.683 6.97884 17.514 9.11084 13 9.37384V10.4018C13 10.9548 12.553 11.4018 12 11.4018C11.447 11.4018 11 10.9548 11 10.4018V9.37384C6.486 9.10984 4.317 6.97884 4.006 2.56484ZM13.032 7.37084C16.393 7.14684 17.766 5.73384 18 2.42484C14.671 2.63884 13.256 4.00984 13.032 7.37084ZM6.021 2.40284C6.235 5.73184 7.606 7.14684 10.967 7.37084C10.743 4.00984 9.33 2.63684 6.021 2.40284Z" fill="url(#paint0_linear_1214_73192)"/>
</g>
<defs>
<linearGradient id="paint0_linear_1214_73192" x1="0" y1="0.402344" x2="27.7655" y2="6.1657" gradientUnits="userSpaceOnUse">
<stop stop-color="#369D9C"/>
<stop offset="1" stop-color="#28814D"/>
</linearGradient>
<clipPath id="clip0_1214_73192">
<rect width="24" height="24" fill="white" transform="translate(0 0.402344)"/>
</clipPath>
</defs>
</svg>
