<svg width="24" height="24" viewBox="0 0 24 24" fill="none" xmlns="http://www.w3.org/2000/svg">
<g clip-path="url(#clip0_1214_72331)">
<path d="M23.017 8.78504C22.422 8.24304 21.655 7.97004 20.849 8.00304C20.045 8.04104 19.305 8.39004 18.763 8.98404L15.547 12.518C14.996 11.609 13.997 10.999 12.858 10.999H4C1.794 10.999 0 12.793 0 14.999V19.999C0 22.205 1.794 23.999 4 23.999H8.965C11.814 23.999 14.535 22.779 16.431 20.651L23.236 13.013C24.329 11.786 24.23 9.89004 23.017 8.78504ZM21.743 11.684L14.938 19.322C13.421 21.023 11.244 22 8.965 22H4C2.897 22 2 21.103 2 20V15C2 13.897 2.897 13 4 13H12.858C13.488 13 14 13.513 14 14.143C14 14.707 13.579 15.194 13.019 15.273L7.858 16.01C7.312 16.088 6.932 16.595 7.01 17.142C7.089 17.689 7.595 18.068 8.141 17.991L13.301 17.254C14.476 17.086 15.431 16.266 15.816 15.195L20.242 10.331C20.424 10.132 20.672 10.015 20.942 10.002C21.214 9.99104 21.47 10.083 21.67 10.265C22.077 10.636 22.11 11.274 21.743 11.686V11.684ZM8.5 7.99604C9.435 7.99604 10.314 7.63204 10.975 6.97104C12.34 5.60604 12.339 3.38504 10.967 2.01304L9.199 0.284041C8.81 -0.096959 8.189 -0.096959 7.801 0.284041L6.026 2.02004C4.661 3.38404 4.661 5.60604 6.026 6.97004C6.687 7.63104 7.566 7.99504 8.501 7.99504L8.5 7.99604ZM7.432 3.44204L8.5 2.39704L9.561 3.43404C10.146 4.01904 10.146 4.97104 9.561 5.55604C8.996 6.12204 8.007 6.12204 7.44 5.55604C6.855 4.97104 6.855 4.01904 7.432 3.44204Z" fill="url(#paint0_linear_1214_72331)"/>
</g>
<defs>
<linearGradient id="paint0_linear_1214_72331" x1="0" y1="-0.00170898" x2="27.7819" y2="5.76867" gradientUnits="userSpaceOnUse">
<stop stop-color="#369D9C"/>
<stop offset="1" stop-color="#28814D"/>
</linearGradient>
<clipPath id="clip0_1214_72331">
<rect width="24" height="24" fill="white"/>
</clipPath>
</defs>
</svg>
