<svg width="26" height="26" viewBox="0 0 26 26" fill="none" xmlns="http://www.w3.org/2000/svg">
<path d="M5.74428 12.5022C5.13572 11.8774 4.58728 11.1876 4.11278 10.4466L4.08191 10.3946C3.39291 9.0255 2.98909 7.41106 2.98909 5.70238C2.98909 4.95081 3.06709 4.21712 3.21578 3.51025L3.20359 3.57931C3.20766 3.55412 3.20928 3.52488 3.20928 3.49563C3.20928 3.15925 2.93628 2.88625 2.59991 2.88625C2.28709 2.88625 2.02953 3.12188 1.99459 3.42575V3.42819C1.85159 4.11637 1.76953 4.90775 1.76953 5.71781C1.76953 7.6475 2.23509 9.4675 3.05978 11.0738L3.02891 11.008C3.57978 11.8782 4.17778 12.6346 4.84484 13.3228L4.84159 13.3188C5.33803 13.8404 5.80522 14.4034 6.23259 14.9974L6.26509 15.0445C7.11578 16.3526 7.62116 17.9524 7.62116 19.6709C7.62116 20.589 7.47653 21.4738 7.20922 22.3034L7.22628 22.2424C7.20922 22.2969 7.19866 22.3586 7.19866 22.4236C7.19866 22.6958 7.37659 22.9258 7.62278 23.0046L7.62684 23.0054C7.68128 23.0216 7.74303 23.0322 7.80722 23.0322H7.80803C8.07941 23.0322 8.31016 22.8542 8.38734 22.6081L8.38816 22.604C8.68066 21.7224 8.84884 20.7076 8.84884 19.6538C8.84884 17.6851 8.26059 15.8529 7.25066 14.3246L7.27341 14.3604C6.77941 13.6689 6.27728 13.0628 5.73697 12.4932L5.74428 12.5006V12.5022ZM13.4265 12.5509C12.6903 11.7945 12.0265 10.9593 11.4521 10.0623L11.4147 9.99969C10.577 8.33975 10.0863 6.38163 10.0863 4.30894C10.0863 3.40138 10.1805 2.51575 10.3593 1.66181L10.3447 1.7455C10.3471 1.726 10.3479 1.70325 10.3479 1.67969C10.3479 1.34331 10.0749 1.07031 9.73853 1.07031C9.43222 1.07031 9.17872 1.29619 9.13566 1.59113V1.59438C8.96422 2.415 8.86672 3.35831 8.86672 4.32438C8.86672 6.61806 9.41922 8.78256 10.3983 10.6919L10.3617 10.6131C11.019 11.6507 11.7324 12.5518 12.5278 13.3732L12.5238 13.3691C13.1226 13.9988 13.6857 14.6772 14.2016 15.3931L14.2406 15.4499C15.2733 17.0392 15.8867 18.9827 15.8867 21.0692C15.8867 22.1847 15.7112 23.2597 15.3862 24.2672L15.4065 24.1932C15.3895 24.2469 15.3789 24.3094 15.3789 24.3736C15.3789 24.6458 15.5568 24.8766 15.803 24.9554L15.8071 24.9562C15.8615 24.9733 15.9233 24.983 15.9875 24.983C16.2597 24.983 16.4904 24.8051 16.5684 24.5589L16.5692 24.5548C16.9162 23.5083 17.116 22.3034 17.116 21.0513C17.116 18.7138 16.4189 16.5387 15.2213 14.7236L15.2481 14.7666C14.659 13.9436 14.061 13.2204 13.4167 12.5412L13.4248 12.5501L13.4265 12.5509ZM22.6077 14.5237C22.1137 13.8331 21.6124 13.2269 21.0721 12.6574L21.0794 12.6647C20.4708 12.0391 19.9224 11.3484 19.4471 10.6066L19.4162 10.5546C18.7264 9.18638 18.3226 7.57275 18.3226 5.86406C18.3226 5.1125 18.4006 4.37963 18.5493 3.67194L18.5371 3.741C18.5403 3.71825 18.542 3.69144 18.542 3.66462C18.542 3.32825 18.269 3.05525 17.9326 3.05525C17.623 3.05525 17.3671 3.286 17.3281 3.585V3.58825C17.1843 4.27644 17.1022 5.06781 17.1022 5.87869C17.1022 7.80756 17.5678 9.62838 18.3933 11.2331L18.3624 11.1672C18.9133 12.0391 19.5113 12.7963 20.18 13.4853L20.1767 13.4821C20.6732 14.0037 21.1395 14.5651 21.5661 15.1583L21.5986 15.2054C22.4485 16.5127 22.9547 18.1125 22.9547 19.8301C22.9547 20.7491 22.81 21.6339 22.5419 22.4642L22.559 22.4033C22.5419 22.4569 22.5313 22.5195 22.5313 22.5837C22.5313 22.8559 22.7093 23.0866 22.9555 23.1654L22.9595 23.1663C23.0123 23.1833 23.0733 23.1931 23.1367 23.1931C23.1383 23.1931 23.1391 23.1931 23.1407 23.1931C23.4129 23.1931 23.6437 23.0151 23.7217 22.7689L23.7225 22.7649C24.0142 21.8841 24.1823 20.8701 24.1823 19.8163C24.1823 17.8468 23.5941 16.0146 22.585 14.4855L22.6077 14.5221V14.5237Z" fill="url(#paint0_linear_1214_65000)"/>
<defs>
<linearGradient id="paint0_linear_1214_65000" x1="1.76953" y1="1.07031" x2="27.8498" y2="6.14863" gradientUnits="userSpaceOnUse">
<stop stop-color="#369D9C"/>
<stop offset="1" stop-color="#28814D"/>
</linearGradient>
</defs>
</svg>
