<svg width="24" height="25" viewBox="0 0 24 25" fill="none" xmlns="http://www.w3.org/2000/svg">
<g clip-path="url(#clip0_1214_72754)">
<path d="M20.017 24.2023C19.8626 24.2024 19.7103 24.1668 19.572 24.0982C19.4337 24.0297 19.3132 23.9301 19.2198 23.8072C19.1264 23.6842 19.0628 23.5414 19.0338 23.3898C19.0049 23.2382 19.0114 23.0819 19.053 22.9333C19.169 22.5143 19.3 22.1253 19.43 21.7423C20.715 19.0583 19.61 15.0593 18.174 13.1883C16.9491 11.3781 16.2281 9.27453 16.085 7.09358C15.9419 4.91262 16.382 2.73289 17.36 0.778252C17.4752 0.542692 17.6784 0.361838 17.9257 0.274654C18.1731 0.187469 18.4447 0.200931 18.6822 0.312141C18.9197 0.42335 19.1041 0.623406 19.1955 0.869207C19.2869 1.11501 19.2781 1.38688 19.171 1.62625C18.3349 3.27459 17.9574 5.11741 18.0781 6.96171C18.1988 8.80601 18.8132 10.5839 19.857 12.1093C21.532 14.2463 22.843 19.2223 21.324 22.3803C21.206 22.7313 21.086 23.0883 20.979 23.4713C20.9203 23.6813 20.7945 23.8665 20.6208 23.9985C20.4472 24.1304 20.2351 24.202 20.017 24.2023ZM13.017 24.2023C12.8626 24.2024 12.7103 24.1668 12.572 24.0982C12.4337 24.0297 12.3132 23.9301 12.2198 23.8072C12.1264 23.6842 12.0628 23.5414 12.0338 23.3898C12.0049 23.2382 12.0114 23.0819 12.053 22.9333C12.169 22.5143 12.3 22.1253 12.43 21.7423C13.715 19.0583 12.61 15.0593 11.174 13.1883C9.94905 11.3781 9.22805 9.27453 9.085 7.09358C8.94195 4.91262 9.382 2.73289 10.36 0.778252C10.4752 0.542692 10.6784 0.361838 10.9257 0.274654C11.1731 0.187469 11.4447 0.200931 11.6822 0.312141C11.9197 0.42335 12.1041 0.623406 12.1955 0.869207C12.2869 1.11501 12.2781 1.38688 12.171 1.62625C11.3349 3.27459 10.9574 5.11741 11.0781 6.96171C11.1988 8.80601 11.8132 10.5839 12.857 12.1093C14.532 14.2463 15.843 19.2223 14.324 22.3803C14.206 22.7313 14.086 23.0883 13.979 23.4713C13.9203 23.6813 13.7945 23.8665 13.6208 23.9985C13.4472 24.1304 13.2351 24.202 13.017 24.2023ZM6.01695 24.2023C5.8626 24.2024 5.71032 24.1668 5.57202 24.0982C5.43372 24.0297 5.31317 23.9301 5.2198 23.8072C5.12643 23.6842 5.06278 23.5414 5.03384 23.3898C5.00489 23.2382 5.01143 23.0819 5.05295 22.9333C5.16895 22.5143 5.29995 22.1253 5.42995 21.7423C6.71495 19.0583 5.60995 15.0593 4.17395 13.1883C2.94905 11.3781 2.22805 9.27453 2.085 7.09358C1.94195 4.91262 2.38199 2.73289 3.35995 0.778252C3.47522 0.542692 3.6784 0.361838 3.92573 0.274654C4.17307 0.187469 4.44475 0.200931 4.68225 0.312141C4.91975 0.42335 5.10406 0.623406 5.19547 0.869207C5.28688 1.11501 5.27808 1.38688 5.17095 1.62625C4.33489 3.27459 3.95744 5.11741 4.07813 6.96171C4.19882 8.80601 4.81321 10.5839 5.85695 12.1093C7.53195 14.2463 8.84295 19.2223 7.32395 22.3803C7.20595 22.7313 7.08595 23.0883 6.97895 23.4713C6.92028 23.6813 6.79451 23.8665 6.62083 23.9985C6.44715 24.1304 6.23509 24.202 6.01695 24.2023Z" fill="url(#paint0_linear_1214_72754)"/>
</g>
<defs>
<linearGradient id="paint0_linear_1214_72754" x1="2.05859" y1="0.217773" x2="25.4387" y2="4.25502" gradientUnits="userSpaceOnUse">
<stop stop-color="#369D9C"/>
<stop offset="1" stop-color="#28814D"/>
</linearGradient>
<clipPath id="clip0_1214_72754">
<rect width="24" height="24" fill="white" transform="translate(0 0.202148)"/>
</clipPath>
</defs>
</svg>
