<svg width="24" height="24" viewBox="0 0 24 24" fill="none" xmlns="http://www.w3.org/2000/svg">
<g clip-path="url(#clip0_1214_72441)">
<path d="M12.9988 1C12.9988 0.448 13.4458 0 13.9988 0H15.9988C18.2048 0 19.9988 1.794 19.9988 4V5.971L21.2918 4.678C21.6828 4.287 22.3148 4.287 22.7058 4.678C23.0968 5.069 23.0968 5.701 22.7058 6.092L20.3598 8.438C19.9848 8.813 19.4918 9.001 18.9988 9.001C18.5058 9.001 18.0128 8.813 17.6378 8.438L15.2918 6.092C14.9008 5.701 14.9008 5.069 15.2918 4.678C15.6828 4.287 16.3148 4.287 16.7058 4.678L17.9988 5.971V4C17.9988 2.897 17.1018 2 15.9988 2H13.9988C13.4458 2 12.9988 1.552 12.9988 1ZM9.99883 22H7.99883C6.89583 22 5.99883 21.103 5.99883 20V18.029L7.29183 19.322C7.48684 19.517 7.74283 19.615 7.99883 19.615C8.25483 19.615 8.51083 19.517 8.70583 19.322C9.09683 18.931 9.09683 18.299 8.70583 17.908L6.35983 15.562C5.60983 14.811 4.38683 14.811 3.63683 15.562L1.29083 17.908C0.899834 18.299 0.899834 18.931 1.29083 19.322C1.68183 19.713 2.31383 19.713 2.70483 19.322L3.99783 18.029V20C3.99783 22.206 5.79183 24 7.99783 24H9.99783C10.5508 24 10.9978 23.552 10.9978 23C10.9978 22.448 10.5508 22 9.99783 22H9.99883ZM10.9988 5.5C10.9988 7.399 10.0308 9.136 8.41083 10.147C8.15683 10.305 7.99883 10.615 7.99883 10.954C7.99883 12.103 7.10183 13 5.99883 13H4.99883C3.89583 13 2.99883 12.103 2.99883 11C2.99883 10.614 2.84583 10.307 2.59883 10.154C0.725834 8.992 -0.270166 6.829 0.0638344 4.643C0.406834 2.403 2.11383 0.588 4.31283 0.125C5.97283 -0.224 7.66683 0.177 8.96083 1.227C10.2558 2.277 10.9978 3.834 10.9978 5.5H10.9988ZM8.99883 5.5C8.99883 4.44 8.52584 3.449 7.70183 2.78C7.06783 2.266 6.30783 1.999 5.50583 1.999C5.24883 1.999 4.98783 2.026 4.72583 2.082C3.35983 2.37 2.25483 3.547 2.04083 4.945C1.82483 6.359 2.44283 7.704 3.65283 8.455C3.99983 8.671 4.27583 8.976 4.49883 9.319V6.894C4.09883 6.682 3.76483 6.362 3.56383 5.955C3.34583 5.515 3.70683 5.001 4.19783 5.001H6.79983C7.29083 5.001 7.65183 5.515 7.43383 5.955C7.23283 6.362 6.89883 6.682 6.49883 6.894V9.328C6.72283 8.979 7.00183 8.67 7.35283 8.451C8.38383 7.808 8.99883 6.704 8.99883 5.5ZM23.9988 16.5C23.9988 18.399 23.0308 20.136 21.4108 21.147C21.1568 21.305 20.9988 21.615 20.9988 21.954C20.9988 23.103 20.1018 24 18.9988 24H17.9988C16.8958 24 15.9988 23.103 15.9988 22C15.9988 21.614 15.8458 21.307 15.5988 21.154C13.7258 19.992 12.7308 17.829 13.0648 15.643C13.4078 13.404 15.1148 11.588 17.3138 11.125C18.9738 10.775 20.6678 11.177 21.9618 12.227C23.2568 13.277 23.9988 14.834 23.9988 16.5ZM21.9988 16.5C21.9988 15.44 21.5258 14.449 20.7018 13.78C20.0678 13.266 19.3078 12.999 18.5058 12.999C18.2488 12.999 17.9878 13.026 17.7258 13.082C16.3598 13.37 15.2548 14.547 15.0408 15.945C14.8248 17.359 15.4428 18.704 16.6528 19.455C16.9998 19.671 17.2758 19.976 17.4988 20.319V17.894C17.0988 17.682 16.7648 17.362 16.5638 16.955C16.3458 16.515 16.7068 16.001 17.1978 16.001H19.7998C20.2908 16.001 20.6518 16.515 20.4338 16.955C20.2328 17.362 19.8988 17.682 19.4988 17.894V20.328C19.7228 19.979 20.0018 19.67 20.3528 19.451C21.3838 18.808 21.9988 17.704 21.9988 16.5Z" fill="url(#paint0_linear_1214_72441)"/>
</g>
<defs>
<linearGradient id="paint0_linear_1214_72441" x1="0" y1="0" x2="27.7855" y2="5.77215" gradientUnits="userSpaceOnUse">
<stop stop-color="#369D9C"/>
<stop offset="1" stop-color="#28814D"/>
</linearGradient>
<clipPath id="clip0_1214_72441">
<rect width="24" height="24" fill="white"/>
</clipPath>
</defs>
</svg>
