<svg xmlns="http://www.w3.org/2000/svg" width="24" height="25" viewBox="0 0 24 25" fill="none">
  <g clip-path="url(#clip0_3168_112083)">
    <path d="M17.9931 2.68876C16.0841 0.982765 13.5131 0.172765 10.9551 0.461765C6.90406 0.919765 3.59006 4.18476 3.07406 8.22476C2.70006 11.1568 3.71806 13.9848 5.86606 15.9848C7.24206 17.2638 7.99906 18.8858 7.99906 20.5518V20.9028C7.99906 22.8328 9.56906 24.4028 11.4991 24.4028H12.4991C14.4291 24.4028 15.9991 22.8328 15.9991 20.9028V20.7178C15.9991 18.9018 16.7031 17.2418 17.9321 16.1658C19.8811 14.4568 20.9991 11.9918 20.9991 9.40277C20.9991 6.84277 19.9031 4.39576 17.9931 2.68876ZM13.9991 20.9028C13.9991 21.7298 13.3261 22.4028 12.4991 22.4028H11.4991C10.6721 22.4028 9.99906 21.7298 9.99906 20.9028C9.99906 20.9028 9.99206 20.4528 9.99106 20.4028H14.0151C14.0111 20.5078 13.9991 20.9028 13.9991 20.9028ZM16.6131 14.6618C15.5081 15.6298 14.7251 16.9348 14.3191 18.4028H9.67706C9.25606 16.9728 8.42906 15.6378 7.22906 14.5218C5.55806 12.9658 4.76606 10.7638 5.05806 8.47877C5.45806 5.34177 8.03306 2.80576 11.1791 2.44976C11.4571 2.41876 11.7331 2.40276 12.0071 2.40276C13.7321 2.40276 15.3601 3.01976 16.6591 4.18076C18.1451 5.50876 18.9981 7.41177 18.9981 9.40277C18.9981 11.4158 18.1301 13.3328 16.6131 14.6618ZM16.3311 6.90676C16.0571 6.42876 15.4441 6.26376 14.9661 6.53976L14.3981 6.86677C14.0071 6.49677 13.5281 6.22476 12.9991 6.06576V5.40276C12.9991 4.85076 12.5521 4.40276 11.9991 4.40276C11.4461 4.40276 10.9991 4.85076 10.9991 5.40276V6.06576C10.4701 6.22476 9.99206 6.49677 9.60006 6.86677L9.03206 6.53976C8.55306 6.26376 7.94106 6.42876 7.66706 6.90676C7.39106 7.38577 7.55606 7.99676 8.03406 8.27276L8.60106 8.59976C8.54006 8.85876 8.49906 9.12577 8.49906 9.40377C8.49906 9.68177 8.54006 9.94777 8.60106 10.2068L8.03406 10.5328C7.55506 10.8088 7.39006 11.4198 7.66706 11.8988C7.85206 12.2198 8.18806 12.3998 8.53406 12.3998C8.70306 12.3998 8.87506 12.3568 9.03206 12.2668L9.60106 11.9398C9.99206 12.3098 10.4701 12.5818 10.9991 12.7408V13.4038C10.9991 13.9558 11.4461 14.4038 11.9991 14.4038C12.5521 14.4038 12.9991 13.9558 12.9991 13.4038V12.7408C13.5281 12.5818 14.0061 12.3098 14.3971 11.9398L14.9661 12.2668C15.1231 12.3568 15.2951 12.3998 15.4641 12.3998C15.8101 12.3998 16.1471 12.2198 16.3311 11.8988C16.6071 11.4198 16.4421 10.8088 15.9641 10.5328L15.3971 10.2068C15.4581 9.94777 15.4991 9.68077 15.4991 9.40377C15.4991 9.12677 15.4581 8.85977 15.3971 8.59976L15.9641 8.27276C16.4431 7.99776 16.6081 7.38577 16.3311 6.90676ZM11.9991 10.9028C11.1721 10.9028 10.4991 10.2298 10.4991 9.40277C10.4991 8.57577 11.1721 7.90276 11.9991 7.90276C12.8261 7.90276 13.4991 8.57577 13.4991 9.40277C13.4991 10.2298 12.8261 10.9028 11.9991 10.9028Z" fill="url(#paint0_linear_3168_112083)"/>
  </g>
  <defs>
    <linearGradient id="paint0_linear_3168_112083" x1="2.99805" y1="0.404297" x2="24.2233" y2="3.71186" gradientUnits="userSpaceOnUse">
      <stop stop-color="#369D9C"/>
      <stop offset="1" stop-color="#28814D"/>
    </linearGradient>
    <clipPath id="clip0_3168_112083">
      <rect width="24" height="24" fill="white" transform="translate(0 0.402344)"/>
    </clipPath>
  </defs>
</svg>