<svg width="24" height="24" viewBox="0 0 24 24" fill="none" xmlns="http://www.w3.org/2000/svg">
<g clip-path="url(#clip0_1214_72463)">
<path d="M9.0007 20.0001H6.9987C6.9987 20.0501 7.0007 20.3101 7.0007 20.3101C7.0007 21.2421 7.7587 22.0001 8.6907 22.0001H10.0007C10.5527 22.0001 11.0007 22.4481 11.0007 23.0001C11.0007 23.5521 10.5527 24.0001 10.0007 24.0001H8.6907C6.6557 24.0001 5.0007 22.3451 5.0007 20.3101V20.1491C5.0007 18.4831 4.2437 16.8611 2.8687 15.5821C0.719705 13.5831 -0.297295 10.7541 0.0757047 7.82211C0.590705 3.78211 3.9047 0.517115 7.9567 0.0591146C12.4077 -0.444885 16.6067 2.43311 17.7177 6.75111C17.8557 7.28611 17.5327 7.83111 16.9977 7.96811C16.4707 8.10711 15.9177 7.78511 15.7797 7.24911C14.9027 3.83611 11.7037 1.64911 8.18071 2.04611C5.0337 2.40111 2.4597 4.93711 2.0597 8.07511C1.7677 10.3601 2.5597 12.5631 4.2297 14.1181C5.4297 15.2351 6.2677 16.5691 6.6877 17.9991H7.9997V10.8271C6.8357 10.4141 5.9997 9.30311 5.9997 7.99911C5.9997 7.44711 6.4477 6.99911 6.9997 6.99911C7.5517 6.99911 7.9997 7.44711 7.9997 7.99911C7.9997 8.55111 8.4487 8.99911 8.9997 8.99911C9.5507 8.99911 9.9997 8.55011 9.9997 7.99911C9.9997 7.44811 10.4477 6.99911 10.9997 6.99911C11.5517 6.99911 11.9997 7.44711 11.9997 7.99911C11.9997 9.30311 11.1637 10.4141 9.9997 10.8271V18.9991C9.9997 19.5511 9.5517 19.9991 8.9997 19.9991L9.0007 20.0001ZM23.5627 20.5001C23.3767 20.8211 23.0417 21.0001 22.6957 21.0001C22.5257 21.0001 22.3537 20.9571 22.1967 20.8661L21.2407 20.3141C20.5347 21.1091 19.5807 21.6791 18.5007 21.8991V23.0001C18.5007 23.5521 18.0537 24.0001 17.5007 24.0001C16.9477 24.0001 16.5007 23.5521 16.5007 23.0001V21.8991C15.4207 21.6791 14.4657 21.1091 13.7607 20.3141L12.8047 20.8661C12.6467 20.9571 12.4747 21.0001 12.3057 21.0001C11.9597 21.0001 11.6237 20.8211 11.4387 20.5001C11.1627 20.0211 11.3267 19.4101 11.8047 19.1341L12.7577 18.5841C12.5907 18.0861 12.5007 17.5541 12.5007 17.0011C12.5007 16.4481 12.5917 15.9151 12.7577 15.4181L11.8047 14.8681C11.3267 14.5921 11.1627 13.9801 11.4387 13.5021C11.7147 13.0241 12.3247 12.8591 12.8047 13.1361L13.7607 13.6881C14.4667 12.8931 15.4207 12.3231 16.5007 12.1031V11.0021C16.5007 10.4501 16.9477 10.0021 17.5007 10.0021C18.0537 10.0021 18.5007 10.4501 18.5007 11.0021V12.1031C19.5807 12.3231 20.5357 12.8931 21.2407 13.6881L22.1967 13.1361C22.6737 12.8601 23.2857 13.0241 23.5627 13.5021C23.8387 13.9811 23.6747 14.5921 23.1967 14.8681L22.2437 15.4181C22.4107 15.9161 22.5007 16.4481 22.5007 17.0011C22.5007 17.5541 22.4097 18.0871 22.2437 18.5841L23.1967 19.1341C23.6757 19.4101 23.8397 20.0221 23.5627 20.5001ZM20.5007 17.0001C20.5007 15.3461 19.1547 14.0001 17.5007 14.0001C15.8467 14.0001 14.5007 15.3461 14.5007 17.0001C14.5007 18.6541 15.8467 20.0001 17.5007 20.0001C19.1547 20.0001 20.5007 18.6541 20.5007 17.0001Z" fill="url(#paint0_linear_1214_72463)"/>
</g>
<defs>
<linearGradient id="paint0_linear_1214_72463" x1="0" y1="0.00195313" x2="27.4647" y2="5.63622" gradientUnits="userSpaceOnUse">
<stop stop-color="#369D9C"/>
<stop offset="1" stop-color="#28814D"/>
</linearGradient>
<clipPath id="clip0_1214_72463">
<rect width="24" height="24" fill="white"/>
</clipPath>
</defs>
</svg>
