<svg width="24" height="24" viewBox="0 0 24 24" fill="none" xmlns="http://www.w3.org/2000/svg">
<rect width="24" height="24" fill="#1E1E1E"/>
<g id="Decarbonization Form">
<path d="M-3084 -9616C-3084 -9617.1 -3083.1 -9618 -3082 -9618H7245C7246.1 -9618 7247 -9617.1 7247 -9616V13892C7247 13893.1 7246.1 13894 7245 13894H-3082C-3083.1 13894 -3084 13893.1 -3084 13892V-9616Z" fill="#444444"/>
<path d="M-3082 -9617H7245V-9619H-3082V-9617ZM7246 -9616V13892H7248V-9616H7246ZM7245 13893H-3082V13895H7245V13893ZM-3083 13892V-9616H-3085V13892H-3083ZM-3082 13893C-3082.55 13893 -3083 13892.6 -3083 13892H-3085C-3085 13893.7 -3083.66 13895 -3082 13895V13893ZM7246 13892C7246 13892.6 7245.55 13893 7245 13893V13895C7246.66 13895 7248 13893.7 7248 13892H7246ZM7245 -9617C7245.55 -9617 7246 -9616.55 7246 -9616H7248C7248 -9617.66 7246.66 -9619 7245 -9619V-9617ZM-3082 -9619C-3083.66 -9619 -3085 -9617.66 -3085 -9616H-3083C-3083 -9616.55 -3082.55 -9617 -3082 -9617V-9619Z" fill="white" fill-opacity="0.1"/>
<g id="Decarbonization Survey questaion">
<rect width="1920" height="9465" transform="translate(-351 -8803)" fill="white"/>
<g id="Frame 1984078755">
<g id="Frame 1984077943">
<g id="Frame 1984077941">
<rect x="-26.5" y="-53.5" width="1532" height="299" rx="4.5" fill="white"/>
<rect x="-26.5" y="-53.5" width="1532" height="299" rx="4.5" stroke="#E4E4E4"/>
<g id="Frame 1984077920">
<g id="light-ceiling 1" clip-path="url(#clip0_475_14449)">
<path id="Vector" d="M23.7643 14.458C22.1643 9.878 17.7393 6.473 13.0013 6.047V1C13.0013 0.448 12.5543 0 12.0013 0C11.4483 0 11.0013 0.448 11.0013 1V6.047C6.26332 6.474 1.83832 9.878 0.238319 14.458C-0.208681 15.737 -0.00868076 17.158 0.772319 18.259C1.55732 19.365 2.78632 20 4.14332 20H8.00032C8.00032 22.206 9.79432 24 12.0003 24C14.2063 24 16.0003 22.206 16.0003 20H19.8573C21.2143 20 22.4433 19.365 23.2283 18.259C24.0093 17.158 24.2093 15.737 23.7623 14.459L23.7643 14.458ZM12.0013 22C10.8983 22 10.0013 21.103 10.0013 20H14.0013C14.0013 21.103 13.1043 22 12.0013 22ZM21.5993 17.102C21.1943 17.673 20.5593 18 19.8593 18H4.14432C3.44432 18 2.80932 17.672 2.40432 17.102C1.99132 16.519 1.89032 15.797 2.12832 15.118C3.56832 10.994 7.72132 8 12.0023 8C16.2833 8 20.4363 10.994 21.8763 15.118C22.1133 15.796 22.0133 16.519 21.6003 17.101L21.5993 17.102Z" fill="url(#paint0_linear_475_14449)"/>
</g>
</g>
</g>
</g>
</g>
</g>
</g>
<defs>
<linearGradient id="paint0_linear_475_14449" x1="0.00390625" y1="0" x2="27.783" y2="5.76937" gradientUnits="userSpaceOnUse">
<stop stop-color="#369D9C"/>
<stop offset="1" stop-color="#28814D"/>
</linearGradient>
<clipPath id="clip0_475_14449">
<rect width="24" height="24" fill="white"/>
</clipPath>
</defs>
</svg>
