<svg width="14" height="18" viewBox="0 0 14 18" fill="none" xmlns="http://www.w3.org/2000/svg">
<path d="M1.54867 18C1.11933 18 0.753889 17.8427 0.452333 17.528C0.150778 17.2133 0 16.8323 0 16.385V7.615C0 7.16833 0.150778 6.78733 0.452333 6.472C0.753889 6.15733 1.11933 6 1.54867 6H2.875V4C2.875 2.886 3.24715 1.941 3.99146 1.165C4.73513 0.388333 5.64075 0 6.70833 0C7.77592 0 8.68186 0.388333 9.42617 1.165C10.1705 1.94167 10.5423 2.88667 10.5417 4V6H11.869C12.297 6 12.6621 6.15733 12.9643 6.472C13.2659 6.78667 13.4167 7.168 13.4167 7.616V16.385C13.4167 16.8317 13.2659 17.2127 12.9643 17.528C12.6628 17.8427 12.2977 18 11.869 18H1.54867ZM1.54867 17H11.869C12.0408 17 12.182 16.9423 12.2925 16.827C12.4031 16.7117 12.4583 16.5643 12.4583 16.385V7.615C12.4583 7.43567 12.4031 7.28833 12.2925 7.173C12.182 7.05767 12.0408 7 11.869 7H1.54771C1.37585 7 1.23465 7.05767 1.12412 7.173C1.0136 7.28833 0.958333 7.436 0.958333 7.616V16.385C0.958333 16.5643 1.0136 16.7117 1.12412 16.827C1.23465 16.9423 1.37617 17 1.54867 17ZM6.70833 13.5C7.11275 13.5 7.45328 13.3553 7.72992 13.066C8.00719 12.7773 8.14583 12.422 8.14583 12C8.14583 11.578 8.00719 11.2227 7.72992 10.934C7.45264 10.6453 7.11211 10.5007 6.70833 10.5C6.30456 10.4993 5.96403 10.644 5.68675 10.934C5.40947 11.2227 5.27083 11.578 5.27083 12C5.27083 12.422 5.40947 12.7773 5.68675 13.066C5.96339 13.3553 6.30392 13.5 6.70833 13.5ZM3.83333 6H9.58333V4C9.58333 3.16667 9.30382 2.45833 8.74479 1.875C8.18576 1.29167 7.50694 1 6.70833 1C5.90972 1 5.2309 1.29167 4.67188 1.875C4.11285 2.45833 3.83333 3.16667 3.83333 4V6Z" fill="#369D9C"/>
</svg>
