<svg width="28" height="28" viewBox="0 0 28 28" fill="none" xmlns="http://www.w3.org/2000/svg">
<path d="M19.9568 14.8567C19.6349 17.5371 17.8794 18.6081 17.1212 19.3855C16.3618 20.1653 16.4978 20.3205 16.5488 21.4641C16.5574 21.6056 16.5368 21.7473 16.4885 21.8805C16.4401 22.0138 16.365 22.1357 16.2677 22.2388C16.1705 22.3419 16.0531 22.424 15.9229 22.48C15.7927 22.536 15.6525 22.5648 15.5107 22.5645H12.4983C12.3566 22.5646 12.2163 22.5357 12.0861 22.4797C11.956 22.4236 11.8386 22.3415 11.7413 22.2385C11.644 22.1354 11.5688 22.0136 11.5202 21.8804C11.4717 21.7473 11.4509 21.6056 11.459 21.4641C11.459 20.3421 11.5633 20.0814 10.8878 19.3855C10.0265 18.5242 8.00012 17.3081 8.00012 13.9637C7.99494 13.1329 8.16192 12.3101 8.49052 11.5471C8.81913 10.7841 9.30223 10.0975 9.90938 9.53047C10.5165 8.96345 11.2346 8.52835 12.0182 8.25261C12.8019 7.97686 13.6342 7.86645 14.4626 7.92833C15.291 7.99021 16.0977 8.22303 16.8317 8.61214C17.5657 9.00124 18.2111 9.53817 18.7273 10.1891C19.2435 10.84 19.6192 11.5908 19.8308 12.3942C20.0424 13.1975 20.0853 14.036 19.9568 14.8567Z" stroke="#FFAB6E" stroke-width="1.5" stroke-linecap="round" stroke-linejoin="round"/>
<path d="M12.2589 22.5009V24.2145C12.2589 24.6826 12.5195 25.0668 12.8403 25.0668H15.167C15.49 25.0668 15.7495 24.6814 15.7495 24.2145V22.5009M13.1202 10.5556C12.451 10.5559 11.8093 10.8219 11.3362 11.2952C10.8631 11.7685 10.5974 12.4103 10.5974 13.0795M22.3138 14.1913H24.3923M20.2217 7.37771L21.6961 5.90324M21.355 19.9668L22.8295 21.4401M14.0042 3.39404V5.07478M6.34285 5.90211L7.80712 7.37771M5.20952 21.4401L6.67379 19.9668M5.69459 14.1913H3.61719" stroke="#FFAB6E" stroke-width="1.5" stroke-linecap="round" stroke-linejoin="round"/>
</svg>
