<svg width="24" height="24" viewBox="0 0 24 24" fill="none" xmlns="http://www.w3.org/2000/svg">
<rect width="24" height="24" fill="#1E1E1E"/>
<g id="Decarbonization Form">
<path d="M-3084 -6280C-3084 -6281.1 -3083.1 -6282 -3082 -6282H7245C7246.1 -6282 7247 -6281.1 7247 -6280V17228C7247 17229.1 7246.1 17230 7245 17230H-3082C-3083.1 17230 -3084 17229.1 -3084 17228V-6280Z" fill="#444444"/>
<path d="M-3082 -6281H7245V-6283H-3082V-6281ZM7246 -6280V17228H7248V-6280H7246ZM7245 17229H-3082V17231H7245V17229ZM-3083 17228V-6280H-3085V17228H-3083ZM-3082 17229C-3082.55 17229 -3083 17228.6 -3083 17228H-3085C-3085 17229.7 -3083.66 17231 -3082 17231V17229ZM7246 17228C7246 17228.6 7245.55 17229 7245 17229V17231C7246.66 17231 7248 17229.7 7248 17228H7246ZM7245 -6281C7245.55 -6281 7246 -6280.55 7246 -6280H7248C7248 -6281.66 7246.66 -6283 7245 -6283V-6281ZM-3082 -6283C-3083.66 -6283 -3085 -6281.66 -3085 -6280H-3083C-3083 -6280.55 -3082.55 -6281 -3082 -6281V-6283Z" fill="white" fill-opacity="0.1"/>
<g id="Decarbonization Survey questaion">
<rect width="1920" height="9465" transform="translate(-351 -5467)" fill="white"/>
<g id="Frame 1984078755">
<g id="Frame 1984077943">
<g id="Frame 1984077929">
<g clip-path="url(#clip0_475_14449)">
<rect x="-27" y="-38" width="1533" height="252" rx="5" fill="white"/>
<g id="Frame 1984077920">
<g id="meter-bolt 1" clip-path="url(#clip1_475_14449)">
<path id="Vector" d="M16.932 21.886C17.133 22.401 16.879 22.981 16.364 23.182C14.974 23.725 13.506 24 12 24C5.383 24 0 18.617 0 12C0 5.383 5.383 0 12 0C16.531 0 20.627 2.508 22.691 6.545C22.942 7.036 22.747 7.639 22.255 7.891C21.763 8.141 21.161 7.947 20.909 7.455C19.189 4.09 15.775 2 11.999 2C6.486 2 2 6.486 2 12C2 17.514 6.486 22 12 22C13.255 22 14.479 21.771 15.636 21.318C16.151 21.117 16.731 21.372 16.931 21.885L16.932 21.886ZM5 8V10C5 10.553 5.448 11 6 11C6.552 11 7 10.553 7 10V8C7 7.447 6.552 7 6 7C5.448 7 5 7.447 5 8ZM9 8V10C9 10.553 9.448 11 10 11C10.552 11 11 10.553 11 10V8C11 7.447 10.552 7 10 7C9.448 7 9 7.447 9 8ZM13 8V10C13 10.553 13.448 11 14 11C14.552 11 15 10.553 15 10V8C15 7.447 14.552 7 14 7C13.448 7 13 7.447 13 8ZM23.768 16.684C23.495 16.254 23.028 15.998 22.519 15.998H18.365L20.875 11.486C21.144 11.003 20.97 10.394 20.487 10.126C20.006 9.857 19.396 10.032 19.127 10.514L16.157 15.856C15.927 16.319 15.951 16.858 16.223 17.297C16.495 17.735 16.966 17.998 17.482 17.998H21.635L19.126 22.515C18.857 22.997 19.032 23.606 19.514 23.874C19.668 23.96 19.835 24 19.999 24C20.351 24 20.691 23.814 20.874 23.485L23.861 18.104C24.076 17.643 24.041 17.113 23.768 16.684Z" fill="url(#paint0_linear_475_14449)"/>
</g>
</g>
</g>
<rect x="-26.5" y="-37.5" width="1532" height="251" rx="4.5" stroke="#E4E4E4"/>
</g>
</g>
</g>
</g>
</g>
<defs>
<linearGradient id="paint0_linear_475_14449" x1="0" y1="0" x2="27.7874" y2="5.77298" gradientUnits="userSpaceOnUse">
<stop stop-color="#369D9C"/>
<stop offset="1" stop-color="#28814D"/>
</linearGradient>
<clipPath id="clip0_475_14449">
<rect x="-27" y="-38" width="1533" height="252" rx="5" fill="white"/>
</clipPath>
<clipPath id="clip1_475_14449">
<rect width="24" height="24" fill="white"/>
</clipPath>
</defs>
</svg>
