<svg xmlns="http://www.w3.org/2000/svg" width="24" height="24" viewBox="0 0 24 24" fill="none">
  <g clip-path="url(#clip0_3168_109914)">
    <path d="M22.9404 9.75543C22.2024 8.93243 21.1864 8.44543 20.0824 8.38643C18.1584 8.28243 15.9414 8.91443 14.4044 9.46943C14.2184 9.29243 14.0114 9.14143 13.7904 9.00943C15.0344 7.70643 16.5594 6.10843 16.6534 4.36443C16.7134 3.26043 16.3394 2.19843 15.6004 1.37543C14.8624 0.552426 13.8474 0.066426 12.7434 0.00642601C11.6314 -0.054574 10.5774 0.320426 9.75444 1.05843C8.93244 1.79743 8.44544 2.81143 8.38644 3.91543C8.28044 5.83943 8.91344 8.05743 9.46944 9.59443C9.29244 9.78043 9.14144 9.98743 9.00844 10.2084C7.70544 8.96443 6.10644 7.43943 4.36344 7.34543C3.25144 7.28443 2.19744 7.65943 1.37444 8.39743C0.55244 9.13743 0.0654399 10.1524 0.00643985 11.2564C-0.0545601 12.3604 0.31944 13.4224 1.05844 14.2454C1.79744 15.0684 2.85044 15.6254 4.34644 15.6254C6.16444 15.6254 8.17044 15.0454 9.59444 14.5304C9.78044 14.7074 9.98744 14.8584 10.2084 14.9914C8.96444 16.2944 7.43944 17.8924 7.34544 19.6364C7.28544 20.7404 7.65944 21.8024 8.39844 22.6254C9.13644 23.4484 10.1524 23.9354 11.2564 23.9944C11.3314 23.9984 11.4064 24.0004 11.4824 24.0004C13.6634 24.0004 15.4944 22.2874 15.6134 20.0844C15.7194 18.1604 15.0864 15.9424 14.5304 14.4054C14.7074 14.2194 14.8584 14.0124 14.9914 13.7914C16.2944 15.0354 17.8934 16.5604 19.6374 16.6544C19.7124 16.6584 19.7874 16.6604 19.8634 16.6604C22.0444 16.6604 23.8754 14.9474 23.9944 12.7444C24.0554 11.6404 23.6814 10.5784 22.9424 9.75543H22.9404ZM4.02344 13.6164C3.45344 13.5854 2.92744 13.3344 2.54544 12.9084C2.16444 12.4824 1.97144 11.9344 2.00244 11.3634C2.03244 10.7924 2.28344 10.2674 2.70944 9.88643C3.10544 9.53143 3.46244 9.34243 4.25444 9.34243C5.26144 9.34243 6.45144 10.5344 7.50344 11.5384C7.84644 11.8664 8.19844 12.1944 8.54944 12.4994C8.56244 12.5864 8.56844 12.6744 8.58744 12.7594C7.25244 13.2194 5.49544 13.6914 4.02344 13.6154V13.6164ZM11.0904 2.54743C11.4864 2.19243 11.9884 2.00043 12.5164 2.00043C13.2134 2.00043 13.7314 2.28643 14.1134 2.71143C14.4944 3.13643 14.6874 3.68543 14.6564 4.25643C14.6024 5.26143 13.4644 6.45443 12.4604 7.50643C12.1334 7.84943 11.8044 8.20043 11.4994 8.55143C11.4124 8.56443 11.3244 8.57043 11.2394 8.58943C10.7784 7.25443 10.3044 5.49543 10.3844 4.02443C10.4144 3.45343 10.6654 2.92843 11.0914 2.54743H11.0904ZM13.4994 12.0004C13.4994 12.8274 12.8264 13.5004 11.9994 13.5004C11.1724 13.5004 10.4994 12.8274 10.4994 12.0004C10.4994 11.1734 11.1724 10.5004 11.9994 10.5004C12.8264 10.5004 13.4994 11.1734 13.4994 12.0004ZM12.9084 21.4534C12.4824 21.8354 11.9274 22.0254 11.3634 21.9974C10.7934 21.9664 10.2674 21.7154 9.88544 21.2894C9.50444 20.8644 9.31144 20.3154 9.34244 19.7444C9.39644 18.7394 10.5344 17.5464 11.5384 16.4944C11.8654 16.1514 12.1944 15.8004 12.4994 15.4494C12.5864 15.4364 12.6744 15.4304 12.7594 15.4114C13.2204 16.7464 13.6944 18.5054 13.6144 19.9764C13.5844 20.5474 13.3334 21.0714 12.9074 21.4534H12.9084ZM19.7434 14.6574C18.7374 14.6034 17.5464 13.4654 16.4944 12.4614C16.1514 12.1334 15.7994 11.8054 15.4484 11.5004C15.4354 11.4134 15.4294 11.3254 15.4104 11.2404C16.7454 10.7794 18.4984 10.3044 19.9744 10.3844C20.5444 10.4154 21.0704 10.6664 21.4524 11.0924C21.8334 11.5184 22.0264 12.0664 21.9954 12.6374C21.9324 13.8164 20.9094 14.7164 19.7434 14.6584V14.6574Z" fill="url(#paint0_linear_3168_109914)"/>
  </g>
  <defs>
    <linearGradient id="paint0_linear_3168_109914" x1="0" y1="0" x2="27.7877" y2="5.773" gradientUnits="userSpaceOnUse">
      <stop stop-color="#369D9C"/>
      <stop offset="1" stop-color="#28814D"/>
    </linearGradient>
    <clipPath id="clip0_3168_109914">
      <rect width="24" height="24" fill="white"/>
    </clipPath>
  </defs>
</svg>