<svg width="120" height="120" viewBox="0 0 120 120" fill="none" xmlns="http://www.w3.org/2000/svg">
<circle cx="60" cy="60" r="59.3333" fill="white" stroke="url(#paint0_linear_1214_40577)" strokeWidth="1.33333"/>
<g clipPath="url(#clip0_1214_40577)">
<path fill-rule="evenodd" clip-rule="evenodd" d="M52.8385 67.0163L56.8018 78.6908L58.7956 71.7611L57.819 70.689C57.3796 70.0449 57.2819 69.4824 57.526 68.9973C58.055 67.9497 59.1496 68.1454 60.1709 68.1454C61.2411 68.1454 62.5675 67.9416 62.9012 69.2868C63.0151 69.7352 62.8727 70.208 62.5594 70.689L61.5828 71.7611L63.5767 78.6908L67.1655 67.0163C69.7534 69.3479 77.4154 69.8167 80.2677 71.4105C81.1711 71.916 81.9849 72.556 82.64 73.4201C83.6328 74.7368 84.2432 76.4529 84.41 78.6337L85.0041 82.4369C84.8576 83.9778 83.9868 84.8664 82.2656 85.0009H60.1872H37.7384C36.0173 84.8705 35.1465 83.9818 35 82.4369L35.5941 78.6337C35.7609 76.4529 36.3713 74.7368 37.3641 73.4201C38.0192 72.5519 38.833 71.9119 39.7363 71.4105C42.5887 69.8167 50.2507 69.3479 52.8385 67.0163ZM51.0441 50.3075C50.5518 50.3278 50.1815 50.4298 49.9292 50.601C49.7827 50.6988 49.6769 50.8252 49.6077 50.9719C49.5304 51.135 49.4979 51.3347 49.502 51.567C49.5223 52.2437 49.8763 53.1242 50.5558 54.1392L50.564 54.1555L52.7775 57.6856C53.6646 59.1001 54.5964 60.5431 55.752 61.6029C56.8628 62.622 58.2137 63.3109 60 63.315C61.9328 63.319 63.3488 62.6016 64.4922 61.5255C65.6844 60.4045 66.6284 58.8718 67.5562 57.3391L70.0505 53.222C70.5143 52.1581 70.6852 51.4488 70.5794 51.029C70.5143 50.7803 70.2417 50.658 69.7778 50.6376C69.6802 50.6336 69.5785 50.6336 69.4727 50.6336C69.3628 50.6376 69.2448 50.6458 69.1227 50.654C69.0576 50.658 68.9925 50.654 68.9315 50.6417C68.7077 50.654 68.4798 50.6376 68.2479 50.605L69.1024 46.8181C64.541 46.7611 61.4201 45.9662 57.7295 43.6019C56.5169 42.8274 56.1507 41.9388 54.9382 42.0244C54.0226 42.1997 53.2536 42.6114 52.6392 43.2718C52.0532 43.9036 51.6097 44.7678 51.3208 45.8724L51.805 50.336C51.5365 50.3523 51.2801 50.3442 51.0441 50.3075ZM70.6323 49.5126C71.2467 49.7001 71.6414 50.0914 71.8001 50.7232C71.9792 51.4244 71.7839 52.4068 71.1939 53.7519C71.1816 53.7764 71.1694 53.8009 71.1572 53.8253L68.6344 57.9913C67.662 59.5974 66.6732 61.2034 65.3548 62.4426C63.9917 63.7226 62.3071 64.5745 60.0081 64.5705C57.8597 64.5664 56.2443 63.743 54.9178 62.5282C53.6361 61.3543 52.6554 59.8379 51.7236 58.3541L49.5101 54.8281C48.7004 53.6174 48.2813 52.5127 48.2528 51.6037C48.2406 51.1757 48.3138 50.7885 48.4684 50.4501C48.6353 50.0914 48.8875 49.7939 49.2293 49.5656C49.388 49.4596 49.5671 49.3658 49.7664 49.2925C49.624 47.3807 49.5671 44.9675 49.6606 42.9497C49.7095 42.4728 49.799 41.9918 49.9333 41.5108C50.4989 39.4849 51.9189 37.8543 53.6768 36.7334C54.2952 36.338 54.9748 36.0118 55.6909 35.751C59.943 34.202 65.5827 35.0458 68.6019 38.315C69.8307 39.6479 70.6038 41.417 70.7707 43.7528L70.6323 49.5126Z" fill="#B1E9D8"/>
</g>
<defs>
<linearGradient id="paint0_linear_1214_40577" x1="0" y1="0" x2="138.934" y2="28.8634" gradientUnits="userSpaceOnUse">
<stop stopColor="#369D9C"/>
<stop offset="1" stopColor="#28814D"/>
</linearGradient>
<clipPath id="clip0_1214_40577">
<rect width="50" height="50" fill="white" transform="translate(35 35)"/>
</clipPath>
</defs>
</svg>
