<svg width="24" height="24" viewBox="0 0 24 24" fill="none" xmlns="http://www.w3.org/2000/svg">
<g clip-path="url(#clip0_1214_72184)">
<path d="M16.5 23C16.5 23.553 16.052 24 15.5 24H13.613C12.654 24 11.802 23.5 11.334 22.663C10.866 21.825 10.887 20.838 11.39 20.02L12.23 18.658C12.521 18.188 13.137 18.042 13.606 18.331C14.076 18.621 14.222 19.237 13.932 19.707L13.092 21.069C12.923 21.344 13.027 21.593 13.079 21.687C13.131 21.781 13.288 21.999 13.612 21.999H15.499C16.051 21.999 16.499 22.446 16.499 22.999L16.5 23ZM9 23C9 23.553 8.552 24 8 24C5.446 24 3.409 22.099 3.157 19.479L1.86 6H1C0.448 6 0 5.553 0 5C0 4.447 0.448 4 1 4H5.101C5.566 1.721 7.586 0 10 0H12C14.414 0 16.434 1.721 16.899 4H21C21.552 4 22 4.447 22 5C22 5.553 21.552 6 21 6H20.115L19.768 9.661C19.719 10.179 19.188 10.561 18.678 10.561C18.128 10.509 17.724 10.021 17.777 9.471L18.106 5.999H3.87L5.148 19.286C5.299 20.858 6.499 21.999 8 21.999C8.552 21.999 9 22.447 9 23ZM7.184 4H14.815C14.401 2.839 13.301 2 11.999 2H9.999C8.697 2 7.598 2.839 7.184 4ZM19.77 16.785C19.952 16.785 20.136 16.735 20.301 16.632C20.769 16.338 20.91 15.721 20.616 15.253L19.674 13.753C19.193 12.986 18.368 12.53 17.464 12.53H17.453C16.544 12.534 15.718 12.998 15.241 13.771L14.35 15.216C14.06 15.686 14.207 16.302 14.677 16.592C15.147 16.881 15.763 16.735 16.053 16.265L16.943 14.82C17.104 14.559 17.359 14.53 17.461 14.53C17.588 14.538 17.817 14.556 17.98 14.816L18.923 16.317C19.113 16.619 19.437 16.785 19.77 16.785ZM23.597 20.001L22.846 18.806C22.552 18.339 21.936 18.199 21.467 18.492C21 18.786 20.859 19.403 21.153 19.871L21.904 21.066C22.076 21.34 21.973 21.59 21.921 21.685C21.868 21.78 21.712 22 21.387 22H19.5C18.948 22 18.5 22.447 18.5 23C18.5 23.553 18.948 24 19.5 24H21.387C22.351 24 23.205 23.496 23.671 22.652C24.138 21.808 24.11 20.817 23.597 20.001Z" fill="url(#paint0_linear_1214_72184)"/>
</g>
<defs>
<linearGradient id="paint0_linear_1214_72184" x1="0" y1="0" x2="27.7894" y2="5.77383" gradientUnits="userSpaceOnUse">
<stop stop-color="#369D9C"/>
<stop offset="1" stop-color="#28814D"/>
</linearGradient>
<clipPath id="clip0_1214_72184">
<rect width="24" height="24" fill="white"/>
</clipPath>
</defs>
</svg>
