<svg width="157" height="21" viewBox="0 0 157 21" fill="none" xmlns="http://www.w3.org/2000/svg">
<path d="M0.434659 16V1.45455H5.8892C7.00663 1.45455 7.94413 1.64867 8.7017 2.03693C9.46402 2.42519 10.0393 2.9697 10.4276 3.67045C10.8205 4.36648 11.017 5.1785 11.017 6.10653C11.017 7.0393 10.8182 7.84896 10.4205 8.53551C10.0275 9.21733 9.44744 9.74526 8.6804 10.1193C7.91335 10.4886 6.97112 10.6733 5.85369 10.6733H1.96875V8.4858H5.49858C6.15199 8.4858 6.68703 8.39583 7.10369 8.21591C7.52036 8.03125 7.82813 7.76373 8.02699 7.41335C8.23059 7.05824 8.33239 6.62263 8.33239 6.10653C8.33239 5.59044 8.23059 5.15009 8.02699 4.78551C7.82339 4.41619 7.51326 4.13684 7.09659 3.94744C6.67992 3.75331 6.14252 3.65625 5.48438 3.65625H3.0696V16H0.434659ZM7.94886 9.40909L11.5497 16H8.60938L5.07244 9.40909H7.94886ZM18.0021 16.2131C16.9084 16.2131 15.9638 15.9858 15.1683 15.5312C14.3776 15.072 13.7692 14.4233 13.343 13.5852C12.9169 12.7424 12.7038 11.7505 12.7038 10.6094C12.7038 9.48722 12.9169 8.50237 13.343 7.65483C13.7739 6.80256 14.3752 6.13968 15.147 5.66619C15.9188 5.18797 16.8255 4.94886 17.8672 4.94886C18.5395 4.94886 19.174 5.05777 19.7706 5.27557C20.3719 5.48864 20.9022 5.82008 21.3615 6.26989C21.8255 6.7197 22.1901 7.29261 22.4553 7.98864C22.7204 8.67992 22.853 9.50379 22.853 10.4602V11.2486H13.9112V9.51562H20.3885C20.3838 9.0232 20.2772 8.58523 20.0689 8.2017C19.8606 7.81345 19.5694 7.50805 19.1953 7.28551C18.826 7.06297 18.3951 6.9517 17.9027 6.9517C17.3771 6.9517 16.9155 7.07955 16.5178 7.33523C16.12 7.58617 15.8099 7.91761 15.5874 8.32955C15.3696 8.73674 15.2583 9.18419 15.2536 9.67188V11.1847C15.2536 11.8191 15.3696 12.3636 15.6016 12.8182C15.8336 13.268 16.1579 13.6136 16.5746 13.8551C16.9912 14.0919 17.4789 14.2102 18.0376 14.2102C18.4117 14.2102 18.7502 14.1581 19.0533 14.054C19.3563 13.9451 19.6191 13.7865 19.8416 13.5781C20.0642 13.3698 20.2322 13.1117 20.3459 12.804L22.7464 13.0739C22.5949 13.7083 22.3061 14.2623 21.88 14.7358C21.4586 15.2045 20.9188 15.5691 20.2607 15.8295C19.6025 16.0852 18.8497 16.2131 18.0021 16.2131ZM30.5536 5.09091V7.07955H24.1048V5.09091H30.5536ZM25.717 16V4.06108C25.717 3.32718 25.8685 2.71638 26.1715 2.22869C26.4793 1.741 26.8912 1.37642 27.4073 1.13494C27.9234 0.893465 28.4963 0.772726 29.1261 0.772726C29.5711 0.772726 29.9665 0.808238 30.3121 0.879261C30.6578 0.950284 30.9135 1.0142 31.0792 1.07102L30.5678 3.05966C30.4589 3.02651 30.3216 2.99337 30.1559 2.96023C29.9902 2.92235 29.8055 2.90341 29.6019 2.90341C29.1237 2.90341 28.7852 3.01941 28.5863 3.25142C28.3922 3.47869 28.2951 3.8054 28.2951 4.23153V16H25.717ZM32.5671 16V5.09091H35.06V6.90909H35.1737C35.3725 6.27936 35.7134 5.79403 36.1964 5.45312C36.6841 5.10748 37.2404 4.93466 37.8654 4.93466C38.0075 4.93466 38.1661 4.94176 38.3413 4.95597C38.5212 4.96544 38.6703 4.98201 38.7887 5.00568V7.37074C38.6798 7.33286 38.507 7.29972 38.2702 7.27131C38.0382 7.23816 37.8133 7.22159 37.5955 7.22159C37.1268 7.22159 36.7054 7.32339 36.3313 7.52699C35.962 7.72585 35.6708 8.00284 35.4577 8.35795C35.2447 8.71307 35.1381 9.12263 35.1381 9.58665V16H32.5671ZM40.4968 16V5.09091H43.0678V16H40.4968ZM41.7894 3.54261C41.3822 3.54261 41.0318 3.40767 40.7383 3.13778C40.4447 2.86316 40.2979 2.53409 40.2979 2.15057C40.2979 1.76231 40.4447 1.43324 40.7383 1.16335C41.0318 0.88873 41.3822 0.75142 41.7894 0.75142C42.2013 0.75142 42.5517 0.88873 42.8406 1.16335C43.1341 1.43324 43.2809 1.76231 43.2809 2.15057C43.2809 2.53409 43.1341 2.86316 42.8406 3.13778C42.5517 3.40767 42.2013 3.54261 41.7894 3.54261ZM50.456 20.3182C49.5327 20.3182 48.7396 20.1927 48.0767 19.9418C47.4138 19.6955 46.8812 19.3641 46.4787 18.9474C46.0762 18.5308 45.7969 18.0691 45.6406 17.5625L47.956 17.0014C48.0601 17.2145 48.2116 17.4252 48.4105 17.6335C48.6094 17.8466 48.8769 18.0218 49.2131 18.1591C49.554 18.3011 49.9825 18.3722 50.4986 18.3722C51.2277 18.3722 51.8314 18.1946 52.3097 17.8395C52.7879 17.4891 53.027 16.9115 53.027 16.1065V14.0398H52.8991C52.7666 14.3049 52.5724 14.5772 52.3168 14.8565C52.0658 15.1359 51.732 15.3703 51.3153 15.5597C50.9034 15.7491 50.3849 15.8438 49.7599 15.8438C48.9219 15.8438 48.1619 15.6473 47.4801 15.2543C46.803 14.8565 46.2633 14.2647 45.8608 13.4787C45.4631 12.688 45.2642 11.6984 45.2642 10.5099C45.2642 9.31203 45.4631 8.30114 45.8608 7.47727C46.2633 6.64867 46.8054 6.02131 47.4872 5.59517C48.169 5.1643 48.929 4.94886 49.767 4.94886C50.4063 4.94886 50.9318 5.05777 51.3438 5.27557C51.7604 5.48864 52.0919 5.74669 52.3381 6.04972C52.5843 6.34801 52.7713 6.62973 52.8991 6.89489H53.0412V5.09091H55.5767V16.1776C55.5767 17.1103 55.3542 17.8821 54.9091 18.4929C54.464 19.1037 53.8556 19.5606 53.0838 19.8636C52.312 20.1667 51.4361 20.3182 50.456 20.3182ZM50.4773 13.8267C51.0218 13.8267 51.4858 13.6941 51.8693 13.429C52.2528 13.1638 52.544 12.7827 52.7429 12.2855C52.9418 11.7884 53.0412 11.1918 53.0412 10.4957C53.0412 9.80919 52.9418 9.20786 52.7429 8.69176C52.5488 8.17566 52.2599 7.77557 51.8764 7.49148C51.4976 7.20265 51.0313 7.05824 50.4773 7.05824C49.9044 7.05824 49.4261 7.20739 49.0426 7.50568C48.6591 7.80398 48.3703 8.21354 48.1761 8.73438C47.982 9.25047 47.8849 9.83759 47.8849 10.4957C47.8849 11.1634 47.982 11.7481 48.1761 12.25C48.375 12.7472 48.6662 13.1354 49.0497 13.4148C49.438 13.6894 49.9138 13.8267 50.4773 13.8267ZM63.0412 16.2131C61.9474 16.2131 61.0028 15.9858 60.2074 15.5312C59.4167 15.072 58.8082 14.4233 58.3821 13.5852C57.956 12.7424 57.7429 11.7505 57.7429 10.6094C57.7429 9.48722 57.956 8.50237 58.3821 7.65483C58.813 6.80256 59.4143 6.13968 60.1861 5.66619C60.9579 5.18797 61.8646 4.94886 62.9062 4.94886C63.5786 4.94886 64.2131 5.05777 64.8097 5.27557C65.411 5.48864 65.9413 5.82008 66.4006 6.26989C66.8646 6.7197 67.2292 7.29261 67.4943 7.98864C67.7595 8.67992 67.892 9.50379 67.892 10.4602V11.2486H58.9503V9.51562H65.4276C65.4228 9.0232 65.3163 8.58523 65.108 8.2017C64.8996 7.81345 64.6084 7.50805 64.2344 7.28551C63.8651 7.06297 63.4342 6.9517 62.9418 6.9517C62.4162 6.9517 61.9545 7.07955 61.5568 7.33523C61.1591 7.58617 60.849 7.91761 60.6264 8.32955C60.4086 8.73674 60.2973 9.18419 60.2926 9.67188V11.1847C60.2926 11.8191 60.4086 12.3636 60.6406 12.8182C60.8726 13.268 61.197 13.6136 61.6136 13.8551C62.0303 14.0919 62.518 14.2102 63.0767 14.2102C63.4508 14.2102 63.7893 14.1581 64.0923 14.054C64.3954 13.9451 64.6581 13.7865 64.8807 13.5781C65.1032 13.3698 65.2713 13.1117 65.3849 12.804L67.7855 13.0739C67.634 13.7083 67.3452 14.2623 66.919 14.7358C66.4976 15.2045 65.9579 15.5691 65.2997 15.8295C64.6416 16.0852 63.8887 16.2131 63.0412 16.2131ZM70.0671 16V5.09091H72.56V6.90909H72.6737C72.8725 6.27936 73.2134 5.79403 73.6964 5.45312C74.1841 5.10748 74.7404 4.93466 75.3654 4.93466C75.5075 4.93466 75.6661 4.94176 75.8413 4.95597C76.0212 4.96544 76.1703 4.98201 76.2887 5.00568V7.37074C76.1798 7.33286 76.007 7.29972 75.7702 7.27131C75.5382 7.23816 75.3133 7.22159 75.0955 7.22159C74.6268 7.22159 74.2054 7.32339 73.8313 7.52699C73.462 7.72585 73.1708 8.00284 72.9577 8.35795C72.7447 8.71307 72.6381 9.12263 72.6381 9.58665V16H70.0671ZM80.9407 16.2202C80.2494 16.2202 79.6268 16.0971 79.0728 15.8509C78.5236 15.5999 78.0879 15.2306 77.766 14.7429C77.4487 14.2552 77.2901 13.6539 77.2901 12.9389C77.2901 12.3234 77.4038 11.8144 77.631 11.4119C77.8583 11.0095 78.1684 10.6875 78.5614 10.446C78.9544 10.2045 79.3971 10.0223 79.8896 9.89915C80.3867 9.77131 80.9004 9.67898 81.4308 9.62216C82.07 9.55587 82.5884 9.49669 82.9862 9.4446C83.3839 9.38778 83.6727 9.30256 83.8526 9.18892C84.0373 9.07055 84.1296 8.88826 84.1296 8.64205V8.59943C84.1296 8.06439 83.971 7.65009 83.6538 7.35653C83.3365 7.06297 82.8796 6.91619 82.283 6.91619C81.6533 6.91619 81.1538 7.0535 80.7844 7.32812C80.4199 7.60275 80.1737 7.92708 80.0458 8.30114L77.6452 7.96023C77.8346 7.29735 78.1471 6.74337 78.5827 6.2983C79.0183 5.84848 79.551 5.51231 80.1808 5.28977C80.8105 5.0625 81.5065 4.94886 82.2688 4.94886C82.7944 4.94886 83.3176 5.01042 83.8384 5.13352C84.3593 5.25663 84.8351 5.46023 85.266 5.74432C85.6969 6.02367 86.0425 6.40483 86.3029 6.88778C86.5681 7.37074 86.7006 7.97443 86.7006 8.69886V16H84.229V14.5014H84.1438C83.9876 14.8045 83.7674 15.0885 83.4833 15.3537C83.204 15.6141 82.8512 15.8248 82.4251 15.9858C82.0037 16.142 81.5089 16.2202 80.9407 16.2202ZM81.6083 14.331C82.1244 14.331 82.5719 14.2292 82.9506 14.0256C83.3294 13.8172 83.6206 13.5426 83.8242 13.2017C84.0326 12.8608 84.1367 12.4891 84.1367 12.0866V10.8011C84.0562 10.8674 83.9189 10.929 83.7248 10.9858C83.5354 11.0426 83.3223 11.0923 83.0856 11.1349C82.8488 11.1776 82.6145 11.2154 82.3825 11.2486C82.1504 11.2817 81.9492 11.3101 81.7788 11.3338C81.3952 11.3859 81.052 11.4711 80.7489 11.5895C80.4459 11.7079 80.2068 11.8736 80.0316 12.0866C79.8564 12.295 79.7688 12.5649 79.7688 12.8963C79.7688 13.3698 79.9416 13.7273 80.2873 13.9688C80.6329 14.2102 81.0733 14.331 81.6083 14.331ZM91.8569 9.60795V16H89.2859V5.09091H91.7433V6.9446H91.8711C92.122 6.33381 92.5221 5.84848 93.0714 5.48864C93.6254 5.12879 94.3095 4.94886 95.1239 4.94886C95.8768 4.94886 96.5326 5.10985 97.0913 5.43182C97.6547 5.75379 98.0903 6.22017 98.3981 6.83097C98.7106 7.44176 98.8645 8.18276 98.8597 9.05398V16H96.2887V9.4517C96.2887 8.72254 96.0993 8.15199 95.7205 7.74006C95.3465 7.32812 94.828 7.12216 94.1651 7.12216C93.7153 7.12216 93.3152 7.22159 92.9648 7.42045C92.6192 7.61458 92.3469 7.89631 92.1481 8.26562C91.954 8.63494 91.8569 9.08239 91.8569 9.60795ZM106.921 5.09091V7.07955H100.65V5.09091H106.921ZM102.198 2.47727H104.769V12.7188C104.769 13.0644 104.821 13.3295 104.925 13.5142C105.034 13.6941 105.176 13.8172 105.351 13.8835C105.526 13.9498 105.721 13.983 105.934 13.983C106.095 13.983 106.241 13.9711 106.374 13.9474C106.511 13.9238 106.615 13.9025 106.686 13.8835L107.12 15.8935C106.982 15.9408 106.786 15.9929 106.53 16.0497C106.279 16.1065 105.971 16.1397 105.607 16.1491C104.963 16.1681 104.383 16.071 103.867 15.858C103.351 15.6402 102.941 15.304 102.638 14.8494C102.34 14.3949 102.193 13.8267 102.198 13.1449V2.47727ZM119.075 16H114.146V1.45455H119.174C120.618 1.45455 121.859 1.74574 122.896 2.32812C123.937 2.90578 124.737 3.73674 125.296 4.82102C125.855 5.9053 126.134 7.20265 126.134 8.71307C126.134 10.2282 125.853 11.5303 125.289 12.6193C124.73 13.7083 123.923 14.544 122.867 15.1264C121.816 15.7088 120.552 16 119.075 16ZM116.781 13.7202H118.947C119.96 13.7202 120.805 13.5355 121.482 13.1662C122.159 12.7921 122.668 12.2358 123.009 11.4972C123.35 10.7538 123.521 9.82576 123.521 8.71307C123.521 7.60038 123.35 6.67708 123.009 5.94318C122.668 5.20455 122.164 4.65294 121.496 4.28835C120.834 3.91903 120.01 3.73438 119.025 3.73438H116.781V13.7202ZM131.663 16.2202C130.972 16.2202 130.349 16.0971 129.795 15.8509C129.246 15.5999 128.811 15.2306 128.489 14.7429C128.171 14.2552 128.013 13.6539 128.013 12.9389C128.013 12.3234 128.126 11.8144 128.354 11.4119C128.581 11.0095 128.891 10.6875 129.284 10.446C129.677 10.2045 130.12 10.0223 130.612 9.89915C131.109 9.77131 131.623 9.67898 132.153 9.62216C132.793 9.55587 133.311 9.49669 133.709 9.4446C134.107 9.38778 134.395 9.30256 134.575 9.18892C134.76 9.07055 134.852 8.88826 134.852 8.64205V8.59943C134.852 8.06439 134.694 7.65009 134.376 7.35653C134.059 7.06297 133.602 6.91619 133.006 6.91619C132.376 6.91619 131.876 7.0535 131.507 7.32812C131.143 7.60275 130.896 7.92708 130.768 8.30114L128.368 7.96023C128.557 7.29735 128.87 6.74337 129.305 6.2983C129.741 5.84848 130.274 5.51231 130.903 5.28977C131.533 5.0625 132.229 4.94886 132.991 4.94886C133.517 4.94886 134.04 5.01042 134.561 5.13352C135.082 5.25663 135.558 5.46023 135.989 5.74432C136.42 6.02367 136.765 6.40483 137.026 6.88778C137.291 7.37074 137.423 7.97443 137.423 8.69886V16H134.952V14.5014H134.866C134.71 14.8045 134.49 15.0885 134.206 15.3537C133.927 15.6141 133.574 15.8248 133.148 15.9858C132.726 16.142 132.232 16.2202 131.663 16.2202ZM132.331 14.331C132.847 14.331 133.295 14.2292 133.673 14.0256C134.052 13.8172 134.343 13.5426 134.547 13.2017C134.755 12.8608 134.859 12.4891 134.859 12.0866V10.8011C134.779 10.8674 134.642 10.929 134.447 10.9858C134.258 11.0426 134.045 11.0923 133.808 11.1349C133.571 11.1776 133.337 11.2154 133.105 11.2486C132.873 11.2817 132.672 11.3101 132.501 11.3338C132.118 11.3859 131.775 11.4711 131.472 11.5895C131.169 11.7079 130.929 11.8736 130.754 12.0866C130.579 12.295 130.491 12.5649 130.491 12.8963C130.491 13.3698 130.664 13.7273 131.01 13.9688C131.356 14.2102 131.796 14.331 132.331 14.331ZM145.456 5.09091V7.07955H139.185V5.09091H145.456ZM140.733 2.47727H143.304V12.7188C143.304 13.0644 143.356 13.3295 143.46 13.5142C143.569 13.6941 143.711 13.8172 143.886 13.8835C144.062 13.9498 144.256 13.983 144.469 13.983C144.63 13.983 144.777 13.9711 144.909 13.9474C145.046 13.9238 145.151 13.9025 145.222 13.8835L145.655 15.8935C145.518 15.9408 145.321 15.9929 145.065 16.0497C144.814 16.1065 144.507 16.1397 144.142 16.1491C143.498 16.1681 142.918 16.071 142.402 15.858C141.886 15.6402 141.476 15.304 141.173 14.8494C140.875 14.3949 140.728 13.8267 140.733 13.1449V2.47727ZM150.745 16.2202C150.054 16.2202 149.431 16.0971 148.877 15.8509C148.328 15.5999 147.893 15.2306 147.571 14.7429C147.253 14.2552 147.095 13.6539 147.095 12.9389C147.095 12.3234 147.208 11.8144 147.436 11.4119C147.663 11.0095 147.973 10.6875 148.366 10.446C148.759 10.2045 149.202 10.0223 149.694 9.89915C150.191 9.77131 150.705 9.67898 151.235 9.62216C151.875 9.55587 152.393 9.49669 152.791 9.4446C153.189 9.38778 153.477 9.30256 153.657 9.18892C153.842 9.07055 153.934 8.88826 153.934 8.64205V8.59943C153.934 8.06439 153.776 7.65009 153.458 7.35653C153.141 7.06297 152.684 6.91619 152.088 6.91619C151.458 6.91619 150.958 7.0535 150.589 7.32812C150.225 7.60275 149.978 7.92708 149.85 8.30114L147.45 7.96023C147.639 7.29735 147.952 6.74337 148.387 6.2983C148.823 5.84848 149.356 5.51231 149.985 5.28977C150.615 5.0625 151.311 4.94886 152.074 4.94886C152.599 4.94886 153.122 5.01042 153.643 5.13352C154.164 5.25663 154.64 5.46023 155.071 5.74432C155.502 6.02367 155.847 6.40483 156.108 6.88778C156.373 7.37074 156.505 7.97443 156.505 8.69886V16H154.034V14.5014H153.949C153.792 14.8045 153.572 15.0885 153.288 15.3537C153.009 15.6141 152.656 15.8248 152.23 15.9858C151.808 16.142 151.314 16.2202 150.745 16.2202ZM151.413 14.331C151.929 14.331 152.377 14.2292 152.755 14.0256C153.134 13.8172 153.425 13.5426 153.629 13.2017C153.837 12.8608 153.941 12.4891 153.941 12.0866V10.8011C153.861 10.8674 153.724 10.929 153.529 10.9858C153.34 11.0426 153.127 11.0923 152.89 11.1349C152.654 11.1776 152.419 11.2154 152.187 11.2486C151.955 11.2817 151.754 11.3101 151.583 11.3338C151.2 11.3859 150.857 11.4711 150.554 11.5895C150.251 11.7079 150.011 11.8736 149.836 12.0866C149.661 12.295 149.574 12.5649 149.574 12.8963C149.574 13.3698 149.746 13.7273 150.092 13.9688C150.438 14.2102 150.878 14.331 151.413 14.331Z" fill="black"/>
</svg>
