<svg xmlns="http://www.w3.org/2000/svg" width="74" height="99" viewBox="0 0 74 99" fill="none">
  <path d="M8.54172 99C6.17372 99 4.1581 98.1347 2.49486 96.404C0.83162 94.6733 0 92.5778 0 90.1175V41.8825C0 39.4258 0.83162 37.3303 2.49486 35.596C4.1581 33.8653 6.17372 33 8.54172 33H15.8571V22C15.8571 15.873 17.9098 10.6755 22.015 6.4075C26.1167 2.13583 31.1117 0 37 0C42.8883 0 47.885 2.13583 51.9903 6.4075C56.0955 10.6792 58.1464 15.8767 58.1429 22V33H65.4636C67.8245 33 69.8384 33.8653 71.5051 35.596C73.1684 37.3267 74 39.424 74 41.888V90.1175C74 92.5742 73.1684 94.6697 71.5051 96.404C69.8419 98.1347 67.8281 99 65.4636 99H8.54172ZM8.54172 93.5H65.4636C66.4115 93.5 67.1902 93.1828 67.7999 92.5485C68.4095 91.9142 68.7143 91.1038 68.7143 90.1175V41.8825C68.7143 40.8962 68.4095 40.0858 67.7999 39.4515C67.1902 38.8172 66.4115 38.5 65.4636 38.5H8.53643C7.58852 38.5 6.80976 38.8172 6.20014 39.4515C5.59052 40.0858 5.28571 40.898 5.28571 41.888V90.1175C5.28571 91.1038 5.59052 91.9142 6.20014 92.5485C6.80976 93.1828 7.59029 93.5 8.54172 93.5ZM37 74.25C39.2306 74.25 41.1088 73.4543 42.6346 71.863C44.1639 70.2753 44.9286 68.321 44.9286 66C44.9286 63.679 44.1639 61.7247 42.6346 60.137C41.1052 58.5493 39.227 57.7537 37 57.75C34.773 57.7463 32.8948 58.542 31.3654 60.137C29.8361 61.7247 29.0714 63.679 29.0714 66C29.0714 68.321 29.8361 70.2753 31.3654 71.863C32.8912 73.4543 34.7694 74.25 37 74.25ZM21.1429 33H52.8571V22C52.8571 17.4167 51.3155 13.5208 48.2321 10.3125C45.1488 7.10417 41.4048 5.5 37 5.5C32.5952 5.5 28.8512 7.10417 25.7679 10.3125C22.6845 13.5208 21.1429 17.4167 21.1429 22V33Z" fill="#00191D"/>
</svg>