<svg xmlns="http://www.w3.org/2000/svg" width="24" height="24" viewBox="0 0 24 24" fill="none">
  <g clip-path="url(#clip0_3168_110329)">
    <path d="M22.7628 13.9701L20.3178 14.6161C19.9606 14.7114 19.6268 14.8789 19.3368 15.1081L16.7198 13.5861C17.0878 12.5601 17.0878 11.4381 16.7198 10.4121L19.3368 8.89012C19.6268 9.11938 19.9606 9.28682 20.3178 9.38212C20.3178 9.38212 22.9348 10.0611 23.0178 10.0611C23.2577 10.0571 23.4882 9.96703 23.6672 9.80722C23.8462 9.64742 23.9618 9.42858 23.9928 9.19064C24.0239 8.9527 23.9683 8.71153 23.8363 8.51115C23.7043 8.31076 23.5047 8.16452 23.2738 8.09912L20.8298 7.45212C20.6468 7.40353 20.4905 7.28433 20.3953 7.12066C20.3 6.957 20.2736 6.76224 20.3218 6.57912L20.9688 4.13512C21.0024 4.00813 21.0107 3.87576 20.9931 3.74558C20.9756 3.61539 20.9326 3.48993 20.8666 3.37637C20.8006 3.2628 20.7128 3.16335 20.6083 3.08369C20.5039 3.00404 20.3848 2.94574 20.2578 2.91212C20.1308 2.8785 19.9984 2.87022 19.8682 2.88776C19.7381 2.9053 19.6126 2.9483 19.499 3.01433C19.3855 3.08035 19.286 3.16809 19.2064 3.27255C19.1267 3.37701 19.0684 3.49613 19.0348 3.62312L18.3888 6.06712C18.2937 6.42585 18.2739 6.80038 18.3308 7.16712L15.7148 8.68312C15.0051 7.87612 14.0534 7.32044 13.0018 7.09912V4.09912C13.3463 3.96473 13.6592 3.76044 13.9208 3.49912L15.7088 1.71112C15.897 1.52361 16.0029 1.26903 16.0034 1.00339C16.0039 0.737741 15.8988 0.482789 15.7113 0.294618C15.5238 0.106447 15.2692 0.000470405 15.0035 1.56222e-06C14.7379 -0.000467281 14.483 0.10461 14.2948 0.292118L12.5068 2.08012C12.3724 2.21312 12.1909 2.28773 12.0018 2.28773C11.8127 2.28773 11.6312 2.21312 11.4968 2.08012L9.70878 0.292118C9.52018 0.10996 9.26758 0.00916585 9.00538 0.0114443C8.74318 0.0137227 8.49237 0.118892 8.30696 0.3043C8.12155 0.489708 8.01639 0.74052 8.01411 1.00272C8.01183 1.26491 8.11262 1.51752 8.29478 1.70612L10.0828 3.49912C10.3444 3.76044 10.6573 3.96473 11.0018 4.09912V7.09912C9.95018 7.32044 8.99843 7.87612 8.28878 8.68312L5.67278 7.16112C5.72962 6.79438 5.70987 6.41985 5.61478 6.06112L4.96878 3.61912C4.93516 3.49213 4.87686 3.37301 4.7972 3.26855C4.71755 3.16409 4.6181 3.07635 4.50453 3.01033C4.39097 2.9443 4.26551 2.9013 4.13532 2.88376C4.00513 2.86622 3.87277 2.8745 3.74578 2.90812C3.61879 2.94174 3.49967 3.00004 3.39521 3.07969C3.29076 3.15935 3.20301 3.2588 3.13699 3.37237C3.07097 3.48593 3.02796 3.61139 3.01042 3.74158C2.99288 3.87176 3.00116 4.00413 3.03478 4.13112L3.68178 6.57512C3.72996 6.75824 3.70354 6.953 3.6083 7.11666C3.51307 7.28033 3.3568 7.39953 3.17378 7.44812L0.72978 8.09912C0.495765 8.16174 0.292438 8.30718 0.157576 8.50842C0.0227142 8.70966 -0.0345132 8.95301 -0.00347356 9.19326C0.0275661 9.43351 0.144762 9.65433 0.326341 9.81468C0.507919 9.97504 0.741534 10.064 0.98378 10.0651C1.06878 10.0651 3.68378 9.38612 3.68378 9.38612C4.04094 9.29082 4.3748 9.12338 4.66478 8.89412L7.28178 10.4161C6.91373 11.4421 6.91373 12.5641 7.28178 13.5901L4.66678 15.1081C4.3768 14.8789 4.04294 14.7114 3.68578 14.6161L1.24078 13.9701C0.99179 13.9217 0.733699 13.9697 0.518768 14.1044C0.303837 14.2391 0.148129 14.4504 0.0831746 14.6956C0.0182203 14.9408 0.048874 15.2016 0.168928 15.425C0.288983 15.6485 0.489465 15.8179 0.72978 15.8991L3.17378 16.5461C3.3568 16.5947 3.51307 16.7139 3.6083 16.8776C3.70354 17.0412 3.72996 17.236 3.68178 17.4191L3.03478 19.8631C3.00116 19.9901 2.99288 20.1225 3.01042 20.2527C3.02796 20.3828 3.07097 20.5083 3.13699 20.6219C3.20301 20.7354 3.29076 20.8349 3.39521 20.9145C3.49967 20.9942 3.61879 21.0525 3.74578 21.0861C3.87277 21.1197 4.00513 21.128 4.13532 21.1105C4.26551 21.0929 4.39097 21.0499 4.50453 20.9839C4.6181 20.9179 4.71755 20.8301 4.7972 20.7257C4.87686 20.6212 4.93516 20.5021 4.96878 20.3751L5.61478 17.9311C5.70987 17.5724 5.72962 17.1979 5.67278 16.8311L8.28878 15.3091C8.99756 16.1183 9.9494 16.6762 11.0018 16.8991V19.8991C10.6575 20.0339 10.3446 20.2381 10.0828 20.4991L8.29478 22.2921C8.11262 22.4807 8.01183 22.7333 8.01411 22.9955C8.01639 23.2577 8.12155 23.5085 8.30696 23.6939C8.49237 23.8793 8.74318 23.9845 9.00538 23.9868C9.26758 23.9891 9.52018 23.8883 9.70878 23.7061L11.5018 21.9181C11.6362 21.7851 11.8177 21.7105 12.0068 21.7105C12.1959 21.7105 12.3774 21.7851 12.5118 21.9181L14.2998 23.7061C14.4884 23.8883 14.741 23.9891 15.0032 23.9868C15.2654 23.9845 15.5162 23.8793 15.7016 23.6939C15.887 23.5085 15.9922 23.2577 15.9945 22.9955C15.9967 22.7333 15.8959 22.4807 15.7138 22.2921L13.9258 20.5041C13.6629 20.2407 13.3483 20.0347 13.0018 19.8991V16.8991C14.0533 16.6781 15.005 16.1227 15.7148 15.3161L18.3308 16.8381C18.2739 17.2049 18.2937 17.5794 18.3888 17.9381L19.0348 20.3821C19.1027 20.6386 19.2697 20.8576 19.499 20.9909C19.7284 21.1242 20.0013 21.161 20.2578 21.0931C20.5142 21.0252 20.7332 20.8582 20.8666 20.6289C20.9999 20.3995 21.0367 20.1266 20.9688 19.8701L20.3218 17.4261C20.2736 17.243 20.3 17.0482 20.3953 16.8846C20.4905 16.7209 20.6468 16.6017 20.8298 16.5531L23.2738 15.9061C23.4035 15.8752 23.5258 15.8186 23.6333 15.7397C23.7409 15.6609 23.8316 15.5613 23.9 15.4468C23.9685 15.3323 24.0134 15.2053 24.0321 15.0733C24.0507 14.9412 24.0428 14.8067 24.0087 14.6778C23.9746 14.5488 23.9151 14.428 23.8336 14.3224C23.7521 14.2168 23.6503 14.1286 23.5342 14.0629C23.4181 13.9973 23.2901 13.9555 23.1576 13.9401C23.0251 13.9247 22.8909 13.9359 22.7628 13.9731V13.9701ZM12.0018 14.9991C11.2061 14.9991 10.4431 14.683 9.88046 14.1204C9.31785 13.5578 9.00178 12.7948 9.00178 11.9991C9.00178 11.2035 9.31785 10.4404 9.88046 9.8778C10.4431 9.31519 11.2061 8.99912 12.0018 8.99912C12.7974 8.99912 13.5605 9.31519 14.1231 9.8778C14.6857 10.4404 15.0018 11.2035 15.0018 11.9991C15.0018 12.7948 14.6857 13.5578 14.1231 14.1204C13.5605 14.683 12.7974 14.9991 12.0018 14.9991Z" fill="url(#paint0_linear_3168_110329)"/>
  </g>
  <defs>
    <linearGradient id="paint0_linear_3168_110329" x1="-0.0117187" y1="0" x2="27.8307" y2="5.80036" gradientUnits="userSpaceOnUse">
      <stop stop-color="#369D9C"/>
      <stop offset="1" stop-color="#28814D"/>
    </linearGradient>
    <clipPath id="clip0_3168_110329">
      <rect width="24" height="24" fill="white"/>
    </clipPath>
  </defs>
</svg>