<svg xmlns="http://www.w3.org/2000/svg" width="24" height="24" viewBox="0 0 24 24" fill="none">
      <g clip-path="url(#clip0_3168_110351)">
        <path d="M15.999 24.0005C15.185 24.0002 14.3833 23.8018 13.663 23.4225C12.7902 23.8226 11.8372 24.017 10.8774 23.9907C9.91754 23.9643 8.97659 23.7179 8.12704 23.2705C8.03748 23.2258 7.93798 23.2049 7.83803 23.2096C7.73808 23.2143 7.641 23.2446 7.55605 23.2975C6.70898 23.7883 5.73706 24.0211 4.75954 23.9674C3.78203 23.9137 2.84145 23.5759 2.05323 22.9952C1.26501 22.4146 0.663442 21.6165 0.322342 20.6989C-0.0187573 19.7812 -0.0845477 18.784 0.133045 17.8295C0.342076 16.9333 0.796942 16.1131 1.44651 15.4613C2.09608 14.8094 2.91459 14.3517 3.81004 14.1395C4.59055 13.9514 5.40454 13.9514 6.18504 14.1395C6.23427 14.1547 6.28678 14.1558 6.33661 14.1427C6.38645 14.1297 6.43163 14.1029 6.46704 14.0655C7.01141 13.4452 7.67722 12.9433 8.42329 12.5906C9.16937 12.2379 9.97986 12.042 10.8047 12.015C11.6294 11.988 12.451 12.1305 13.2185 12.4337C13.9861 12.7368 14.6833 13.1942 15.267 13.7775C15.332 13.8445 15.484 13.9975 16.001 13.9975C16.7502 13.9967 17.4898 14.1647 18.165 14.4892C18.8402 14.8136 19.4336 15.2861 19.901 15.8715C19.9483 15.94 20.0158 15.9921 20.094 16.0205C20.5768 15.9663 21.0655 16.0098 21.531 16.1485C22.099 16.318 22.6136 16.6312 23.0251 17.0577C23.4366 17.4843 23.731 18.0098 23.88 18.5835C24.0421 19.1822 24.0422 19.8133 23.8802 20.4121C23.7182 21.0109 23.3999 21.5558 22.9581 21.9912C22.5162 22.4265 21.9666 22.7366 21.3655 22.8897C20.7643 23.0428 20.1333 23.0334 19.537 22.8625C19.262 22.7855 19.206 22.8325 19.181 22.8525C18.289 23.5985 17.1619 24.0051 15.999 24.0005ZM13.613 21.4095C13.9576 21.4092 14.2969 21.4937 14.601 21.6555C15.1229 21.9237 15.7111 22.0354 16.295 21.9772C16.8788 21.919 17.4334 21.6934 17.892 21.3275C18.1938 21.0805 18.554 20.9153 18.9381 20.8477C19.3221 20.7801 19.7171 20.8124 20.085 20.9415C20.3428 21.0164 20.6159 21.0208 20.8759 20.9542C21.1359 20.8876 21.3733 20.7525 21.5633 20.5629C21.7533 20.3733 21.8889 20.1362 21.9561 19.8764C22.0232 19.6165 22.0194 19.3434 21.945 19.0855C21.8811 18.8472 21.7578 18.6292 21.5865 18.4516C21.4153 18.2741 21.2018 18.143 20.966 18.0705C20.7577 18.0086 20.5392 17.9885 20.323 18.0115C19.9447 18.0449 19.564 17.9811 19.2172 17.8263C18.8703 17.6714 18.5687 17.4305 18.341 17.1265C17.3 15.5265 14.977 16.4655 13.841 15.1875C13.4517 14.799 12.9869 14.4945 12.4753 14.2928C11.9637 14.0911 11.4162 13.9964 10.8665 14.0145C10.3169 14.0327 9.77681 14.1634 9.27966 14.3985C8.7825 14.6336 8.33883 14.9682 7.97605 15.3815C7.70009 15.6962 7.34255 15.9286 6.94286 16.053C6.54317 16.1774 6.11689 16.189 5.71104 16.0865C5.23465 15.9735 4.73844 15.9735 4.26204 16.0865C3.77506 16.2089 3.32661 16.4517 2.95779 16.7924C2.58898 17.1332 2.31159 17.5611 2.15107 18.0369C1.99055 18.5127 1.95203 19.0211 2.03903 19.5157C2.12603 20.0102 2.33578 20.475 2.64904 20.8675C3.10906 21.4237 3.75043 21.8 4.46041 21.9302C5.1704 22.0605 5.90356 21.9363 6.53104 21.5795C6.91464 21.3482 7.35179 21.2207 7.79957 21.2094C8.24735 21.1982 8.69035 21.3037 9.08504 21.5155C9.64232 21.8136 10.2616 21.9774 10.8934 21.9938C11.5252 22.0101 12.1521 21.8785 12.724 21.6095C13.0017 21.4773 13.3055 21.409 13.613 21.4095ZM22.874 15.0005C22.7894 15.0005 22.7051 14.99 22.623 14.9695C22.4958 14.9366 22.3763 14.879 22.2714 14.8C22.1665 14.7209 22.0781 14.622 22.0114 14.5087C21.9448 14.3955 21.9011 14.2703 21.8828 14.1402C21.8645 14.0101 21.8721 13.8777 21.905 13.7505C22.0162 13.3127 22.0295 12.8559 21.944 12.4125C21.8398 11.9091 21.6089 11.4407 21.2731 11.0515C20.9373 10.6623 20.5077 10.3653 20.025 10.1885C19.4462 9.96956 18.8124 9.94256 18.217 10.1115C17.8333 10.2251 17.4246 10.2234 17.0418 10.1066C16.659 9.9898 16.319 9.76301 16.064 9.45447C15.6521 8.96089 15.1271 8.57414 14.5335 8.32717C13.94 8.08019 13.2955 7.98029 12.6551 8.03596C12.0146 8.09164 11.3971 8.30126 10.8551 8.64696C10.3131 8.99266 9.8626 9.46421 9.54204 10.0215C9.33412 10.3998 9.01119 10.7022 8.61999 10.8849C8.2288 11.0675 7.78963 11.121 7.36604 11.0375C7.07178 10.9773 6.76728 10.99 6.47904 11.0745C6.16767 11.1636 5.88161 11.3248 5.64398 11.5449C5.40635 11.7649 5.22379 12.0378 5.11104 12.3415C5.06626 12.465 4.99759 12.5785 4.90896 12.6754C4.82032 12.7724 4.71345 12.851 4.59446 12.9066C4.47546 12.9623 4.34666 12.994 4.21542 12.9999C4.08417 13.0058 3.95305 12.9857 3.82954 12.941C3.70604 12.8962 3.59256 12.8275 3.49559 12.7389C3.39862 12.6502 3.32006 12.5434 3.26439 12.4244C3.20872 12.3054 3.17703 12.1766 3.17114 12.0453C3.16525 11.9141 3.18526 11.783 3.23004 11.6595C3.44995 11.0563 3.81009 10.5141 4.28075 10.0775C4.75141 9.64095 5.31912 9.32251 5.93705 9.14847C6.53199 8.97915 7.15889 8.95514 7.76504 9.07847C8.24379 8.23324 8.92022 7.51661 9.73643 6.98991C10.5526 6.46321 11.4843 6.14214 12.4517 6.05416C13.4191 5.96619 14.3934 6.11394 15.2913 6.48477C16.1891 6.8556 16.9837 7.43846 17.607 8.18347C18.4559 7.93873 19.3544 7.92294 20.2113 8.1377C21.0683 8.35247 21.8531 8.79014 22.4862 9.40628C23.1193 10.0224 23.5781 10.7951 23.8161 11.6459C24.054 12.4967 24.0626 13.3953 23.841 14.2505C23.7857 14.4649 23.6607 14.6549 23.4857 14.7907C23.3107 14.9264 23.0955 15.0002 22.874 15.0005ZM1.33604 10.0005C1.14756 9.99993 0.963061 9.94614 0.803823 9.84529C0.644586 9.74444 0.517093 9.60064 0.436045 9.43047C0.16284 8.85658 0.0145641 8.23123 0.00101986 7.59577C-0.0125244 6.96031 0.108972 6.32922 0.357475 5.74421C0.605979 5.1592 0.97583 4.6336 1.44258 4.20216C1.90932 3.77073 2.46233 3.44328 3.06504 3.24147C3.8613 2.96465 4.72087 2.92539 5.53904 3.12847C5.52904 3.12847 5.56504 3.09847 5.59104 3.04547C6.01733 2.20725 6.65105 1.49209 7.43188 0.96805C8.21272 0.44401 9.11468 0.128534 10.0519 0.0516508C10.9892 -0.0252325 11.9305 0.139036 12.7863 0.528819C13.6421 0.918602 14.3839 1.52093 14.941 2.27847C15.8455 1.95852 16.8278 1.93122 17.7486 2.20042C18.6695 2.46963 19.4823 3.0217 20.072 3.77847C20.259 4.01747 20.366 4.02947 20.472 4.04247C20.503 4.04247 20.604 4.06147 20.635 4.06747C21.0474 4.15711 21.4363 4.33255 21.7764 4.58237C22.1165 4.83219 22.4002 5.15079 22.609 5.51747C22.7403 5.74794 22.7747 6.02112 22.7045 6.27692C22.6344 6.53272 22.4655 6.75018 22.235 6.88147C22.0046 7.01275 21.7314 7.0471 21.4756 6.97696C21.2198 6.90682 21.0023 6.73794 20.871 6.50747C20.8018 6.38495 20.7075 6.27842 20.5943 6.19484C20.4811 6.11127 20.3515 6.05253 20.214 6.02247C19.873 5.98452 19.5439 5.87482 19.2483 5.70057C18.9527 5.52632 18.6974 5.29147 18.499 5.01147C18.1709 4.58195 17.7143 4.26819 17.1958 4.11571C16.6772 3.96322 16.1235 3.97995 15.615 4.16347C15.2169 4.31947 14.778 4.33808 14.3681 4.21635C13.9581 4.09461 13.6005 3.8395 13.352 3.49147C13.0026 3.00172 12.5327 2.61034 11.9879 2.35509C11.4431 2.09984 10.8417 1.98935 10.2417 2.03428C9.64171 2.07921 9.06345 2.27805 8.56272 2.61159C8.06198 2.94514 7.65569 3.40213 7.38304 3.93847C7.1834 4.36478 6.84351 4.70967 6.42016 4.91552C5.99681 5.12138 5.51564 5.17572 5.05704 5.06947C4.60988 4.95891 4.14008 4.98221 3.70604 5.13647C3.37062 5.24717 3.0626 5.428 2.80245 5.66693C2.54231 5.90586 2.336 6.19743 2.19724 6.52225C2.05847 6.84708 1.99043 7.19771 1.99764 7.55086C2.00485 7.90401 2.08714 8.25158 2.23904 8.57047C2.31154 8.72268 2.34438 8.89075 2.3345 9.05906C2.32462 9.22736 2.27235 9.39044 2.18255 9.53313C2.09275 9.67581 1.96832 9.79348 1.82085 9.87519C1.67338 9.95689 1.50764 9.99999 1.33904 10.0005H1.33604Z" fill="url(#paint0_linear_3168_110351)"/>
      </g>
      <defs>
        <linearGradient id="paint0_linear_3168_110351" x1="0" y1="0.0332031" x2="27.7853" y2="5.81387" gradientUnits="userSpaceOnUse">
          <stop stop-color="#369D9C"/>
          <stop offset="1" stop-color="#28814D"/>
        </linearGradient>
        <clipPath id="clip0_3168_110351">
          <rect width="24" height="24" fill="white"/>
        </clipPath>
      </defs>
    </svg>