<svg width="24" height="24" viewBox="0 0 24 24" fill="none" xmlns="http://www.w3.org/2000/svg">
<g clip-path="url(#clip0_1214_72375)">
<path d="M15.999 24C15.185 23.9997 14.3833 23.8013 13.663 23.422C12.7902 23.8222 11.8372 24.0166 10.8774 23.9902C9.91754 23.9639 8.97659 23.7174 8.12704 23.27C8.03748 23.2254 7.93798 23.2044 7.83803 23.2091C7.73808 23.2139 7.641 23.2441 7.55605 23.297C6.70898 23.7878 5.73706 24.0206 4.75954 23.9669C3.78203 23.9133 2.84145 23.5754 2.05323 22.9947C1.26501 22.4141 0.663442 21.616 0.322342 20.6984C-0.0187573 19.7807 -0.0845477 18.7835 0.133045 17.829C0.342076 16.9328 0.796942 16.1127 1.44651 15.4608C2.09608 14.8089 2.91459 14.3512 3.81004 14.139C4.59055 13.9509 5.40454 13.9509 6.18504 14.139C6.23427 14.1542 6.28678 14.1553 6.33661 14.1423C6.38645 14.1292 6.43163 14.1024 6.46704 14.065C7.01141 13.4448 7.67722 12.9428 8.42329 12.5901C9.16937 12.2374 9.97986 12.0415 10.8047 12.0145C11.6294 11.9876 12.451 12.13 13.2185 12.4332C13.9861 12.7363 14.6833 13.1937 15.267 13.777C15.332 13.844 15.484 13.997 16.001 13.997C16.7502 13.9962 17.4898 14.1642 18.165 14.4887C18.8402 14.8131 19.4336 15.2856 19.901 15.871C19.9483 15.9395 20.0158 15.9916 20.094 16.02C20.5768 15.9658 21.0655 16.0093 21.531 16.148C22.099 16.3175 22.6136 16.6307 23.0251 17.0572C23.4366 17.4838 23.731 18.0093 23.88 18.583C24.0421 19.1817 24.0422 19.8128 23.8802 20.4116C23.7182 21.0104 23.3999 21.5553 22.9581 21.9907C22.5162 22.4261 21.9666 22.7362 21.3655 22.8893C20.7643 23.0423 20.1333 23.0329 19.537 22.862C19.262 22.785 19.206 22.832 19.181 22.852C18.289 23.598 17.1619 24.0047 15.999 24ZM13.613 21.409C13.9576 21.4087 14.2969 21.4932 14.601 21.655C15.1229 21.9232 15.7111 22.0349 16.295 21.9767C16.8788 21.9185 17.4334 21.6929 17.892 21.327C18.1938 21.08 18.554 20.9148 18.9381 20.8472C19.3221 20.7796 19.7171 20.8119 20.085 20.941C20.3428 21.0159 20.6159 21.0203 20.8759 20.9537C21.1359 20.8871 21.3733 20.752 21.5633 20.5624C21.7533 20.3728 21.8889 20.1357 21.9561 19.8759C22.0232 19.616 22.0194 19.3429 21.945 19.085C21.8811 18.8468 21.7578 18.6287 21.5865 18.4511C21.4153 18.2736 21.2018 18.1425 20.966 18.07C20.7577 18.0081 20.5392 17.988 20.323 18.011C19.9447 18.0444 19.564 17.9806 19.2172 17.8258C18.8703 17.6709 18.5687 17.43 18.341 17.126C17.3 15.526 14.977 16.465 13.841 15.187C13.4517 14.7985 12.9869 14.4941 12.4753 14.2923C11.9637 14.0906 11.4162 13.9959 10.8665 14.014C10.3169 14.0322 9.77681 14.1629 9.27966 14.398C8.7825 14.6331 8.33883 14.9677 7.97605 15.381C7.70009 15.6957 7.34255 15.9281 6.94286 16.0526C6.54317 16.177 6.11689 16.1885 5.71104 16.086C5.23465 15.973 4.73844 15.973 4.26204 16.086C3.77506 16.2084 3.32661 16.4512 2.95779 16.7919C2.58898 17.1327 2.31159 17.5606 2.15107 18.0364C1.99055 18.5122 1.95203 19.0206 2.03903 19.5152C2.12603 20.0097 2.33578 20.4745 2.64904 20.867C3.10906 21.4232 3.75043 21.7995 4.46041 21.9298C5.1704 22.06 5.90356 21.9358 6.53104 21.579C6.91464 21.3477 7.35179 21.2202 7.79957 21.209C8.24735 21.1977 8.69035 21.3032 9.08504 21.515C9.64232 21.8132 10.2616 21.9769 10.8934 21.9933C11.5252 22.0096 12.1521 21.878 12.724 21.609C13.0017 21.4768 13.3055 21.4085 13.613 21.409ZM22.874 15C22.7894 15 22.7051 14.9896 22.623 14.969C22.4958 14.9361 22.3763 14.8785 22.2714 14.7995C22.1665 14.7204 22.0781 14.6215 22.0114 14.5083C21.9448 14.3951 21.9011 14.2698 21.8828 14.1397C21.8645 14.0096 21.8721 13.8772 21.905 13.75C22.0162 13.3123 22.0295 12.8554 21.944 12.412C21.8398 11.9086 21.6089 11.4402 21.2731 11.051C20.9373 10.6619 20.5077 10.3648 20.025 10.188C19.4462 9.96907 18.8124 9.94207 18.217 10.111C17.8333 10.2246 17.4246 10.2229 17.0418 10.1061C16.659 9.98931 16.319 9.76252 16.064 9.45398C15.6521 8.9604 15.1271 8.57366 14.5335 8.32668C13.94 8.0797 13.2955 7.9798 12.6551 8.03548C12.0146 8.09116 11.3971 8.30077 10.8551 8.64647C10.3131 8.99217 9.8626 9.46372 9.54204 10.021C9.33412 10.3993 9.01119 10.7017 8.61999 10.8844C8.2288 11.067 7.78963 11.1205 7.36604 11.037C7.07178 10.9769 6.76728 10.9896 6.47904 11.074C6.16767 11.1631 5.88161 11.3243 5.64398 11.5444C5.40635 11.7645 5.22379 12.0373 5.11104 12.341C5.06626 12.4645 4.99759 12.578 4.90896 12.6749C4.82032 12.7719 4.71345 12.8505 4.59446 12.9061C4.47546 12.9618 4.34666 12.9935 4.21542 12.9994C4.08417 13.0053 3.95305 12.9853 3.82954 12.9405C3.70604 12.8957 3.59256 12.827 3.49559 12.7384C3.39862 12.6498 3.32006 12.5429 3.26439 12.4239C3.20872 12.3049 3.17703 12.1761 3.17114 12.0448C3.16525 11.9136 3.18526 11.7825 3.23004 11.659C3.44995 11.0558 3.81009 10.5136 4.28075 10.077C4.75141 9.64046 5.31912 9.32202 5.93705 9.14798C6.53199 8.97866 7.15889 8.95466 7.76504 9.07798C8.24379 8.23275 8.92022 7.51612 9.73643 6.98942C10.5526 6.46272 11.4843 6.14165 12.4517 6.05367C13.4191 5.9657 14.3934 6.11345 15.2913 6.48428C16.1891 6.85511 16.9837 7.43797 17.607 8.18298C18.4559 7.93824 19.3544 7.92245 20.2113 8.13722C21.0683 8.35198 21.8531 8.78965 22.4862 9.40579C23.1193 10.0219 23.5781 10.7946 23.8161 11.6454C24.054 12.4962 24.0626 13.3948 23.841 14.25C23.7857 14.4644 23.6607 14.6544 23.4857 14.7902C23.3107 14.9259 23.0955 14.9997 22.874 15ZM1.33604 9.99998C1.14756 9.99944 0.963061 9.94565 0.803823 9.8448C0.644586 9.74395 0.517093 9.60015 0.436045 9.42998C0.16284 8.85609 0.0145641 8.23074 0.00101986 7.59528C-0.0125244 6.95983 0.108972 6.32873 0.357475 5.74372C0.605979 5.15871 0.97583 4.63311 1.44258 4.20168C1.90932 3.77024 2.46233 3.44279 3.06504 3.24098C3.8613 2.96417 4.72087 2.9249 5.53904 3.12798C5.52904 3.12798 5.56504 3.09798 5.59104 3.04498C6.01733 2.20676 6.65105 1.4916 7.43188 0.967561C8.21272 0.443522 9.11468 0.128046 10.0519 0.0511625C10.9892 -0.0257208 11.9305 0.138547 12.7863 0.528331C13.6421 0.918114 14.3839 1.52044 14.941 2.27798C15.8455 1.95803 16.8278 1.93073 17.7486 2.19993C18.6695 2.46914 19.4823 3.02121 20.072 3.77798C20.259 4.01698 20.366 4.02898 20.472 4.04198C20.503 4.04198 20.604 4.06098 20.635 4.06698C21.0474 4.15663 21.4363 4.33206 21.7764 4.58188C22.1165 4.8317 22.4002 5.15031 22.609 5.51698C22.7403 5.74745 22.7747 6.02064 22.7045 6.27643C22.6344 6.53223 22.4655 6.74969 22.235 6.88098C22.0046 7.01226 21.7314 7.04661 21.4756 6.97647C21.2198 6.90633 21.0023 6.73745 20.871 6.50698C20.8018 6.38446 20.7075 6.27793 20.5943 6.19436C20.4811 6.11078 20.3515 6.05204 20.214 6.02198C19.873 5.98404 19.5439 5.87433 19.2483 5.70008C18.9527 5.52583 18.6974 5.29098 18.499 5.01098C18.1709 4.58147 17.7143 4.2677 17.1958 4.11522C16.6772 3.96273 16.1235 3.97946 15.615 4.16298C15.2169 4.31898 14.778 4.33759 14.3681 4.21586C13.9581 4.09412 13.6005 3.83901 13.352 3.49098C13.0026 3.00123 12.5327 2.60985 11.9879 2.3546C11.4431 2.09935 10.8417 1.98886 10.2417 2.03379C9.64171 2.07872 9.06345 2.27756 8.56272 2.6111C8.06198 2.94465 7.65569 3.40164 7.38304 3.93798C7.1834 4.36429 6.84351 4.70919 6.42016 4.91504C5.99681 5.12089 5.51564 5.17523 5.05704 5.06898C4.60988 4.95842 4.14008 4.98172 3.70604 5.13598C3.37062 5.24668 3.0626 5.42751 2.80245 5.66644C2.54231 5.90538 2.336 6.19694 2.19724 6.52177C2.05847 6.84659 1.99043 7.19723 1.99764 7.55037C2.00485 7.90352 2.08714 8.25109 2.23904 8.56998C2.31154 8.72219 2.34438 8.89026 2.3345 9.05857C2.32462 9.22687 2.27235 9.38995 2.18255 9.53264C2.09275 9.67533 1.96832 9.79299 1.82085 9.8747C1.67338 9.95641 1.50764 9.9995 1.33904 9.99998H1.33604Z" fill="url(#paint0_linear_1214_72375)"/>
</g>
<defs>
<linearGradient id="paint0_linear_1214_72375" x1="0" y1="0.0327148" x2="27.7853" y2="5.81338" gradientUnits="userSpaceOnUse">
<stop stop-color="#369D9C"/>
<stop offset="1" stop-color="#28814D"/>
</linearGradient>
<clipPath id="clip0_1214_72375">
<rect width="24" height="24" fill="white"/>
</clipPath>
</defs>
</svg>
