<svg width="24" height="24" viewBox="0 0 24 24" fill="none" xmlns="http://www.w3.org/2000/svg">
<g clip-path="url(#clip0_1214_72084)">
<path d="M23.9328 4.01983C23.9328 4.56888 23.4877 5.01401 22.9386 5.01401H21.175L22.0518 6.54405C22.3263 7.02035 22.1627 7.62907 21.6865 7.90357C21.2102 8.17812 20.6014 8.01452 20.3269 7.53823L19.459 6.01915L18.5911 7.53326C18.3165 8.00955 17.7078 8.17315 17.2315 7.8986C16.7552 7.62405 16.5917 7.01538 16.8662 6.53908L17.743 5.01401H15.9794C15.4303 5.01401 14.9852 4.56888 14.9852 4.01983C14.9852 3.47079 15.4303 3.02566 15.9794 3.02566H17.743L16.8662 1.49562C16.5917 1.01932 16.7552 0.4106 17.2315 0.1361C17.7078 -0.138447 18.3166 0.0251471 18.5911 0.501444L19.459 2.02052L20.3269 0.506413C20.6015 0.0301158 21.2102 -0.133478 21.6865 0.141069C22.1627 0.415616 22.3263 1.02429 22.0518 1.50058L21.175 3.02566H22.9386C23.4877 3.02566 23.9328 3.47074 23.9328 4.01983ZM14.2893 12.9416L12.8199 13.7956C13.0495 14.552 13.0495 15.3596 12.8199 16.116L14.2893 16.97C14.4911 16.8363 14.713 16.7356 14.9464 16.6717L16.7161 16.2045C17.247 16.0645 17.791 16.3814 17.9309 16.9123C18.0709 17.4433 17.754 17.9872 17.2231 18.1272L15.4554 18.5944C15.3258 18.6299 15.2481 18.7623 15.2804 18.8927L15.7477 20.6623C15.9032 21.1889 15.6024 21.7419 15.0758 21.8974C14.5492 22.0529 13.9963 21.7521 13.8407 21.2255C13.8353 21.207 13.8303 21.1882 13.8259 21.1694L13.3587 19.4017C13.297 19.1678 13.2735 18.9254 13.2891 18.6839L11.7809 17.8061C11.287 18.2854 10.6768 18.6281 10.0103 18.8002V20.5798C10.2273 20.6869 10.4251 20.829 10.5959 21.0003L11.8883 22.2927C12.2782 22.6796 12.2806 23.3092 11.8938 23.699C11.507 24.0888 10.8774 24.0913 10.4875 23.7045L9.19516 22.412C9.09944 22.3159 8.94395 22.3157 8.84786 22.4113C8.84762 22.4116 8.84739 22.4118 8.84716 22.412L7.55472 23.7045C7.16678 24.0932 6.5372 24.0939 6.14847 23.706C5.75973 23.318 5.75908 22.6885 6.14697 22.2997L7.43941 21.0073C7.61045 20.8355 7.80864 20.6931 8.02595 20.5857V18.8062C7.35948 18.634 6.74927 18.2914 6.25534 17.812L4.74517 18.6889C4.76078 18.9303 4.7373 19.1727 4.67556 19.4066L4.20831 21.1743C4.08381 21.7091 3.54934 22.0416 3.01459 21.9171C2.47984 21.7926 2.14727 21.2582 2.27177 20.7234C2.27617 20.7046 2.28109 20.6858 2.28658 20.6673L2.75383 18.8986C2.78613 18.7682 2.70845 18.6358 2.57884 18.6003L0.811188 18.1331C0.280329 17.9931 -0.0365931 17.4492 0.103423 16.9182C0.243438 16.3873 0.787376 16.0704 1.31828 16.2104L3.08692 16.6776C3.32083 16.7413 3.54302 16.842 3.74505 16.9759L5.21444 16.1219C4.9848 15.3655 4.9848 14.5579 5.21444 13.8015L3.751 12.9415C3.5492 13.0752 3.32734 13.1759 3.09386 13.2398L1.32423 13.707C0.793329 13.8471 0.249391 13.5302 0.109376 12.9992C-0.03064 12.4683 0.286282 11.9243 0.817235 11.7844L2.58489 11.3171C2.7145 11.2817 2.79217 11.1493 2.75988 11.0188L2.29263 9.24921C2.13709 8.72262 2.43794 8.16968 2.96448 8.01415C3.49103 7.85862 4.04402 8.15946 4.19955 8.68601C4.20503 8.70457 4.20995 8.72332 4.21436 8.74216L4.68161 10.5098C4.74334 10.7438 4.76683 10.9862 4.75122 11.2276L6.25937 12.1055C6.75222 11.6272 7.36052 11.2847 8.02502 11.1113L8.01705 9.42124C7.7987 9.31132 7.60014 9.16582 7.42947 8.99074L6.13703 7.6983C5.72434 7.3361 5.68342 6.70797 6.04563 6.29529C6.40783 5.8826 7.03595 5.84168 7.44864 6.20388C7.47948 6.23093 7.50859 6.2599 7.53587 6.29055L8.82831 7.58299C8.92487 7.6789 9.08073 7.6789 9.17725 7.58299L10.4697 6.29055C10.8584 5.9021 11.4885 5.90229 11.8769 6.29107C12.2654 6.6798 12.2652 7.30985 11.8764 7.6983L10.583 8.99074C10.4131 9.16085 10.2167 9.30218 10.0014 9.40929L10.0143 11.1034C10.6821 11.2753 11.2936 11.6179 11.7889 12.0975L13.2971 11.2196C13.2815 10.9782 13.305 10.7358 13.3667 10.5019L13.834 8.73419C13.9585 8.19944 14.4929 7.86687 15.0277 7.99137C15.5624 8.11587 15.895 8.65033 15.7705 9.18508C15.7661 9.20393 15.7612 9.22268 15.7557 9.24124L15.2884 11.0099C15.2561 11.1403 15.3338 11.2727 15.4634 11.3081L17.2311 11.7754C17.762 11.9154 18.079 12.4593 17.9389 12.9903C17.7989 13.5212 17.255 13.8381 16.7241 13.6981L14.9554 13.2309C14.7193 13.1708 14.4944 13.0731 14.2893 12.9416ZM11.0085 14.9557C11.0085 13.8576 10.1183 12.9674 9.02017 12.9674C7.92203 12.9674 7.03183 13.8576 7.03183 14.9557C7.03183 16.0539 7.92203 16.9441 9.02017 16.9441C10.1183 16.9441 11.0085 16.0539 11.0085 14.9557Z" fill="url(#paint0_linear_1214_72084)"/>
</g>
<defs>
<linearGradient id="paint0_linear_1214_72084" x1="0.0703125" y1="0.00292969" x2="27.7103" y2="5.71376" gradientUnits="userSpaceOnUse">
<stop stop-color="#369D9C"/>
<stop offset="1" stop-color="#28814D"/>
</linearGradient>
<clipPath id="clip0_1214_72084">
<rect width="24" height="24" fill="white"/>
</clipPath>
</defs>
</svg>
