<svg width="24" height="24" viewBox="0 0 24 24" fill="none" xmlns="http://www.w3.org/2000/svg">
<g clip-path="url(#clip0_1214_72241)">
<path d="M11.5 24.0001C10.7584 24.0003 10.0339 23.778 9.42006 23.3618C8.80624 22.9457 8.33141 22.355 8.057 21.6661C8.01327 21.5422 7.99436 21.411 8.00135 21.2799C8.00834 21.1487 8.04109 21.0202 8.09773 20.9017C8.15438 20.7833 8.2338 20.6771 8.33148 20.5893C8.42915 20.5015 8.54316 20.4338 8.667 20.3901C8.79084 20.3464 8.92207 20.3274 9.05322 20.3344C9.18436 20.3414 9.31285 20.3742 9.43134 20.4308C9.54982 20.4875 9.65599 20.5669 9.74378 20.6646C9.83158 20.7622 9.89927 20.8762 9.943 21.0001C10.502 22.4771 13.016 22.2491 13 20.5001C13 20.1023 12.842 19.7207 12.5607 19.4394C12.2794 19.1581 11.8978 19.0001 11.5 19.0001H1C0.734784 19.0001 0.48043 18.8947 0.292893 18.7072C0.105357 18.5197 0 18.2653 0 18.0001C0 17.7349 0.105357 17.4805 0.292893 17.293C0.48043 17.1054 0.734784 17.0001 1 17.0001H11.5C12.4283 17.0001 13.3185 17.3688 13.9749 18.0252C14.6313 18.6816 15 19.5718 15 20.5001C15 21.4283 14.6313 22.3186 13.9749 22.975C13.3185 23.6313 12.4283 24.0001 11.5 24.0001ZM20 19.0001C19.1513 19.0012 18.3219 18.7476 17.6189 18.2721C16.9159 17.7967 16.3718 17.1212 16.057 16.3331C15.9687 16.083 15.9833 15.808 16.0977 15.5687C16.2121 15.3295 16.4169 15.1454 16.667 15.0571C16.9171 14.9688 17.192 14.9834 17.4313 15.0978C17.6706 15.2122 17.8547 15.417 17.943 15.6671C18.72 17.6491 21.991 17.3371 22 15.0001C22 14.4696 21.7893 13.9609 21.4142 13.5859C21.0391 13.2108 20.5304 13.0001 20 13.0001H17C16.7348 13.0001 16.4804 12.8947 16.2929 12.7072C16.1054 12.5197 16 12.2653 16 12.0001C16 11.7349 16.1054 11.4805 16.2929 11.293C16.4804 11.1054 16.7348 11.0001 17 11.0001H20C25.276 11.1391 25.272 18.8631 20 19.0001ZM9.76 15.0001C9.49481 15 9.24049 14.8946 9.053 14.7071L8 13.6501L6.919 14.7071C6.7304 14.8892 6.4778 14.99 6.2156 14.9878C5.9534 14.9855 5.70259 14.8803 5.51718 14.6949C5.33177 14.5095 5.2266 14.2587 5.22433 13.9965C5.22205 13.7343 5.32284 13.4817 5.505 13.2931L6.562 12.2361C6.69201 12.1047 6.83937 11.9916 7 11.9001V10.8541C6.50226 10.7055 6.04384 10.4479 5.658 10.1001L4.7 10.6571C4.70126 10.8359 4.67873 11.0142 4.633 11.1871L4.25 12.6311C4.21836 12.7601 4.16131 12.8816 4.0822 12.9884C4.00308 13.0951 3.90348 13.185 3.78922 13.2529C3.67496 13.3207 3.54833 13.3651 3.41672 13.3834C3.28511 13.4017 3.15117 13.3936 3.02272 13.3596C2.89427 13.3256 2.7739 13.2663 2.66862 13.1852C2.56334 13.1042 2.47528 13.0029 2.40957 12.8874C2.34387 12.7719 2.30184 12.6445 2.28595 12.5126C2.27005 12.3806 2.28061 12.2469 2.317 12.1191L2.7 10.6741L1.246 10.2741C1.11571 10.2437 0.992822 10.1876 0.884626 10.1089C0.77643 10.0302 0.685122 9.93062 0.616107 9.81602C0.547092 9.70142 0.501773 9.57413 0.482835 9.4417C0.463897 9.30926 0.471724 9.17438 0.505852 9.04502C0.53998 8.91567 0.599717 8.79448 0.681524 8.68863C0.76333 8.58278 0.865545 8.49441 0.982115 8.42877C1.09868 8.36314 1.22724 8.32156 1.36017 8.30649C1.4931 8.29143 1.6277 8.30319 1.756 8.34108L3.2 8.72408C3.37253 8.76842 3.53834 8.83568 3.693 8.92408L4.614 8.38808C4.45829 7.79062 4.46174 7.1628 4.624 6.56708L3.693 6.02508C3.53881 6.11372 3.3733 6.181 3.201 6.22508L1.754 6.60708C1.6257 6.64497 1.4911 6.65674 1.35817 6.64167C1.22524 6.62661 1.09668 6.58503 0.980115 6.51939C0.863545 6.45375 0.76133 6.36539 0.679523 6.25954C0.597717 6.15368 0.53798 6.03249 0.503852 5.90314C0.469724 5.77379 0.461897 5.6389 0.480835 5.50647C0.499773 5.37404 0.545092 5.24675 0.614107 5.13215C0.683122 5.01754 0.77443 4.91795 0.882626 4.83927C0.990822 4.76059 1.11371 4.70442 1.244 4.67408L2.69 4.30008L2.317 2.83808C2.28061 2.71028 2.27005 2.57652 2.28595 2.44459C2.30184 2.31267 2.34387 2.18524 2.40957 2.06974C2.47528 1.95424 2.56334 1.853 2.66862 1.77192C2.7739 1.69085 2.89427 1.63157 3.02272 1.59755C3.15117 1.56352 3.28511 1.55544 3.41672 1.57377C3.54833 1.5921 3.67496 1.63648 3.78922 1.70431C3.90348 1.77214 4.00308 1.86206 4.0822 1.96881C4.16131 2.07557 4.21836 2.19703 4.25 2.32608L4.633 3.77108C4.67865 3.94367 4.70118 4.12156 4.7 4.30008L5.687 4.87408C6.06665 4.53901 6.51469 4.29059 7 4.14608V3.10008C6.83936 3.00979 6.69196 2.89773 6.562 2.76708L5.505 1.70708C5.32284 1.51848 5.22205 1.26588 5.22433 1.00368C5.2266 0.741483 5.33177 0.490671 5.51718 0.305263C5.70259 0.119854 5.9534 0.0146856 6.2156 0.0124071C6.4778 0.0101287 6.7304 0.110923 6.919 0.293081L7.977 1.35008L9.053 0.293081C9.14525 0.197571 9.25559 0.121389 9.3776 0.0689798C9.4996 0.0165708 9.63082 -0.0110155 9.7636 -0.0121693C9.89638 -0.0133231 10.0281 0.0119786 10.151 0.0622595C10.2739 0.11254 10.3855 0.186794 10.4794 0.280686C10.5733 0.374579 10.6475 0.486231 10.6978 0.609127C10.7481 0.732024 10.7734 0.863703 10.7723 0.996482C10.7711 1.12926 10.7435 1.26048 10.6911 1.38249C10.6387 1.50449 10.5625 1.61483 10.467 1.70708L9.41 2.76408C9.28759 2.88701 9.14978 2.99356 9 3.08108V4.14608C9.4854 4.29089 9.93344 4.53965 10.313 4.87508L11.3 4.30008C11.2987 4.12123 11.3213 3.943 11.367 3.77008L11.75 2.32508C11.7816 2.19603 11.8387 2.07457 11.9178 1.96781C11.9969 1.86106 12.0965 1.77114 12.2108 1.70331C12.325 1.63548 12.4517 1.5911 12.5833 1.57277C12.7149 1.55444 12.8488 1.56252 12.9773 1.59655C13.1057 1.63057 13.2261 1.68985 13.3314 1.77092C13.4367 1.852 13.5247 1.95324 13.5904 2.06874C13.6561 2.18424 13.6982 2.31167 13.7141 2.44359C13.7299 2.57552 13.7194 2.70928 13.683 2.83708L13.3 4.28308L14.754 4.68308C14.8843 4.71342 15.0072 4.76959 15.1154 4.84827C15.2236 4.92695 15.3149 5.02654 15.3839 5.14115C15.4529 5.25575 15.4982 5.38304 15.5172 5.51547C15.5361 5.6479 15.5283 5.78279 15.4941 5.91214C15.46 6.04149 15.4003 6.16268 15.3185 6.26854C15.2367 6.37439 15.1345 6.46275 15.0179 6.52839C14.9013 6.59403 14.7728 6.63561 14.6398 6.65067C14.5069 6.66574 14.3723 6.65397 14.244 6.61608L12.8 6.23308C12.6273 6.18919 12.4615 6.1219 12.307 6.03308L11.376 6.57508C11.5383 7.1708 11.5417 7.79862 11.386 8.39608L12.307 8.93208C12.4614 8.84384 12.6268 8.77658 12.799 8.73208L14.246 8.35008C14.3743 8.31219 14.5089 8.30043 14.6418 8.31549C14.7748 8.33055 14.9033 8.37214 15.0199 8.43778C15.1365 8.50342 15.2387 8.59178 15.3205 8.69763C15.4023 8.80348 15.462 8.92467 15.4961 9.05402C15.5303 9.18338 15.5381 9.31826 15.5192 9.4507C15.5002 9.58313 15.4549 9.71041 15.3859 9.82502C15.3169 9.93962 15.2256 10.0392 15.1174 10.1179C15.0092 10.1966 14.8863 10.2527 14.756 10.2831L13.311 10.6651L13.684 12.1271C13.7204 12.2549 13.7309 12.3886 13.7151 12.5206C13.6992 12.6525 13.6571 12.7799 13.5914 12.8954C13.5257 13.0109 13.4377 13.1122 13.3324 13.1932C13.2271 13.2743 13.1067 13.3336 12.9783 13.3676C12.8498 13.4016 12.7159 13.4097 12.5843 13.3914C12.4527 13.3731 12.326 13.3287 12.2118 13.2609C12.0975 13.193 11.9979 13.1031 11.9188 12.9964C11.8397 12.8896 11.7826 12.7681 11.751 12.6391L11.368 11.1941C11.3223 11.0212 11.2997 10.8429 11.301 10.6641L10.343 10.1071C9.9562 10.4525 9.49748 10.7077 9 10.8541V11.9191C9.1497 12.0072 9.28777 12.1137 9.411 12.2361L10.467 13.2931C10.6068 13.4329 10.702 13.6111 10.7406 13.8051C10.7792 13.999 10.7593 14.2 10.6837 14.3827C10.608 14.5654 10.4799 14.7216 10.3155 14.8315C10.151 14.9414 9.95775 15 9.76 15.0001ZM8 6.00008C7.60218 6.00008 7.22064 6.15812 6.93934 6.43942C6.65804 6.72073 6.5 7.10226 6.5 7.50008C6.5 7.89791 6.65804 8.27944 6.93934 8.56074C7.22064 8.84205 7.60218 9.00008 8 9.00008C8.39782 9.00008 8.77936 8.84205 9.06066 8.56074C9.34196 8.27944 9.5 7.89791 9.5 7.50008C9.5 7.10226 9.34196 6.72073 9.06066 6.43942C8.77936 6.15812 8.39782 6.00008 8 6.00008ZM20.5 9.00008H18C17.7348 9.00008 17.4804 8.89472 17.2929 8.70719C17.1054 8.51965 17 8.2653 17 8.00008C17 7.73487 17.1054 7.48051 17.2929 7.29298C17.4804 7.10544 17.7348 7.00008 18 7.00008H20.5C20.8978 7.00008 21.2794 6.84205 21.5607 6.56074C21.842 6.27944 22 5.89791 22 5.50008C21.9816 5.17625 21.8643 4.86585 21.6639 4.6108C21.4635 4.35574 21.1897 4.1683 20.8794 4.07378C20.5692 3.97926 20.2374 3.9822 19.9288 4.08222C19.6203 4.18224 19.3498 4.37451 19.154 4.63308C18.9861 4.83849 18.7435 4.9688 18.4796 4.99533C18.2156 5.02187 17.9519 4.94246 17.7465 4.77458C17.5411 4.6067 17.4108 4.36409 17.3842 4.10014C17.3577 3.83618 17.4371 3.57249 17.605 3.36708C19.616 0.790081 24.044 2.13908 24 5.50008C24 6.42834 23.6313 7.31858 22.9749 7.97496C22.3185 8.63133 21.4283 9.00008 20.5 9.00008Z" fill="url(#paint0_linear_1214_72241)"/>
</g>
<defs>
<linearGradient id="paint0_linear_1214_72241" x1="0" y1="-0.012207" x2="27.7882" y2="5.75792" gradientUnits="userSpaceOnUse">
<stop stop-color="#369D9C"/>
<stop offset="1" stop-color="#28814D"/>
</linearGradient>
<clipPath id="clip0_1214_72241">
<rect width="24" height="24" fill="white"/>
</clipPath>
</defs>
</svg>
