<svg xmlns="http://www.w3.org/2000/svg" width="24" height="24" viewBox="0 0 24 24" fill="none">
  <g clip-path="url(#clip0_3168_110395)">
    <path d="M17.995 2.28642C16.086 0.580421 13.515 -0.229579 10.957 0.0594211C6.90601 0.517421 3.59201 3.78242 3.07601 7.82242C2.70201 10.7544 3.72001 13.5824 5.86801 15.5824C7.24401 16.8614 8.00101 18.4834 8.00101 20.1494V20.5004C8.00101 22.4304 9.57101 24.0004 11.501 24.0004H12.501C14.431 24.0004 16.001 22.4304 16.001 20.5004V20.3154C16.001 18.4994 16.705 16.8394 17.934 15.7634C19.883 14.0544 21.001 11.5894 21.001 9.00042C21.001 6.44042 19.905 3.99342 17.995 2.28642ZM14.001 20.5004C14.001 21.3274 13.328 22.0004 12.501 22.0004H11.501C10.674 22.0004 10.001 21.3274 10.001 20.5004C10.001 20.5004 9.99401 20.0504 9.99301 20.0004H14.017C14.013 20.1054 14.001 20.5004 14.001 20.5004ZM16.615 14.2594C15.51 15.2274 14.727 16.5324 14.321 18.0004H9.67901C9.25801 16.5704 8.43101 15.2354 7.23101 14.1194C5.56001 12.5634 4.76801 10.3614 5.06001 8.07642C5.46001 4.93942 8.03501 2.40342 11.181 2.04742C11.459 2.01642 11.735 2.00042 12.009 2.00042C13.734 2.00042 15.362 2.61742 16.661 3.77842C18.147 5.10642 19 7.00942 19 9.00042C19 11.0134 18.132 12.9304 16.615 14.2594ZM16.333 6.50442C16.059 6.02642 15.446 5.86142 14.968 6.13742L14.4 6.46442C14.009 6.09442 13.53 5.82242 13.001 5.66342V5.00042C13.001 4.44842 12.554 4.00042 12.001 4.00042C11.448 4.00042 11.001 4.44842 11.001 5.00042V5.66342C10.472 5.82242 9.99401 6.09442 9.60201 6.46442L9.03401 6.13742C8.55501 5.86142 7.94301 6.02642 7.66901 6.50442C7.39301 6.98342 7.55801 7.59442 8.03601 7.87042L8.60301 8.19742C8.54201 8.45642 8.50101 8.72342 8.50101 9.00142C8.50101 9.27942 8.54201 9.54542 8.60301 9.80442L8.03601 10.1304C7.55701 10.4064 7.39201 11.0174 7.66901 11.4964C7.85401 11.8174 8.19001 11.9974 8.53601 11.9974C8.70501 11.9974 8.87701 11.9544 9.03401 11.8644L9.60301 11.5374C9.99401 11.9074 10.472 12.1794 11.001 12.3384V13.0014C11.001 13.5534 11.448 14.0014 12.001 14.0014C12.554 14.0014 13.001 13.5534 13.001 13.0014V12.3384C13.53 12.1794 14.008 11.9074 14.399 11.5374L14.968 11.8644C15.125 11.9544 15.297 11.9974 15.466 11.9974C15.812 11.9974 16.149 11.8174 16.333 11.4964C16.609 11.0174 16.444 10.4064 15.966 10.1304L15.399 9.80442C15.46 9.54542 15.501 9.27842 15.501 9.00142C15.501 8.72442 15.46 8.45742 15.399 8.19742L15.966 7.87042C16.445 7.59542 16.61 6.98342 16.333 6.50442ZM12.001 10.5004C11.174 10.5004 10.501 9.82742 10.501 9.00042C10.501 8.17342 11.174 7.50042 12.001 7.50042C12.828 7.50042 13.501 8.17342 13.501 9.00042C13.501 9.82742 12.828 10.5004 12.001 10.5004Z" fill="url(#paint0_linear_3168_110395)"/>
  </g>
  <defs>
    <linearGradient id="paint0_linear_3168_110395" x1="3" y1="0.00195313" x2="24.2253" y2="3.30951" gradientUnits="userSpaceOnUse">
      <stop stop-color="#369D9C"/>
      <stop offset="1" stop-color="#28814D"/>
    </linearGradient>
    <clipPath id="clip0_3168_110395">
      <rect width="24" height="24" fill="white"/>
    </clipPath>
  </defs>
</svg>