<svg width="24" height="24" viewBox="0 0 24 24" fill="none" xmlns="http://www.w3.org/2000/svg">
<g clip-path="url(#clip0_1214_72507)">
<path d="M23.9803 12.366L22.9593 4.366C22.6413 1.877 20.5093 0 17.9993 0H6.0213C3.5123 0 1.3803 1.877 1.0623 4.366L0.0402984 12.366C-0.141702 13.791 0.298298 15.226 1.2483 16.304C2.1973 17.382 3.5643 18 5.0003 18H11.0003V22H7.0003C6.4483 22 6.0003 22.447 6.0003 23C6.0003 23.553 6.4483 24 7.0003 24H17.0003C17.5523 24 18.0003 23.553 18.0003 23C18.0003 22.447 17.5523 22 17.0003 22H13.0003V18H19.0223C20.4583 18 21.8263 17.382 22.7743 16.304C23.7233 15.227 24.1623 13.791 23.9803 12.366ZM20.9753 4.62L21.4073 8H16.4393L16.0643 2H18.0003C19.5063 2 20.7843 3.126 20.9753 4.62ZM9.0633 16L9.4383 10H14.5593L14.9343 16H9.0633ZM9.5633 8L9.9383 2H14.0593L14.4343 8H9.5633ZM6.0213 2H7.9343L7.5593 8H2.6143L3.0463 4.62C3.2373 3.126 4.5163 2 6.0213 2ZM2.7483 14.982C2.1793 14.336 1.9153 13.474 2.0233 12.62L2.3583 10H7.4343L7.0593 16H4.9993C4.1383 16 3.3173 15.629 2.7483 14.982ZM21.2723 14.982C20.7033 15.628 19.8823 16 19.0213 16H16.9383L16.5633 10H21.6623L21.9973 12.62C22.1063 13.474 21.8413 14.336 21.2723 14.982Z" fill="url(#paint0_linear_1214_72507)"/>
</g>
<defs>
<linearGradient id="paint0_linear_1214_72507" x1="0" y1="0" x2="27.8097" y2="5.78265" gradientUnits="userSpaceOnUse">
<stop stop-color="#369D9C"/>
<stop offset="1" stop-color="#28814D"/>
</linearGradient>
<clipPath id="clip0_1214_72507">
<rect width="24" height="24" fill="white"/>
</clipPath>
</defs>
</svg>
