<svg xmlns="http://www.w3.org/2000/svg" width="24" height="24" viewBox="0 0 24 24" fill="none">
  <g clip-path="url(#clip0_3168_110461)">
    <path d="M23.8995 16.2327L23.0375 12.9767C22.5735 11.2237 20.9825 9.99966 19.1705 9.99966H4.83051C3.01751 9.99966 1.42751 11.2237 0.963511 12.9767L0.101511 16.2327C-0.138489 17.1397 0.0515107 18.0867 0.624511 18.8307C1.19651 19.5737 2.06251 20.0007 3.00151 20.0007H11.0005V22.0007H7.00051C6.44851 22.0007 6.00051 22.4477 6.00051 23.0007C6.00051 23.5537 6.44851 24.0007 7.00051 24.0007H17.0005C17.5535 24.0007 18.0005 23.5537 18.0005 23.0007C18.0005 22.4477 17.5535 22.0007 17.0005 22.0007H13.0005V20.0007H20.9995C21.9375 20.0007 22.8045 19.5737 23.3775 18.8307C23.9495 18.0867 24.1405 17.1407 23.8995 16.2327ZM21.1035 13.4887L21.2385 14.0007H16.6805L16.5375 12.0007H19.1695C20.0755 12.0007 20.8705 12.6127 21.1035 13.4887ZM9.03851 18.0007L9.18151 16.0007H14.8195L14.9625 18.0007H9.03851ZM9.32451 14.0007L9.46751 12.0007H14.5345L14.6775 14.0007H9.32451ZM4.82951 12.0007H7.46151L7.31851 14.0007H2.76151L2.89651 13.4887C3.12751 12.6127 3.92351 12.0007 4.82951 12.0007ZM2.20851 17.6107C2.01751 17.3627 1.95451 17.0477 2.03451 16.7447L2.23151 16.0007H7.17551L7.03251 18.0007H3.00151C2.68951 18.0007 2.39951 17.8577 2.20951 17.6107H2.20851ZM21.7915 17.6107C21.6005 17.8587 21.3115 18.0017 20.9985 18.0017H16.9655L16.8225 16.0017H21.7675L21.9645 16.7457C22.0445 17.0487 21.9825 17.3637 21.7915 17.6107ZM4.00051 7.00066C4.00051 6.44766 4.44851 6.00066 5.00051 6.00066H7.10151C7.28951 5.07766 7.74151 4.25566 8.36251 3.59266L7.01151 1.55266C6.70651 1.09266 6.83251 0.47266 7.29251 0.16666C7.75151 -0.13834 8.37251 -0.0133398 8.67851 0.44866L9.99651 2.43866C10.6125 2.16666 11.2855 2.00066 12.0005 2.00066C12.7155 2.00066 13.3895 2.16666 14.0065 2.43966L15.3345 0.44666C15.6405 -0.0123398 16.2595 -0.13634 16.7215 0.16966C17.1805 0.47566 17.3055 1.09666 16.9985 1.55666L15.6395 3.59566C16.2595 4.25766 16.7115 5.07966 16.8995 6.00166H19.0005C19.5535 6.00166 20.0005 6.44866 20.0005 7.00166C20.0005 7.55466 19.5535 8.00166 19.0005 8.00166H16.0005C15.4475 8.00166 15.0005 7.55466 15.0005 7.00166C15.0005 5.34766 13.6545 4.00166 12.0005 4.00166C10.3465 4.00166 9.00051 5.34766 9.00051 7.00166C9.00051 7.55466 8.55251 8.00166 8.00051 8.00166H5.00051C4.44851 8.00166 4.00051 7.55366 4.00051 7.00066Z" fill="url(#paint0_linear_3168_110461)"/>
  </g>
  <defs>
    <linearGradient id="paint0_linear_3168_110461" x1="0" y1="0" x2="27.7884" y2="5.77322" gradientUnits="userSpaceOnUse">
      <stop stop-color="#369D9C"/>
      <stop offset="1" stop-color="#28814D"/>
    </linearGradient>
    <clipPath id="clip0_3168_110461">
      <rect width="24" height="24" fill="white"/>
    </clipPath>
  </defs>
</svg>