<svg width="24" height="24" viewBox="0 0 24 24" fill="none" xmlns="http://www.w3.org/2000/svg">
<g clip-path="url(#clip0_1214_72485)">
<path d="M23.8995 16.2317L23.0375 12.9757C22.5735 11.2227 20.9825 9.99868 19.1705 9.99868H4.83051C3.01751 9.99868 1.42751 11.2227 0.963511 12.9757L0.101511 16.2317C-0.138489 17.1387 0.0515107 18.0857 0.624511 18.8297C1.19651 19.5727 2.06251 19.9997 3.00151 19.9997H11.0005V21.9997H7.00051C6.44851 21.9997 6.00051 22.4467 6.00051 22.9997C6.00051 23.5527 6.44851 23.9997 7.00051 23.9997H17.0005C17.5535 23.9997 18.0005 23.5527 18.0005 22.9997C18.0005 22.4467 17.5535 21.9997 17.0005 21.9997H13.0005V19.9997H20.9995C21.9375 19.9997 22.8045 19.5727 23.3775 18.8297C23.9495 18.0857 24.1405 17.1397 23.8995 16.2317ZM21.1035 13.4877L21.2385 13.9997H16.6805L16.5375 11.9997H19.1695C20.0755 11.9997 20.8705 12.6117 21.1035 13.4877ZM9.03851 17.9997L9.18151 15.9997H14.8195L14.9625 17.9997H9.03851ZM9.32451 13.9997L9.46751 11.9997H14.5345L14.6775 13.9997H9.32451ZM4.82951 11.9997H7.46151L7.31851 13.9997H2.76151L2.89651 13.4877C3.12751 12.6117 3.92351 11.9997 4.82951 11.9997ZM2.20851 17.6097C2.01751 17.3617 1.95451 17.0467 2.03451 16.7437L2.23151 15.9997H7.17551L7.03251 17.9997H3.00151C2.68951 17.9997 2.39951 17.8567 2.20951 17.6097H2.20851ZM21.7915 17.6097C21.6005 17.8577 21.3115 18.0007 20.9985 18.0007H16.9655L16.8225 16.0007H21.7675L21.9645 16.7447C22.0445 17.0477 21.9825 17.3627 21.7915 17.6097ZM4.00051 6.99968C4.00051 6.44668 4.44851 5.99968 5.00051 5.99968H7.10151C7.28951 5.07668 7.74151 4.25468 8.36251 3.59168L7.01151 1.55168C6.70651 1.09168 6.83251 0.471684 7.29251 0.165684C7.75151 -0.139316 8.37251 -0.0143164 8.67851 0.447684L9.99651 2.43768C10.6125 2.16568 11.2855 1.99968 12.0005 1.99968C12.7155 1.99968 13.3895 2.16568 14.0065 2.43868L15.3345 0.445684C15.6405 -0.0133164 16.2595 -0.137316 16.7215 0.168684C17.1805 0.474684 17.3055 1.09568 16.9985 1.55568L15.6395 3.59468C16.2595 4.25668 16.7115 5.07868 16.8995 6.00068H19.0005C19.5535 6.00068 20.0005 6.44768 20.0005 7.00068C20.0005 7.55368 19.5535 8.00068 19.0005 8.00068H16.0005C15.4475 8.00068 15.0005 7.55368 15.0005 7.00068C15.0005 5.34668 13.6545 4.00068 12.0005 4.00068C10.3465 4.00068 9.00051 5.34668 9.00051 7.00068C9.00051 7.55368 8.55251 8.00068 8.00051 8.00068H5.00051C4.44851 8.00068 4.00051 7.55268 4.00051 6.99968Z" fill="url(#paint0_linear_1214_72485)"/>
</g>
<defs>
<linearGradient id="paint0_linear_1214_72485" x1="0" y1="-0.000976562" x2="27.7884" y2="5.77224" gradientUnits="userSpaceOnUse">
<stop stop-color="#369D9C"/>
<stop offset="1" stop-color="#28814D"/>
</linearGradient>
<clipPath id="clip0_1214_72485">
<rect width="24" height="24" fill="white"/>
</clipPath>
</defs>
</svg>
