<svg xmlns="http://www.w3.org/2000/svg" width="24" height="24" viewBox="0 0 24 24" fill="none">
  <g clip-path="url(#clip0_3168_110016)">
    <path d="M20.017 24.0001C19.8626 24.0002 19.7103 23.9646 19.572 23.8961C19.4337 23.8275 19.3132 23.7279 19.2198 23.605C19.1264 23.4821 19.0628 23.3392 19.0338 23.1876C19.0049 23.036 19.0114 22.8798 19.053 22.7311C19.169 22.3121 19.3 21.9231 19.43 21.5401C20.715 18.8561 19.61 14.8571 18.174 12.9861C16.9491 11.176 16.2281 9.07238 16.085 6.89143C15.9419 4.71047 16.382 2.53074 17.36 0.576104C17.4752 0.340544 17.6784 0.15969 17.9257 0.0725051C18.1731 -0.0146797 18.4447 -0.00121711 18.6822 0.109992C18.9197 0.221202 19.1041 0.421257 19.1955 0.667058C19.2869 0.912859 19.2781 1.18473 19.171 1.4241C18.3349 3.07244 17.9574 4.91526 18.0781 6.75956C18.1988 8.60386 18.8132 10.3818 19.857 11.9071C21.532 14.0441 22.843 19.0201 21.324 22.1781C21.206 22.5291 21.086 22.8861 20.979 23.2691C20.9203 23.4792 20.7945 23.6643 20.6208 23.7963C20.4472 23.9283 20.2351 23.9999 20.017 24.0001ZM13.017 24.0001C12.8626 24.0002 12.7103 23.9646 12.572 23.8961C12.4337 23.8275 12.3132 23.7279 12.2198 23.605C12.1264 23.4821 12.0628 23.3392 12.0338 23.1876C12.0049 23.036 12.0114 22.8798 12.053 22.7311C12.169 22.3121 12.3 21.9231 12.43 21.5401C13.715 18.8561 12.61 14.8571 11.174 12.9861C9.94905 11.176 9.22805 9.07238 9.085 6.89143C8.94195 4.71047 9.382 2.53074 10.36 0.576104C10.4752 0.340544 10.6784 0.15969 10.9257 0.0725051C11.1731 -0.0146797 11.4447 -0.00121711 11.6822 0.109992C11.9197 0.221202 12.1041 0.421257 12.1955 0.667058C12.2869 0.912859 12.2781 1.18473 12.171 1.4241C11.3349 3.07244 10.9574 4.91526 11.0781 6.75956C11.1988 8.60386 11.8132 10.3818 12.857 11.9071C14.532 14.0441 15.843 19.0201 14.324 22.1781C14.206 22.5291 14.086 22.8861 13.979 23.2691C13.9203 23.4792 13.7945 23.6643 13.6208 23.7963C13.4472 23.9283 13.2351 23.9999 13.017 24.0001ZM6.01695 24.0001C5.8626 24.0002 5.71032 23.9646 5.57202 23.8961C5.43372 23.8275 5.31317 23.7279 5.2198 23.605C5.12643 23.4821 5.06278 23.3392 5.03384 23.1876C5.00489 23.036 5.01143 22.8798 5.05295 22.7311C5.16895 22.3121 5.29995 21.9231 5.42995 21.5401C6.71495 18.8561 5.60995 14.8571 4.17395 12.9861C2.94905 11.176 2.22805 9.07238 2.085 6.89143C1.94195 4.71047 2.38199 2.53074 3.35995 0.576104C3.47522 0.340544 3.6784 0.15969 3.92573 0.0725051C4.17307 -0.0146797 4.44475 -0.00121711 4.68225 0.109992C4.91975 0.221202 5.10406 0.421257 5.19547 0.667058C5.28688 0.912859 5.27808 1.18473 5.17095 1.4241C4.33489 3.07244 3.95744 4.91526 4.07813 6.75956C4.19882 8.60386 4.81321 10.3818 5.85695 11.9071C7.53195 14.0441 8.84295 19.0201 7.32395 22.1781C7.20595 22.5291 7.08595 22.8861 6.97895 23.2691C6.92028 23.4792 6.79451 23.6643 6.62083 23.7963C6.44715 23.9283 6.23509 23.9999 6.01695 24.0001Z" fill="url(#paint0_linear_3168_110016)"/>
  </g>
  <defs>
    <linearGradient id="paint0_linear_3168_110016" x1="2.05859" y1="0.015625" x2="25.4387" y2="4.05287" gradientUnits="userSpaceOnUse">
      <stop stop-color="#369D9C"/>
      <stop offset="1" stop-color="#28814D"/>
    </linearGradient>
    <clipPath id="clip0_3168_110016">
      <rect width="24" height="24" fill="white"/>
    </clipPath>
  </defs>
</svg>