<svg width="24" height="25" viewBox="0 0 24 25" fill="none" xmlns="http://www.w3.org/2000/svg">
<g clip-path="url(#clip0_1214_73138)">
<path d="M17 24.4023C10.922 24.5193 7.666 16.7643 12 12.5133V5.40234C12.211 -1.20666 21.791 -1.19766 22 5.40234V12.5133C26.335 16.7653 23.077 24.5193 17 24.4023ZM17 2.40234C16.2044 2.40234 15.4413 2.71841 14.8787 3.28102C14.3161 3.84363 14 4.60669 14 5.40234V12.9393C14 13.0797 13.9704 13.2185 13.9132 13.3467C13.856 13.4749 13.7725 13.5896 13.668 13.6833C12.9129 14.3583 12.3805 15.2466 12.1414 16.2307C11.9022 17.2149 11.9676 18.2484 12.3288 19.1946C12.69 20.1408 13.3301 20.9549 14.1642 21.5294C14.9983 22.1038 15.9872 22.4113 17 22.4113C18.0128 22.4113 19.0017 22.1038 19.8358 21.5294C20.6699 20.9549 21.31 20.1408 21.6712 19.1946C22.0324 18.2484 22.0978 17.2149 21.8586 16.2307C21.6195 15.2466 21.0871 14.3583 20.332 13.6833C20.2275 13.5896 20.144 13.4749 20.0868 13.3467C20.0296 13.2185 20 13.0797 20 12.9393V5.40234C20 4.60669 19.6839 3.84363 19.1213 3.28102C18.5587 2.71841 17.7956 2.40234 17 2.40234ZM17 20.4023C16.2972 20.3935 15.6197 20.1388 15.0852 19.6824C14.5507 19.226 14.1929 18.5968 14.0741 17.904C13.9553 17.2113 14.0828 16.4988 14.4347 15.8904C14.7865 15.2819 15.3403 14.8159 16 14.5733V8.40234C16 8.13713 16.1054 7.88277 16.2929 7.69524C16.4804 7.5077 16.7348 7.40234 17 7.40234C17.2652 7.40234 17.5196 7.5077 17.7071 7.69524C17.8946 7.88277 18 8.13713 18 8.40234V14.5733C18.6597 14.8159 19.2135 15.2819 19.5653 15.8904C19.9172 16.4988 20.0447 17.2113 19.9259 17.904C19.8071 18.5968 19.4493 19.226 18.9148 19.6824C18.3803 20.1388 17.7028 20.3935 17 20.4023ZM17 16.4023C16.7348 16.4023 16.4804 16.5077 16.2929 16.6952C16.1054 16.8828 16 17.1371 16 17.4023C16 17.6676 16.1054 17.9219 16.2929 18.1095C16.4804 18.297 16.7348 18.4023 17 18.4023C17.2652 18.4023 17.5196 18.297 17.7071 18.1095C17.8946 17.9219 18 17.6676 18 17.4023C18 17.1371 17.8946 16.8828 17.7071 16.6952C17.5196 16.5077 17.2652 16.4023 17 16.4023ZM5 17.4023C4.82472 17.4018 4.65266 17.3552 4.50106 17.2672C4.34946 17.1793 4.22365 17.053 4.13624 16.901C4.04883 16.7491 4.00289 16.5769 4.00302 16.4016C4.00316 16.2263 4.04936 16.0541 4.137 15.9023L5.212 14.0523C4.90645 13.802 4.62612 13.5223 4.375 13.2173L2.488 14.2743C2.37319 14.3445 2.2454 14.3908 2.11229 14.4104C1.97918 14.43 1.84347 14.4226 1.71331 14.3885C1.58314 14.3544 1.46119 14.2944 1.35475 14.2121C1.24832 14.1298 1.15959 14.0269 1.09388 13.9094C1.02817 13.792 0.986829 13.6626 0.972337 13.5288C0.957845 13.395 0.970497 13.2597 1.00954 13.1309C1.04858 13.0022 1.1132 12.8826 1.19954 12.7794C1.28587 12.6762 1.39215 12.5915 1.512 12.5303L3.376 11.4853C3.24449 11.1344 3.14672 10.7718 3.084 10.4023H1C0.734784 10.4023 0.48043 10.297 0.292893 10.1095C0.105357 9.92192 0 9.66756 0 9.40234C0 9.13713 0.105357 8.88277 0.292893 8.69524C0.48043 8.5077 0.734784 8.40234 1 8.40234H3.082C3.142 8.04448 3.23403 7.69273 3.357 7.35134L1.5 6.26634C1.37819 6.20517 1.27017 6.11975 1.18258 6.01531C1.09498 5.91087 1.02967 5.78963 0.990636 5.65903C0.951607 5.52843 0.939689 5.39123 0.955615 5.25586C0.971541 5.12048 1.01497 4.98979 1.08325 4.87182C1.15152 4.75384 1.24319 4.65107 1.35263 4.56981C1.46207 4.48855 1.58697 4.43053 1.71965 4.3993C1.85233 4.36807 1.99 4.36429 2.12419 4.3882C2.25838 4.41211 2.38627 4.46321 2.5 4.53834L4.343 5.61034C4.59313 5.30271 4.87317 5.02067 5.179 4.76834L4.128 2.89034C4.05783 2.77554 4.01156 2.64775 3.99194 2.51463C3.97233 2.38152 3.97978 2.24582 4.01385 2.11565C4.04792 1.98548 4.10791 1.86353 4.19023 1.75709C4.27254 1.65066 4.37549 1.56193 4.4929 1.49622C4.61032 1.43051 4.73979 1.38917 4.87356 1.37468C5.00733 1.36019 5.14264 1.37284 5.27141 1.41188C5.40017 1.45092 5.51973 1.51554 5.62293 1.60188C5.72613 1.68822 5.81084 1.79449 5.872 1.91434L6.914 3.77334C7.25981 3.64598 7.61666 3.55091 7.98 3.48934L8 1.40234C8 1.13713 8.10536 0.882773 8.29289 0.695237C8.48043 0.507701 8.73478 0.402344 9 0.402344C9.26522 0.402344 9.51957 0.507701 9.70711 0.695237C9.89464 0.882773 10 1.13713 10 1.40234V3.49134C9.99772 3.96528 9.82763 4.42308 9.5199 4.78353C9.21217 5.14398 8.78671 5.38376 8.319 5.46034C7.40833 5.62944 6.58424 6.10851 5.98667 6.8162C5.38909 7.5239 5.05487 8.4166 5.04073 9.34273C5.0266 10.2689 5.33343 11.1713 5.90913 11.8969C6.48483 12.6225 7.29391 13.1265 8.199 13.3233C8.45344 13.3817 8.67496 13.5373 8.81626 13.7568C8.95756 13.9763 9.00742 14.2423 8.95519 14.4981C8.90297 14.7539 8.7528 14.9791 8.53676 15.1256C8.32073 15.2721 8.05595 15.3284 7.799 15.2823C7.50985 15.2237 7.22542 15.1438 6.948 15.0433L5.864 16.9023C5.7764 17.0541 5.65049 17.1801 5.49885 17.2679C5.34722 17.3556 5.17519 17.402 5 17.4023Z" fill="url(#paint0_linear_1214_73138)"/>
</g>
<defs>
<linearGradient id="paint0_linear_1214_73138" x1="0" y1="0.402344" x2="27.7716" y2="6.16811" gradientUnits="userSpaceOnUse">
<stop stop-color="#369D9C"/>
<stop offset="1" stop-color="#28814D"/>
</linearGradient>
<clipPath id="clip0_1214_73138">
<rect width="24" height="24" fill="white" transform="translate(0 0.402344)"/>
</clipPath>
</defs>
</svg>
