<svg width="24" height="24" viewBox="0 0 24 24" fill="none" xmlns="http://www.w3.org/2000/svg">
<g clip-path="url(#clip0_1214_72062)">
<path d="M17.0069 23.976C10.9605 24.0924 7.72298 16.379 12.0337 12.1508V5.07792C12.2436 -1.49564 21.7722 -1.48668 21.9801 5.07792V12.1508C26.2918 16.38 23.0513 24.0924 17.0069 23.976ZM17.0069 2.094C15.3589 2.094 14.023 3.42994 14.023 5.07792V12.5745C14.0229 12.8569 13.9029 13.1259 13.6927 13.3145C11.6449 15.1448 11.4686 18.2888 13.2989 20.3366C15.1292 22.3845 18.2731 22.5608 20.321 20.7305C22.3689 18.9001 22.5452 15.7562 20.7148 13.7084C20.591 13.5698 20.4595 13.4383 20.321 13.3145C20.1109 13.1259 19.9908 12.8569 19.9908 12.5745V5.07792C19.9908 3.42994 18.6548 2.094 17.0069 2.094ZM17.0069 19.9974C15.3552 19.9767 14.0331 18.6209 14.0539 16.9692C14.0694 15.7293 14.8485 14.6277 16.0123 14.1997V8.0618C16.0123 7.51247 16.4576 7.06716 17.0069 7.06716C17.5562 7.06716 18.0015 7.51247 18.0015 8.0618V14.1997C19.5519 14.7698 20.3465 16.4887 19.7764 18.039C19.3484 19.2029 18.2467 19.9819 17.0069 19.9974ZM17.0069 16.0189C16.4576 16.0189 16.0123 16.4642 16.0123 17.0136C16.0123 17.5629 16.4576 18.0082 17.0069 18.0082C17.5562 18.0082 18.0015 17.5629 18.0015 17.0136C18.0015 16.4642 17.5562 16.0189 17.0069 16.0189ZM6.29165 15.1625C5.73908 15.1546 5.29757 14.7002 5.30554 14.1476C5.30919 13.8922 5.41044 13.6478 5.58847 13.4647L6.6388 12.4133C6.76457 12.2875 6.90637 12.1788 7.06054 12.0901V11.0099C6.37804 10.9117 5.74026 10.6125 5.22843 10.1505L4.27452 10.7046C4.27663 10.8821 4.25455 11.0591 4.2089 11.2307L3.82794 12.668C3.68732 13.1992 3.14268 13.5158 2.61149 13.3752C2.0803 13.2345 1.76366 12.6899 1.90429 12.1587L2.28623 10.7215L0.839006 10.3236C0.305475 10.1928 -0.0209623 9.65428 0.109819 9.12075C0.2406 8.58722 0.779147 8.26078 1.31268 8.39157C1.32458 8.39447 1.33644 8.39761 1.34826 8.40099L2.78352 8.78194C2.95476 8.82628 3.11929 8.89317 3.2729 8.98088L4.18996 8.44875C4.03508 7.85447 4.03851 7.23005 4.1999 6.6375L3.27487 6.10238C3.1213 6.19013 2.95672 6.25706 2.78549 6.30131L1.34723 6.68128C0.825131 6.85214 0.263428 6.56738 0.092569 6.04533C-0.0782904 5.52324 0.206475 4.96153 0.728522 4.79067C0.764428 4.77891 0.800944 4.76925 0.837975 4.76166L2.27521 4.38169L1.90419 2.92753C1.76357 2.39635 2.08016 1.85171 2.6114 1.71108C3.14263 1.57046 3.68723 1.88705 3.82785 2.41828L4.2088 3.85552C4.25469 4.02708 4.27715 4.20408 4.27546 4.38169L5.25815 4.95263C5.76505 4.50544 6.3914 4.21575 7.06044 4.11914L7.04952 3.1096C6.89394 3.02081 6.75107 2.91141 6.62483 2.78433L5.57451 1.73302C5.1929 1.33791 5.20382 0.708237 5.59893 0.32658C5.98438 -0.0457008 6.59544 -0.0457008 6.9809 0.32658L8.03221 1.37789L9.10246 0.32658C9.48407 -0.0685289 10.1137 -0.0794508 10.5089 0.302159C10.904 0.683768 10.9149 1.31344 10.5333 1.7086C10.5253 1.71689 10.5172 1.725 10.5089 1.73302L9.45758 2.78433C9.33318 2.90986 9.19227 3.01791 9.03885 3.10561L9.04977 5.07797C9.04977 5.6273 8.60446 6.07261 8.05513 6.07261H7.55783C6.73387 6.07261 6.0659 6.74058 6.0659 7.56455C6.0659 8.38852 6.73387 9.05649 7.55783 9.05649H8.05513C8.60446 9.05649 9.04977 9.5018 9.04977 10.0511V12.8212C9.04977 13.3705 8.60446 13.8158 8.05513 13.8158L6.99487 14.8711C6.8084 15.0577 6.55541 15.1625 6.29165 15.1625Z" fill="url(#paint0_linear_1214_72062)"/>
</g>
<defs>
<linearGradient id="paint0_linear_1214_72062" x1="0.0429688" y1="0.0229492" x2="27.7319" y2="5.76516" gradientUnits="userSpaceOnUse">
<stop stop-color="#369D9C"/>
<stop offset="1" stop-color="#28814D"/>
</linearGradient>
<clipPath id="clip0_1214_72062">
<rect width="24" height="24" fill="white"/>
</clipPath>
</defs>
</svg>
