<svg xmlns="http://www.w3.org/2000/svg" width="24" height="24" viewBox="0 0 24 24" fill="none">
  <g clip-path="url(#clip0_3168_110138)">
    <path d="M17 24C10.922 24.117 7.666 16.362 12 12.111V5C12.211 -1.609 21.791 -1.6 22 5V12.111C26.335 16.363 23.077 24.117 17 24ZM17 2C16.2044 2 15.4413 2.31607 14.8787 2.87868C14.3161 3.44129 14 4.20435 14 5V12.537C14 12.6774 13.9704 12.8162 13.9132 12.9443C13.856 13.0725 13.7725 13.1872 13.668 13.281C12.9129 13.9559 12.3805 14.8442 12.1414 15.8284C11.9022 16.8125 11.9676 17.8461 12.3288 18.7922C12.69 19.7384 13.3301 20.5526 14.1642 21.127C14.9983 21.7014 15.9872 22.009 17 22.009C18.0128 22.009 19.0017 21.7014 19.8358 21.127C20.6699 20.5526 21.31 19.7384 21.6712 18.7922C22.0324 17.8461 22.0978 16.8125 21.8586 15.8284C21.6195 14.8442 21.0871 13.9559 20.332 13.281C20.2275 13.1872 20.144 13.0725 20.0868 12.9443C20.0296 12.8162 20 12.6774 20 12.537V5C20 4.20435 19.6839 3.44129 19.1213 2.87868C18.5587 2.31607 17.7956 2 17 2ZM17 20C16.2972 19.9912 15.6197 19.7364 15.0852 19.28C14.5507 18.8236 14.1929 18.1944 14.0741 17.5017C13.9553 16.8089 14.0828 16.0965 14.4347 15.488C14.7865 14.8796 15.3403 14.4136 16 14.171V8C16 7.73478 16.1054 7.48043 16.2929 7.29289C16.4804 7.10536 16.7348 7 17 7C17.2652 7 17.5196 7.10536 17.7071 7.29289C17.8946 7.48043 18 7.73478 18 8V14.171C18.6597 14.4136 19.2135 14.8796 19.5653 15.488C19.9172 16.0965 20.0447 16.8089 19.9259 17.5017C19.8071 18.1944 19.4493 18.8236 18.9148 19.28C18.3803 19.7364 17.7028 19.9912 17 20ZM17 16C16.7348 16 16.4804 16.1054 16.2929 16.2929C16.1054 16.4804 16 16.7348 16 17C16 17.2652 16.1054 17.5196 16.2929 17.7071C16.4804 17.8946 16.7348 18 17 18C17.2652 18 17.5196 17.8946 17.7071 17.7071C17.8946 17.5196 18 17.2652 18 17C18 16.7348 17.8946 16.4804 17.7071 16.2929C17.5196 16.1054 17.2652 16 17 16ZM5 17C4.82472 16.9995 4.65266 16.9529 4.50106 16.8649C4.34946 16.7769 4.22365 16.6506 4.13624 16.4987C4.04883 16.3468 4.00289 16.1745 4.00302 15.9992C4.00316 15.824 4.04936 15.6518 4.137 15.5L5.212 13.65C4.90645 13.3996 4.62612 13.12 4.375 12.815L2.488 13.872C2.37319 13.9422 2.2454 13.9884 2.11229 14.0081C1.97918 14.0277 1.84347 14.0202 1.71331 13.9861C1.58314 13.9521 1.46119 13.8921 1.35475 13.8098C1.24832 13.7275 1.15959 13.6245 1.09388 13.5071C1.02817 13.3897 0.986829 13.2602 0.972337 13.1264C0.957845 12.9927 0.970497 12.8574 1.00954 12.7286C1.04858 12.5998 1.1132 12.4803 1.19954 12.3771C1.28587 12.2739 1.39215 12.1892 1.512 12.128L3.376 11.083C3.24449 10.7321 3.14672 10.3695 3.084 10H1C0.734784 10 0.48043 9.89464 0.292893 9.70711C0.105357 9.51957 0 9.26522 0 9C0 8.73478 0.105357 8.48043 0.292893 8.29289C0.48043 8.10536 0.734784 8 1 8H3.082C3.142 7.64214 3.23403 7.29039 3.357 6.949L1.5 5.864C1.37819 5.80283 1.27017 5.7174 1.18258 5.61297C1.09498 5.50853 1.02967 5.38729 0.990636 5.25669C0.951607 5.12609 0.939689 4.98889 0.955615 4.85351C0.971541 4.71814 1.01497 4.58745 1.08325 4.46947C1.15152 4.3515 1.24319 4.24872 1.35263 4.16747C1.46207 4.08621 1.58697 4.02818 1.71965 3.99695C1.85233 3.96572 1.99 3.96195 2.12419 3.98586C2.25838 4.00977 2.38627 4.06086 2.5 4.136L4.343 5.208C4.59313 4.90037 4.87317 4.61832 5.179 4.366L4.128 2.488C4.05783 2.37319 4.01156 2.24541 3.99194 2.11229C3.97233 1.97918 3.97978 1.84347 4.01385 1.71331C4.04792 1.58314 4.10791 1.46119 4.19023 1.35475C4.27254 1.24832 4.37549 1.15959 4.4929 1.09388C4.61032 1.02817 4.73979 0.986829 4.87356 0.972337C5.00733 0.957845 5.14264 0.970497 5.27141 1.00954C5.40017 1.04858 5.51973 1.1132 5.62293 1.19954C5.72613 1.28587 5.81084 1.39215 5.872 1.512L6.914 3.371C7.25981 3.24364 7.61666 3.14857 7.98 3.087L8 1C8 0.734784 8.10536 0.48043 8.29289 0.292893C8.48043 0.105357 8.73478 0 9 0C9.26522 0 9.51957 0.105357 9.70711 0.292893C9.89464 0.48043 10 0.734784 10 1V3.089C9.99772 3.56293 9.82763 4.02074 9.5199 4.38119C9.21217 4.74163 8.78671 4.98142 8.319 5.058C7.40833 5.2271 6.58424 5.70617 5.98667 6.41386C5.38909 7.12155 5.05487 8.01425 5.04073 8.94039C5.0266 9.86652 5.33343 10.769 5.90913 11.4946C6.48483 12.2202 7.29391 12.7242 8.199 12.921C8.45344 12.9794 8.67496 13.1349 8.81626 13.3544C8.95756 13.5739 9.00742 13.84 8.95519 14.0957C8.90297 14.3515 8.7528 14.5767 8.53676 14.7233C8.32073 14.8698 8.05595 14.9261 7.799 14.88C7.50985 14.8213 7.22542 14.7414 6.948 14.641L5.864 16.5C5.7764 16.6517 5.65049 16.7778 5.49885 16.8655C5.34722 16.9533 5.17519 16.9996 5 17Z" fill="url(#paint0_linear_3168_110138)"/>
  </g>
  <defs>
    <linearGradient id="paint0_linear_3168_110138" x1="0" y1="0" x2="27.7716" y2="5.76577" gradientUnits="userSpaceOnUse">
      <stop stop-color="#369D9C"/>
      <stop offset="1" stop-color="#28814D"/>
    </linearGradient>
    <clipPath id="clip0_3168_110138">
      <rect width="24" height="24" fill="white"/>
    </clipPath>
  </defs>
</svg>