<svg width="1533" height="34" viewBox="0 0 1533 34" fill="none" xmlns="http://www.w3.org/2000/svg">
<g clip-path="url(#clip0_1214_72240)">
<path d="M38.5 29.0001C37.7584 29.0003 37.0339 28.778 36.4201 28.3618C35.8062 27.9457 35.3314 27.355 35.057 26.6661C35.0133 26.5422 34.9944 26.411 35.0013 26.2799C35.0083 26.1487 35.0411 26.0202 35.0977 25.9017C35.1544 25.7833 35.2338 25.6771 35.3315 25.5893C35.4292 25.5015 35.5432 25.4338 35.667 25.3901C35.7908 25.3464 35.9221 25.3274 36.0532 25.3344C36.1844 25.3414 36.3128 25.3742 36.4313 25.4308C36.5498 25.4875 36.656 25.5669 36.7438 25.6646C36.8316 25.7622 36.8993 25.8762 36.943 26.0001C37.502 27.4771 40.016 27.2491 40 25.5001C40 25.1023 39.842 24.7207 39.5607 24.4394C39.2794 24.1581 38.8978 24.0001 38.5 24.0001H28C27.7348 24.0001 27.4804 23.8947 27.2929 23.7072C27.1054 23.5197 27 23.2653 27 23.0001C27 22.7349 27.1054 22.4805 27.2929 22.293C27.4804 22.1054 27.7348 22.0001 28 22.0001H38.5C39.4283 22.0001 40.3185 22.3688 40.9749 23.0252C41.6313 23.6816 42 24.5718 42 25.5001C42 26.4283 41.6313 27.3186 40.9749 27.975C40.3185 28.6313 39.4283 29.0001 38.5 29.0001ZM47 24.0001C46.1513 24.0012 45.3219 23.7476 44.6189 23.2721C43.9159 22.7967 43.3718 22.1212 43.057 21.3331C42.9687 21.083 42.9833 20.808 43.0977 20.5687C43.2121 20.3295 43.4169 20.1454 43.667 20.0571C43.9171 19.9688 44.192 19.9834 44.4313 20.0978C44.6706 20.2122 44.8547 20.417 44.943 20.6671C45.72 22.6491 48.991 22.3371 49 20.0001C49 19.4696 48.7893 18.9609 48.4142 18.5859C48.0391 18.2108 47.5304 18.0001 47 18.0001H44C43.7348 18.0001 43.4804 17.8947 43.2929 17.7072C43.1054 17.5197 43 17.2653 43 17.0001C43 16.7349 43.1054 16.4805 43.2929 16.293C43.4804 16.1054 43.7348 16.0001 44 16.0001H47C52.276 16.1391 52.272 23.8631 47 24.0001ZM36.76 20.0001C36.4948 20 36.2405 19.8946 36.053 19.7071L35 18.6501L33.919 19.7071C33.7304 19.8892 33.4778 19.99 33.2156 19.9878C32.9534 19.9855 32.7026 19.8803 32.5172 19.6949C32.3318 19.5095 32.2266 19.2587 32.2243 18.9965C32.222 18.7343 32.3228 18.4817 32.505 18.2931L33.562 17.2361C33.692 17.1047 33.8394 16.9916 34 16.9001V15.8541C33.5023 15.7055 33.0438 15.4479 32.658 15.1001L31.7 15.6571C31.7013 15.8359 31.6787 16.0142 31.633 16.1871L31.25 17.6311C31.2184 17.7601 31.1613 17.8816 31.0822 17.9884C31.0031 18.0951 30.9035 18.185 30.7892 18.2529C30.675 18.3207 30.5483 18.3651 30.4167 18.3834C30.2851 18.4017 30.1512 18.3936 30.0227 18.3596C29.8943 18.3256 29.7739 18.2663 29.6686 18.1852C29.5633 18.1042 29.4753 18.0029 29.4096 17.8874C29.3439 17.7719 29.3018 17.6445 29.2859 17.5126C29.2701 17.3806 29.2806 17.2469 29.317 17.1191L29.7 15.6741L28.246 15.2741C28.1157 15.2437 27.9928 15.1876 27.8846 15.1089C27.7764 15.0302 27.6851 14.9306 27.6161 14.816C27.5471 14.7014 27.5018 14.5741 27.4828 14.4417C27.4639 14.3093 27.4717 14.1744 27.5059 14.045C27.54 13.9157 27.5997 13.7945 27.6815 13.6886C27.7633 13.5828 27.8655 13.4944 27.9821 13.4288C28.0987 13.3631 28.2272 13.3216 28.3602 13.3065C28.4931 13.2914 28.6277 13.3032 28.756 13.3411L30.2 13.7241C30.3725 13.7684 30.5383 13.8357 30.693 13.9241L31.614 13.3881C31.4583 12.7906 31.4617 12.1628 31.624 11.5671L30.693 11.0251C30.5388 11.1137 30.3733 11.181 30.201 11.2251L28.754 11.6071C28.6257 11.645 28.4911 11.6567 28.3582 11.6417C28.2252 11.6266 28.0967 11.585 27.9801 11.5194C27.8635 11.4537 27.7613 11.3654 27.6795 11.2595C27.5977 11.1537 27.538 11.0325 27.5039 10.9031C27.4697 10.7738 27.4619 10.6389 27.4808 10.5065C27.4998 10.374 27.5451 10.2467 27.6141 10.1321C27.6831 10.0175 27.7744 9.91795 27.8826 9.83927C27.9908 9.76059 28.1137 9.70442 28.244 9.67408L29.69 9.30008L29.317 7.83808C29.2806 7.71028 29.2701 7.57652 29.2859 7.44459C29.3018 7.31267 29.3439 7.18524 29.4096 7.06974C29.4753 6.95424 29.5633 6.853 29.6686 6.77192C29.7739 6.69085 29.8943 6.63157 30.0227 6.59755C30.1512 6.56352 30.2851 6.55544 30.4167 6.57377C30.5483 6.5921 30.675 6.63648 30.7892 6.70431C30.9035 6.77214 31.0031 6.86206 31.0822 6.96881C31.1613 7.07557 31.2184 7.19703 31.25 7.32608L31.633 8.77108C31.6786 8.94367 31.7012 9.12156 31.7 9.30008L32.687 9.87408C33.0667 9.53901 33.5147 9.29059 34 9.14608V8.10008C33.8394 8.00979 33.692 7.89773 33.562 7.76708L32.505 6.70708C32.3228 6.51848 32.222 6.26588 32.2243 6.00368C32.2266 5.74148 32.3318 5.49067 32.5172 5.30526C32.7026 5.11985 32.9534 5.01469 33.2156 5.01241C33.4778 5.01013 33.7304 5.11092 33.919 5.29308L34.977 6.35008L36.053 5.29308C36.1452 5.19757 36.2556 5.12139 36.3776 5.06898C36.4996 5.01657 36.6308 4.98898 36.7636 4.98783C36.8964 4.98668 37.0281 5.01198 37.151 5.06226C37.2739 5.11254 37.3855 5.18679 37.4794 5.28069C37.5733 5.37458 37.6475 5.48623 37.6978 5.60913C37.7481 5.73202 37.7734 5.8637 37.7723 5.99648C37.7711 6.12926 37.7435 6.26048 37.6911 6.38249C37.6387 6.50449 37.5625 6.61483 37.467 6.70708L36.41 7.76408C36.2876 7.88701 36.1498 7.99356 36 8.08108V9.14608C36.4854 9.29089 36.9334 9.53965 37.313 9.87508L38.3 9.30008C38.2987 9.12123 38.3213 8.943 38.367 8.77008L38.75 7.32508C38.7816 7.19603 38.8387 7.07457 38.9178 6.96781C38.9969 6.86106 39.0965 6.77114 39.2108 6.70331C39.325 6.63548 39.4517 6.5911 39.5833 6.57277C39.7149 6.55444 39.8488 6.56252 39.9773 6.59655C40.1057 6.63057 40.2261 6.68985 40.3314 6.77092C40.4367 6.852 40.5247 6.95324 40.5904 7.06874C40.6561 7.18424 40.6982 7.31167 40.7141 7.44359C40.7299 7.57552 40.7194 7.70928 40.683 7.83708L40.3 9.28308L41.754 9.68308C41.8843 9.71342 42.0072 9.76959 42.1154 9.84827C42.2236 9.92695 42.3149 10.0265 42.3839 10.1411C42.4529 10.2557 42.4982 10.383 42.5172 10.5155C42.5361 10.6479 42.5283 10.7828 42.4941 10.9121C42.46 11.0415 42.4003 11.1627 42.3185 11.2685C42.2367 11.3744 42.1345 11.4627 42.0179 11.5284C41.9013 11.594 41.7728 11.6356 41.6398 11.6507C41.5069 11.6657 41.3723 11.654 41.244 11.6161L39.8 11.2331C39.6273 11.1892 39.4615 11.1219 39.307 11.0331L38.376 11.5751C38.5383 12.1708 38.5417 12.7986 38.386 13.3961L39.307 13.9321C39.4614 13.8438 39.6268 13.7766 39.799 13.7321L41.246 13.3501C41.3743 13.3122 41.5089 13.3004 41.6418 13.3155C41.7748 13.3306 41.9033 13.3721 42.0199 13.4378C42.1365 13.5034 42.2387 13.5918 42.3205 13.6976C42.4023 13.8035 42.462 13.9247 42.4961 14.054C42.5303 14.1834 42.5381 14.3183 42.5192 14.4507C42.5002 14.5831 42.4549 14.7104 42.3859 14.825C42.3169 14.9396 42.2256 15.0392 42.1174 15.1179C42.0092 15.1966 41.8863 15.2527 41.756 15.2831L40.311 15.6651L40.684 17.1271C40.7204 17.2549 40.7309 17.3886 40.7151 17.5206C40.6992 17.6525 40.6571 17.7799 40.5914 17.8954C40.5257 18.0109 40.4377 18.1122 40.3324 18.1932C40.2271 18.2743 40.1067 18.3336 39.9783 18.3676C39.8498 18.4016 39.7159 18.4097 39.5843 18.3914C39.4527 18.3731 39.326 18.3287 39.2118 18.2609C39.0975 18.193 38.9979 18.1031 38.9188 17.9964C38.8397 17.8896 38.7826 17.7681 38.751 17.6391L38.368 16.1941C38.3223 16.0212 38.2997 15.8429 38.301 15.6641L37.343 15.1071C36.9562 15.4525 36.4975 15.7077 36 15.8541V16.9191C36.1497 17.0072 36.2878 17.1137 36.411 17.2361L37.467 18.2931C37.6068 18.4329 37.702 18.6111 37.7406 18.8051C37.7792 18.999 37.7593 19.2 37.6837 19.3827C37.608 19.5654 37.4799 19.7216 37.3155 19.8315C37.151 19.9414 36.9578 20 36.76 20.0001ZM35 11.0001C34.6022 11.0001 34.2206 11.1581 33.9393 11.4394C33.658 11.7207 33.5 12.1023 33.5 12.5001C33.5 12.8979 33.658 13.2794 33.9393 13.5607C34.2206 13.842 34.6022 14.0001 35 14.0001C35.3978 14.0001 35.7794 13.842 36.0607 13.5607C36.342 13.2794 36.5 12.8979 36.5 12.5001C36.5 12.1023 36.342 11.7207 36.0607 11.4394C35.7794 11.1581 35.3978 11.0001 35 11.0001ZM47.5 14.0001H45C44.7348 14.0001 44.4804 13.8947 44.2929 13.7072C44.1054 13.5197 44 13.2653 44 13.0001C44 12.7349 44.1054 12.4805 44.2929 12.293C44.4804 12.1054 44.7348 12.0001 45 12.0001H47.5C47.8978 12.0001 48.2794 11.842 48.5607 11.5607C48.842 11.2794 49 10.8979 49 10.5001C48.9816 10.1762 48.8643 9.86585 48.6639 9.6108C48.4635 9.35574 48.1897 9.1683 47.8794 9.07378C47.5692 8.97926 47.2374 8.9822 46.9288 9.08222C46.6203 9.18224 46.3498 9.37451 46.154 9.63308C45.9861 9.83849 45.7435 9.9688 45.4796 9.99533C45.2156 10.0219 44.9519 9.94246 44.7465 9.77458C44.5411 9.6067 44.4108 9.36409 44.3842 9.10014C44.3577 8.83618 44.4371 8.57249 44.605 8.36708C46.616 5.79008 51.044 7.13908 51 10.5001C51 11.4283 50.6313 12.3186 49.9749 12.975C49.3185 13.6313 48.4283 14.0001 47.5 14.0001Z" fill="url(#paint0_linear_1214_72240)"/>
</g>
<path d="M67.9176 26V8.54545H78.8608V10.8125H70.5511V16.1307H78.2898V18.3892H70.5511V23.733H78.9631V26H67.9176ZM84.7223 18.2273V26H82.174V12.9091H84.62V15.0398H84.782C85.0831 14.3466 85.5547 13.7898 86.1967 13.3693C86.8445 12.9489 87.6598 12.7386 88.6428 12.7386C89.5348 12.7386 90.3161 12.9261 90.9865 13.3011C91.657 13.6705 92.1768 14.2216 92.5462 14.9545C92.9155 15.6875 93.1001 16.5937 93.1001 17.6733V26H90.5518V17.9801C90.5518 17.0312 90.3047 16.2898 89.8104 15.7557C89.3161 15.2159 88.6371 14.946 87.7734 14.946C87.1825 14.946 86.657 15.0739 86.1967 15.3295C85.7422 15.5852 85.3814 15.9602 85.1143 16.4545C84.853 16.9432 84.7223 17.5341 84.7223 18.2273ZM107.248 12.9091L102.501 26H99.7734L95.0178 12.9091H97.7536L101.069 22.983H101.205L104.512 12.9091H107.248ZM114.839 26.2642C113.55 26.2642 112.439 25.9886 111.507 25.4375C110.581 24.8807 109.865 24.0994 109.359 23.0938C108.859 22.0824 108.609 20.8977 108.609 19.5398C108.609 18.1989 108.859 17.017 109.359 15.9943C109.865 14.9716 110.57 14.1733 111.473 13.5994C112.382 13.0256 113.445 12.7386 114.661 12.7386C115.399 12.7386 116.115 12.8608 116.808 13.1051C117.501 13.3494 118.124 13.733 118.675 14.2557C119.226 14.7784 119.661 15.4574 119.979 16.2926C120.297 17.1222 120.456 18.1307 120.456 19.3182V20.2216H110.05V18.3125H117.959C117.959 17.642 117.822 17.0483 117.55 16.5312C117.277 16.0085 116.893 15.5966 116.399 15.2955C115.911 14.9943 115.337 14.8438 114.678 14.8438C113.962 14.8438 113.337 15.0199 112.803 15.3722C112.274 15.7187 111.865 16.1733 111.575 16.7358C111.291 17.2926 111.149 17.8977 111.149 18.5511V20.0426C111.149 20.9176 111.303 21.6619 111.609 22.2756C111.922 22.8892 112.357 23.358 112.913 23.6818C113.47 24 114.121 24.1591 114.865 24.1591C115.348 24.1591 115.788 24.0909 116.186 23.9545C116.584 23.8125 116.928 23.6023 117.217 23.3239C117.507 23.0455 117.729 22.7017 117.882 22.2926L120.294 22.7273C120.101 23.4375 119.754 24.0597 119.254 24.5938C118.76 25.1222 118.138 25.5341 117.388 25.8295C116.643 26.1193 115.794 26.2642 114.839 26.2642ZM125.832 8.54545V26H123.283V8.54545H125.832ZM134.774 26.2642C133.547 26.2642 132.476 25.983 131.561 25.4205C130.646 24.858 129.936 24.071 129.43 23.0597C128.925 22.0483 128.672 20.8665 128.672 19.5142C128.672 18.1562 128.925 16.9687 129.43 15.9517C129.936 14.9347 130.646 14.1449 131.561 13.5824C132.476 13.0199 133.547 12.7386 134.774 12.7386C136.001 12.7386 137.072 13.0199 137.987 13.5824C138.902 14.1449 139.612 14.9347 140.118 15.9517C140.624 16.9687 140.876 18.1562 140.876 19.5142C140.876 20.8665 140.624 22.0483 140.118 23.0597C139.612 24.071 138.902 24.858 137.987 25.4205C137.072 25.983 136.001 26.2642 134.774 26.2642ZM134.783 24.125C135.578 24.125 136.237 23.9148 136.76 23.4943C137.283 23.0739 137.669 22.5142 137.919 21.8153C138.175 21.1165 138.303 20.3466 138.303 19.5057C138.303 18.6705 138.175 17.9034 137.919 17.2045C137.669 16.5 137.283 15.9347 136.76 15.5085C136.237 15.0824 135.578 14.8693 134.783 14.8693C133.982 14.8693 133.317 15.0824 132.788 15.5085C132.266 15.9347 131.876 16.5 131.621 17.2045C131.371 17.9034 131.246 18.6705 131.246 19.5057C131.246 20.3466 131.371 21.1165 131.621 21.8153C131.876 22.5142 132.266 23.0739 132.788 23.4943C133.317 23.9148 133.982 24.125 134.783 24.125ZM143.721 30.9091V12.9091H146.21V15.0312H146.423C146.57 14.7585 146.783 14.4432 147.062 14.0852C147.34 13.7273 147.727 13.4148 148.221 13.1477C148.715 12.875 149.369 12.7386 150.181 12.7386C151.238 12.7386 152.181 13.0057 153.011 13.5398C153.84 14.0739 154.491 14.8437 154.962 15.8494C155.44 16.8551 155.678 18.0653 155.678 19.4801C155.678 20.8949 155.442 22.108 154.971 23.1193C154.499 24.125 153.852 24.9006 153.028 25.446C152.204 25.9858 151.263 26.2557 150.207 26.2557C149.411 26.2557 148.761 26.1222 148.255 25.8551C147.755 25.5881 147.363 25.2756 147.079 24.9176C146.795 24.5597 146.576 24.2415 146.423 23.9631H146.269V30.9091H143.721ZM146.218 19.4545C146.218 20.375 146.352 21.1818 146.619 21.875C146.886 22.5682 147.272 23.1108 147.778 23.5028C148.283 23.8892 148.903 24.0824 149.636 24.0824C150.397 24.0824 151.033 23.8807 151.545 23.4773C152.056 23.0682 152.442 22.5142 152.704 21.8153C152.971 21.1165 153.104 20.3295 153.104 19.4545C153.104 18.5909 152.974 17.8153 152.712 17.1278C152.457 16.4403 152.07 15.8977 151.553 15.5C151.042 15.1023 150.403 14.9034 149.636 14.9034C148.897 14.9034 148.272 15.0937 147.761 15.4744C147.255 15.8551 146.871 16.3864 146.61 17.0682C146.349 17.75 146.218 18.5455 146.218 19.4545ZM164.175 26.2642C162.886 26.2642 161.775 25.9886 160.843 25.4375C159.917 24.8807 159.201 24.0994 158.695 23.0938C158.195 22.0824 157.945 20.8977 157.945 19.5398C157.945 18.1989 158.195 17.017 158.695 15.9943C159.201 14.9716 159.906 14.1733 160.809 13.5994C161.718 13.0256 162.781 12.7386 163.996 12.7386C164.735 12.7386 165.451 12.8608 166.144 13.1051C166.837 13.3494 167.46 13.733 168.011 14.2557C168.562 14.7784 168.996 15.4574 169.315 16.2926C169.633 17.1222 169.792 18.1307 169.792 19.3182V20.2216H159.386V18.3125H167.295C167.295 17.642 167.158 17.0483 166.886 16.5312C166.613 16.0085 166.229 15.5966 165.735 15.2955C165.246 14.9943 164.673 14.8438 164.013 14.8438C163.298 14.8438 162.673 15.0199 162.138 15.3722C161.61 15.7187 161.201 16.1733 160.911 16.7358C160.627 17.2926 160.485 17.8977 160.485 18.5511V20.0426C160.485 20.9176 160.638 21.6619 160.945 22.2756C161.258 22.8892 161.692 23.358 162.249 23.6818C162.806 24 163.457 24.1591 164.201 24.1591C164.684 24.1591 165.124 24.0909 165.522 23.9545C165.92 23.8125 166.263 23.6023 166.553 23.3239C166.843 23.0455 167.065 22.7017 167.218 22.2926L169.63 22.7273C169.437 23.4375 169.09 24.0597 168.59 24.5938C168.096 25.1222 167.474 25.5341 166.724 25.8295C165.979 26.1193 165.13 26.2642 164.175 26.2642ZM178.315 10.8125V8.54545H191.823V10.8125H186.377V26H183.752V10.8125H178.315ZM194.604 26V12.9091H197.152V26H194.604ZM195.891 10.8892C195.447 10.8892 195.067 10.7415 194.749 10.446C194.436 10.1449 194.28 9.78693 194.28 9.37216C194.28 8.9517 194.436 8.59375 194.749 8.29829C195.067 7.99716 195.447 7.84659 195.891 7.84659C196.334 7.84659 196.712 7.99716 197.024 8.29829C197.342 8.59375 197.501 8.9517 197.501 9.37216C197.501 9.78693 197.342 10.1449 197.024 10.446C196.712 10.7415 196.334 10.8892 195.891 10.8892ZM206.069 31.1818C205.029 31.1818 204.134 31.0455 203.384 30.7727C202.64 30.5 202.032 30.1392 201.56 29.6903C201.089 29.2415 200.737 28.75 200.504 28.2159L202.694 27.3125C202.847 27.5625 203.052 27.8267 203.308 28.1051C203.569 28.3892 203.921 28.6307 204.364 28.8295C204.813 29.0284 205.39 29.1278 206.094 29.1278C207.06 29.1278 207.859 28.892 208.489 28.4205C209.12 27.9545 209.435 27.2102 209.435 26.1875V23.6136H209.273C209.12 23.892 208.898 24.2017 208.609 24.5426C208.325 24.8835 207.933 25.179 207.433 25.429C206.933 25.679 206.282 25.804 205.481 25.804C204.447 25.804 203.515 25.5625 202.685 25.0795C201.862 24.5909 201.208 23.8722 200.725 22.9233C200.248 21.9687 200.009 20.7955 200.009 19.4034C200.009 18.0114 200.245 16.8182 200.717 15.8239C201.194 14.8295 201.847 14.0682 202.677 13.5398C203.506 13.0057 204.447 12.7386 205.498 12.7386C206.31 12.7386 206.967 12.875 207.467 13.1477C207.967 13.4148 208.356 13.7273 208.634 14.0852C208.918 14.4432 209.137 14.7585 209.29 15.0312H209.478V12.9091H211.975V26.2898C211.975 27.4148 211.714 28.3381 211.191 29.0597C210.668 29.7813 209.961 30.3153 209.069 30.6619C208.183 31.0085 207.183 31.1818 206.069 31.1818ZM206.043 23.6903C206.776 23.6903 207.396 23.5199 207.901 23.179C208.413 22.8324 208.799 22.3381 209.06 21.696C209.327 21.0483 209.461 20.2727 209.461 19.3693C209.461 18.4886 209.33 17.7131 209.069 17.0426C208.808 16.3722 208.424 15.8494 207.918 15.4744C207.413 15.0937 206.788 14.9034 206.043 14.9034C205.276 14.9034 204.637 15.1023 204.126 15.5C203.614 15.892 203.228 16.4261 202.967 17.1023C202.711 17.7784 202.583 18.5341 202.583 19.3693C202.583 20.2273 202.714 20.9801 202.975 21.6278C203.237 22.2756 203.623 22.7812 204.134 23.1449C204.651 23.5085 205.288 23.6903 206.043 23.6903ZM217.941 18.2273V26H215.393V8.54545H217.907V15.0398H218.069C218.376 14.3352 218.844 13.7756 219.475 13.3608C220.106 12.946 220.93 12.7386 221.947 12.7386C222.844 12.7386 223.629 12.9233 224.299 13.2926C224.975 13.6619 225.498 14.2131 225.867 14.946C226.242 15.6733 226.43 16.5824 226.43 17.6733V26H223.881V17.9801C223.881 17.0199 223.634 16.2756 223.14 15.7472C222.646 15.2131 221.958 14.946 221.077 14.946C220.475 14.946 219.935 15.0739 219.458 15.3295C218.987 15.5852 218.614 15.9602 218.342 16.4545C218.075 16.9432 217.941 17.5341 217.941 18.2273ZM235.941 12.9091V14.9545H228.79V12.9091H235.941ZM230.708 9.77273H233.256V22.1562C233.256 22.6506 233.33 23.0227 233.478 23.2727C233.626 23.517 233.816 23.6847 234.049 23.7756C234.288 23.8608 234.546 23.9034 234.825 23.9034C235.029 23.9034 235.208 23.8892 235.362 23.8608C235.515 23.8324 235.634 23.8097 235.719 23.7926L236.18 25.8977C236.032 25.9545 235.822 26.0114 235.549 26.0682C235.276 26.1307 234.935 26.1648 234.526 26.1705C233.856 26.1818 233.231 26.0625 232.651 25.8125C232.072 25.5625 231.603 25.1761 231.245 24.6534C230.887 24.1307 230.708 23.4744 230.708 22.6847V9.77273ZM241.308 18.2273V26H238.76V12.9091H241.206V15.0398H241.368C241.669 14.3466 242.141 13.7898 242.783 13.3693C243.43 12.9489 244.246 12.7386 245.229 12.7386C246.121 12.7386 246.902 12.9261 247.572 13.3011C248.243 13.6705 248.763 14.2216 249.132 14.9545C249.501 15.6875 249.686 16.5937 249.686 17.6733V26H247.138V17.9801C247.138 17.0312 246.891 16.2898 246.396 15.7557C245.902 15.2159 245.223 14.946 244.359 14.946C243.768 14.946 243.243 15.0739 242.783 15.3295C242.328 15.5852 241.967 15.9602 241.7 16.4545C241.439 16.9432 241.308 17.5341 241.308 18.2273ZM258.746 26.2642C257.456 26.2642 256.345 25.9886 255.413 25.4375C254.487 24.8807 253.771 24.0994 253.266 23.0938C252.766 22.0824 252.516 20.8977 252.516 19.5398C252.516 18.1989 252.766 17.017 253.266 15.9943C253.771 14.9716 254.476 14.1733 255.379 13.5994C256.288 13.0256 257.351 12.7386 258.567 12.7386C259.305 12.7386 260.021 12.8608 260.714 13.1051C261.408 13.3494 262.03 13.733 262.581 14.2557C263.132 14.7784 263.567 15.4574 263.885 16.2926C264.203 17.1222 264.362 18.1307 264.362 19.3182V20.2216H253.956V18.3125H261.865C261.865 17.642 261.729 17.0483 261.456 16.5312C261.183 16.0085 260.8 15.5966 260.305 15.2955C259.817 14.9943 259.243 14.8438 258.584 14.8438C257.868 14.8438 257.243 15.0199 256.709 15.3722C256.18 15.7187 255.771 16.1733 255.482 16.7358C255.197 17.2926 255.055 17.8977 255.055 18.5511V20.0426C255.055 20.9176 255.209 21.6619 255.516 22.2756C255.828 22.8892 256.263 23.358 256.82 23.6818C257.376 24 258.027 24.1591 258.771 24.1591C259.254 24.1591 259.695 24.0909 260.092 23.9545C260.49 23.8125 260.834 23.6023 261.124 23.3239C261.413 23.0455 261.635 22.7017 261.788 22.2926L264.2 22.7273C264.007 23.4375 263.661 24.0597 263.161 24.5938C262.666 25.1222 262.044 25.5341 261.294 25.8295C260.55 26.1193 259.7 26.2642 258.746 26.2642ZM276.999 16.1051L274.69 16.5142C274.593 16.2187 274.44 15.9375 274.229 15.6705C274.025 15.4034 273.746 15.1847 273.394 15.0142C273.042 14.8437 272.602 14.7585 272.073 14.7585C271.352 14.7585 270.749 14.9205 270.266 15.2443C269.783 15.5625 269.542 15.9744 269.542 16.4801C269.542 16.9176 269.704 17.2699 270.028 17.5369C270.352 17.804 270.874 18.0227 271.596 18.1932L273.675 18.6705C274.88 18.9489 275.778 19.3778 276.369 19.9574C276.96 20.5369 277.255 21.2898 277.255 22.2159C277.255 23 277.028 23.6989 276.573 24.3125C276.124 24.9205 275.496 25.3977 274.69 25.7443C273.888 26.0909 272.96 26.2642 271.903 26.2642C270.437 26.2642 269.241 25.9517 268.315 25.3267C267.388 24.696 266.82 23.8011 266.61 22.642L269.073 22.267C269.227 22.9091 269.542 23.3949 270.019 23.7244C270.496 24.0483 271.119 24.2102 271.886 24.2102C272.721 24.2102 273.388 24.0369 273.888 23.6903C274.388 23.3381 274.638 22.9091 274.638 22.4034C274.638 21.9943 274.485 21.6506 274.178 21.3722C273.877 21.0937 273.414 20.8835 272.789 20.7415L270.573 20.2557C269.352 19.9773 268.448 19.5341 267.863 18.9261C267.283 18.3182 266.994 17.5483 266.994 16.6165C266.994 15.8437 267.21 15.1676 267.641 14.5881C268.073 14.0085 268.67 13.5568 269.431 13.233C270.192 12.9034 271.065 12.7386 272.048 12.7386C273.462 12.7386 274.576 13.0455 275.388 13.6591C276.201 14.267 276.738 15.0824 276.999 16.1051ZM289.866 16.1051L287.557 16.5142C287.46 16.2187 287.307 15.9375 287.097 15.6705C286.892 15.4034 286.614 15.1847 286.261 15.0142C285.909 14.8437 285.469 14.7585 284.94 14.7585C284.219 14.7585 283.616 14.9205 283.134 15.2443C282.651 15.5625 282.409 15.9744 282.409 16.4801C282.409 16.9176 282.571 17.2699 282.895 17.5369C283.219 17.804 283.741 18.0227 284.463 18.1932L286.543 18.6705C287.747 18.9489 288.645 19.3778 289.236 19.9574C289.827 20.5369 290.122 21.2898 290.122 22.2159C290.122 23 289.895 23.6989 289.44 24.3125C288.991 24.9205 288.364 25.3977 287.557 25.7443C286.756 26.0909 285.827 26.2642 284.77 26.2642C283.304 26.2642 282.108 25.9517 281.182 25.3267C280.256 24.696 279.688 23.8011 279.477 22.642L281.94 22.267C282.094 22.9091 282.409 23.3949 282.886 23.7244C283.364 24.0483 283.986 24.2102 284.753 24.2102C285.588 24.2102 286.256 24.0369 286.756 23.6903C287.256 23.3381 287.506 22.9091 287.506 22.4034C287.506 21.9943 287.352 21.6506 287.045 21.3722C286.744 21.0937 286.281 20.8835 285.656 20.7415L283.44 20.2557C282.219 19.9773 281.315 19.5341 280.73 18.9261C280.151 18.3182 279.861 17.5483 279.861 16.6165C279.861 15.8437 280.077 15.1676 280.509 14.5881C280.94 14.0085 281.537 13.5568 282.298 13.233C283.06 12.9034 283.932 12.7386 284.915 12.7386C286.33 12.7386 287.443 13.0455 288.256 13.6591C289.068 14.267 289.605 15.0824 289.866 16.1051ZM305.506 12.9091V14.9545H298.108V12.9091H305.506ZM300.136 26V11.392C300.136 10.5739 300.315 9.89489 300.673 9.35511C301.031 8.80966 301.506 8.40341 302.097 8.13636C302.688 7.86364 303.33 7.72727 304.023 7.72727C304.534 7.72727 304.972 7.76989 305.335 7.85511C305.699 7.93466 305.969 8.00852 306.145 8.0767L305.548 10.1392C305.429 10.1051 305.276 10.0653 305.088 10.0199C304.901 9.96875 304.673 9.94318 304.406 9.94318C303.787 9.94318 303.344 10.0966 303.077 10.4034C302.815 10.7102 302.685 11.1534 302.685 11.733V26H300.136ZM313.134 26.2642C311.906 26.2642 310.835 25.983 309.92 25.4205C309.006 24.858 308.295 24.071 307.79 23.0597C307.284 22.0483 307.031 20.8665 307.031 19.5142C307.031 18.1562 307.284 16.9687 307.79 15.9517C308.295 14.9347 309.006 14.1449 309.92 13.5824C310.835 13.0199 311.906 12.7386 313.134 12.7386C314.361 12.7386 315.432 13.0199 316.347 13.5824C317.261 14.1449 317.972 14.9347 318.477 15.9517C318.983 16.9687 319.236 18.1562 319.236 19.5142C319.236 20.8665 318.983 22.0483 318.477 23.0597C317.972 24.071 317.261 24.858 316.347 25.4205C315.432 25.983 314.361 26.2642 313.134 26.2642ZM313.142 24.125C313.938 24.125 314.597 23.9148 315.119 23.4943C315.642 23.0739 316.028 22.5142 316.278 21.8153C316.534 21.1165 316.662 20.3466 316.662 19.5057C316.662 18.6705 316.534 17.9034 316.278 17.2045C316.028 16.5 315.642 15.9347 315.119 15.5085C314.597 15.0824 313.938 14.8693 313.142 14.8693C312.341 14.8693 311.676 15.0824 311.148 15.5085C310.625 15.9347 310.236 16.5 309.98 17.2045C309.73 17.9034 309.605 18.6705 309.605 19.5057C309.605 20.3466 309.73 21.1165 309.98 21.8153C310.236 22.5142 310.625 23.0739 311.148 23.4943C311.676 23.9148 312.341 24.125 313.142 24.125ZM322.08 26V12.9091H324.543V14.9886H324.68C324.918 14.2841 325.339 13.7301 325.941 13.3267C326.549 12.9176 327.237 12.7131 328.004 12.7131C328.163 12.7131 328.35 12.7187 328.566 12.7301C328.788 12.7415 328.961 12.7557 329.086 12.7727V15.2102C328.984 15.1818 328.802 15.1506 328.54 15.1165C328.279 15.0767 328.018 15.0568 327.756 15.0568C327.154 15.0568 326.617 15.1847 326.146 15.4403C325.68 15.6903 325.31 16.0398 325.038 16.4886C324.765 16.9318 324.629 17.4375 324.629 18.0057V26H322.08ZM339.322 26H336.526L342.808 8.54545H345.85L352.131 26H349.336L344.401 11.7159H344.265L339.322 26ZM339.79 19.1648H348.859V21.3807H339.79V19.1648ZM354.565 26V12.9091H357.113V26H354.565ZM355.852 10.8892C355.408 10.8892 355.028 10.7415 354.71 10.446C354.397 10.1449 354.241 9.78693 354.241 9.37216C354.241 8.9517 354.397 8.59375 354.71 8.29829C355.028 7.99716 355.408 7.84659 355.852 7.84659C356.295 7.84659 356.673 7.99716 356.985 8.29829C357.303 8.59375 357.462 8.9517 357.462 9.37216C357.462 9.78693 357.303 10.1449 356.985 10.446C356.673 10.7415 356.295 10.8892 355.852 10.8892ZM360.541 26V12.9091H363.004V14.9886H363.141C363.379 14.2841 363.8 13.7301 364.402 13.3267C365.01 12.9176 365.697 12.7131 366.464 12.7131C366.624 12.7131 366.811 12.7187 367.027 12.7301C367.249 12.7415 367.422 12.7557 367.547 12.7727V15.2102C367.445 15.1818 367.263 15.1506 367.001 15.1165C366.74 15.0767 366.479 15.0568 366.217 15.0568C365.615 15.0568 365.078 15.1847 364.607 15.4403C364.141 15.6903 363.771 16.0398 363.499 16.4886C363.226 16.9318 363.089 17.4375 363.089 18.0057V26H360.541ZM376.692 17.5199V19.7273H368.953V17.5199H376.692ZM394.79 14.2216H392.131C392.028 13.6534 391.838 13.1534 391.56 12.7216C391.281 12.2898 390.94 11.9233 390.537 11.6222C390.134 11.321 389.682 11.0937 389.182 10.9403C388.688 10.7869 388.162 10.7102 387.605 10.7102C386.599 10.7102 385.699 10.9631 384.903 11.4688C384.114 11.9744 383.489 12.7159 383.028 13.6932C382.574 14.6705 382.347 15.8636 382.347 17.2727C382.347 18.6932 382.574 19.892 383.028 20.8693C383.489 21.8466 384.116 22.5852 384.912 23.0852C385.707 23.5852 386.602 23.8352 387.597 23.8352C388.148 23.8352 388.67 23.7614 389.165 23.6136C389.665 23.4602 390.116 23.2358 390.52 22.9403C390.923 22.6449 391.264 22.2841 391.543 21.858C391.827 21.4261 392.023 20.9318 392.131 20.375L394.79 20.3835C394.648 21.2415 394.372 22.0312 393.963 22.7528C393.56 23.4688 393.04 24.0881 392.403 24.6108C391.773 25.1278 391.051 25.5284 390.239 25.8125C389.426 26.0966 388.54 26.2386 387.58 26.2386C386.068 26.2386 384.722 25.8807 383.54 25.1648C382.358 24.4432 381.426 23.4119 380.744 22.071C380.068 20.7301 379.73 19.1307 379.73 17.2727C379.73 15.4091 380.071 13.8097 380.753 12.4744C381.435 11.1335 382.366 10.1051 383.548 9.3892C384.73 8.66761 386.074 8.30682 387.58 8.30682C388.506 8.30682 389.369 8.44034 390.17 8.70739C390.977 8.96875 391.702 9.35511 392.344 9.86648C392.986 10.3722 393.517 10.9915 393.938 11.7244C394.358 12.4517 394.642 13.2841 394.79 14.2216ZM403.251 26.2642C402.023 26.2642 400.952 25.983 400.038 25.4205C399.123 24.858 398.413 24.071 397.907 23.0597C397.401 22.0483 397.148 20.8665 397.148 19.5142C397.148 18.1562 397.401 16.9687 397.907 15.9517C398.413 14.9347 399.123 14.1449 400.038 13.5824C400.952 13.0199 402.023 12.7386 403.251 12.7386C404.478 12.7386 405.549 13.0199 406.464 13.5824C407.379 14.1449 408.089 14.9347 408.594 15.9517C409.1 16.9687 409.353 18.1562 409.353 19.5142C409.353 20.8665 409.1 22.0483 408.594 23.0597C408.089 24.071 407.379 24.858 406.464 25.4205C405.549 25.983 404.478 26.2642 403.251 26.2642ZM403.259 24.125C404.055 24.125 404.714 23.9148 405.237 23.4943C405.759 23.0739 406.146 22.5142 406.396 21.8153C406.651 21.1165 406.779 20.3466 406.779 19.5057C406.779 18.6705 406.651 17.9034 406.396 17.2045C406.146 16.5 405.759 15.9347 405.237 15.5085C404.714 15.0824 404.055 14.8693 403.259 14.8693C402.458 14.8693 401.793 15.0824 401.265 15.5085C400.742 15.9347 400.353 16.5 400.097 17.2045C399.847 17.9034 399.722 18.6705 399.722 19.5057C399.722 20.3466 399.847 21.1165 400.097 21.8153C400.353 22.5142 400.742 23.0739 401.265 23.4943C401.793 23.9148 402.458 24.125 403.259 24.125ZM414.746 18.2273V26H412.197V12.9091H414.643V15.0398H414.805C415.107 14.3466 415.578 13.7898 416.22 13.3693C416.868 12.9489 417.683 12.7386 418.666 12.7386C419.558 12.7386 420.339 12.9261 421.01 13.3011C421.68 13.6705 422.2 14.2216 422.57 14.9545C422.939 15.6875 423.124 16.5937 423.124 17.6733V26H420.575V17.9801C420.575 17.0312 420.328 16.2898 419.834 15.7557C419.339 15.2159 418.661 14.946 417.797 14.946C417.206 14.946 416.68 15.0739 416.22 15.3295C415.766 15.5852 415.405 15.9602 415.138 16.4545C414.876 16.9432 414.746 17.5341 414.746 18.2273ZM431.442 26.2557C430.385 26.2557 429.442 25.9858 428.612 25.446C427.788 24.9006 427.141 24.125 426.669 23.1193C426.203 22.108 425.97 20.8949 425.97 19.4801C425.97 18.0653 426.206 16.8551 426.678 15.8494C427.155 14.8437 427.808 14.0739 428.638 13.5398C429.467 13.0057 430.408 12.7386 431.459 12.7386C432.271 12.7386 432.925 12.875 433.419 13.1477C433.919 13.4148 434.305 13.7273 434.578 14.0852C434.857 14.4432 435.072 14.7585 435.226 15.0312H435.379V8.54545H437.928V26H435.439V23.9631H435.226C435.072 24.2415 434.851 24.5597 434.561 24.9176C434.277 25.2756 433.885 25.5881 433.385 25.8551C432.885 26.1222 432.237 26.2557 431.442 26.2557ZM432.004 24.0824C432.737 24.0824 433.357 23.8892 433.862 23.5028C434.374 23.1108 434.76 22.5682 435.021 21.875C435.288 21.1818 435.422 20.375 435.422 19.4545C435.422 18.5455 435.291 17.75 435.03 17.0682C434.768 16.3864 434.385 15.8551 433.879 15.4744C433.374 15.0937 432.749 14.9034 432.004 14.9034C431.237 14.9034 430.598 15.1023 430.087 15.5C429.575 15.8977 429.189 16.4403 428.928 17.1278C428.672 17.8153 428.544 18.5909 428.544 19.4545C428.544 20.3295 428.675 21.1165 428.936 21.8153C429.197 22.5142 429.584 23.0682 430.095 23.4773C430.612 23.8807 431.249 24.0824 432.004 24.0824ZM441.565 26V12.9091H444.113V26H441.565ZM442.852 10.8892C442.408 10.8892 442.028 10.7415 441.71 10.446C441.397 10.1449 441.241 9.78693 441.241 9.37216C441.241 8.9517 441.397 8.59375 441.71 8.29829C442.028 7.99716 442.408 7.84659 442.852 7.84659C443.295 7.84659 443.673 7.99716 443.985 8.29829C444.303 8.59375 444.462 8.9517 444.462 9.37216C444.462 9.78693 444.303 10.1449 443.985 10.446C443.673 10.7415 443.295 10.8892 442.852 10.8892ZM453.652 12.9091V14.9545H446.501V12.9091H453.652ZM448.419 9.77273H450.967V22.1562C450.967 22.6506 451.041 23.0227 451.189 23.2727C451.337 23.517 451.527 23.6847 451.76 23.7756C451.999 23.8608 452.257 23.9034 452.536 23.9034C452.74 23.9034 452.919 23.8892 453.072 23.8608C453.226 23.8324 453.345 23.8097 453.43 23.7926L453.891 25.8977C453.743 25.9545 453.533 26.0114 453.26 26.0682C452.987 26.1307 452.646 26.1648 452.237 26.1705C451.567 26.1818 450.942 26.0625 450.362 25.8125C449.783 25.5625 449.314 25.1761 448.956 24.6534C448.598 24.1307 448.419 23.4744 448.419 22.6847V9.77273ZM456.471 26V12.9091H459.019V26H456.471ZM457.758 10.8892C457.315 10.8892 456.934 10.7415 456.616 10.446C456.303 10.1449 456.147 9.78693 456.147 9.37216C456.147 8.9517 456.303 8.59375 456.616 8.29829C456.934 7.99716 457.315 7.84659 457.758 7.84659C458.201 7.84659 458.579 7.99716 458.891 8.29829C459.21 8.59375 459.369 8.9517 459.369 9.37216C459.369 9.78693 459.21 10.1449 458.891 10.446C458.579 10.7415 458.201 10.8892 457.758 10.8892ZM467.962 26.2642C466.734 26.2642 465.663 25.983 464.749 25.4205C463.834 24.858 463.124 24.071 462.618 23.0597C462.112 22.0483 461.859 20.8665 461.859 19.5142C461.859 18.1562 462.112 16.9687 462.618 15.9517C463.124 14.9347 463.834 14.1449 464.749 13.5824C465.663 13.0199 466.734 12.7386 467.962 12.7386C469.189 12.7386 470.26 13.0199 471.175 13.5824C472.089 14.1449 472.8 14.9347 473.305 15.9517C473.811 16.9687 474.064 18.1562 474.064 19.5142C474.064 20.8665 473.811 22.0483 473.305 23.0597C472.8 24.071 472.089 24.858 471.175 25.4205C470.26 25.983 469.189 26.2642 467.962 26.2642ZM467.97 24.125C468.766 24.125 469.425 23.9148 469.947 23.4943C470.47 23.0739 470.857 22.5142 471.107 21.8153C471.362 21.1165 471.49 20.3466 471.49 19.5057C471.49 18.6705 471.362 17.9034 471.107 17.2045C470.857 16.5 470.47 15.9347 469.947 15.5085C469.425 15.0824 468.766 14.8693 467.97 14.8693C467.169 14.8693 466.504 15.0824 465.976 15.5085C465.453 15.9347 465.064 16.5 464.808 17.2045C464.558 17.9034 464.433 18.6705 464.433 19.5057C464.433 20.3466 464.558 21.1165 464.808 21.8153C465.064 22.5142 465.453 23.0739 465.976 23.4943C466.504 23.9148 467.169 24.125 467.97 24.125ZM479.457 18.2273V26H476.908V12.9091H479.354V15.0398H479.516C479.817 14.3466 480.289 13.7898 480.931 13.3693C481.579 12.9489 482.394 12.7386 483.377 12.7386C484.269 12.7386 485.05 12.9261 485.721 13.3011C486.391 13.6705 486.911 14.2216 487.281 14.9545C487.65 15.6875 487.835 16.5937 487.835 17.6733V26H485.286V17.9801C485.286 17.0312 485.039 16.2898 484.545 15.7557C484.05 15.2159 483.371 14.946 482.508 14.946C481.917 14.946 481.391 15.0739 480.931 15.3295C480.477 15.5852 480.116 15.9602 479.849 16.4545C479.587 16.9432 479.457 17.5341 479.457 18.2273ZM496.894 26.2642C495.604 26.2642 494.494 25.9886 493.562 25.4375C492.636 24.8807 491.92 24.0994 491.414 23.0938C490.914 22.0824 490.664 20.8977 490.664 19.5398C490.664 18.1989 490.914 17.017 491.414 15.9943C491.92 14.9716 492.624 14.1733 493.528 13.5994C494.437 13.0256 495.499 12.7386 496.715 12.7386C497.454 12.7386 498.17 12.8608 498.863 13.1051C499.556 13.3494 500.178 13.733 500.729 14.2557C501.281 14.7784 501.715 15.4574 502.033 16.2926C502.352 17.1222 502.511 18.1307 502.511 19.3182V20.2216H492.104V18.3125H500.013C500.013 17.642 499.877 17.0483 499.604 16.5312C499.332 16.0085 498.948 15.5966 498.454 15.2955C497.965 14.9943 497.391 14.8438 496.732 14.8438C496.016 14.8438 495.391 15.0199 494.857 15.3722C494.329 15.7187 493.92 16.1733 493.63 16.7358C493.346 17.2926 493.204 17.8977 493.204 18.5511V20.0426C493.204 20.9176 493.357 21.6619 493.664 22.2756C493.977 22.8892 494.411 23.358 494.968 23.6818C495.525 24 496.175 24.1591 496.92 24.1591C497.403 24.1591 497.843 24.0909 498.241 23.9545C498.638 23.8125 498.982 23.6023 499.272 23.3239C499.562 23.0455 499.783 22.7017 499.937 22.2926L502.349 22.7273C502.156 23.4375 501.809 24.0597 501.309 24.5938C500.815 25.1222 500.192 25.5341 499.442 25.8295C498.698 26.1193 497.849 26.2642 496.894 26.2642ZM510.239 26.2557C509.182 26.2557 508.239 25.9858 507.409 25.446C506.585 24.9006 505.938 24.125 505.466 23.1193C505 22.108 504.767 20.8949 504.767 19.4801C504.767 18.0653 505.003 16.8551 505.474 15.8494C505.952 14.8437 506.605 14.0739 507.435 13.5398C508.264 13.0057 509.205 12.7386 510.256 12.7386C511.068 12.7386 511.722 12.875 512.216 13.1477C512.716 13.4148 513.102 13.7273 513.375 14.0852C513.653 14.4432 513.869 14.7585 514.023 15.0312H514.176V8.54545H516.724V26H514.236V23.9631H514.023C513.869 24.2415 513.648 24.5597 513.358 24.9176C513.074 25.2756 512.682 25.5881 512.182 25.8551C511.682 26.1222 511.034 26.2557 510.239 26.2557ZM510.801 24.0824C511.534 24.0824 512.153 23.8892 512.659 23.5028C513.17 23.1108 513.557 22.5682 513.818 21.875C514.085 21.1818 514.219 20.375 514.219 19.4545C514.219 18.5455 514.088 17.75 513.827 17.0682C513.565 16.3864 513.182 15.8551 512.676 15.4744C512.17 15.0937 511.545 14.9034 510.801 14.9034C510.034 14.9034 509.395 15.1023 508.884 15.5C508.372 15.8977 507.986 16.4403 507.724 17.1278C507.469 17.8153 507.341 18.5909 507.341 19.4545C507.341 20.3295 507.472 21.1165 507.733 21.8153C507.994 22.5142 508.381 23.0682 508.892 23.4773C509.409 23.8807 510.045 24.0824 510.801 24.0824ZM536.438 13.1307C536.347 12.3239 535.972 11.6989 535.312 11.2557C534.653 10.8068 533.824 10.5824 532.824 10.5824C532.108 10.5824 531.489 10.696 530.966 10.9233C530.443 11.1449 530.037 11.4517 529.747 11.8438C529.463 12.2301 529.321 12.6705 529.321 13.1648C529.321 13.5795 529.418 13.9375 529.611 14.2386C529.81 14.5398 530.068 14.7926 530.386 14.9972C530.71 15.196 531.057 15.3636 531.426 15.5C531.795 15.6307 532.151 15.7386 532.491 15.8239L534.196 16.267C534.753 16.4034 535.324 16.5881 535.909 16.821C536.494 17.054 537.037 17.3608 537.537 17.7415C538.037 18.1222 538.44 18.5938 538.747 19.1562C539.06 19.7188 539.216 20.392 539.216 21.1761C539.216 22.1648 538.96 23.0426 538.449 23.8097C537.943 24.5767 537.207 25.1818 536.241 25.625C535.281 26.0682 534.119 26.2898 532.756 26.2898C531.449 26.2898 530.318 26.0824 529.364 25.6676C528.409 25.2528 527.662 24.6648 527.122 23.9034C526.582 23.1364 526.284 22.2273 526.227 21.1761H528.869C528.92 21.8068 529.125 22.3324 529.483 22.7528C529.847 23.1676 530.31 23.4773 530.872 23.6818C531.44 23.8807 532.062 23.9801 532.739 23.9801C533.483 23.9801 534.145 23.8636 534.724 23.6307C535.31 23.392 535.77 23.0625 536.105 22.642C536.44 22.2159 536.608 21.7187 536.608 21.1506C536.608 20.6335 536.46 20.2102 536.165 19.8807C535.875 19.5511 535.48 19.2784 534.98 19.0625C534.486 18.8466 533.926 18.6562 533.301 18.4915L531.239 17.929C529.841 17.5483 528.733 16.9886 527.915 16.25C527.102 15.5114 526.696 14.5341 526.696 13.3182C526.696 12.3125 526.969 11.4347 527.514 10.6847C528.06 9.93466 528.798 9.35227 529.73 8.9375C530.662 8.51705 531.713 8.30682 532.884 8.30682C534.065 8.30682 535.108 8.5142 536.011 8.92898C536.92 9.34375 537.636 9.91477 538.159 10.642C538.682 11.3636 538.955 12.1932 538.977 13.1307H536.438ZM542.158 30.9091V12.9091H544.647V15.0312H544.86C545.008 14.7585 545.221 14.4432 545.499 14.0852C545.778 13.7273 546.164 13.4148 546.658 13.1477C547.153 12.875 547.806 12.7386 548.619 12.7386C549.675 12.7386 550.619 13.0057 551.448 13.5398C552.278 14.0739 552.928 14.8437 553.4 15.8494C553.877 16.8551 554.116 18.0653 554.116 19.4801C554.116 20.8949 553.88 22.108 553.408 23.1193C552.937 24.125 552.289 24.9006 551.465 25.446C550.641 25.9858 549.701 26.2557 548.644 26.2557C547.849 26.2557 547.198 26.1222 546.692 25.8551C546.192 25.5881 545.8 25.2756 545.516 24.9176C545.232 24.5597 545.013 24.2415 544.86 23.9631H544.707V30.9091H542.158ZM544.656 19.4545C544.656 20.375 544.789 21.1818 545.056 21.875C545.323 22.5682 545.71 23.1108 546.215 23.5028C546.721 23.8892 547.34 24.0824 548.073 24.0824C548.835 24.0824 549.471 23.8807 549.982 23.4773C550.494 23.0682 550.88 22.5142 551.141 21.8153C551.408 21.1165 551.542 20.3295 551.542 19.4545C551.542 18.5909 551.411 17.8153 551.15 17.1278C550.894 16.4403 550.508 15.8977 549.991 15.5C549.479 15.1023 548.84 14.9034 548.073 14.9034C547.335 14.9034 546.71 15.0937 546.198 15.4744C545.692 15.8551 545.309 16.3864 545.048 17.0682C544.786 17.75 544.656 18.5455 544.656 19.4545ZM560.781 26.2898C559.951 26.2898 559.201 26.1364 558.531 25.8295C557.86 25.517 557.329 25.0653 556.937 24.4744C556.55 23.8835 556.357 23.1591 556.357 22.3011C556.357 21.5625 556.499 20.9545 556.783 20.4773C557.067 20 557.451 19.6222 557.934 19.3438C558.417 19.0653 558.957 18.8551 559.553 18.7131C560.15 18.571 560.758 18.4631 561.377 18.3892C562.161 18.2983 562.798 18.2244 563.286 18.1676C563.775 18.1051 564.13 18.0057 564.352 17.8693C564.573 17.733 564.684 17.5114 564.684 17.2045V17.1449C564.684 16.4006 564.474 15.8239 564.053 15.4148C563.638 15.0057 563.019 14.8011 562.195 14.8011C561.337 14.8011 560.661 14.9915 560.167 15.3722C559.678 15.7472 559.34 16.1648 559.153 16.625L556.758 16.0795C557.042 15.2841 557.457 14.642 558.002 14.1534C558.553 13.6591 559.187 13.3011 559.903 13.0795C560.619 12.8523 561.371 12.7386 562.161 12.7386C562.684 12.7386 563.238 12.8011 563.823 12.9261C564.414 13.0455 564.965 13.267 565.477 13.5909C565.994 13.9148 566.417 14.3778 566.746 14.9801C567.076 15.5767 567.241 16.3523 567.241 17.3068V26H564.752V24.2102H564.65C564.485 24.5398 564.238 24.8636 563.908 25.1818C563.579 25.5 563.156 25.7642 562.638 25.9744C562.121 26.1847 561.502 26.2898 560.781 26.2898ZM561.335 24.2443C562.039 24.2443 562.641 24.1051 563.141 23.8267C563.647 23.5483 564.031 23.1847 564.292 22.7358C564.559 22.2812 564.692 21.7955 564.692 21.2784V19.5909C564.602 19.6818 564.425 19.767 564.164 19.8466C563.908 19.9205 563.616 19.9858 563.286 20.0426C562.957 20.0937 562.636 20.142 562.323 20.1875C562.011 20.2273 561.749 20.2614 561.539 20.2898C561.045 20.3523 560.593 20.4574 560.184 20.6051C559.781 20.7528 559.457 20.9659 559.212 21.2443C558.974 21.517 558.854 21.8807 558.854 22.3352C558.854 22.9659 559.087 23.4432 559.553 23.767C560.019 24.0852 560.613 24.2443 561.335 24.2443ZM576.149 26.2642C574.882 26.2642 573.791 25.9773 572.876 25.4034C571.967 24.8239 571.268 24.0256 570.78 23.0085C570.291 21.9915 570.047 20.8267 570.047 19.5142C570.047 18.1847 570.297 17.0114 570.797 15.9943C571.297 14.9716 572.001 14.1733 572.911 13.5994C573.82 13.0256 574.891 12.7386 576.124 12.7386C577.118 12.7386 578.004 12.9233 578.783 13.2926C579.561 13.6562 580.189 14.1676 580.666 14.8267C581.149 15.4858 581.436 16.2557 581.527 17.1364H579.047C578.911 16.5227 578.598 15.9943 578.109 15.5511C577.626 15.108 576.979 14.8864 576.166 14.8864C575.456 14.8864 574.834 15.0739 574.3 15.4489C573.771 15.8182 573.359 16.3466 573.064 17.0341C572.768 17.7159 572.621 18.5227 572.621 19.4545C572.621 20.4091 572.766 21.233 573.055 21.9261C573.345 22.6193 573.754 23.1562 574.283 23.5369C574.817 23.9176 575.445 24.108 576.166 24.108C576.649 24.108 577.087 24.0199 577.479 23.8438C577.876 23.6619 578.209 23.4034 578.476 23.0682C578.749 22.733 578.939 22.3295 579.047 21.858H581.527C581.436 22.7045 581.161 23.4602 580.7 24.125C580.24 24.7898 579.624 25.3125 578.851 25.6932C578.084 26.0739 577.183 26.2642 576.149 26.2642ZM589.894 26.2642C588.604 26.2642 587.494 25.9886 586.562 25.4375C585.636 24.8807 584.92 24.0994 584.414 23.0938C583.914 22.0824 583.664 20.8977 583.664 19.5398C583.664 18.1989 583.914 17.017 584.414 15.9943C584.92 14.9716 585.624 14.1733 586.528 13.5994C587.437 13.0256 588.499 12.7386 589.715 12.7386C590.454 12.7386 591.17 12.8608 591.863 13.1051C592.556 13.3494 593.178 13.733 593.729 14.2557C594.281 14.7784 594.715 15.4574 595.033 16.2926C595.352 17.1222 595.511 18.1307 595.511 19.3182V20.2216H585.104V18.3125H593.013C593.013 17.642 592.877 17.0483 592.604 16.5312C592.332 16.0085 591.948 15.5966 591.454 15.2955C590.965 14.9943 590.391 14.8438 589.732 14.8438C589.016 14.8438 588.391 15.0199 587.857 15.3722C587.329 15.7187 586.92 16.1733 586.63 16.7358C586.346 17.2926 586.204 17.8977 586.204 18.5511V20.0426C586.204 20.9176 586.357 21.6619 586.664 22.2756C586.977 22.8892 587.411 23.358 587.968 23.6818C588.525 24 589.175 24.1591 589.92 24.1591C590.403 24.1591 590.843 24.0909 591.241 23.9545C591.638 23.8125 591.982 23.6023 592.272 23.3239C592.562 23.0455 592.783 22.7017 592.937 22.2926L595.349 22.7273C595.156 23.4375 594.809 24.0597 594.309 24.5938C593.815 25.1222 593.192 25.5341 592.442 25.8295C591.698 26.1193 590.849 26.2642 589.894 26.2642ZM608.148 16.1051L605.838 16.5142C605.741 16.2187 605.588 15.9375 605.378 15.6705C605.173 15.4034 604.895 15.1847 604.543 15.0142C604.19 14.8437 603.75 14.7585 603.222 14.7585C602.5 14.7585 601.898 14.9205 601.415 15.2443C600.932 15.5625 600.69 15.9744 600.69 16.4801C600.69 16.9176 600.852 17.2699 601.176 17.5369C601.5 17.804 602.023 18.0227 602.744 18.1932L604.824 18.6705C606.028 18.9489 606.926 19.3778 607.517 19.9574C608.108 20.5369 608.403 21.2898 608.403 22.2159C608.403 23 608.176 23.6989 607.722 24.3125C607.273 24.9205 606.645 25.3977 605.838 25.7443C605.037 26.0909 604.108 26.2642 603.051 26.2642C601.585 26.2642 600.389 25.9517 599.463 25.3267C598.537 24.696 597.969 23.8011 597.759 22.642L600.222 22.267C600.375 22.9091 600.69 23.3949 601.168 23.7244C601.645 24.0483 602.267 24.2102 603.034 24.2102C603.869 24.2102 604.537 24.0369 605.037 23.6903C605.537 23.3381 605.787 22.9091 605.787 22.4034C605.787 21.9943 605.634 21.6506 605.327 21.3722C605.026 21.0937 604.562 20.8835 603.938 20.7415L601.722 20.2557C600.5 19.9773 599.597 19.5341 599.011 18.9261C598.432 18.3182 598.142 17.5483 598.142 16.6165C598.142 15.8437 598.358 15.1676 598.79 14.5881C599.222 14.0085 599.818 13.5568 600.58 13.233C601.341 12.9034 602.213 12.7386 603.196 12.7386C604.611 12.7386 605.724 13.0455 606.537 13.6591C607.349 14.267 607.886 15.0824 608.148 16.1051ZM625.27 16.1648V18.3807H617.531V16.1648H625.27ZM634.362 10.8125V8.54545H647.87V10.8125H642.424V26H639.799V10.8125H634.362ZM653.199 18.2273V26H650.651V8.54545H653.165V15.0398H653.327C653.634 14.3352 654.102 13.7756 654.733 13.3608C655.364 12.946 656.188 12.7386 657.205 12.7386C658.102 12.7386 658.886 12.9233 659.557 13.2926C660.233 13.6619 660.756 14.2131 661.125 14.946C661.5 15.6733 661.688 16.5824 661.688 17.6733V26H659.139V17.9801C659.139 17.0199 658.892 16.2756 658.398 15.7472C657.903 15.2131 657.216 14.946 656.335 14.946C655.733 14.946 655.193 15.0739 654.716 15.3295C654.244 15.5852 653.872 15.9602 653.599 16.4545C653.332 16.9432 653.199 17.5341 653.199 18.2273ZM670.73 26.2642C669.44 26.2642 668.33 25.9886 667.398 25.4375C666.472 24.8807 665.756 24.0994 665.25 23.0938C664.75 22.0824 664.5 20.8977 664.5 19.5398C664.5 18.1989 664.75 17.017 665.25 15.9943C665.756 14.9716 666.46 14.1733 667.364 13.5994C668.273 13.0256 669.335 12.7386 670.551 12.7386C671.29 12.7386 672.006 12.8608 672.699 13.1051C673.392 13.3494 674.014 13.733 674.565 14.2557C675.116 14.7784 675.551 15.4574 675.869 16.2926C676.188 17.1222 676.347 18.1307 676.347 19.3182V20.2216H665.94V18.3125H673.849C673.849 17.642 673.713 17.0483 673.44 16.5312C673.168 16.0085 672.784 15.5966 672.29 15.2955C671.801 14.9943 671.227 14.8438 670.568 14.8438C669.852 14.8438 669.227 15.0199 668.693 15.3722C668.165 15.7187 667.756 16.1733 667.466 16.7358C667.182 17.2926 667.04 17.8977 667.04 18.5511V20.0426C667.04 20.9176 667.193 21.6619 667.5 22.2756C667.812 22.8892 668.247 23.358 668.804 23.6818C669.361 24 670.011 24.1591 670.756 24.1591C671.239 24.1591 671.679 24.0909 672.077 23.9545C672.474 23.8125 672.818 23.6023 673.108 23.3239C673.398 23.0455 673.619 22.7017 673.773 22.2926L676.185 22.7273C675.991 23.4375 675.645 24.0597 675.145 24.5938C674.651 25.1222 674.028 25.5341 673.278 25.8295C672.534 26.1193 671.685 26.2642 670.73 26.2642ZM679.174 26V12.9091H681.637V14.9886H681.773C682.012 14.2841 682.433 13.7301 683.035 13.3267C683.643 12.9176 684.33 12.7131 685.097 12.7131C685.256 12.7131 685.444 12.7187 685.66 12.7301C685.881 12.7415 686.055 12.7557 686.18 12.7727V15.2102C686.077 15.1818 685.896 15.1506 685.634 15.1165C685.373 15.0767 685.112 15.0568 684.85 15.0568C684.248 15.0568 683.711 15.1847 683.239 15.4403C682.773 15.6903 682.404 16.0398 682.131 16.4886C681.859 16.9318 681.722 17.4375 681.722 18.0057V26H679.174ZM688.385 26V12.9091H690.831V15.0398H690.993C691.266 14.3182 691.712 13.7557 692.331 13.3523C692.95 12.9432 693.692 12.7386 694.555 12.7386C695.43 12.7386 696.163 12.9432 696.754 13.3523C697.351 13.7614 697.791 14.3239 698.075 15.0398H698.212C698.524 14.3409 699.021 13.7841 699.703 13.3693C700.385 12.9489 701.197 12.7386 702.141 12.7386C703.328 12.7386 704.297 13.1108 705.047 13.8551C705.803 14.5994 706.18 15.7216 706.18 17.2216V26H703.632V17.4602C703.632 16.5739 703.391 15.9318 702.908 15.5341C702.425 15.1364 701.848 14.9375 701.178 14.9375C700.348 14.9375 699.703 15.1932 699.243 15.7045C698.783 16.2102 698.553 16.8608 698.553 17.6562V26H696.013V17.2983C696.013 16.5881 695.791 16.017 695.348 15.5852C694.905 15.1534 694.328 14.9375 693.618 14.9375C693.135 14.9375 692.689 15.0653 692.28 15.321C691.876 15.571 691.55 15.9205 691.3 16.3693C691.055 16.8182 690.933 17.3381 690.933 17.929V26H688.385ZM713.406 26.2898C712.576 26.2898 711.826 26.1364 711.156 25.8295C710.485 25.517 709.954 25.0653 709.562 24.4744C709.175 23.8835 708.982 23.1591 708.982 22.3011C708.982 21.5625 709.124 20.9545 709.408 20.4773C709.692 20 710.076 19.6222 710.559 19.3438C711.042 19.0653 711.582 18.8551 712.178 18.7131C712.775 18.571 713.383 18.4631 714.002 18.3892C714.786 18.2983 715.423 18.2244 715.911 18.1676C716.4 18.1051 716.755 18.0057 716.977 17.8693C717.198 17.733 717.309 17.5114 717.309 17.2045V17.1449C717.309 16.4006 717.099 15.8239 716.678 15.4148C716.263 15.0057 715.644 14.8011 714.82 14.8011C713.962 14.8011 713.286 14.9915 712.792 15.3722C712.303 15.7472 711.965 16.1648 711.778 16.625L709.383 16.0795C709.667 15.2841 710.082 14.642 710.627 14.1534C711.178 13.6591 711.812 13.3011 712.528 13.0795C713.244 12.8523 713.996 12.7386 714.786 12.7386C715.309 12.7386 715.863 12.8011 716.448 12.9261C717.039 13.0455 717.59 13.267 718.102 13.5909C718.619 13.9148 719.042 14.3778 719.371 14.9801C719.701 15.5767 719.866 16.3523 719.866 17.3068V26H717.377V24.2102H717.275C717.11 24.5398 716.863 24.8636 716.533 25.1818C716.204 25.5 715.781 25.7642 715.263 25.9744C714.746 26.1847 714.127 26.2898 713.406 26.2898ZM713.96 24.2443C714.664 24.2443 715.266 24.1051 715.766 23.8267C716.272 23.5483 716.656 23.1847 716.917 22.7358C717.184 22.2812 717.317 21.7955 717.317 21.2784V19.5909C717.227 19.6818 717.05 19.767 716.789 19.8466C716.533 19.9205 716.241 19.9858 715.911 20.0426C715.582 20.0937 715.261 20.142 714.948 20.1875C714.636 20.2273 714.374 20.2614 714.164 20.2898C713.67 20.3523 713.218 20.4574 712.809 20.6051C712.406 20.7528 712.082 20.9659 711.837 21.2443C711.599 21.517 711.479 21.8807 711.479 22.3352C711.479 22.9659 711.712 23.4432 712.178 23.767C712.644 24.0852 713.238 24.2443 713.96 24.2443ZM725.808 8.54545V26H723.26V8.54545H725.808ZM738.426 8.54545V26H735.793V8.54545H738.426ZM742.057 26V12.9091H744.503V15.0398H744.665C744.938 14.3182 745.384 13.7557 746.003 13.3523C746.622 12.9432 747.364 12.7386 748.227 12.7386C749.102 12.7386 749.835 12.9432 750.426 13.3523C751.023 13.7614 751.463 14.3239 751.747 15.0398H751.884C752.196 14.3409 752.693 13.7841 753.375 13.3693C754.057 12.9489 754.869 12.7386 755.812 12.7386C757 12.7386 757.969 13.1108 758.719 13.8551C759.474 14.5994 759.852 15.7216 759.852 17.2216V26H757.304V17.4602C757.304 16.5739 757.063 15.9318 756.58 15.5341C756.097 15.1364 755.52 14.9375 754.849 14.9375C754.02 14.9375 753.375 15.1932 752.915 15.7045C752.455 16.2102 752.224 16.8608 752.224 17.6562V26H749.685V17.2983C749.685 16.5881 749.463 16.017 749.02 15.5852C748.577 15.1534 748 14.9375 747.29 14.9375C746.807 14.9375 746.361 15.0653 745.952 15.321C745.548 15.571 745.222 15.9205 744.972 16.3693C744.727 16.8182 744.605 17.3381 744.605 17.929V26H742.057ZM767.077 26.2898C766.248 26.2898 765.498 26.1364 764.827 25.8295C764.157 25.517 763.626 25.0653 763.234 24.4744C762.847 23.8835 762.654 23.1591 762.654 22.3011C762.654 21.5625 762.796 20.9545 763.08 20.4773C763.364 20 763.748 19.6222 764.231 19.3438C764.714 19.0653 765.254 18.8551 765.85 18.7131C766.447 18.571 767.055 18.4631 767.674 18.3892C768.458 18.2983 769.094 18.2244 769.583 18.1676C770.072 18.1051 770.427 18.0057 770.648 17.8693C770.87 17.733 770.981 17.5114 770.981 17.2045V17.1449C770.981 16.4006 770.771 15.8239 770.35 15.4148C769.935 15.0057 769.316 14.8011 768.492 14.8011C767.634 14.8011 766.958 14.9915 766.464 15.3722C765.975 15.7472 765.637 16.1648 765.45 16.625L763.055 16.0795C763.339 15.2841 763.754 14.642 764.299 14.1534C764.85 13.6591 765.484 13.3011 766.2 13.0795C766.915 12.8523 767.668 12.7386 768.458 12.7386C768.981 12.7386 769.535 12.8011 770.12 12.9261C770.711 13.0455 771.262 13.267 771.773 13.5909C772.29 13.9148 772.714 14.3778 773.043 14.9801C773.373 15.5767 773.538 16.3523 773.538 17.3068V26H771.049V24.2102H770.947C770.782 24.5398 770.535 24.8636 770.205 25.1818C769.876 25.5 769.452 25.7642 768.935 25.9744C768.418 26.1847 767.799 26.2898 767.077 26.2898ZM767.631 24.2443C768.336 24.2443 768.938 24.1051 769.438 23.8267C769.944 23.5483 770.327 23.1847 770.589 22.7358C770.856 22.2812 770.989 21.7955 770.989 21.2784V19.5909C770.898 19.6818 770.722 19.767 770.461 19.8466C770.205 19.9205 769.913 19.9858 769.583 20.0426C769.254 20.0937 768.933 20.142 768.62 20.1875C768.308 20.2273 768.046 20.2614 767.836 20.2898C767.342 20.3523 766.89 20.4574 766.481 20.6051C766.077 20.7528 765.754 20.9659 765.509 21.2443C765.271 21.517 765.151 21.8807 765.151 22.3352C765.151 22.9659 765.384 23.4432 765.85 23.767C766.316 24.0852 766.91 24.2443 767.631 24.2443ZM782.42 31.1818C781.381 31.1818 780.486 31.0455 779.736 30.7727C778.991 30.5 778.384 30.1392 777.912 29.6903C777.44 29.2415 777.088 28.75 776.855 28.2159L779.045 27.3125C779.199 27.5625 779.403 27.8267 779.659 28.1051C779.92 28.3892 780.273 28.6307 780.716 28.8295C781.165 29.0284 781.741 29.1278 782.446 29.1278C783.412 29.1278 784.21 28.892 784.841 28.4205C785.472 27.9545 785.787 27.2102 785.787 26.1875V23.6136H785.625C785.472 23.892 785.25 24.2017 784.96 24.5426C784.676 24.8835 784.284 25.179 783.784 25.429C783.284 25.679 782.634 25.804 781.832 25.804C780.798 25.804 779.866 25.5625 779.037 25.0795C778.213 24.5909 777.56 23.8722 777.077 22.9233C776.599 21.9687 776.361 20.7955 776.361 19.4034C776.361 18.0114 776.597 16.8182 777.068 15.8239C777.545 14.8295 778.199 14.0682 779.028 13.5398C779.858 13.0057 780.798 12.7386 781.849 12.7386C782.662 12.7386 783.318 12.875 783.818 13.1477C784.318 13.4148 784.707 13.7273 784.986 14.0852C785.27 14.4432 785.489 14.7585 785.642 15.0312H785.83V12.9091H788.327V26.2898C788.327 27.4148 788.065 28.3381 787.543 29.0597C787.02 29.7813 786.313 30.3153 785.42 30.6619C784.534 31.0085 783.534 31.1818 782.42 31.1818ZM782.395 23.6903C783.128 23.6903 783.747 23.5199 784.253 23.179C784.764 22.8324 785.151 22.3381 785.412 21.696C785.679 21.0483 785.812 20.2727 785.812 19.3693C785.812 18.4886 785.682 17.7131 785.42 17.0426C785.159 16.3722 784.776 15.8494 784.27 15.4744C783.764 15.0937 783.139 14.9034 782.395 14.9034C781.628 14.9034 780.989 15.1023 780.477 15.5C779.966 15.892 779.58 16.4261 779.318 17.1023C779.063 17.7784 778.935 18.5341 778.935 19.3693C778.935 20.2273 779.065 20.9801 779.327 21.6278C779.588 22.2756 779.974 22.7812 780.486 23.1449C781.003 23.5085 781.639 23.6903 782.395 23.6903ZM791.744 26V12.9091H794.293V26H791.744ZM793.031 10.8892C792.588 10.8892 792.207 10.7415 791.889 10.446C791.577 10.1449 791.42 9.78693 791.42 9.37216C791.42 8.9517 791.577 8.59375 791.889 8.29829C792.207 7.99716 792.588 7.84659 793.031 7.84659C793.474 7.84659 793.852 7.99716 794.165 8.29829C794.483 8.59375 794.642 8.9517 794.642 9.37216C794.642 9.78693 794.483 10.1449 794.165 10.446C793.852 10.7415 793.474 10.8892 793.031 10.8892ZM800.269 18.2273V26H797.721V12.9091H800.167V15.0398H800.329C800.63 14.3466 801.102 13.7898 801.744 13.3693C802.391 12.9489 803.207 12.7386 804.19 12.7386C805.082 12.7386 805.863 12.9261 806.533 13.3011C807.204 13.6705 807.724 14.2216 808.093 14.9545C808.462 15.6875 808.647 16.5937 808.647 17.6733V26H806.099V17.9801C806.099 17.0312 805.852 16.2898 805.357 15.7557C804.863 15.2159 804.184 14.946 803.32 14.946C802.729 14.946 802.204 15.0739 801.744 15.3295C801.289 15.5852 800.928 15.9602 800.661 16.4545C800.4 16.9432 800.269 17.5341 800.269 18.2273ZM817.553 31.1818C816.513 31.1818 815.619 31.0455 814.869 30.7727C814.124 30.5 813.516 30.1392 813.045 29.6903C812.573 29.2415 812.221 28.75 811.988 28.2159L814.178 27.3125C814.332 27.5625 814.536 27.8267 814.792 28.1051C815.053 28.3892 815.406 28.6307 815.849 28.8295C816.298 29.0284 816.874 29.1278 817.579 29.1278C818.545 29.1278 819.343 28.892 819.974 28.4205C820.604 27.9545 820.92 27.2102 820.92 26.1875V23.6136H820.758C820.604 23.892 820.383 24.2017 820.093 24.5426C819.809 24.8835 819.417 25.179 818.917 25.429C818.417 25.679 817.766 25.804 816.965 25.804C815.931 25.804 814.999 25.5625 814.17 25.0795C813.346 24.5909 812.692 23.8722 812.21 22.9233C811.732 21.9687 811.494 20.7955 811.494 19.4034C811.494 18.0114 811.729 16.8182 812.201 15.8239C812.678 14.8295 813.332 14.0682 814.161 13.5398C814.991 13.0057 815.931 12.7386 816.982 12.7386C817.795 12.7386 818.451 12.875 818.951 13.1477C819.451 13.4148 819.84 13.7273 820.119 14.0852C820.403 14.4432 820.621 14.7585 820.775 15.0312H820.962V12.9091H823.46V26.2898C823.46 27.4148 823.198 28.3381 822.675 29.0597C822.153 29.7813 821.445 30.3153 820.553 30.6619C819.667 31.0085 818.667 31.1818 817.553 31.1818ZM817.528 23.6903C818.261 23.6903 818.88 23.5199 819.386 23.179C819.897 22.8324 820.283 22.3381 820.545 21.696C820.812 21.0483 820.945 20.2727 820.945 19.3693C820.945 18.4886 820.815 17.7131 820.553 17.0426C820.292 16.3722 819.908 15.8494 819.403 15.4744C818.897 15.0937 818.272 14.9034 817.528 14.9034C816.761 14.9034 816.121 15.1023 815.61 15.5C815.099 15.892 814.712 16.4261 814.451 17.1023C814.195 17.7784 814.067 18.5341 814.067 19.3693C814.067 20.2273 814.198 20.9801 814.46 21.6278C814.721 22.2756 815.107 22.7812 815.619 23.1449C816.136 23.5085 816.772 23.6903 817.528 23.6903ZM832.572 10.8125V8.54545H846.081V10.8125H840.635V26H838.01V10.8125H832.572ZM852.605 26.2642C851.315 26.2642 850.205 25.9886 849.273 25.4375C848.347 24.8807 847.631 24.0994 847.125 23.0938C846.625 22.0824 846.375 20.8977 846.375 19.5398C846.375 18.1989 846.625 17.017 847.125 15.9943C847.631 14.9716 848.335 14.1733 849.239 13.5994C850.148 13.0256 851.21 12.7386 852.426 12.7386C853.165 12.7386 853.881 12.8608 854.574 13.1051C855.267 13.3494 855.889 13.733 856.44 14.2557C856.991 14.7784 857.426 15.4574 857.744 16.2926C858.063 17.1222 858.222 18.1307 858.222 19.3182V20.2216H847.815V18.3125H855.724C855.724 17.642 855.588 17.0483 855.315 16.5312C855.043 16.0085 854.659 15.5966 854.165 15.2955C853.676 14.9943 853.102 14.8438 852.443 14.8438C851.727 14.8438 851.102 15.0199 850.568 15.3722C850.04 15.7187 849.631 16.1733 849.341 16.7358C849.057 17.2926 848.915 17.8977 848.915 18.5511V20.0426C848.915 20.9176 849.068 21.6619 849.375 22.2756C849.688 22.8892 850.122 23.358 850.679 23.6818C851.236 24 851.886 24.1591 852.631 24.1591C853.114 24.1591 853.554 24.0909 853.952 23.9545C854.349 23.8125 854.693 23.6023 854.983 23.3239C855.273 23.0455 855.494 22.7017 855.648 22.2926L858.06 22.7273C857.866 23.4375 857.52 24.0597 857.02 24.5938C856.526 25.1222 855.903 25.5341 855.153 25.8295C854.409 26.1193 853.56 26.2642 852.605 26.2642ZM866.563 26.2642C865.296 26.2642 864.205 25.9773 863.29 25.4034C862.381 24.8239 861.683 24.0256 861.194 23.0085C860.705 21.9915 860.461 20.8267 860.461 19.5142C860.461 18.1847 860.711 17.0114 861.211 15.9943C861.711 14.9716 862.415 14.1733 863.325 13.5994C864.234 13.0256 865.305 12.7386 866.538 12.7386C867.532 12.7386 868.418 12.9233 869.197 13.2926C869.975 13.6562 870.603 14.1676 871.08 14.8267C871.563 15.4858 871.85 16.2557 871.941 17.1364H869.461C869.325 16.5227 869.012 15.9943 868.523 15.5511C868.04 15.108 867.393 14.8864 866.58 14.8864C865.87 14.8864 865.248 15.0739 864.714 15.4489C864.185 15.8182 863.773 16.3466 863.478 17.0341C863.183 17.7159 863.035 18.5227 863.035 19.4545C863.035 20.4091 863.18 21.233 863.469 21.9261C863.759 22.6193 864.168 23.1562 864.697 23.5369C865.231 23.9176 865.859 24.108 866.58 24.108C867.063 24.108 867.501 24.0199 867.893 23.8438C868.29 23.6619 868.623 23.4034 868.89 23.0682C869.163 22.733 869.353 22.3295 869.461 21.858H871.941C871.85 22.7045 871.575 23.4602 871.114 24.125C870.654 24.7898 870.038 25.3125 869.265 25.6932C868.498 26.0739 867.597 26.2642 866.563 26.2642ZM877.214 18.2273V26H874.666V8.54545H877.18V15.0398H877.342C877.649 14.3352 878.118 13.7756 878.749 13.3608C879.379 12.946 880.203 12.7386 881.22 12.7386C882.118 12.7386 882.902 12.9233 883.572 13.2926C884.249 13.6619 884.771 14.2131 885.141 14.946C885.516 15.6733 885.703 16.5824 885.703 17.6733V26H883.155V17.9801C883.155 17.0199 882.908 16.2756 882.413 15.7472C881.919 15.2131 881.232 14.946 880.351 14.946C879.749 14.946 879.209 15.0739 878.732 15.3295C878.26 15.5852 877.888 15.9602 877.615 16.4545C877.348 16.9432 877.214 17.5341 877.214 18.2273ZM891.652 18.2273V26H889.104V12.9091H891.55V15.0398H891.712C892.013 14.3466 892.484 13.7898 893.126 13.3693C893.774 12.9489 894.589 12.7386 895.572 12.7386C896.464 12.7386 897.246 12.9261 897.916 13.3011C898.587 13.6705 899.107 14.2216 899.476 14.9545C899.845 15.6875 900.03 16.5937 900.03 17.6733V26H897.482V17.9801C897.482 17.0312 897.234 16.2898 896.74 15.7557C896.246 15.2159 895.567 14.946 894.703 14.946C894.112 14.946 893.587 15.0739 893.126 15.3295C892.672 15.5852 892.311 15.9602 892.044 16.4545C891.783 16.9432 891.652 17.5341 891.652 18.2273ZM903.447 26V12.9091H905.996V26H903.447ZM904.734 10.8892C904.291 10.8892 903.911 10.7415 903.592 10.446C903.28 10.1449 903.124 9.78693 903.124 9.37216C903.124 8.9517 903.28 8.59375 903.592 8.29829C903.911 7.99716 904.291 7.84659 904.734 7.84659C905.178 7.84659 905.555 7.99716 905.868 8.29829C906.186 8.59375 906.345 8.9517 906.345 9.37216C906.345 9.78693 906.186 10.1449 905.868 10.446C905.555 10.7415 905.178 10.8892 904.734 10.8892ZM918.262 30.9091V23.9631H918.109C917.955 24.2415 917.734 24.5597 917.444 24.9176C917.16 25.2756 916.768 25.5881 916.268 25.8551C915.768 26.1222 915.12 26.2557 914.325 26.2557C913.268 26.2557 912.325 25.9858 911.495 25.446C910.671 24.9006 910.023 24.125 909.552 23.1193C909.086 22.108 908.853 20.8949 908.853 19.4801C908.853 18.0653 909.089 16.8551 909.56 15.8494C910.038 14.8437 910.691 14.0739 911.521 13.5398C912.35 13.0057 913.29 12.7386 914.342 12.7386C915.154 12.7386 915.808 12.875 916.302 13.1477C916.802 13.4148 917.188 13.7273 917.461 14.0852C917.739 14.4432 917.955 14.7585 918.109 15.0312H918.322V12.9091H920.81V30.9091H918.262ZM914.887 24.0824C915.62 24.0824 916.239 23.8892 916.745 23.5028C917.256 23.1108 917.643 22.5682 917.904 21.875C918.171 21.1818 918.305 20.375 918.305 19.4545C918.305 18.5455 918.174 17.75 917.913 17.0682C917.651 16.3864 917.268 15.8551 916.762 15.4744C916.256 15.0937 915.631 14.9034 914.887 14.9034C914.12 14.9034 913.481 15.1023 912.969 15.5C912.458 15.8977 912.072 16.4403 911.81 17.1278C911.555 17.8153 911.427 18.5909 911.427 19.4545C911.427 20.3295 911.558 21.1165 911.819 21.8153C912.08 22.5142 912.467 23.0682 912.978 23.4773C913.495 23.8807 914.131 24.0824 914.887 24.0824ZM932.529 20.571V12.9091H935.086V26H932.58V23.733H932.444C932.143 24.4318 931.66 25.0142 930.995 25.4801C930.336 25.9403 929.515 26.1705 928.532 26.1705C927.691 26.1705 926.947 25.9858 926.299 25.6165C925.657 25.2415 925.151 24.6875 924.782 23.9545C924.418 23.2216 924.237 22.3153 924.237 21.2358V12.9091H926.785V20.929C926.785 21.821 927.032 22.5312 927.526 23.0597C928.021 23.5881 928.663 23.8523 929.452 23.8523C929.93 23.8523 930.404 23.733 930.876 23.4943C931.353 23.2557 931.748 22.8949 932.06 22.4119C932.379 21.929 932.535 21.3153 932.529 20.571ZM944.152 26.2642C942.862 26.2642 941.751 25.9886 940.82 25.4375C939.893 24.8807 939.178 24.0994 938.672 23.0938C938.172 22.0824 937.922 20.8977 937.922 19.5398C937.922 18.1989 938.172 17.017 938.672 15.9943C939.178 14.9716 939.882 14.1733 940.786 13.5994C941.695 13.0256 942.757 12.7386 943.973 12.7386C944.712 12.7386 945.428 12.8608 946.121 13.1051C946.814 13.3494 947.436 13.733 947.987 14.2557C948.538 14.7784 948.973 15.4574 949.291 16.2926C949.609 17.1222 949.768 18.1307 949.768 19.3182V20.2216H939.362V18.3125H947.271C947.271 17.642 947.135 17.0483 946.862 16.5312C946.589 16.0085 946.206 15.5966 945.712 15.2955C945.223 14.9943 944.649 14.8438 943.99 14.8438C943.274 14.8438 942.649 15.0199 942.115 15.3722C941.587 15.7187 941.178 16.1733 940.888 16.7358C940.604 17.2926 940.462 17.8977 940.462 18.5511V20.0426C940.462 20.9176 940.615 21.6619 940.922 22.2756C941.234 22.8892 941.669 23.358 942.226 23.6818C942.783 24 943.433 24.1591 944.178 24.1591C944.661 24.1591 945.101 24.0909 945.499 23.9545C945.896 23.8125 946.24 23.6023 946.53 23.3239C946.82 23.0455 947.041 22.7017 947.195 22.2926L949.607 22.7273C949.413 23.4375 949.067 24.0597 948.567 24.5938C948.072 25.1222 947.45 25.5341 946.7 25.8295C945.956 26.1193 945.107 26.2642 944.152 26.2642Z" fill="black"/>
<g clip-path="url(#clip1_1214_72240)">
<path d="M975 24.5C979.142 24.5 982.5 21.1421 982.5 17C982.5 12.8579 979.142 9.5 975 9.5C970.858 9.5 967.5 12.8579 967.5 17C967.5 21.1421 970.858 24.5 975 24.5Z" stroke="#BDBDBD" stroke-width="1.5" stroke-linecap="round" stroke-linejoin="round"/>
<path d="M975 20V17M975 14H975.008" stroke="#BDBDBD" stroke-width="1.5" stroke-linecap="round" stroke-linejoin="round"/>
</g>
<defs>
<linearGradient id="paint0_linear_1214_72240" x1="27" y1="4.98779" x2="54.7882" y2="10.7579" gradientUnits="userSpaceOnUse">
<stop stop-color="#369D9C"/>
<stop offset="1" stop-color="#28814D"/>
</linearGradient>
<clipPath id="clip0_1214_72240">
<rect width="24" height="24" fill="white" transform="translate(27 5)"/>
</clipPath>
<clipPath id="clip1_1214_72240">
<rect width="18" height="18" fill="white" transform="translate(966 8)"/>
</clipPath>
</defs>
</svg>
