<svg width="28" height="32" viewBox="0 0 28 32" fill="none" xmlns="http://www.w3.org/2000/svg">
<path fill-rule="evenodd" clip-rule="evenodd" d="M21.2922 10.0742H6.70775C5.90266 10.0742 5.25 10.811 5.25 11.72V24.8918C5.25 27.6197 7.20875 29.831 9.625 29.831H18.375C19.5353 29.831 20.6481 29.3107 21.4686 28.3844C22.2891 27.4581 22.75 26.2018 22.75 24.8918V11.72C22.75 10.811 22.0973 10.0742 21.2922 10.0742Z" stroke="#FF9A9A" strokeWidth="2" strokeLinecap="round" strokeLinejoin="round"/>
<path fill-rule="evenodd" clip-rule="evenodd" d="M19.25 6.12324L17.983 3.26443C17.6868 2.59521 17.0812 2.17227 16.4185 2.17188H11.5815C10.9188 2.17227 10.3132 2.59521 10.017 3.26443L8.75 6.12324H19.25Z" stroke="#FF9A9A" strokeWidth="2" strokeLinecap="round" strokeLinejoin="round"/>
<path d="M12.082 16.6606C12.082 16.1083 11.6343 15.6606 11.082 15.6606C10.5297 15.6606 10.082 16.1083 10.082 16.6606H12.082ZM10.082 23.2455C10.082 23.7978 10.5297 24.2455 11.082 24.2455C11.6343 24.2455 12.082 23.7978 12.082 23.2455H10.082ZM17.918 16.6606C17.918 16.1083 17.4703 15.6606 16.918 15.6606C16.3657 15.6606 15.918 16.1083 15.918 16.6606H17.918ZM15.918 23.2455C15.918 23.7978 16.3657 24.2455 16.918 24.2455C17.4703 24.2455 17.918 23.7978 17.918 23.2455H15.918ZM19.25 5.12109C18.6977 5.12109 18.25 5.56881 18.25 6.12109C18.25 6.67338 18.6977 7.12109 19.25 7.12109V5.12109ZM22.75 7.12109C23.3023 7.12109 23.75 6.67338 23.75 6.12109C23.75 5.56881 23.3023 5.12109 22.75 5.12109V7.12109ZM8.75 7.12109C9.30228 7.12109 9.75 6.67338 9.75 6.12109C9.75 5.56881 9.30228 5.12109 8.75 5.12109V7.12109ZM5.25 5.12109C4.69772 5.12109 4.25 5.56881 4.25 6.12109C4.25 6.67338 4.69772 7.12109 5.25 7.12109V5.12109ZM10.082 16.6606V23.2455H12.082V16.6606H10.082ZM15.918 16.6606V23.2455H17.918V16.6606H15.918ZM19.25 7.12109H22.75V5.12109H19.25V7.12109ZM8.75 5.12109H5.25V7.12109H8.75V5.12109Z" fill="#FF9A9A"/>
</svg>
