<svg width="20" height="21" viewBox="0 0 20 21" fill="none" xmlns="http://www.w3.org/2000/svg">
<path fillRule="evenodd" clip-rule="evenodd" d="M5.368 6.79442C5.782 6.79442 6.118 7.13042 6.118 7.54442C6.118 7.95842 5.782 8.29442 5.368 8.29442H4.435C2.816 8.29442 1.5 9.61042 1.5 11.2284V16.1034C1.5 17.7224 2.816 19.0384 4.435 19.0384H15.565C17.183 19.0384 18.5 17.7224 18.5 16.1034V11.2194C18.5 9.60642 17.188 8.29442 15.576 8.29442H14.633C14.219 8.29442 13.883 7.95842 13.883 7.54442C13.883 7.13042 14.219 6.79442 14.633 6.79442H15.576C18.015 6.79442 20 8.77942 20 11.2194V16.1034C20 18.5494 18.01 20.5384 15.565 20.5384H4.435C1.99 20.5384 0 18.5494 0 16.1034V11.2284C0 8.78342 1.99 6.79442 4.435 6.79442H5.368ZM10.5306 0.222016L13.4466 3.15002C13.7386 3.44402 13.7376 3.91802 13.4446 4.21002C13.1506 4.50202 12.6766 4.50202 12.3846 4.20802L10.749 2.56677L10.7496 13.5413H9.2496L9.249 2.56677L7.6156 4.20802C7.4696 4.35602 7.2766 4.42902 7.0846 4.42902C6.8936 4.42902 6.7016 4.35602 6.5556 4.21002C6.2626 3.91802 6.2606 3.44402 6.5536 3.15002L9.4686 0.222016C9.7496 -0.0609844 10.2496 -0.0609844 10.5306 0.222016Z" fill="#717171"/>
</svg>
