<svg width="25" height="26" viewBox="0 0 25 26" fill="none" xmlns="http://www.w3.org/2000/svg">
<path d="M8.125 8.23535C7.95924 8.23535 7.80027 8.3012 7.68306 8.41841C7.56585 8.53562 7.5 8.69459 7.5 8.86035C7.5 9.02611 7.56585 9.18508 7.68306 9.30229C7.80027 9.4195 7.95924 9.48535 8.125 9.48535H16.875C17.0408 9.48535 17.1997 9.4195 17.3169 9.30229C17.4342 9.18508 17.5 9.02611 17.5 8.86035C17.5 8.69459 17.4342 8.53562 17.3169 8.41841C17.1997 8.3012 17.0408 8.23535 16.875 8.23535H8.125ZM7.5 4.48535C6.50544 4.48535 5.55161 4.88044 4.84835 5.5837C4.14509 6.28696 3.75 7.24079 3.75 8.23535V18.2354C3.75 19.2299 4.14509 20.1837 4.84835 20.887C5.55161 21.5903 6.50544 21.9854 7.5 21.9854H17.5C18.4946 21.9854 19.4484 21.5903 20.1517 20.887C20.8549 20.1837 21.25 19.2299 21.25 18.2354V8.23535C21.25 7.24079 20.8549 6.28696 20.1517 5.5837C19.4484 4.88044 18.4946 4.48535 17.5 4.48535H7.5ZM5 8.23535C5 7.57231 5.26339 6.93643 5.73223 6.46758C6.20107 5.99874 6.83696 5.73535 7.5 5.73535H17.5C18.163 5.73535 18.7989 5.99874 19.2678 6.46758C19.7366 6.93643 20 7.57231 20 8.23535V18.2354C20 18.8984 19.7366 19.5343 19.2678 20.0031C18.7989 20.472 18.163 20.7354 17.5 20.7354H7.5C6.83696 20.7354 6.20107 20.472 5.73223 20.0031C5.26339 19.5343 5 18.8984 5 18.2354V8.23535Z" fill="url(#paint0_linear_1214_64762)"/>
<defs>
<linearGradient id="paint0_linear_1214_64762" x1="3.75" y1="4.48535" x2="24.0112" y2="8.6946" gradientUnits="userSpaceOnUse">
<stop stop-color="#369D9C"/>
<stop offset="1" stop-color="#28814D"/>
</linearGradient>
</defs>
</svg>
