<svg width="24" height="24" viewBox="0 0 24 24" fill="none" xmlns="http://www.w3.org/2000/svg">
<path d="M3.75 5H9.18C9.50918 5.00005 9.83329 4.91884 10.1236 4.76359C10.4138 4.60834 10.6613 4.38383 10.844 4.11L11.656 2.89C11.8387 2.61617 12.0862 2.39166 12.3764 2.23641C12.6667 2.08116 12.9908 1.99995 13.32 2H17.808C18.2279 1.9999 18.6372 2.13198 18.9779 2.37752C19.3186 2.62305 19.5733 2.96959 19.706 3.368L20.25 5M21.75 5H8.75" stroke="url(#paint0_linear_1214_64253)" stroke-width="1.5" stroke-linecap="round" stroke-linejoin="round"/>
<path d="M20.25 5L19.75 11.5M5.25 5L5.855 15.536C6.009 18.106 6.087 19.392 6.729 20.316C7.046 20.774 7.455 21.159 7.929 21.449C8.511 21.805 9.213 21.945 10.25 22M11.75 15.498L12.886 16.964C13.0923 16.1938 13.5242 15.5028 14.1261 14.9797C14.728 14.4567 15.4725 14.1255 16.264 14.0287C17.0555 13.9318 17.8579 14.0738 18.5681 14.4362C19.2783 14.7987 19.864 15.3652 20.25 16.063M21.75 20.498L20.614 19.034C20.4093 19.7982 19.9826 20.4846 19.3878 21.0063C18.793 21.528 18.0568 21.8616 17.2724 21.9649C16.488 22.0682 15.6906 21.9366 14.981 21.5866C14.2714 21.2367 13.6816 20.6842 13.286 19.999" stroke="url(#paint1_linear_1214_64253)" stroke-width="1.5" stroke-linecap="round" stroke-linejoin="round"/>
<defs>
<linearGradient id="paint0_linear_1214_64253" x1="3.75" y1="2" x2="12.2627" y2="12.6111" gradientUnits="userSpaceOnUse">
<stop stop-color="#369D9C"/>
<stop offset="1" stop-color="#28814D"/>
</linearGradient>
<linearGradient id="paint1_linear_1214_64253" x1="5.25" y1="5" x2="24.3993" y2="8.86125" gradientUnits="userSpaceOnUse">
<stop stop-color="#369D9C"/>
<stop offset="1" stop-color="#28814D"/>
</linearGradient>
</defs>
</svg>
