<svg width="24" height="24" viewBox="0 0 24 24" fill="none" xmlns="http://www.w3.org/2000/svg">
<g clip-path="url(#clip0_1214_71972)">
<path d="M0 12.0004C0 11.7352 0.105357 11.4808 0.292893 11.2933C0.48043 11.1058 0.734784 11.0004 1 11.0004H7C7.26522 11.0004 7.51957 11.1058 7.70711 11.2933C7.89464 11.4808 8 11.7352 8 12.0004C8 12.2656 7.89464 12.52 7.70711 12.7075C7.51957 12.895 7.26522 13.0004 7 13.0004H1C0.734784 13.0004 0.48043 12.895 0.292893 12.7075C0.105357 12.52 0 12.2656 0 12.0004ZM20.886 11.1074C21.3845 10.4845 21.7263 9.75125 21.8829 8.96901C22.0395 8.18677 22.0063 7.37839 21.786 6.61165C21.5657 5.84491 21.1648 5.14215 20.6169 4.56232C20.069 3.98248 19.39 3.54246 18.637 3.27915C17.8839 3.01585 17.0787 2.93693 16.2889 3.04902C15.499 3.16111 14.7476 3.46094 14.0975 3.92336C13.4474 4.38579 12.9177 4.99733 12.5528 5.70672C12.1878 6.4161 11.9983 7.20265 12 8.0004C12 8.26562 12.1054 8.51997 12.2929 8.70751C12.4804 8.89505 12.7348 9.0004 13 9.0004C13.2652 9.0004 13.5196 8.89505 13.7071 8.70751C13.8946 8.51997 14 8.26562 14 8.0004C14 7.40706 14.1759 6.82704 14.5056 6.33369C14.8352 5.84034 15.3038 5.45583 15.8519 5.22876C16.4001 5.0017 17.0033 4.94229 17.5853 5.05805C18.1672 5.1738 18.7018 5.45952 19.1213 5.87908C19.5409 6.29864 19.8266 6.83319 19.9424 7.41513C20.0581 7.99707 19.9987 8.60027 19.7716 9.14845C19.5446 9.69663 19.1601 10.1652 18.6667 10.4948C18.1734 10.8245 17.5933 11.0004 17 11.0004H11C10.7348 11.0004 10.4804 11.1058 10.2929 11.2933C10.1054 11.4808 10 11.7352 10 12.0004C10 12.2656 10.1054 12.52 10.2929 12.7075C10.4804 12.895 10.7348 13.0004 11 13.0004H20C20.5304 13.0004 21.0391 13.2111 21.4142 13.5862C21.7893 13.9613 22 14.47 22 15.0004C21.991 17.3374 18.719 17.6484 17.943 15.6674C17.8547 15.4173 17.6706 15.2125 17.4313 15.0981C17.192 14.9837 16.9171 14.9691 16.667 15.0574C16.4169 15.1457 16.2121 15.3298 16.0977 15.5691C15.9833 15.8084 15.9687 16.0833 16.057 16.3334C17.615 20.4154 23.952 19.5794 24 15.0004C23.9983 14.0948 23.6893 13.2166 23.1236 12.5095C22.558 11.8023 21.7691 11.308 20.886 11.1074ZM11 16.0004H1C0.734784 16.0004 0.48043 16.1058 0.292893 16.2933C0.105357 16.4808 0 16.7352 0 17.0004C0 17.2656 0.105357 17.52 0.292893 17.7075C0.48043 17.895 0.734784 18.0004 1 18.0004H11C11.5304 18.0004 12.0391 18.2111 12.4142 18.5862C12.7893 18.9613 13 19.47 13 20.0004C12.991 22.3374 9.719 22.6484 8.943 20.6674C8.89927 20.5436 8.83158 20.4296 8.74378 20.3319C8.65599 20.2342 8.54982 20.1548 8.43134 20.0981C8.31285 20.0415 8.18436 20.0087 8.05322 20.0018C7.92207 19.9948 7.79084 20.0137 7.667 20.0574C7.54316 20.1011 7.42915 20.1688 7.33148 20.2566C7.2338 20.3444 7.15438 20.4506 7.09773 20.5691C7.04109 20.6876 7.00834 20.816 7.00135 20.9472C6.99436 21.0783 7.01327 21.2096 7.057 21.3334C8.615 25.4154 14.952 24.5794 15 20.0004C15 18.9395 14.5786 17.9221 13.8284 17.172C13.0783 16.4218 12.0609 16.0004 11 16.0004ZM1 8.0004H7C8.06087 8.0004 9.07828 7.57897 9.82843 6.82883C10.5786 6.07868 11 5.06127 11 4.0004C10.952 -0.580598 4.613 -1.4136 3.057 2.6674C2.96868 2.9175 2.98333 3.19244 3.09773 3.43174C3.21213 3.67103 3.4169 3.85509 3.667 3.9434C3.9171 4.03172 4.19204 4.01707 4.43133 3.90267C4.67063 3.78827 4.85468 3.5835 4.943 3.3334C5.72 1.3514 8.991 1.6634 9 4.0004C9 4.53084 8.78929 5.03954 8.41421 5.41462C8.03914 5.78969 7.53043 6.0004 7 6.0004H1C0.734784 6.0004 0.48043 6.10576 0.292893 6.2933C0.105357 6.48083 0 6.73519 0 7.0004C0 7.26562 0.105357 7.51997 0.292893 7.70751C0.48043 7.89504 0.734784 8.0004 1 8.0004Z" fill="url(#paint0_linear_1214_71972)"/>
</g>
<defs>
<linearGradient id="paint0_linear_1214_71972" x1="0" y1="0.0351563" x2="27.78" y2="5.82326" gradientUnits="userSpaceOnUse">
<stop stop-color="#369D9C"/>
<stop offset="1" stop-color="#28814D"/>
</linearGradient>
<clipPath id="clip0_1214_71972">
<rect width="24" height="24" fill="white"/>
</clipPath>
</defs>
</svg>
