<svg width="116" height="82" viewBox="0 0 116 82" fill="none" xmlns="http://www.w3.org/2000/svg">
<path d="M27.2315 70.2702C25.4705 70.2688 23.7408 69.8047 22.2155 68.9244C20.6903 68.044 19.4232 66.7784 18.5411 65.2542C17.659 63.7301 17.1929 62.0008 17.1895 60.2398C17.186 58.4788 17.6454 56.7478 18.5215 55.2202L47.3115 5.00018C48.1862 3.47295 49.4506 2.20532 50.9756 1.32684C52.5007 0.448369 54.2316 -0.00944463 55.9915 0.000182239C57.7516 -0.0104799 59.483 0.446891 61.0082 1.32547C62.5334 2.20405 63.7977 3.47225 64.6715 5.00018L93.7715 55.0502C94.6739 56.5721 95.1563 58.3061 95.1696 60.0754C95.1828 61.8446 94.7264 63.5857 93.847 65.121C92.9675 66.6562 91.6965 67.9306 90.1636 68.8142C88.6307 69.6977 86.8908 70.1587 85.1215 70.1502L27.2215 70.3302L27.2315 70.2702ZM56.0315 2.95018C54.7941 2.94931 53.5786 3.27648 52.5088 3.89833C51.439 4.52018 50.5531 5.4145 49.9415 6.49017L21.1515 56.7102C20.5363 57.7819 20.2135 58.9964 20.2156 60.2321C20.2177 61.4678 20.5446 62.6813 21.1635 63.7509C21.7823 64.8205 22.6714 65.7086 23.7417 66.3263C24.812 66.9439 26.0258 67.2695 27.2615 67.2702L85.1615 67.0902C86.4043 67.101 87.6275 66.7807 88.7055 66.1623C89.7835 65.5439 90.6775 64.6497 91.2955 63.5714C91.9135 62.4932 92.2333 61.2699 92.2221 60.0271C92.2108 58.7844 91.8689 57.5671 91.2315 56.5002L62.1315 6.50018C61.5203 5.42117 60.6335 4.52388 59.5617 3.90013C58.4899 3.27638 57.2716 2.94854 56.0315 2.95018Z" fill="black"/>
<path d="M52.0215 54.0116C52.0198 53.5115 52.1192 53.0163 52.3137 52.5556C52.5083 52.095 52.7939 51.6784 53.1536 51.3309C53.5132 50.9834 53.9393 50.7123 54.4064 50.5336C54.8734 50.355 55.3718 50.2727 55.8715 50.2916C56.3752 50.2617 56.8797 50.3345 57.3543 50.5058C57.8289 50.677 58.2637 50.9429 58.6323 51.2875C59.0009 51.632 59.2956 52.048 59.4983 52.51C59.7011 52.972 59.8078 53.4705 59.8118 53.975C59.8159 54.4795 59.7173 54.9796 59.522 55.4449C59.3267 55.9101 59.0388 56.3307 58.6759 56.6812C58.3129 57.0316 57.8824 57.3046 57.4106 57.4835C56.9388 57.6623 56.4356 57.7433 55.9315 57.7216C55.4288 57.7445 54.9266 57.6656 54.455 57.4899C53.9834 57.3141 53.5522 57.0449 53.1871 56.6985C52.8221 56.3521 52.5306 55.9356 52.3304 55.4739C52.1301 55.0122 52.025 54.5148 52.0215 54.0116ZM52.1415 23.8516H59.2415L58.2415 46.3016H53.4915L52.1415 23.8516Z" fill="black"/>
<path d="M19.852 81.5895C19.4012 81.4909 18.9645 81.3364 18.552 81.1295C17.3983 80.6338 16.2935 80.0312 15.252 79.3295C11.7731 77.0012 9.03475 73.7242 7.3616 69.8869C5.68845 66.0497 5.15068 61.8131 5.81202 57.6795C5.99704 56.4396 6.30178 55.2206 6.72201 54.0395C6.85641 53.5966 7.04094 53.1706 7.27202 52.7695C6.80099 54.4115 6.43359 56.0815 6.17201 57.7695C5.62519 61.8285 6.20218 65.9597 7.84018 69.7135C9.47817 73.4673 12.1144 76.6999 15.462 79.0595C16.8719 79.9924 18.338 80.8374 19.852 81.5895Z" fill="black"/>
<path d="M7.50145 80.3687C7.50145 80.3687 7.24145 80.2187 6.83145 79.8587C6.25415 79.3604 5.71901 78.8152 5.23146 78.2287C3.58437 76.3065 2.28798 74.1098 1.40146 71.7387C0.509257 69.3684 0.0355402 66.8612 0.00145223 64.3288C-0.00873767 63.5666 0.0347078 62.8048 0.131457 62.0488C0.144093 61.7649 0.201464 61.4847 0.301455 61.2188C0.391455 61.2188 0.301463 62.4187 0.371463 64.3187C0.629587 69.3004 2.42529 74.0797 5.51146 77.9987C6.74146 79.4887 7.56145 80.2987 7.50145 80.3687Z" fill="black"/>
<path d="M108.512 45.5898C108.686 45.9385 108.814 46.3083 108.892 46.6898C109.032 47.1185 109.142 47.5562 109.222 47.9998C109.354 48.5874 109.454 49.1816 109.522 49.7798C109.73 51.3306 109.793 52.8973 109.712 54.4598C109.598 56.3746 109.296 58.2737 108.812 60.1298C108.291 61.9785 107.594 63.7733 106.732 65.4898C106.015 66.8967 105.172 68.2355 104.212 69.4898C103.822 70.0298 103.402 70.4898 103.052 70.8698C102.759 71.225 102.442 71.5591 102.102 71.8698C101.837 72.1506 101.546 72.4051 101.232 72.6298C101.152 72.5498 102.362 71.4299 103.912 69.2999C104.819 68.0354 105.618 66.6974 106.302 65.2999C107.984 61.9152 108.98 58.2311 109.232 54.4598C109.333 52.9238 109.309 51.3821 109.162 49.8498C108.892 47.1498 108.412 45.5898 108.512 45.5898Z" fill="black"/>
<path d="M115.062 56.5898C115.233 57.4554 115.28 58.341 115.202 59.2198C115.052 63.4878 113.89 67.6591 111.812 71.3898C111.424 72.1796 110.926 72.9103 110.332 73.5598C110.668 72.7575 111.052 71.976 111.482 71.2198C113.349 67.4684 114.486 63.3961 114.832 59.2198C114.856 58.3394 114.933 57.4612 115.062 56.5898Z" fill="black"/>
</svg>
