<svg xmlns="http://www.w3.org/2000/svg" width="116" height="82" viewBox="0 0 116 82" fill="none">
  <path d="M27.6124 70.2702C25.8514 70.2688 24.1216 69.8047 22.5964 68.9244C21.0712 68.044 19.8041 66.7784 18.922 65.2542C18.0399 63.73 17.5738 62.0008 17.5703 60.2398C17.5669 58.4788 18.0262 56.7478 18.9024 55.2202L47.6924 5.00018C48.567 3.47295 49.8315 2.20532 51.3565 1.32684C52.8815 0.448369 54.6125 -0.00944463 56.3724 0.000182239C58.1325 -0.0104799 59.8638 0.446891 61.3891 1.32547C62.9143 2.20405 64.1785 3.47225 65.0524 5.00018L94.1524 55.0502C95.0547 56.5721 95.5372 58.3061 95.5504 60.0754C95.5637 61.8446 95.1073 63.5857 94.2278 65.121C93.3484 66.6562 92.0773 67.9306 90.5444 68.8142C89.0115 69.6977 87.2717 70.1587 85.5024 70.1502L27.6024 70.3302L27.6124 70.2702ZM56.4124 2.95018C55.175 2.94931 53.9595 3.27648 52.8897 3.89833C51.8199 4.52018 50.934 5.4145 50.3224 6.49017L21.5324 56.7102C20.9172 57.7819 20.5944 58.9964 20.5965 60.2321C20.5986 61.4678 20.9255 62.6813 21.5443 63.7509C22.1632 64.8205 23.0523 65.7086 24.1226 66.3263C25.1928 66.9439 26.4067 67.2694 27.6424 67.2702L85.5424 67.0902C86.7851 67.101 88.0084 66.7807 89.0864 66.1623C90.1644 65.5439 91.0583 64.6497 91.6763 63.5714C92.2944 62.4932 92.6142 61.2699 92.6029 60.0271C92.5917 58.7844 92.2498 57.5671 91.6124 56.5002L62.5124 6.50018C61.9012 5.42117 61.0143 4.52388 59.9425 3.90013C58.8707 3.27638 57.6525 2.94854 56.4124 2.95018Z" fill="url(#paint0_linear_5868_49096)"/>
  <path d="M52.4024 54.0116C52.4007 53.5115 52.5001 53.0163 52.6946 52.5556C52.8891 52.095 53.1748 51.6784 53.5344 51.3309C53.894 50.9834 54.3202 50.7123 54.7872 50.5336C55.2543 50.355 55.7527 50.2727 56.2524 50.2916C56.756 50.2617 57.2605 50.3345 57.7351 50.5058C58.2098 50.677 58.6446 50.9429 59.0132 51.2875C59.3818 51.632 59.6764 52.048 59.8792 52.51C60.082 52.972 60.1886 53.4705 60.1927 53.975C60.1968 54.4795 60.0982 54.9796 59.9029 55.4449C59.7076 55.9101 59.4197 56.3307 59.0567 56.6812C58.6937 57.0316 58.2633 57.3046 57.7915 57.4835C57.3197 57.6623 56.8165 57.7433 56.3124 57.7216C55.8096 57.7445 55.3074 57.6656 54.8359 57.4899C54.3643 57.3141 53.9331 57.0449 53.568 56.6985C53.2029 56.3521 52.9115 55.9356 52.7112 55.4739C52.5109 55.0122 52.4059 54.5148 52.4024 54.0116ZM52.5224 23.8516H59.6224L58.6224 46.3016H53.8724L52.5224 23.8516Z" fill="url(#paint1_linear_5868_49096)"/>
  <path d="M20.2329 81.5895C19.7821 81.4909 19.3454 81.3364 18.9329 81.1295C17.7791 80.6338 16.6743 80.0312 15.6329 79.3295C12.154 77.0012 9.41561 73.7242 7.74246 69.8869C6.06931 66.0497 5.53154 61.8131 6.19288 57.6795C6.3779 56.4396 6.68264 55.2206 7.10287 54.0395C7.23727 53.5966 7.4218 53.1706 7.65287 52.7695C7.18185 54.4115 6.81445 56.0815 6.55287 57.7695C6.00605 61.8285 6.58304 65.9597 8.22104 69.7135C9.85903 73.4673 12.4953 76.6999 15.8429 79.0595C17.2527 79.9924 18.7189 80.8374 20.2329 81.5895Z" fill="url(#paint2_linear_5868_49096)"/>
  <path d="M7.88231 80.3687C7.88231 80.3687 7.62231 80.2188 7.21231 79.8587C6.63501 79.3604 6.09987 78.8152 5.61232 78.2287C3.96523 76.3065 2.66884 74.1098 1.78232 71.7387C0.890116 69.3684 0.4164 66.8612 0.382312 64.3288C0.372122 63.5666 0.415567 62.8048 0.512316 62.0488C0.524952 61.7649 0.582323 61.4847 0.682315 61.2188C0.772315 61.2188 0.682322 62.4187 0.752322 64.3187C1.01045 69.3004 2.80615 74.0797 5.89232 77.9987C7.12232 79.4887 7.94231 80.2987 7.88231 80.3687Z" fill="url(#paint3_linear_5868_49096)"/>
  <path d="M108.893 45.5898C109.067 45.9385 109.195 46.3083 109.273 46.6898C109.413 47.1185 109.523 47.5562 109.603 47.9998C109.735 48.5874 109.835 49.1816 109.903 49.7798C110.111 51.3306 110.174 52.8973 110.093 54.4598C109.979 56.3746 109.677 58.2737 109.193 60.1298C108.672 61.9785 107.975 63.7733 107.113 65.4898C106.396 66.8967 105.552 68.2355 104.593 69.4898C104.203 70.0298 103.783 70.4898 103.433 70.8698C103.14 71.225 102.823 71.5591 102.483 71.8698C102.218 72.1506 101.927 72.4051 101.613 72.6298C101.533 72.5498 102.743 71.4299 104.293 69.2999C105.2 68.0354 105.999 66.6974 106.683 65.2999C108.365 61.9152 109.361 58.2311 109.613 54.4598C109.714 52.9238 109.69 51.3821 109.543 49.8498C109.273 47.1498 108.793 45.5898 108.893 45.5898Z" fill="url(#paint4_linear_5868_49096)"/>
  <path d="M115.443 56.5898C115.614 57.4554 115.661 58.341 115.583 59.2198C115.433 63.4878 114.271 67.6591 112.193 71.3898C111.805 72.1796 111.307 72.9103 110.713 73.5598C111.049 72.7575 111.433 71.976 111.863 71.2198C113.73 67.4684 114.867 63.3961 115.213 59.2198C115.237 58.3394 115.314 57.4612 115.443 56.5898Z" fill="url(#paint5_linear_5868_49096)"/>
  <defs>
    <linearGradient id="paint0_linear_5868_49096" x1="17.5703" y1="0" x2="107.006" y2="20.6012" gradientUnits="userSpaceOnUse">
      <stop stop-color="#51ADAC"/>
      <stop offset="1" stop-color="#4FA874"/>
    </linearGradient>
    <linearGradient id="paint1_linear_5868_49096" x1="52.4023" y1="23.8516" x2="61.7899" y2="24.3001" gradientUnits="userSpaceOnUse">
      <stop stop-color="#51ADAC"/>
      <stop offset="1" stop-color="#4FA874"/>
    </linearGradient>
    <linearGradient id="paint2_linear_5868_49096" x1="5.91797" y1="52.7695" x2="23.0246" y2="54.5348" gradientUnits="userSpaceOnUse">
      <stop stop-color="#51ADAC"/>
      <stop offset="1" stop-color="#4FA874"/>
    </linearGradient>
    <linearGradient id="paint3_linear_5868_49096" x1="0.380859" y1="61.2188" x2="9.38479" y2="61.9518" gradientUnits="userSpaceOnUse">
      <stop stop-color="#51ADAC"/>
      <stop offset="1" stop-color="#4FA874"/>
    </linearGradient>
    <linearGradient id="paint4_linear_5868_49096" x1="101.609" y1="45.5898" x2="111.853" y2="46.2602" gradientUnits="userSpaceOnUse">
      <stop stop-color="#51ADAC"/>
      <stop offset="1" stop-color="#4FA874"/>
    </linearGradient>
    <linearGradient id="paint5_linear_5868_49096" x1="110.713" y1="56.5898" x2="116.618" y2="56.9445" gradientUnits="userSpaceOnUse">
      <stop stop-color="#51ADAC"/>
      <stop offset="1" stop-color="#4FA874"/>
    </linearGradient>
  </defs>
</svg>